<svg height="512pt" viewBox="0 -85 512 512" width="512pt" xmlns="http://www.w3.org/2000/svg"><path d="m503.464844 238.933594v42.667968c-.011719 4.707032-3.824219 8.519532-8.53125 8.53125h-25.855469l-76.542969 4.265626c-.003906 1.425781.082032 2.851562.253906 4.269531h-188.246093c.175781-1.417969.257812-2.84375.257812-4.269531h-76.800781c-.003906 1.425781.082031 2.851562.257812 4.269531h-102.65625v-213.335938c0-42.414062 34.382813-76.796875 76.796876-76.796875h290.136718c42.414063 0 76.792969 34.382813 76.796875 76.796875v136.535157c9.386719 0 34.132813 7.679687 34.132813 17.066406zm0 0" fill="#c81e1e"/><path d="m477.867188 238.933594v42.667968c-.015626 4.707032-3.828126 8.519532-8.535157 8.53125h-25.855469l-76.542968 4.265626c-.003906 1.425781.082031 2.851562.253906 4.269531h-188.242188c.171876-1.417969.257813-2.84375.253907-4.269531h-76.800781c0 1.425781.085937 2.851562.257812 4.269531h-77.054688v-213.335938c0-42.414062 34.382813-76.796875 76.796876-76.796875h264.535156c42.414062 0 76.796875 34.382813 76.800781 76.796875v136.535157c9.386719 0 34.132813 7.679687 34.132813 17.066406zm0 0" fill="#f44335"/><path d="m469.332031 162.132812v59.734376h-51.199219c-4.707031-.015626-8.519531-3.828126-8.53125-8.535157v-42.664062c.011719-4.707031 3.824219-8.519531 8.53125-8.535157zm0 0" fill="#00838f"/><path d="m443.734375 162.132812v59.734376h-25.601563c-4.707031-.015626-8.519531-3.828126-8.53125-8.535157v-42.664062c.011719-4.707031 3.824219-8.519531 8.53125-8.535157zm0 0" fill="#00bcd4"/><path d="m204.800781 294.398438c0 1.425781-.082031 2.851562-.257812 4.269531-2.160157 19.433593-18.589844 34.132812-38.144531 34.132812-19.550782 0-35.980469-14.699219-38.140626-34.132812-.175781-1.417969-.261718-2.84375-.257812-4.269531 0-21.207032 17.191406-38.398438 38.398438-38.398438 21.210937 0 38.402343 17.191406 38.402343 38.398438zm0 0" fill="#37474f"/><path d="m166.351562 307.199219c-6.496093.011719-11.964843-4.859375-12.699218-11.3125-.390625-3.617188.765625-7.234375 3.183594-9.953125 2.417968-2.722656 5.875-4.296875 9.515624-4.332032 3.410157-.042968 6.695313 1.289063 9.113282 3.699219 2.417968 2.40625 3.765625 5.6875 3.734375 9.097657-.199219 7.007812-5.84375 12.628906-12.847657 12.800781zm0 0" fill="#cfd8dc"/><path d="m469.332031 294.398438c.003907 1.425781-.082031 2.851562-.253906 4.269531-2.164063 19.433593-18.589844 34.132812-38.144531 34.132812-19.554688 0-35.980469-14.699219-38.144532-34.132812-.171874-1.417969-.257812-2.84375-.253906-4.269531-.003906-20.371094 15.910156-37.199219 36.253906-38.335938 20.339844-1.132812 38.027344 13.820312 40.289063 34.070312.171875 1.417969.257813 2.839844.253906 4.265626zm0 0" fill="#37474f"/><path d="m153.601562 51.199219h34.132813c4.710937 0 8.53125 3.820312 8.53125 8.535156v25.597656c0 4.714844-3.820313 8.535157-8.53125 8.535157h-34.132813c-4.714843 0-8.535156-3.820313-8.535156-8.535157v-25.597656c0-4.714844 3.820313-8.535156 8.535156-8.535156zm0 0" fill="#00bcd4"/><path d="m230.398438 51.199219h34.136718c4.710938 0 8.53125 3.820312 8.53125 8.535156v25.597656c0 4.714844-3.820312 8.535157-8.53125 8.535157h-34.136718c-4.710938 0-8.53125-3.820313-8.53125-8.535157v-25.597656c0-4.714844 3.820312-8.535156 8.53125-8.535156zm0 0" fill="#00bcd4"/><path d="m307.199219 51.199219h34.132812c4.714844 0 8.535157 3.820312 8.535157 8.535156v25.597656c0 4.714844-3.820313 8.535157-8.535157 8.535157h-34.132812c-4.710938 0-8.53125-3.820313-8.53125-8.535157v-25.597656c0-4.714844 3.820312-8.535156 8.53125-8.535156zm0 0" fill="#00bcd4"/><g fill="#00838f"><path d="m153.601562 170.667969h34.132813c4.710937 0 8.53125 3.820312 8.53125 8.53125v25.601562c0 4.710938-3.820313 8.53125-8.53125 8.53125h-34.132813c-4.714843 0-8.535156-3.820312-8.535156-8.53125v-25.601562c0-4.710938 3.820313-8.53125 8.535156-8.53125zm0 0"/><path d="m230.398438 170.667969h34.136718c4.710938 0 8.53125 3.820312 8.53125 8.53125v25.601562c0 4.710938-3.820312 8.53125-8.53125 8.53125h-34.136718c-4.710938 0-8.53125-3.820312-8.53125-8.53125v-25.601562c0-4.710938 3.820312-8.53125 8.53125-8.53125zm0 0"/><path d="m307.199219 170.667969h34.132812c4.714844 0 8.535157 3.820312 8.535157 8.53125v25.601562c0 4.710938-3.820313 8.53125-8.535157 8.53125h-34.132812c-4.710938 0-8.53125-3.820312-8.53125-8.53125v-25.601562c0-4.710938 3.820312-8.53125 8.53125-8.53125zm0 0"/></g><path d="m93.867188 51.199219h17.066406c4.710937 0 8.53125 3.820312 8.53125 8.535156v25.597656c0 4.714844-3.820313 8.535157-8.53125 8.535157h-34.132813c-4.714843 0-8.535156-3.820313-8.535156-8.535157v-8.53125c0-14.140625 11.460937-25.601562 25.601563-25.601562zm0 0" fill="#00bcd4"/><path d="m384 51.199219h17.066406c14.140625 0 25.601563 11.460937 25.601563 25.601562v8.53125c0 4.714844-3.820313 8.535157-8.535157 8.535157h-34.132812c-4.710938 0-8.535156-3.820313-8.535156-8.535157v-25.597656c0-4.714844 3.824218-8.535156 8.535156-8.535156zm0 0" fill="#00bcd4"/><path d="m110.933594 179.832031v105.660157c.167968 4.882812-3.648438 8.984374-8.535156 9.164062h-62.972657c-4.886719-.179688-8.703125-4.28125-8.535156-9.164062v-105.660157c-.167969-4.886719 3.648437-8.984375 8.535156-9.164062h62.972657c4.886718.179687 8.703124 4.277343 8.535156 9.164062zm0 0" fill="#bb193b"/><path d="m430.984375 307.152344c-6.460937 0-11.886719-4.851563-12.601563-11.269532-.394531-3.601562.75-7.195312 3.148438-9.90625 2.398438-2.710937 5.832031-4.28125 9.453125-4.328124 3.390625-.035157 6.65625 1.296874 9.054687 3.695312 2.398438 2.398438 3.730469 5.664062 3.695313 9.054688-.183594 6.964843-5.789063 12.566406-12.75 12.753906zm0 0" fill="#cfd8dc"/><path d="m469.09375 307.199219c-.359375 0-.71875-.019531-1.074219-.066407-4.675781-.585937-7.992187-4.847656-7.40625-9.523437.128907-1.066406.191407-2.136719.1875-3.210937 0-4.710938 3.820313-8.53125 8.53125-8.53125 4.714844 0 8.535157 3.820312 8.535157 8.53125 0 1.78125-.105469 3.558593-.320313 5.328124-.535156 4.261719-4.15625 7.464844-8.453125 7.472657zm0 0"/><path d="m469.332031 230.398438h-51.199219c-9.421874-.007813-17.058593-7.644532-17.066406-17.066407v-42.664062c.007813-9.421875 7.644532-17.058594 17.066406-17.066407h51.199219c4.714844 0 8.535157 3.820313 8.535157 8.53125v59.734376c0 2.261718-.898438 4.433593-2.5 6.035156-1.601563 1.597656-3.769532 2.496094-6.035157 2.496094zm-51.199219-59.730469v42.664062h42.667969v-42.664062zm0 0"/><path d="m25.601562 307.199219h-17.066406c-4.714844 0-8.535156-3.820313-8.535156-8.53125 0-4.714844 3.820312-8.535157 8.535156-8.535157h17.066406c4.710938 0 8.53125 3.820313 8.53125 8.535157 0 4.710937-3.820312 8.53125-8.53125 8.53125zm0 0"/><path d="m166.398438 341.332031c-25.917969 0-46.933594-21.011719-46.933594-46.933593 0-25.917969 21.015625-46.933594 46.933594-46.933594 25.921874 0 46.933593 21.015625 46.933593 46.933594-.027343 25.910156-21.023437 46.90625-46.933593 46.933593zm0-76.796875c-16.492188 0-29.863282 13.371094-29.863282 29.863282 0 16.496093 13.371094 29.867187 29.863282 29.867187 16.496093 0 29.867187-13.371094 29.867187-29.867187-.019531-16.484376-13.378906-29.84375-29.867187-29.863282zm0 0"/><path d="m430.933594 341.332031c-23.914063.023438-44.007813-17.957031-46.625-41.726562-.410156-3.066407.875-6.113281 3.351562-7.964844 2.476563-1.847656 5.765625-2.214844 8.585938-.953125 2.824218 1.261719 4.746094 3.953125 5.019531 7.035156 1.6875 15.109375 14.464844 26.539063 29.667969 26.539063s27.980468-11.429688 29.667968-26.539063c.273438-3.082031 2.195313-5.773437 5.015626-7.035156 2.824218-1.261719 6.109374-.894531 8.589843.953125 2.476563 1.851563 3.761719 4.898437 3.351563 7.964844-2.617188 23.769531-22.714844 41.75-46.625 41.726562zm0 0"/><path d="m128.257812 307.199219h-102.65625c-4.714843 0-8.535156-3.820313-8.535156-8.53125v-213.335938c.050782-47.105469 38.226563-85.2812498 85.332032-85.332031h290.136718c47.105469.0507812 85.28125 38.226562 85.332032 85.332031v76.800781c0 4.714844-3.820313 8.535157-8.535157 8.535157h-51.199219v42.664062h51.199219c4.714844 0 8.535157 3.820313 8.535157 8.535157 0 4.710937-3.820313 8.53125-8.535157 8.53125h-51.199219c-9.421874-.007813-17.058593-7.644532-17.066406-17.066407v-42.664062c.007813-9.421875 7.644532-17.058594 17.066406-17.066407h42.667969v-68.269531c-.042969-37.683593-30.582031-68.222656-68.265625-68.265625h-290.136718c-37.683594.042969-68.222657 30.582032-68.265626 68.265625v204.800781h94.125c4.710938 0 8.53125 3.820313 8.53125 8.535157 0 4.710937-3.820312 8.53125-8.53125 8.53125zm0 0"/><path d="m392.789062 307.199219h-188.246093c-4.710938 0-8.53125-3.820313-8.53125-8.53125 0-4.714844 3.820312-8.535157 8.53125-8.535157h179.648437c2.269532-24.996093 23.804688-43.785156 48.878906-42.644531 25.074219 1.144531 44.808594 21.8125 44.796876 46.910157 0 4.714843-3.820313 8.535156-8.535157 8.535156-4.710937 0-8.53125-3.820313-8.53125-8.535156 0-16.492188-13.371093-29.863282-29.867187-29.863282s-29.867188 13.371094-29.867188 29.863282c-.003906 1.074218.058594 2.144531.1875 3.210937.304688 2.425781-.449218 4.867187-2.070312 6.703125-1.617188 1.835938-3.945313 2.886719-6.394532 2.886719zm0 0"/><path d="m494.933594 298.667969h-25.855469c-4.714844 0-8.535156-3.820313-8.535156-8.535157 0-4.710937 3.820312-8.53125 8.535156-8.53125h25.855469v-42.667968c-.007813-4.710938-3.824219-8.527344-8.535156-8.535156h-17.066407c-4.710937 0-8.53125-3.820313-8.53125-8.53125 0-4.714844 3.820313-8.535157 8.53125-8.535157h17.066407c14.132812.015625 25.585937 11.46875 25.601562 25.601563v42.667968c-.007812 9.421876-7.644531 17.054688-17.066406 17.066407zm0 0"/><path d="m187.734375 102.398438h-34.132813c-9.421874-.007813-17.058593-7.644532-17.066406-17.066407v-25.597656c.007813-9.421875 7.644532-17.058594 17.066406-17.066406h34.132813c9.421875.007812 17.054687 7.644531 17.066406 17.066406v25.597656c-.011719 9.421875-7.644531 17.058594-17.066406 17.066407zm-34.132813-42.664063v25.597656h34.144532l-.011719-25.597656zm0 0"/><path d="m264.535156 102.398438h-34.136718c-9.421876-.007813-17.054688-7.644532-17.066407-17.066407v-25.597656c.011719-9.421875 7.644531-17.058594 17.066407-17.066406h34.136718c9.421875.007812 17.054688 7.644531 17.066406 17.066406v25.597656c-.011718 9.421875-7.644531 17.058594-17.066406 17.066407zm-34.136718-42.664063v25.597656h34.148437l-.011719-25.597656zm0 0"/><path d="m341.332031 102.398438h-34.132812c-9.421875-.007813-17.054688-7.644532-17.066407-17.066407v-25.597656c.011719-9.421875 7.644532-17.058594 17.066407-17.066406h34.132812c9.421875.007812 17.058594 7.644531 17.066407 17.066406v25.597656c-.007813 9.421875-7.644532 17.058594-17.066407 17.066407zm-34.132812-42.664063v25.597656h34.148437l-.015625-25.597656zm0 0"/><path d="m187.734375 221.867188h-34.132813c-9.421874-.011719-17.058593-7.644532-17.066406-17.066407v-25.601562c.007813-9.421875 7.644532-17.054688 17.066406-17.066407h34.132813c9.421875.011719 17.054687 7.644532 17.066406 17.066407v25.601562c-.011719 9.421875-7.644531 17.054688-17.066406 17.066407zm-34.132813-42.667969v25.601562h34.144532l-.011719-25.601562zm0 0"/><path d="m264.535156 221.867188h-34.136718c-9.421876-.011719-17.054688-7.644532-17.066407-17.066407v-25.601562c.011719-9.421875 7.644531-17.054688 17.066407-17.066407h34.136718c9.421875.011719 17.054688 7.644532 17.066406 17.066407v25.601562c-.011718 9.421875-7.644531 17.054688-17.066406 17.066407zm-34.136718-42.667969v25.601562h34.148437l-.011719-25.601562zm0 0"/><path d="m341.332031 221.867188h-34.132812c-9.421875-.011719-17.054688-7.644532-17.066407-17.066407v-25.601562c.011719-9.421875 7.644532-17.054688 17.066407-17.066407h34.132812c9.421875.011719 17.058594 7.644532 17.066407 17.066407v25.601562c-.007813 9.421875-7.644532 17.054688-17.066407 17.066407zm-34.132812-42.667969v25.601562h34.148437l-.015625-25.601562zm0 0"/><path d="m110.933594 102.398438h-34.132813c-9.421875-.007813-17.058593-7.644532-17.066406-17.066407v-8.53125c.019531-18.84375 15.289063-34.113281 34.132813-34.132812h17.066406c9.421875.007812 17.058594 7.644531 17.066406 17.066406v25.597656c-.007812 9.421875-7.644531 17.058594-17.066406 17.066407zm-17.066406-42.664063c-9.421876.007813-17.058594 7.644531-17.066407 17.066406v8.53125h34.144531l-.011718-25.597656zm0 0"/><path d="m418.132812 102.398438h-34.132812c-9.421875-.007813-17.058594-7.644532-17.066406-17.066407v-25.597656c.007812-9.421875 7.644531-17.058594 17.066406-17.066406h17.066406c18.84375.019531 34.113282 15.289062 34.132813 34.132812v8.53125c-.007813 9.421875-7.644531 17.058594-17.066407 17.066407zm-34.132812-42.664063v25.597656h34.144531l-.011719-8.53125c-.007812-9.421875-7.644531-17.058593-17.066406-17.066406zm0 0"/><path d="m469.332031 145.066406h-443.730469c-4.714843 0-8.535156-3.820312-8.535156-8.53125 0-4.714844 3.820313-8.535156 8.535156-8.535156h443.730469c4.714844 0 8.535157 3.820312 8.535157 8.535156 0 4.710938-3.820313 8.53125-8.535157 8.53125zm0 0"/><path d="m68.265625 307.199219c-4.710937 0-8.53125-3.820313-8.53125-8.53125v-128c0-4.714844 3.820313-8.535157 8.53125-8.535157 4.714844 0 8.535156 3.820313 8.535156 8.535157v128c0 4.710937-3.820312 8.53125-8.535156 8.53125zm0 0"/><path d="m110.933594 307.199219h-85.332032c-4.714843 0-8.535156-3.820313-8.535156-8.53125v-128c0-4.714844 3.820313-8.535157 8.535156-8.535157h85.332032c4.710937 0 8.53125 3.820313 8.53125 8.535157v128c0 4.710937-3.820313 8.53125-8.53125 8.53125zm-76.800782-17.066407h68.265626v-110.933593h-68.265626zm0 0"/><path d="m503.464844 256h-17.066406c-4.710938 0-8.53125-3.820312-8.53125-8.535156 0-4.710938 3.820312-8.53125 8.53125-8.53125h17.066406c4.714844 0 8.535156 3.820312 8.535156 8.53125 0 4.714844-3.820312 8.535156-8.535156 8.535156zm0 0"/><path d="m503.464844 341.332031h-443.730469c-4.714844 0-8.535156-3.820312-8.535156-8.53125 0-4.714843 3.820312-8.535156 8.535156-8.535156h443.730469c4.714844 0 8.535156 3.820313 8.535156 8.535156 0 4.710938-3.820312 8.53125-8.535156 8.53125zm0 0"/><path d="m25.601562 341.332031h-17.066406c-4.714844 0-8.535156-3.820312-8.535156-8.53125 0-4.714843 3.820312-8.535156 8.535156-8.535156h17.066406c4.710938 0 8.53125 3.820313 8.53125 8.535156 0 4.710938-3.820312 8.53125-8.53125 8.53125zm0 0"/></svg>