<svg height="512pt" viewBox="0 0 512 512.01433" width="512pt" xmlns="http://www.w3.org/2000/svg"><path d="m284.429688 101.902344c-4.621094 1.949218-9.351563 3.632812-14.167969 5.035156-21.417969 6.230469-57.511719 12.542969-116.648438 12.542969-59.222656 0-95.316406-6.3125-116.738281-12.628907-5.714844-1.707031-10.324219-3.414062-14.078125-4.949218 1.917969-7.5 2.863281-15.214844 2.816406-22.953125v-49.066407c0 3.410157 4.949219 6.652344 13.738281 9.554688 20.820313 6.914062 63.488282 11.691406 112.808594 11.777344h2.902344c49.238281-.085938 91.820312-4.863282 112.726562-11.777344 8.875-2.816406 13.824219-6.144531 13.824219-9.554688v49.066407c-.046875 7.738281.898438 15.453125 2.816407 22.953125zm0 0" fill="#fdd834"/><path d="m265.824219 461.667969-1.277344 23.296875c0 3.070312-4.4375 5.886718-12.289063 8.445312-31.820312 7.582032-64.496093 10.96875-97.195312 10.070313h-2.902344c-32.695312.898437-65.371094-2.488281-97.191406-10.070313-7.851562-2.558594-12.289062-5.375-12.289062-8.445312l-1.28125-23.296875c3.839843.683593 8.023437 1.363281 12.542968 1.960937 7.9375 1.027344 16.8125 1.964844 26.285156 2.730469.128907.078125.277344.109375.425782.085937 22.441406 1.792969 47.957031 2.816407 71.507812 2.902344h2.902344c23.550781-.085937 49.066406-1.109375 71.511719-2.902344.144531.023438.296875-.007812.425781-.085937 9.472656-.765625 18.347656-1.703125 26.28125-2.730469 4.523438-.597656 8.703125-1.277344 12.542969-1.960937zm0 0" fill="#f57c00"/><path d="m244.75 463.628906-1.027344 29.78125c-31.820312 7.582032-64.496094 10.96875-97.191406 10.070313h-2.902344c-32.699218.898437-65.375-2.488281-97.195312-10.070313l-1.023438-29.78125c7.9375 1.027344 16.808594 1.964844 26.28125 2.730469.128906.078125.28125.109375.425782.085937 22.445312 1.792969 47.960937 2.816407 71.511718 2.902344h2.902344c23.550781-.085937 49.066406-1.109375 71.507812-2.902344.148438.023438.296876-.007812.425782-.085937 9.472656-.765625 18.347656-1.703125 26.285156-2.730469zm0 0" fill="#ff9801"/><path d="m298.679688 145.082031c.007812 9.253907-2.5 18.339844-7.253907 26.28125-6.789062 11.460938-10.65625 24.414063-11.265625 37.71875l-1.707031 38.398438-10.152344 170.667969-2.476562 43.519531c-3.839844.683593-8.019531 1.363281-12.542969 1.960937-32.597656 3.847656-65.394531 5.757813-98.21875 5.71875h-2.902344c-32.824218.039063-65.621094-1.871094-98.21875-5.71875-4.519531-.597656-8.703125-1.277344-12.542968-1.960937l-14.335938-252.585938c-.609375-13.304687-4.476562-26.257812-11.261719-37.71875-9.617187-15.632812-9.683593-35.332031-.171875-51.027343 3.21875-5.789063 5.632813-11.992188 7.167969-18.433594 4.609375 1.957031 9.339844 3.609375 14.164063 4.949218 19.925781 5.554688 40.371093 9.042969 61.015624 10.410157.25.070312.507813.101562.765626.085937 15.617187 1.367188 33.792968 2.132813 54.871093 2.132813s39.253907-.765625 54.867188-2.132813c.261719.015625.519531-.015625.769531-.085937 20.640625-1.367188 41.085938-4.855469 61.011719-10.410157 4.824219-1.339843 9.558593-2.992187 14.167969-4.949218 1.535156 6.441406 3.945312 12.644531 7.167968 18.433594 4.417969 7.515624 6.855469 16.03125 7.082032 24.746093zm0 0" fill="#f57c00"/><path d="m281.613281 29.882812c0 11.6875-56.578125 21.160157-126.550781 21.332032h-2.902344c-69.972656-.171875-126.546875-9.644532-126.546875-21.332032 0-11.691406 56.574219-21.164062 126.546875-21.335937h2.902344c69.972656.171875 126.550781 9.644531 126.550781 21.335937zm0 0" fill="#f5efca"/><path d="m273.078125 147.128906c.058594 9.535156-2.132813 18.949219-6.398437 27.476563-6.074219 12.285156-9.449219 25.726562-9.898438 39.425781l-1.535156 40.191406-8.960938 178.601563-1.535156 30.804687c-32.597656 3.847656-65.394531 5.757813-98.21875 5.71875h-2.902344c-32.824218.039063-65.621094-1.871094-98.21875-5.71875l-12.03125-249.597656c-.453125-13.699219-3.828125-27.140625-9.898437-39.425781-4.265625-8.527344-6.457031-17.941407-6.402344-27.476563.160156-8.996094 2.289063-17.851562 6.230469-25.941406 2.148437-4.609375 3.863281-9.410156 5.121094-14.335938 13.652343 4.097657 33.277343-.425781 61.011718 1.878907.25.070312.507813.097656.769532.082031 18.210937 2.113281 36.535156 3.113281 54.867187 2.988281 18.335937.125 36.660156-.875 54.871094-2.988281.257812.015625.519531-.011719.765625-.082031 27.734375-2.304688 47.363281 2.21875 61.015625-1.878907 1.257812 4.925782 2.96875 9.726563 5.121093 14.335938 3.941407 8.089844 6.066407 16.945312 6.226563 25.941406zm0 0" fill="#ff9801"/><path d="m266.554688 29.882812c0 11.6875-49.921876 21.160157-111.664063 21.332032h-2.558594c-61.742187-.171875-111.660156-9.644532-111.660156-21.332032 0-11.691406 49.917969-21.164062 111.660156-21.335937h2.558594c61.742187.171875 111.664063 9.644531 111.664063 21.335937zm0 0" fill="#ffeb3a"/><path d="m136.546875 247.480469h349.867187c9.425782 0 17.066407 7.640625 17.066407 17.066406v136.535156c0 9.425781-7.640625 17.066407-17.066407 17.066407h-349.867187c-9.425781 0-17.066406-7.640626-17.066406-17.066407v-136.535156c0-9.425781 7.640625-17.066406 17.066406-17.066406zm0 0" fill="#0377bc"/><path d="m136.546875 247.480469h324.265625c9.425781 0 17.066406 7.640625 17.066406 17.066406v136.535156c0 9.425781-7.640625 17.066407-17.066406 17.066407h-324.265625c-9.425781 0-17.066406-7.640626-17.066406-17.066407v-136.535156c0-9.425781 7.640625-17.066406 17.066406-17.066406zm0 0" fill="#02a9f4"/><path d="m261.730469 106.9375c-21.417969 6.230469-57.515625 12.542969-116.652344 12.542969-59.21875 0-95.316406-6.3125-116.734375-12.628907 1.679688-8.714843 2.507812-17.574218 2.472656-26.453124v-40.960938c20.824219 6.914062 63.488282 11.691406 112.8125 11.777344h2.902344c49.234375-.085938 91.816406-4.863282 112.722656-11.777344v40.960938c-.035156 8.90625.796875 17.792968 2.476563 26.539062zm0 0" fill="#ffeb3a"/><path d="m41.398438 470.199219h-.085938c-4.703125-.023438-8.5-3.847657-8.488281-8.554688.011719-4.703125 3.828125-8.511719 8.53125-8.511719 4.707031 0 8.523437 3.808594 8.535156 8.511719.011719 4.707031-3.789063 8.53125-8.492187 8.554688zm0 0"/><path d="m155.078125 59.746094h-2.917969c-30.429687.214844-60.835937-1.949219-90.929687-6.464844-30.941407-5.199219-44.152344-12.199219-44.152344-23.398438 0-11.203124 13.210937-18.203124 44.152344-23.402343 30.089843-4.515625 60.488281-6.679688 90.914062-6.464844h2.917969c30.433594-.214844 60.835938 1.949219 90.933594 6.464844 30.941406 5.199219 44.148437 12.199219 44.148437 23.402343 0 11.199219-13.207031 18.199219-44.148437 23.398438-30.089844 4.515625-60.488282 6.679688-90.917969 6.464844zm-117.425781-29.863282c12.757812 5.382813 51.058594 12.648438 114.527344 12.796876h2.882812c63.449219-.148438 101.75-7.414063 114.507812-12.796876-12.757812-5.386718-51.058593-12.652343-114.523437-12.800781h-2.886719c-63.449218.148438-101.75 7.414063-114.507812 12.800781zm0 0"/><path d="m265.910156 470.199219h-.085937c-4.703125-.023438-8.5-3.847657-8.488281-8.554688.011718-4.703125 3.828124-8.511719 8.53125-8.511719 4.707031 0 8.523437 3.808594 8.535156 8.511719.011718 4.707031-3.785156 8.53125-8.492188 8.554688zm0 0"/><path d="m152.160156 512.015625c-106.515625-.292969-118.015625-19.019531-118.015625-27.050781l-1.265625-22.835938c-.144531-2.601562.90625-5.128906 2.859375-6.859375 1.953125-1.726562 4.589844-2.46875 7.15625-2.007812 36.1875 5.25 72.71875 7.773437 109.285157 7.550781h2.882812c36.558594.222656 73.085938-2.300781 109.265625-7.546875 2.570313-.464844 5.207031.277344 7.160156 2.003906 1.949219 1.730469 3.003907 4.257813 2.859375 6.863281l-1.28125 23.292969c.011719 7.570313-11.488281 26.296875-117.980468 26.589844zm-101.066406-29.34375c7.058594 4.550781 41.21875 12.109375 101.09375 12.277344h2.875c59.882812-.171875 94.050781-7.734375 101.074219-12.289063l.597656-10.921875c-33.722656 4.175781-67.675781 6.230469-101.65625 6.144531h-2.917969c-33.984375.085938-67.9375-1.96875-101.664062-6.144531zm204.953125 1.699219c-.023437.199218-.035156.394531-.035156.59375zm-204.867187-.253906.015624.382812c.007813-.128906 0-.257812-.015624-.386719zm0 0"/><path d="m155.078125 477.882812h-2.917969c-37.566406.253907-75.097656-2.359374-112.265625-7.816406-3.890625-.695312-6.796875-3.972656-7.015625-7.917968l-14.335937-252.585938c-.546875-11.902344-3.992188-23.492188-10.035157-33.761719-11.21875-18.265625-11.34375-41.257812-.320312-59.648437 6.066406-11.449219 9.125-24.25 8.890625-37.203125v-49.066407c.003906-4.3125 3.226563-7.945312 7.503906-8.464843 4.28125-.519531 8.277344 2.234375 9.3125 6.421875 6.710938 5.359375 46.308594 14.671875 118.285157 14.839844h2.882812c71.957031-.167969 111.558594-9.480469 118.265625-14.839844 1.035156-4.1875 5.03125-6.941406 9.3125-6.421875s7.5 4.152343 7.503906 8.464843v49.066407c-.234375 12.960937 2.828125 25.769531 8.902344 37.222656 11 18.367187 10.882813 41.328125-.300781 59.582031-6.066406 10.285156-9.523438 21.894532-10.070313 33.820313l-1.699219 38.289062c-.210937 4.707031-4.199218 8.355469-8.910156 8.140625-4.707031-.210937-8.351562-4.199218-8.140625-8.90625l1.707031-38.402344c.695313-14.734374 4.988282-29.078124 12.511719-41.769531 8.003907-13.003906 8.007813-29.40625.011719-42.417969-7.503906-14-11.3125-29.679687-11.078125-45.558593v-32.226563c-8.8125 3-17.875 5.191406-27.082031 6.558594-30.089844 4.515625-60.488282 6.679688-90.917969 6.464844h-2.917969c-30.429687.214844-60.835937-1.949219-90.929687-6.464844-9.207031-1.367188-18.273438-3.558594-27.085938-6.558594v32.226563c.238281 15.871093-3.570312 31.546875-11.066406 45.539062-8.015625 13.03125-8.003906 29.46875.035156 42.484375 7.488281 12.648438 11.769531 26.933594 12.464844 41.617188l13.949219 245.757812c34.039062 4.40625 68.328125 6.566406 102.652344 6.464844h2.882812c34.316406.101562 68.601562-2.058594 102.632812-6.464844l2.09375-36.683594c.382813-4.609374 4.367188-8.074218 8.988282-7.8125 4.617187.261719 8.183594 4.15625 8.042968 8.777344l-2.472656 43.523438c-.222656 3.945312-3.125 7.222656-7.015625 7.914062-37.164062 5.460938-74.691406 8.070313-112.253906 7.816406zm0 0"/><path d="m486.414062 426.679688h-349.867187c-14.132813-.015626-25.585937-11.464844-25.601563-25.597657v-136.535156c.015626-14.132813 11.46875-25.582031 25.601563-25.597656h349.867187c14.128907.015625 25.582032 11.464843 25.597657 25.597656v136.535156c-.015625 14.132813-11.46875 25.582031-25.597657 25.597657zm-349.867187-170.664063c-4.710937 0-8.53125 3.820313-8.535156 8.53125v136.535156c.003906 4.710938 3.824219 8.53125 8.535156 8.53125h349.867187c4.710938 0 8.527344-3.820312 8.53125-8.53125v-136.535156c-.003906-4.710937-3.820312-8.53125-8.53125-8.53125zm0 0"/><path d="m153.613281 392.546875c-4.714843 0-8.535156-3.820313-8.535156-8.53125v-102.402344c0-4.710937 3.820313-8.53125 8.535156-8.53125 4.710938 0 8.53125 3.820313 8.53125 8.53125v102.402344c0 4.710937-3.820312 8.53125-8.53125 8.53125zm0 0"/><path d="m187.746094 341.347656h-34.132813c-4.714843 0-8.535156-3.820312-8.535156-8.535156v-51.199219c0-4.710937 3.820313-8.53125 8.535156-8.53125h34.132813c18.851562 0 34.132812 15.28125 34.132812 34.132813 0 18.851562-15.28125 34.132812-34.132812 34.132812zm-25.601563-17.066406h25.601563c9.425781 0 17.066406-7.640625 17.066406-17.066406 0-9.425782-7.640625-17.066406-17.066406-17.066406h-25.601563zm0 0"/><path d="m268.8125 392.546875c-21.199219-.023437-38.375-17.203125-38.398438-38.398437v-72.535157c0-4.710937 3.820313-8.53125 8.53125-8.53125 4.714844 0 8.535157 3.820313 8.535157 8.53125v72.535157c0 11.78125 9.550781 21.332031 21.332031 21.332031s21.332031-9.550781 21.332031-21.332031v-72.535157c0-4.710937 3.820313-8.53125 8.535157-8.53125 4.710937 0 8.53125 3.820313 8.53125 8.53125v72.535157c-.023438 21.195312-17.199219 38.375-38.398438 38.398437zm0 0"/><path d="m366.945312 341.347656h-34.132812c-4.714844 0-8.535156-3.820312-8.535156-8.535156v-51.199219c0-4.710937 3.820312-8.53125 8.535156-8.53125h34.132812c18.851563 0 34.132813 15.28125 34.132813 34.132813 0 18.851562-15.28125 34.132812-34.132813 34.132812zm-25.597656-17.066406h25.597656c9.425782 0 17.066407-7.640625 17.066407-17.066406 0-9.425782-7.640625-17.066406-17.066407-17.066406h-25.597656zm0 0"/><path d="m366.945312 392.546875h-34.132812c-4.714844 0-8.535156-3.820313-8.535156-8.53125v-51.203125c0-4.710938 3.820312-8.53125 8.535156-8.53125h34.132812c18.851563 0 34.132813 15.28125 34.132813 34.132812 0 18.851563-15.28125 34.132813-34.132813 34.132813zm-25.597656-17.066406h25.597656c9.425782 0 17.066407-7.640625 17.066407-17.066407 0-9.425781-7.640625-17.066406-17.066407-17.066406h-25.597656zm0 0"/><path d="m452.277344 384.015625c0 4.710937-3.820313 8.53125-8.53125 8.53125-4.714844 0-8.535156-3.820313-8.535156-8.53125 0-4.714844 3.820312-8.535156 8.535156-8.535156 4.710937 0 8.53125 3.820312 8.53125 8.535156zm0 0"/><path d="m443.746094 366.949219c-4.714844 0-8.535156-3.820313-8.535156-8.535157v-8.53125c-.046876-11.644531 6.421874-22.335937 16.761718-27.691406 7.316406-4.007812 10.667969-12.710937 7.933594-20.59375-2.738281-7.878906-10.765625-12.628906-18.988281-11.242187-8.226563 1.390625-14.242188 8.515625-14.238281 16.859375 0 4.710937-3.820313 8.53125-8.535157 8.53125-4.710937 0-8.53125-3.820313-8.53125-8.53125 0-16.664063 12.03125-30.894532 28.464844-33.664063 16.429687-2.773437 32.464844 6.71875 37.933594 22.460938 5.46875 15.742187-1.222657 33.128906-15.832031 41.144531-4.636719 2.226562-7.671876 6.820312-7.902344 11.957031v9.300781c0 4.714844-3.820313 8.535157-8.53125 8.535157zm0 0"/><path d="m59.746094 76.8125s0 59.734375-17.066406 68.269531"/><path d="m42.6875 153.613281c-3.960938.007813-7.402344-2.714843-8.3125-6.566406-.914062-3.855469.945312-7.828125 4.488281-9.597656 7.257813-3.632813 12.332031-34.863281 12.347657-60.636719 0-4.710938 3.820312-8.53125 8.535156-8.53125 4.710937 0 8.53125 3.820312 8.53125 8.53125 0 15.25-1.574219 65.792969-21.78125 75.902344-1.183594.589844-2.488282.898437-3.808594.898437zm0 0"/></svg>