<svg height="512" viewBox="0 0 50 60" width="512" xmlns="http://www.w3.org/2000/svg"><g id="024---Viking-Man" fill="none"><g id="Icons" transform="translate(1)"><path id="Shape" d="m9 47v12h-5c-1.10320187-.0032948-1.9967052-.8967981-2-2v-7c-.00276891-3.3714121 1.6974868-6.5161328 4.52-8.36 1.56363354 1.3433979 2.4682613 3.2985612 2.48 5.36z" fill="#ffe0b2"/><path id="Shape" d="m41.48 41.64c-1.5636335 1.3433979-2.4682613 3.2985612-2.48 5.36v12h-30v-12c-.0117387-2.0614388-.91636646-4.0166021-2.48-5.36 2.827-1.873 5.258-1.64 7.74-1.64 1.37 3.18 4.14 6 9.74 6s8.37-2.82 9.74-6c2.766 0 4.99-.182 7.74 1.64z" fill="#91562d"/><path id="Shape" d="m36 40c-2.421 0-2.241-.047-2.284.053 1.6982162.1096742 3.3392707.6563479 4.764 1.587-1.5636335 1.3433979-2.4682613 3.2985612-2.48 5.36v12h3v-12c.0117387-2.0614388.9163665-4.0166021 2.48-5.36-1.6255041-1.0739705-3.5317556-1.6444545-5.48-1.64z" fill="#624421"/><path id="Shape" d="m46 50v7c-.0032948 1.1032019-.8967981 1.9967052-2 2h-5v-12c.0117387-2.0614388.9163665-4.0166021 2.48-5.36 2.8225132 1.8438672 4.5227689 4.9885879 4.52 8.36z" fill="#ffe0b2"/><path id="Shape" d="m39 15v1c-.0016396.7857989-.4632819 1.4978235-1.18 1.82-.536.258 1.659.18-26.82.18-1.10252174-.0049282-1.99507184-.8974783-2-2v-1c.0032948-1.1032019.89679813-1.9967052 2-2h26c1.1032019.0032948 1.9967052.8967981 2 2z" fill="#9e9e9e"/><path id="Shape" d="m36 13h-24c.7047102-2.1128113 1.6723002-4.1286237 2.88-6 5.239-8.019 12.992-8.033 18.24 0 1.2076998 1.8713763 2.1752898 3.8871887 2.88 6z" fill="#825a2c"/><path id="Shape" d="m33.12 7c-2.509-3.841-6.106-6.682-10.62-5.866 3.391.613 5.9 3.24 7.62 5.866 1.2076998 1.8713763 2.1752898 3.8871887 2.88 6h3c-.7047102-2.1128113-1.6723002-4.1286237-2.88-6z" fill="#624421"/><path id="Shape" d="m48 2.85c0 .519.016.33-2.73 7.04-.7691578 1.8802307-2.59853 3.1090315-4.63 3.11h-4.64c-.7047102-2.1128113-1.6723002-4.1286237-2.88-6h4.18c1.7163703-.00165318 3.3502254-.73670604 4.49-2.02l2.94-3.31c.496789-.60037328 1.3169369-.82436402 2.0499333-.55985766.7329965.26450636 1.221127.96059758 1.2200667 1.73985766z" fill="#f5f5f5"/><path id="Shape" d="m14.88 7c-1.2076998 1.8713763-2.1752898 3.8871887-2.88 6h-4.64c-2.03138697-.0012408-3.86062155-1.2299491-4.63-3.11l-2.62-6.41c-.30373809-.84415521.04232579-1.78454749.82080365-2.23044778.77847785-.44590029 1.76472026-.26863282 2.33919635.42044778l2.94 3.31c1.13977462 1.28329396 2.77362975 2.01834682 4.49 2.02z" fill="#f5f5f5"/><path id="Shape" d="m35 33c0 7.563-3.31 13-11 13s-11-5.427-11-13c-.0022681-2.3970206.272896-4.7862498.82-7.12.6300797 1.4885332 1.6321285 2.7901636 2.91 3.78.4512094.3655287 1.0379576.5190846 1.6103806.4214472s1.0750925-.4370136 1.3796194-.9314472l.41-.69c.5372156-.9079076 1.5150663-1.4634181 2.57-1.46h2.6c1.0549337-.0034181 2.0327844.5520924 2.57 1.46l.41.69c.3045269.4944336.8071964.8338098 1.3796194.9314472s1.1591712-.0559185 1.6103806-.4214472c1.2778715-.9898364 2.2799203-2.2914668 2.91-3.78.547104 2.3337502.8222681 4.7229794.82 7.12z" fill="#ff9801"/><path id="Shape" d="m34.18 25.88c-.5475002 1.2786459-1.3711956 2.4202769-2.412 3.343.992 8.26-1.072 15.875-9.268 16.7 8.311.83 12.5-4.475 12.5-12.923.0022681-2.3970206-.272896-4.7862498-.82-7.12z" fill="#f57c00"/><path id="Shape" d="m34.91 18.05c-.261 4.053-.895 3.877-.73 7.83-.6300797 1.4885332-1.6321285 2.7901636-2.91 3.78-.4512094.3655287-1.0379576.5190846-1.6103806.4214472s-1.0750925-.4370136-1.3796194-.9314472l-.41-.69c-.5372156-.9079076-1.5150663-1.4634181-2.57-1.46h-2.6c-1.0549337-.0034181-2.0327844.5520924-2.57 1.46l-.41.69c-.3045269.4944336-.8071964.8338098-1.3796194.9314472s-1.1591712-.0559185-1.6103806-.4214472c-1.2778715-.9898364-2.2799203-2.2914668-2.91-3.78.165-3.959-.469-3.77-.73-7.83-.0090705-.0149873-.0126084-.0326769-.01-.05 22.414 0 21.93-.05 21.83.05z" fill="#ffe0b2"/><g fill="#dfc49c"><path id="Shape" d="m34.92 18c-3.572 0-2.91-.05-3.01.05-.261 4.053-.895 3.877-.73 7.83-.5938723 1.3848615-1.5091416 2.6083058-2.67 3.569.7201313.7877263 1.928495.8801048 2.76.211 1.2778715-.9898364 2.2799203-2.2914668 2.91-3.78-.165-3.959.469-3.77.73-7.83.0090705-.0149873.0126084-.0326769.01-.05z"/><path id="Shape" d="m37.86 21.54c-.4711104 1.9473247-1.8358916 3.5568764-3.68 4.34-.165-3.959.469-3.77.73-7.83.0090705-.0149873.0126084-.0326769.01-.05 1.73 0 2.357.081 2.9-.18.2040592 1.2306083.2175504 2.4852884.04 3.72z"/><path id="Shape" d="m13.82 25.88c-1.8441084-.7831236-3.2088896-2.3926753-3.68-4.34-.17755041-1.2347116-.16405922-2.4893917.04-3.72.506.243.77.18 2.9.18-.0026084.0173231.0009295.0350127.01.05.261 4.05.895 3.877.73 7.83z"/></g></g><g id="stroke" fill="#000" transform="translate(0 -1)"><circle id="Oval" cx="25" cy="6" r="1"/><circle id="Oval" cx="25" cy="10" r="1"/><path id="Shape" d="m44.982 2.01-2.939 3.307c-.9508911 1.0686687-2.3125307 1.68091541-3.743 1.683h-3.638c-5.512-8.013-13.79-8.045-19.324 0h-3.638c-1.4303043-.00249589-2.7915993-.61511503-3.742-1.684l-2.919-3.281c-.88902177-1.0700428-2.42099597-1.34122443-3.6233136-.64137899-1.20231762.69984544-1.72308728 2.16588889-1.2316864 3.46737899l2.621 6.409c.91837754 2.2593085 3.11617515 3.7350574 5.555 3.73h.824c-.11843775.320257-.18068557.6585603-.184 1 0 1.15-.128 2.268 1.078 3.284-.10625036 1.1431866-.08007685 2.2948209.078 3.432.4638186 1.989117 1.738781 3.6934183 3.516 4.7-.812 3.884-1.031 8.775.152 12.584h-.824c-6.07216255.0071635-10.9928365 4.9278374-11 11v7c0 1.6568542 1.34314575 3 3 3h40c1.6568542 0 3-1.3431458 3-3v-7c-.0071635-6.0721626-4.9278374-10.9928365-11-11h-.824c1.184-3.81.963-8.7.152-12.584 1.7900171-1.0136785 3.0692596-2.7355542 3.523-4.742.1525836-1.1236171.1764045-2.2609797.071-3.39.6801418-.563891 1.0750078-1.4005086 1.078-2.284.070334-.6722828.0078153-1.3518349-.184-2h.824c2.4406454.0070988 4.6409401-1.4689982 5.56-3.73 2.821-6.907 2.8-6.67 2.8-7.417.0005103-1.19427637-.7444109-2.2619299-1.8654672-2.67366899-1.1210563-.4117391-2.3799305-.0800351-3.1525328.83066899zm-9.414 10.99h-21.138c5.336-13.307 15.757-13.378 21.138 0zm-30.912-2.487c-2.79-6.813-2.656-6.413-2.656-6.66-.00274755-.36506797.22899953-.69071929.57481709-.80773377s.72769011.00100601.94718291.29273377l2.941 3.309c1.33062186 1.49474915 3.23579424 2.35074888 5.237 2.353h2.4c-.7083031 1.284568-1.3164411 2.6218698-1.819 4h-3.921c-1.62609651.0032218-3.09146488-.9806797-3.704-2.487zm7.475 11.893c-.1006781-.7977979-.1384613-1.6022778-.113-2.406h1.148c.23 2.445.631 3.543.683 5.1-.8352754-.7006674-1.4350191-1.6411269-1.718-2.694zm12.869 23.594c-8.732 0-10.922-7.648-9.684-16.354.5255221.6674511 1.1268964 1.27151 1.792 1.8.6773049.5452384 1.5570804.771409 2.413369.6204232.8562886-.1509857 1.6056534-.6644158 2.055631-1.4084232l.413-.689c.356806-.6044323 1.008125-.973513 1.71-.969h2.6c2.195 0 1.6 2.6 4.151 3.062.8642481.1555959 1.7536461-.0684843 2.441-.615.6653818-.5285117 1.2670849-1.132564 1.793-1.8 1.237 8.703-.955 16.353-9.685 16.353zm9.175-19.307c-.5806614 1.2458572-1.4459089 2.337864-2.526 3.188-.2369909.1872107-.5423227.2649976-.84.214-.517-.094-.631-.394-1.079-1.145-.7149187-1.2140068-2.0211432-1.9566126-3.43-1.95h-2.6c-1.4078082-.0085769-2.7137729.7327905-3.428 1.946l-.411.686c-.1542045.2496018-.4088715.4202667-.6983561.4680029-.2894847.0477362-.5854639-.0321268-.8116439-.2190029-1.0807029-.8495219-1.9460763-1.9416875-2.526-3.188.142-3.478-.331-3.477-.653-6.693h19.656c-.322 3.217-.795 3.217-.653 6.693zm-30.175 31.307v-7c.00151591-2.746119 1.25918652-5.3406632 3.414-7.043 1.02158354 1.0981928 1.58840197 2.5431152 1.586 4.043l.0000076 11h-4.0000076c-.55228475 0-1-.4477153-1-1zm42-7v7c0 .5522847-.4477153 1-1 1h-4.0000076l.0000076-11c-.002402-1.4998848.5644165-2.9448072 1.586-4.043 2.1548135 1.7023368 3.4124841 4.296881 3.414 7.043zm-5.123-8.11c-1.2104039 1.4276922-1.8754628 3.2382681-1.877 5.11v11h-28v-11c-.0015372-1.8717319-.6665961-3.6823078-1.877-5.11 1.7263852-.7643919 3.6206465-1.0709179 5.5-.89 1.915 3.877 5.466 6 10.373 6s8.458-2.123 10.373-6c2.01 0 3.441-.1 5.508.89zm-3-20.526c-.2766431 1.0693722-.880005 2.0258023-1.726 2.736.052-1.523.454-2.658.683-5.1h1.147c.0352337.7895843-.000241 1.5807377-.106 2.364zm1.123-6.364v1c0 .5522847-.4477153 1-1 1h-26c-.5522847 0-1-.4477153-1-1v-1c0-.5522847.4477153-1 1-1h26c.5522847 0 1 .4477153 1 1zm8.964-11.9-2.619 6.412c-.6128027 1.5066887-2.0784609 2.4909148-3.705 2.488h-3.924c-.5015901-1.3780409-1.1087241-2.7153405-1.816-4h2.4c2.0019959-.00285614 3.9076127-.85998352 5.238-2.356l2.962-3.331c.2587092-.30766884.6977314-.39173246 1.051798-.20139746s.5261204.60289365.412202.98839746z"/><path id="Shape" d="m27.707 51.293c-.3904999-.3903819-1.0235001-.3903819-1.414 0l-1.293 1.293-1.293-1.293c-.3923789-.3789722-1.0160848-.3735524-1.4018186.0121814s-.3911536 1.0094397-.0121814 1.4018186l1.293 1.293-1.293 1.293c-.3789722.3923789-.3735524 1.0160848.0121814 1.4018186s1.0094397.3911536 1.4018186.0121814l1.293-1.293 1.293 1.293c.3923789.3789722 1.0160848.3735524 1.4018186-.0121814s.3911536-1.0094397.0121814-1.4018186l-1.293-1.293 1.293-1.293c.3903819-.3904999.3903819-1.0235001 0-1.414z"/></g></g></svg>