<svg height="512pt" viewBox="0 -125 512.00658 512" width="512pt" xmlns="http://www.w3.org/2000/svg"><path d="m307.199219 15.207031v25.597657l-44.542969-7.765626zm0 0" fill="#ff9801"/><path d="m503.464844 202.9375c-.027344 9.414062-7.652344 17.039062-17.066406 17.066406h-460.796876c-9.425781 0-17.066406-7.640625-17.066406-17.066406s7.640625-17.066406 17.066406-17.066406c-9.933593-16.878906-6.339843-38.453125 8.53125-51.199219 17.839844-17.0625 32.3125-37.324219 42.667969-59.734375 8.191407-16.46875 24.320313-40.789062 101.800781-42.578125 2.988282-.085937 5.972657-.085937 9.132813-.085937 9.8125 0 19.625.085937 29.4375.339843 15.875.425781 31.746094 1.28125 47.53125 2.902344 10.371094.992187 20.660156 2.671875 30.804687 5.035156 3.972657.851563 7.832032 2.140625 11.523438 3.839844 8.308594 4.660156 15.414062 11.207031 20.734375 19.113281 6.742187 8.363282 13.3125 16.8125 19.796875 25.429688 1.492188 1.964844 3.765625 3.183594 6.230469 3.328125l108.542969 6.828125c10.835937.691406 20.078124 8.09375 23.125 18.515625.617187 2.3125.933593 4.691406.9375 7.082031v61.183594c9.414062.027344 17.039062 7.652344 17.066406 17.066406zm0 0" fill="#37474f"/><path d="m477.867188 202.9375c-.027344 9.414062-7.652344 17.039062-17.066407 17.066406h-435.199219c-9.425781 0-17.066406-7.640625-17.066406-17.066406s7.640625-17.066406 17.066406-17.066406c-9.933593-16.878906-6.339843-38.453125 8.53125-51.199219 17.839844-17.0625 32.3125-37.324219 42.667969-59.734375 8.191407-16.46875 24.320313-40.789062 101.800781-42.578125l12.972657.253906c15.871093.425781 31.742187 1.28125 47.53125 2.902344 10.367187.992187 20.660156 2.671875 30.804687 5.035156 3.925782.9375 29.523438 2.046875 33.195313 3.839844 8.3125 4.660156 15.414062 11.207031 20.734375 19.113281 6.742187 8.363282 13.3125 16.8125 19.796875 25.429688 1.492187 1.964844 3.765625 3.183594 6.230469 3.328125l86.867187 6.828125c10.835937.691406 20.082031 8.09375 23.128906 18.515625.613281 2.3125.929688 4.691406.9375 7.082031v61.183594c9.414063.027344 17.039063 7.652344 17.066407 17.066406zm0 0" fill="#607d8b"/><g fill="#00bcd4"><path d="m187.734375 66.40625h42.664063c4.714843 0 8.535156 3.820312 8.535156 8.53125v34.136719c0 4.710937-3.820313 8.53125-8.535156 8.53125h-42.664063c-4.714844 0-8.535156-3.820313-8.535156-8.53125v-34.136719c0-4.710938 3.820312-8.53125 8.535156-8.53125zm0 0"/><path d="m136.535156 66.40625h8.53125c4.714844 0 8.535156 3.820312 8.535156 8.53125v34.136719c0 4.710937-3.820312 8.53125-8.535156 8.53125h-42.667968c-4.710938 0-8.53125-3.820313-8.53125-8.53125 0-23.566407 19.101562-42.667969 42.667968-42.667969zm0 0"/><path d="m264.535156 74.9375v34.136719c0 4.710937 3.820313 8.53125 8.53125 8.53125h42.652344c3.308594 0 6.320312-1.914063 7.722656-4.914063 1.40625-2.996094.949219-6.535156-1.167968-9.082031l-28.445313-34.132813c-1.621094-1.945312-4.023437-3.070312-6.554687-3.070312h-14.207032c-4.710937 0-8.53125 3.820312-8.53125 8.53125zm0 0"/></g><path d="m443.734375 211.472656c0 23.5625-19.105469 42.667969-42.667969 42.667969s-42.667968-19.105469-42.667968-42.667969 19.105468-42.667968 42.667968-42.667968 42.667969 19.105468 42.667969 42.667968zm0 0" fill="#37474f"/><path d="m162.132812 211.472656c0 23.5625-19.101562 42.667969-42.667968 42.667969-23.5625 0-42.664063-19.105469-42.664063-42.667969s19.101563-42.667968 42.664063-42.667968c23.566406 0 42.667968 19.105468 42.667968 42.667968zm0 0" fill="#37474f"/><path d="m136.535156 211.472656c0 9.425782-7.644531 17.066406-17.070312 17.066406-9.425782 0-17.066406-7.640624-17.066406-17.066406 0-9.425781 7.640624-17.066406 17.066406-17.066406 9.425781 0 17.070312 7.640625 17.070312 17.066406zm0 0" fill="#cfd8dc"/><path d="m418.132812 211.472656c0 9.425782-7.640624 17.066406-17.066406 17.066406-9.425781 0-17.066406-7.640624-17.066406-17.066406 0-9.425781 7.640625-17.066406 17.066406-17.066406 9.425782 0 17.066406 7.640625 17.066406 17.066406zm0 0" fill="#bdc3c7"/><path d="m486.398438 228.539062h-43.519532c-4.710937 0-8.53125-3.820312-8.53125-8.535156 0-4.710937 3.820313-8.53125 8.53125-8.53125h43.519532c4.714843 0 8.535156-3.820312 8.535156-8.535156 0-4.710938-3.820313-8.53125-8.535156-8.53125-4.710938 0-8.53125-3.820312-8.53125-8.535156v-61.15625c-.015626-9.042969-7.039063-16.523438-16.0625-17.109375l-108.5625-6.835938c-4.945313-.300781-9.515626-2.75-12.503907-6.703125-6.4375-8.5-12.945312-16.941406-19.636719-25.25l-.597656-.738281c-4.425781-6.566406-10.289062-12.039063-17.144531-16-3.171875-1.398437-6.480469-2.480469-9.867187-3.230469-9.777344-2.265625-19.699219-3.871094-29.695313-4.8125-13.640625-1.445312-28.515625-2.355468-46.8125-2.855468-9.746094-.261719-19.496094-.386719-29.25-.375-84.324219 0-97.144531 25.632812-103.300781 37.953124-10.761719 23.230469-25.777344 44.242188-44.265625 61.949219-20.417969 20.421875-8.003907 39.625-7.46875 40.433594 1.746093 2.621094 1.90625 5.984375.421875 8.757813-1.484375 2.773437-4.375 4.507812-7.519532 4.507812-4.714843 0-8.535156 3.820312-8.535156 8.53125 0 4.714844 3.820313 8.535156 8.535156 8.535156h52.050782c4.714844 0 8.535156 3.820313 8.535156 8.53125 0 4.714844-3.820312 8.535156-8.535156 8.535156h-52.050782c-11.777343-.003906-22.035156-8.039062-24.851562-19.476562-2.816406-11.433594 2.53125-23.316406 12.957031-28.789062-5.617187-18.546876-.007812-38.667969 14.394531-51.632813 17.195313-16.410156 31.128907-35.925781 41.066407-57.515625 11.714843-23.433594 34.960937-47.386719 118.566406-47.386719 9.90625 0 19.8125.128907 29.714844.382813 18.753906.511718 34.046875 1.453125 48.148437 2.9375 10.765625 1.023437 21.453125 2.769531 31.988282 5.222656 4.503906 1.011719 8.890624 2.480469 13.097656 4.378906 9.230468 4.988282 17.148437 12.085938 23.117187 20.714844l.589844.734375c6.800781 8.441406 13.417969 17.023437 19.957031 25.664063l108.527344 6.796874c18.007812 1.167969 32.027344 16.097657 32.058594 34.144532v54.085937c11.757812 4.15625 18.808594 16.175781 16.703125 28.46875-2.109375 12.289063-12.765625 21.273438-25.238281 21.269531zm0 0"/><path d="m359.253906 228.539062h-197.972656c-4.714844 0-8.535156-3.820312-8.535156-8.535156 0-4.710937 3.820312-8.53125 8.535156-8.53125h197.972656c4.710938 0 8.53125 3.820313 8.53125 8.53125 0 4.714844-3.820312 8.535156-8.53125 8.535156zm0 0"/><path d="m230.398438 126.140625h-42.664063c-9.421875-.011719-17.058594-7.644531-17.066406-17.066406v-34.136719c.007812-9.421875 7.644531-17.054688 17.066406-17.066406h42.664063c9.421874.011718 17.058593 7.644531 17.066406 17.066406v34.136719c-.007813 9.421875-7.644532 17.054687-17.066406 17.066406zm-42.664063-51.203125v34.136719h42.679687l-.015624-34.136719zm0 0"/><path d="m145.066406 126.140625h-42.667968c-9.421876-.011719-17.054688-7.644531-17.066407-17.066406.03125-28.265625 22.9375-51.171875 51.203125-51.203125h8.53125c9.421875.011718 17.058594 7.644531 17.066406 17.066406v34.136719c-.007812 9.421875-7.644531 17.054687-17.066406 17.066406zm-8.53125-51.203125c-18.84375.023438-34.113281 15.292969-34.136718 34.136719h42.679687l-.011719-34.136719zm0 0"/><path d="m315.714844 126.140625h-42.648438c-9.421875-.011719-17.058594-7.644531-17.066406-17.066406v-34.136719c.007812-9.421875 7.644531-17.054688 17.066406-17.066406h14.203125c5.070313-.003906 9.878907 2.246094 13.117188 6.144531l28.4375 34.132813c4.238281 5.089843 5.152343 12.167968 2.34375 18.164062-2.808594 5.996094-8.832031 9.824219-15.453125 9.828125zm-42.648438-51.203125v34.136719h42.648438l-28.441406-34.136719zm0 0"/><path d="m401.066406 262.671875c-20.707031 0-39.378906-12.472656-47.300781-31.605469-7.925781-19.132812-3.546875-41.15625 11.097656-55.796875 14.644531-14.644531 36.664063-19.023437 55.796875-11.101562 19.132813 7.925781 31.605469 26.597656 31.605469 47.304687-.03125 28.265625-22.933594 51.167969-51.199219 51.199219zm0-85.332031c-18.851562 0-34.132812 15.28125-34.132812 34.132812 0 18.851563 15.28125 34.132813 34.132812 34.132813 18.851563 0 34.132813-15.28125 34.132813-34.132813-.019531-18.84375-15.289063-34.113281-34.132813-34.132812zm0 0"/><path d="m119.464844 262.671875c-28.273438 0-51.199219-22.921875-51.199219-51.199219s22.925781-51.199218 51.199219-51.199218c28.277344 0 51.203125 22.921874 51.203125 51.199218-.03125 28.265625-22.9375 51.167969-51.203125 51.199219zm0-85.332031c-18.847656 0-34.132813 15.28125-34.132813 34.132812 0 18.851563 15.285157 34.132813 34.132813 34.132813 18.851562 0 34.136718-15.28125 34.136718-34.132813-.023437-18.84375-15.292968-34.113281-34.136718-34.132812zm0 0"/><path d="m418.132812 211.472656c0 9.425782-7.640624 17.066406-17.066406 17.066406-9.425781 0-17.066406-7.640624-17.066406-17.066406 0-9.425781 7.640625-17.066406 17.066406-17.066406 9.425782 0 17.066406 7.640625 17.066406 17.066406zm0 0" fill="#cfd8dc"/><path d="m486.398438 134.671875h-17.066407c-4.710937 0-8.53125-3.820313-8.53125-8.53125 0-4.714844 3.820313-8.535156 8.53125-8.535156h17.066407c4.714843 0 8.535156 3.820312 8.535156 8.535156 0 4.710937-3.820313 8.53125-8.535156 8.53125zm0 0"/><path d="m307.199219 52.753906c-4.710938 0-8.53125-3.820312-8.53125-8.535156v-25.269531l-56.734375 21.308593c-4.386719 1.566407-9.21875-.675781-10.855469-5.035156s.523437-9.226562 4.855469-10.9375l62.464844-23.464844c3.9375-1.476562 8.347656-.929687 11.804687 1.464844 3.457031 2.390625 5.523437 6.328125 5.53125 10.53125v31.402344c0 4.714844-3.820313 8.535156-8.535156 8.535156zm0 0"/><path d="m290.132812 160.273438h-17.066406c-4.710937 0-8.53125-3.820313-8.53125-8.535157 0-4.710937 3.820313-8.53125 8.53125-8.53125h17.066406c4.714844 0 8.535157 3.820313 8.535157 8.53125 0 4.714844-3.820313 8.535157-8.535157 8.535157zm0 0"/><path d="m196.265625 160.273438h-17.066406c-4.710938 0-8.53125-3.820313-8.53125-8.535157 0-4.710937 3.820312-8.53125 8.53125-8.53125h17.066406c4.714844 0 8.535156 3.820313 8.535156 8.53125 0 4.714844-3.820312 8.535157-8.535156 8.535157zm0 0"/><path d="m443.742188 143.207031c-.257813 0-.515626-.015625-.78125-.035156l-93.863282-8.53125c-4.695312-.425781-8.15625-4.578125-7.730468-9.273437.425781-4.691407 4.574218-8.152344 9.269531-7.726563l93.867187 8.53125c4.550782.402344 7.976563 4.320313 7.773438 8.882813-.207032 4.5625-3.96875 8.15625-8.535156 8.152343zm0 0"/><path d="m76.800781 151.738281c0 4.714844-3.820312 8.535157-8.535156 8.535157-4.710937 0-8.53125-3.820313-8.53125-8.535157 0-4.710937 3.820313-8.53125 8.53125-8.53125 4.714844 0 8.535156 3.820313 8.535156 8.53125zm0 0"/><path d="m503.464844 262.671875h-443.730469c-4.714844 0-8.535156-3.820313-8.535156-8.53125 0-4.714844 3.820312-8.535156 8.535156-8.535156h443.730469c4.714844 0 8.535156 3.820312 8.535156 8.535156 0 4.710937-3.820312 8.53125-8.535156 8.53125zm0 0"/><path d="m25.601562 262.671875h-17.066406c-4.714844 0-8.535156-3.820313-8.535156-8.53125 0-4.714844 3.820312-8.535156 8.535156-8.535156h17.066406c4.710938 0 8.53125 3.820312 8.53125 8.535156 0 4.710937-3.820312 8.53125-8.53125 8.53125zm0 0"/></svg>