<?xml version="1.0" encoding="UTF-8" standalone="no"?> <svg xmlns="http://www.w3.org/2000/svg" viewBox="0 0 64 64"><defs><style>.cls-1{fill:#55a6ff;}.cls-1,.cls-2,.cls-3{stroke:#54596e;stroke-linecap:round;stroke-linejoin:round;stroke-width:2px;}.cls-2{fill:#fff35f;stroke-dasharray:4 4;}.cls-3{fill:none;}.cls-4{fill:#54596e;}.cls-5{fill:#f4a14e;}</style></defs><title>measure</title><g id="measure"><rect class="cls-1" x="6" y="5" width="12" height="52"/><rect class="cls-1" x="6" y="45" width="32" height="12"/><circle class="cls-2" cx="42" cy="22" r="19"/><path class="cls-3" d="M36.86,24.07A7,7,0,0,0,42,26a7,7,0,0,0,5.1-1.9"/><circle class="cls-4" cx="33" cy="14" r="2"/><circle class="cls-4" cx="51" cy="14" r="2"/><circle class="cls-5" cx="51" cy="20" r="2"/><circle class="cls-5" cx="33" cy="20" r="2"/><line class="cls-3" x1="15" y1="9" x2="18" y2="9"/><line class="cls-3" x1="15" y1="13" x2="18" y2="13"/><line class="cls-3" x1="15" y1="17" x2="18" y2="17"/><line class="cls-3" x1="15" y1="21" x2="18" y2="21"/><line class="cls-3" x1="15" y1="25" x2="18" y2="25"/><line class="cls-3" x1="15" y1="29" x2="18" y2="29"/><line class="cls-3" x1="15" y1="33" x2="18" y2="33"/><line class="cls-3" x1="15" y1="37" x2="18" y2="37"/><line class="cls-3" x1="15" y1="41" x2="18" y2="41"/><line class="cls-3" x1="34" y1="45" x2="34" y2="48"/><line class="cls-3" x1="30" y1="45" x2="30" y2="48"/><line class="cls-3" x1="26" y1="45" x2="26" y2="48"/><line class="cls-3" x1="22" y1="45" x2="22" y2="48"/><line class="cls-3" x1="18" y1="45" x2="18" y2="48"/><line class="cls-3" x1="14" y1="45" x2="14" y2="48"/><line class="cls-3" x1="10" y1="45" x2="10" y2="48"/></g></svg>