<?xml version="1.0" encoding="UTF-8" standalone="no"?> <svg xmlns="http://www.w3.org/2000/svg" viewBox="0 0 64 64"><defs><style>.cls-1{fill:#fff35f;}.cls-1,.cls-3,.cls-4{stroke:#54596e;stroke-linecap:round;stroke-width:2px;}.cls-1,.cls-3{stroke-linejoin:round;}.cls-2{fill:#f4a14e;}.cls-3,.cls-4{fill:none;}.cls-4{stroke-miterlimit:10;}</style></defs><title>biscuit</title><g id="biscuit"><path class="cls-1" d="M51.5,6a4.48,4.48,0,0,0-4,2.48,4.47,4.47,0,0,0-8,0,4.47,4.47,0,0,0-8,0,4.47,4.47,0,0,0-8,0,4.47,4.47,0,0,0-8,0,4.49,4.49,0,0,0-8.5,2v42a4.49,4.49,0,0,0,8.5,2,4.47,4.47,0,0,0,8,0,4.47,4.47,0,0,0,8,0,4.47,4.47,0,0,0,8,0,4.47,4.47,0,0,0,8,0,4.49,4.49,0,0,0,8.5-2v-42A4.5,4.5,0,0,0,51.5,6Z"/><circle class="cls-2" cx="11.5" cy="15.5" r="1.5"/><circle class="cls-2" cx="11.5" cy="23.5" r="1.5"/><circle class="cls-2" cx="11.5" cy="31.5" r="1.5"/><circle class="cls-2" cx="11.5" cy="39.5" r="1.5"/><circle class="cls-2" cx="11.5" cy="47.5" r="1.5"/><circle class="cls-2" cx="19.5" cy="15.5" r="1.5"/><circle class="cls-3" cx="19.5" cy="23.5" r="2.5"/><circle class="cls-2" cx="19.5" cy="31.5" r="1.5"/><circle class="cls-2" cx="19.5" cy="39.5" r="1.5"/><circle class="cls-2" cx="19.5" cy="47.5" r="1.5"/><circle class="cls-2" cx="27.5" cy="15.5" r="1.5"/><circle class="cls-2" cx="27.5" cy="23.5" r="1.5"/><circle class="cls-2" cx="27.5" cy="31.5" r="1.5"/><circle class="cls-2" cx="27.5" cy="47.5" r="1.5"/><circle class="cls-2" cx="35.5" cy="15.5" r="1.5"/><circle class="cls-2" cx="35.5" cy="23.5" r="1.5"/><circle class="cls-2" cx="35.5" cy="31.5" r="1.5"/><circle class="cls-2" cx="35.5" cy="47.5" r="1.5"/><circle class="cls-2" cx="43.5" cy="15.5" r="1.5"/><circle class="cls-3" cx="43.5" cy="23.5" r="2.5"/><circle class="cls-2" cx="43.5" cy="31.5" r="1.5"/><circle class="cls-2" cx="43.5" cy="39.5" r="1.5"/><circle class="cls-2" cx="43.5" cy="47.5" r="1.5"/><circle class="cls-2" cx="51.5" cy="15.5" r="1.5"/><circle class="cls-2" cx="51.5" cy="23.5" r="1.5"/><circle class="cls-2" cx="51.5" cy="31.5" r="1.5"/><circle class="cls-2" cx="51.5" cy="39.5" r="1.5"/><circle class="cls-2" cx="51.5" cy="47.5" r="1.5"/><path class="cls-4" d="M23,39.11a45.53,45.53,0,0,0,8.5.77,45.53,45.53,0,0,0,8.5-.77"/><path class="cls-4" d="M19,43a3.78,3.78,0,0,0,4-3.5A3.78,3.78,0,0,0,19,36"/><path class="cls-4" d="M44,43a3.78,3.78,0,0,1-4-3.5A3.78,3.78,0,0,1,44,36"/></g></svg>