<?xml version="1.0" encoding="UTF-8" standalone="no"?> <svg xmlns="http://www.w3.org/2000/svg" viewBox="0 0 64 64"><defs><style>.cls-1,.cls-3{fill:#ffd578;}.cls-1,.cls-2,.cls-4,.cls-6,.cls-7{stroke:#54596e;stroke-linecap:round;stroke-linejoin:round;}.cls-1,.cls-2,.cls-6,.cls-7{stroke-width:2px;}.cls-2{fill:#f4a14e;}.cls-4,.cls-7{fill:none;}.cls-4{stroke-width:3px;}.cls-5{fill:#fff35f;}.cls-6{fill:#999;}.cls-8{fill:#54596e;}</style></defs><title>camel</title><g id="camel"><path class="cls-1" d="M24,17,13.9,2.31A3,3,0,0,0,11.41,1h0A3,3,0,0,0,8.46,3.35L7.62,7a13.88,13.88,0,0,0,3.21,12.4L15,24Z"/><path class="cls-1" d="M38.27,17,48.37,2.31A3,3,0,0,1,50.86,1h0a3,3,0,0,1,2.95,2.35L54.64,7a13.88,13.88,0,0,1-3.21,12.4L47.27,24Z"/><path class="cls-2" d="M44,20.1H42.29A9.52,9.52,0,0,0,33,12.5H30a9.52,9.52,0,0,0-9.28,7.6H19a5.57,5.57,0,0,0,0,11.14h1V46.07C20,48.79,22.68,51,25.37,51H37.63C40.32,51,43,48.79,43,46.07V31.24h1A5.57,5.57,0,0,0,44,20.1Z"/><rect class="cls-3" x="26" y="25" width="11" height="21.5" rx="5.5" ry="5.5"/><path class="cls-4" d="M33,39h0Z"/><path class="cls-5" d="M35.72,30.5a4.73,4.73,0,0,0-4.22,2.62,4.75,4.75,0,1,0,0,4.27,4.74,4.74,0,1,0,4.22-6.88Z"/><path class="cls-6" d="M14,26.5a4.5,4.5,0,0,0,9,0"/><line class="cls-7" x1="25" y1="26" x2="14" y2="26"/><path class="cls-6" d="M49,26.5a4.5,4.5,0,0,1-9,0"/><line class="cls-7" x1="38" y1="26" x2="49" y2="26"/><ellipse class="cls-7" cx="31.5" cy="32" rx="2.5"/><path class="cls-8" d="M30,32h3a0,0,0,0,1,0,0v2.5A1.5,1.5,0,0,1,31.5,36h0A1.5,1.5,0,0,1,30,34.5V32A0,0,0,0,1,30,32Z"/><rect class="cls-2" x="23" y="51" width="17" height="12"/></g></svg>