<?xml version="1.0" encoding="UTF-8" standalone="no"?> <svg xmlns="http://www.w3.org/2000/svg" viewBox="0 0 64 64"><defs><style>.cls-1{fill:#f4a14e;}.cls-1,.cls-2,.cls-3,.cls-4{stroke:#54596e;}.cls-1,.cls-2,.cls-3,.cls-4,.cls-5{stroke-linecap:round;stroke-linejoin:round;stroke-width:2px;}.cls-2{fill:#55a6ff;}.cls-3{fill:#ffd578;}.cls-4,.cls-5{fill:none;}.cls-5{stroke:#fff;}</style></defs><title>sirene</title><g id="sirene"><path class="cls-1" d="M33,2H57a0,0,0,0,1,0,0V37A12,12,0,0,1,45,49h0A12,12,0,0,1,33,37V2A0,0,0,0,1,33,2Z" transform="translate(90 51) rotate(-180)"/><path class="cls-2" d="M10,39.38C10,52.4,14.6,63,27.62,63h3.75A23.65,23.65,0,0,0,55,40.35c.23-5.69-4-10.83-9.73-11A10,10,0,0,0,35,39.38c0,1-1.16,2.77-2.36,4.38a8.67,8.67,0,0,1-9.39,3C17,45,15.76,34.61,17,32c2.63-5.52,9.78-11.26,9-12s-6.92,3.59-10,4S3,20,3,20l7,12Z"/><path class="cls-3" d="M31,22H59a0,0,0,0,1,0,0v4.72A9.28,9.28,0,0,1,49.72,36H40.28A9.28,9.28,0,0,1,31,26.72V22A0,0,0,0,1,31,22Z" transform="translate(90 58) rotate(-180)"/><path class="cls-3" d="M45,12h0a9,9,0,0,1,9,9v4a0,0,0,0,1,0,0H36a0,0,0,0,1,0,0V21a9,9,0,0,1,9-9Z" transform="translate(90 37) rotate(180)"/><line class="cls-4" x1="45" y1="32" x2="45" y2="36"/><line class="cls-4" x1="54" y1="32" x2="36" y2="32"/><path class="cls-2" d="M45,32a4,4,0,0,1,8,0Z"/><path class="cls-2" d="M37,32a4,4,0,0,1,8,0Z"/><path class="cls-5" d="M48,43a2,2,0,0,1-4,0"/><path class="cls-5" d="M43,38a2,2,0,0,1-4,0"/><path class="cls-5" d="M20,49a2,2,0,0,1-4,0"/><path class="cls-5" d="M29,51a2,2,0,0,1-4,0"/><path class="cls-5" d="M32,57a2,2,0,1,1-4,0"/><path class="cls-5" d="M44,51a2,2,0,0,1-4,0"/><path class="cls-5" d="M41,56a2,2,0,0,1-4,0"/><path class="cls-5" d="M39,45a2,2,0,0,1-4,0"/><line class="cls-4" x1="14" y1="28" x2="15" y2="24"/></g></svg>