/* XPM */
static char * stick_focus_xpm[] = {
"20 20 3 1",
" 	c None",
".	c #333333",
"+	c #E5E6E6",
"....................",
"....................",
"....................",
"....................",
"....................",
"....................",
"....................",
".......++..++.......",
".......++..++.......",
"....................",
"....................",
".......++..++.......",
".......++..++.......",
"....................",
"....................",
"....................",
"....................",
"....................",
"....................",
"...................."};
