/* XPM */
static char * stuck_unfocus_xpm[] = {
"20 20 3 1",
" 	c None",
".	c #333333",
"+	c #6CD1B2",
"....................",
"....................",
"....................",
"....................",
"....................",
"....................",
"....................",
".......++..++.......",
".......++..++.......",
"....................",
"....................",
".......++..++.......",
".......++..++.......",
"....................",
"....................",
"....................",
"....................",
"....................",
"....................",
"...................."};
