/* XPM */
static char * quit_xpm[] = {
"16 16 6 1",
" 	c None",
".	c #FFFFFF",
"+	c #000000",
"@	c #DFDFDF",
"#	c #808080",
"$	c #C0C0C0",
"...............+",
".@@@@@@@@@@@@@#+",
".@$$$$$$$$$$$$#+",
".@$$$$$$$$$$$$#+",
".@$$++$$$$++$$#+",
".@$$$++$$++$$$#+",
".@$$$$++++$$$$#+",
".@$$$$$++$$$$$#+",
".@$$$$++++$$$$#+",
".@$$$++$$++$$$#+",
".@$$++$$$$++$$#+",
".@$$$$$$$$$$$$#+",
".@$$$$$$$$$$$$#+",
".@$$$$$$$$$$$$#+",
".##############+",
"++++++++++++++++"};
