#define slate_width 128
#define slate_height 128
static unsigned char slate_bits[] = {
   0x84, 0x00, 0x00, 0x08, 0x80, 0x00, 0x22, 0x00, 0x00, 0x00, 0x00, 0x00,
   0x14, 0x00, 0x00, 0x01, 0x00, 0x50, 0x01, 0x00, 0x10, 0xe0, 0x01, 0x00,
   0x00, 0x01, 0x00, 0x00, 0x00, 0x00, 0x00, 0x00, 0x00, 0x10, 0x00, 0x00,
   0x28, 0x38, 0x00, 0x80, 0x30, 0x00, 0x00, 0x00, 0x02, 0x10, 0x80, 0x00,
   0x00, 0x00, 0x00, 0x00, 0x08, 0x5d, 0x00, 0x40, 0x00, 0x00, 0x00, 0x00,
   0x00, 0x04, 0x00, 0x00, 0x00, 0x00, 0x00, 0x00, 0x00, 0x00, 0x02, 0x20,
   0x04, 0x00, 0x00, 0x00, 0x20, 0x02, 0x00, 0x00, 0x00, 0x01, 0x00, 0x00,
   0x08, 0x00, 0x00, 0x00, 0x01, 0x00, 0x40, 0x00, 0x15, 0x02, 0x00, 0x02,
   0x00, 0x01, 0x00, 0x00, 0x00, 0x00, 0x00, 0x04, 0x05, 0x00, 0x40, 0x00,
   0x01, 0x00, 0x00, 0x00, 0x00, 0x00, 0x00, 0x00, 0x05, 0x00, 0x00, 0x00,
   0x00, 0x00, 0x08, 0x20, 0x36, 0x00, 0x00, 0x40, 0x00, 0x00, 0x00, 0x00,
   0x04, 0x00, 0x00, 0x08, 0x00, 0x00, 0x70, 0x80, 0x08, 0x00, 0x00, 0x00,
   0x00, 0x00, 0x00, 0x00, 0x10, 0x00, 0x00, 0x00, 0x00, 0x00, 0x00, 0x30,
   0x03, 0x00, 0x80, 0x00, 0x00, 0x00, 0x80, 0x00, 0x00, 0x00, 0x00, 0x80,
   0x00, 0x00, 0x00, 0x48, 0x00, 0x00, 0xc0, 0x00, 0x00, 0x00, 0x00, 0x00,
   0x05, 0x00, 0x80, 0x40, 0x00, 0x00, 0x01, 0xa8, 0x00, 0x00, 0x40, 0x00,
   0x00, 0x00, 0x40, 0x00, 0x02, 0x00, 0x80, 0x82, 0x00, 0x00, 0x28, 0x46,
   0x00, 0x00, 0x00, 0x00, 0x00, 0x00, 0x04, 0x40, 0x14, 0x00, 0xc0, 0x00,
   0x00, 0x00, 0x81, 0x08, 0x00, 0x00, 0x00, 0x00, 0x00, 0x00, 0x00, 0x00,
   0x08, 0x00, 0x00, 0xd0, 0x0e, 0x80, 0x02, 0x11, 0x00, 0x00, 0x00, 0x00,
   0x00, 0x00, 0x00, 0x20, 0x08, 0x00, 0x80, 0x53, 0x01, 0x00, 0x40, 0x04,
   0x02, 0x00, 0x00, 0x00, 0x00, 0x00, 0x00, 0x00, 0x00, 0x00, 0xe8, 0xd3,
   0x02, 0xe0, 0x84, 0x02, 0x4c, 0x02, 0x00, 0x00, 0x00, 0x00, 0x00, 0x12,
   0x04, 0x00, 0x68, 0x30, 0x01, 0x14, 0x80, 0x00, 0x23, 0x01, 0x00, 0x00,
   0x00, 0x00, 0x00, 0x01, 0x00, 0x00, 0x50, 0xc0, 0x03, 0x00, 0x25, 0x00,
   0x00, 0x01, 0x00, 0x00, 0x00, 0x00, 0x00, 0x80, 0x01, 0x00, 0x30, 0x0b,
   0x02, 0x11, 0x40, 0x40, 0x0b, 0x00, 0x00, 0x00, 0x00, 0x00, 0x00, 0x00,
   0x01, 0x00, 0x50, 0x20, 0xa0, 0x80, 0x04, 0x40, 0xa0, 0x00, 0x00, 0x00,
   0x00, 0x00, 0x48, 0x81, 0x00, 0x00, 0xb5, 0x02, 0x20, 0x00, 0x00, 0x50,
   0x01, 0x00, 0x00, 0x00, 0x00, 0x00, 0xd0, 0x00, 0x01, 0x00, 0x34, 0x55,
   0x11, 0x20, 0x00, 0x66, 0x10, 0x00, 0x00, 0x00, 0x10, 0x00, 0xa8, 0xc0,
   0x03, 0x40, 0x38, 0x92, 0x00, 0x00, 0x00, 0x0a, 0x08, 0x00, 0x01, 0x00,
   0x00, 0x00, 0xe4, 0x00, 0x00, 0x00, 0x2a, 0x27, 0x05, 0x00, 0xa8, 0xa8,
   0x06, 0x00, 0x00, 0x00, 0x04, 0x00, 0x08, 0x84, 0x03, 0x20, 0x57, 0x40,
   0x03, 0x10, 0x40, 0x00, 0x00, 0x00, 0x40, 0x00, 0x14, 0x00, 0x40, 0xc0,
   0x00, 0x08, 0x04, 0x11, 0x35, 0x08, 0x40, 0x02, 0x08, 0x00, 0x00, 0xf0,
   0x04, 0x00, 0x00, 0x58, 0x00, 0x84, 0x28, 0x88, 0x02, 0x00, 0x90, 0x00,
   0x02, 0x00, 0x41, 0x14, 0x00, 0x00, 0x00, 0x54, 0x00, 0x80, 0x20, 0x54,
   0x01, 0x00, 0x08, 0x01, 0x08, 0x00, 0x00, 0x0a, 0x00, 0x00, 0x20, 0x00,
   0x40, 0x20, 0x8a, 0x02, 0x01, 0x00, 0x00, 0x80, 0x00, 0x00, 0x20, 0x01,
   0x00, 0x00, 0x42, 0x00, 0x40, 0x00, 0x00, 0x48, 0x00, 0x00, 0x40, 0x00,
   0x02, 0x00, 0x40, 0x00, 0x00, 0x00, 0x02, 0x00, 0x00, 0x00, 0x00, 0x86,
   0x02, 0x00, 0x00, 0x20, 0x00, 0x00, 0x00, 0x00, 0x00, 0x00, 0x13, 0x00,
   0x00, 0x20, 0x80, 0x06, 0x03, 0x00, 0x10, 0xc0, 0x00, 0x00, 0xa0, 0x00,
   0x00, 0x40, 0x02, 0x00, 0x00, 0x00, 0xd0, 0x43, 0x01, 0x00, 0x00, 0x04,
   0x00, 0x00, 0x08, 0x00, 0x00, 0x80, 0x02, 0x00, 0x00, 0x00, 0x60, 0xd1,
   0x00, 0x00, 0x30, 0x80, 0x00, 0x00, 0x00, 0x00, 0x00, 0x44, 0x08, 0x00,
   0x00, 0x00, 0x1a, 0xec, 0x00, 0x00, 0x2c, 0x00, 0x00, 0x00, 0x01, 0x10,
   0x00, 0x20, 0x00, 0x00, 0x00, 0x00, 0xa9, 0x6a, 0x81, 0x00, 0x10, 0x00,
   0x00, 0x88, 0x00, 0x00, 0x00, 0x08, 0x00, 0x00, 0x00, 0x00, 0x44, 0x26,
   0x00, 0x00, 0x00, 0x82, 0x00, 0x00, 0x00, 0x00, 0x00, 0x38, 0x02, 0x00,
   0x00, 0x40, 0x80, 0x44, 0x00, 0x00, 0x20, 0xd4, 0x00, 0x00, 0x00, 0x00,
   0x00, 0x00, 0x00, 0x00, 0x00, 0x00, 0x24, 0x08, 0x00, 0x00, 0x10, 0x09,
   0x00, 0x00, 0x00, 0x00, 0x00, 0x00, 0x01, 0x00, 0x18, 0x10, 0x08, 0x02,
   0x00, 0x00, 0x08, 0x6a, 0x00, 0x00, 0x01, 0x00, 0x00, 0x00, 0x00, 0x00,
   0x08, 0x04, 0x21, 0x00, 0x00, 0x00, 0x14, 0x04, 0x00, 0x40, 0x80, 0x08,
   0x00, 0x00, 0x00, 0x00, 0x30, 0x90, 0x08, 0x5a, 0x01, 0x00, 0x10, 0x00,
   0x00, 0xc0, 0x00, 0x41, 0x00, 0x00, 0x00, 0x00, 0x06, 0x2c, 0x00, 0x11,
   0x00, 0x00, 0xc0, 0x00, 0x00, 0x90, 0x00, 0x00, 0x00, 0x00, 0x00, 0x00,
   0x28, 0x04, 0x04, 0x8a, 0x00, 0x00, 0x00, 0x00, 0x00, 0x50, 0x02, 0x00,
   0x00, 0x00, 0x08, 0x00, 0x00, 0x18, 0x40, 0x24, 0x00, 0x00, 0x64, 0x00,
   0x00, 0x70, 0x01, 0x2b, 0x00, 0x08, 0x10, 0x00, 0x00, 0x04, 0x40, 0x02,
   0x00, 0x80, 0x50, 0x00, 0x00, 0x7c, 0x01, 0x10, 0x00, 0x00, 0x04, 0x00,
   0x00, 0x00, 0x00, 0x20, 0x00, 0x80, 0x2a, 0x80, 0x01, 0x1e, 0x00, 0x00,
   0x00, 0x00, 0x00, 0x00, 0x00, 0x00, 0x00, 0x48, 0x08, 0x20, 0x34, 0x00,
   0x00, 0x29, 0x00, 0x00, 0x00, 0x00, 0x1a, 0x00, 0x00, 0x01, 0x00, 0x12,
   0x00, 0xa4, 0x00, 0x40, 0x00, 0x02, 0x80, 0x20, 0x80, 0x02, 0x05, 0x00,
   0xd0, 0x00, 0xb4, 0x01, 0x00, 0x00, 0x00, 0x40, 0xc0, 0x0a, 0x20, 0x00,
   0x00, 0x80, 0x08, 0x00, 0x00, 0x02, 0x00, 0x05, 0x00, 0x40, 0x00, 0x08,
   0x50, 0x20, 0x00, 0x02, 0x00, 0x58, 0x00, 0x00, 0xa0, 0x02, 0x74, 0x00,
   0x00, 0x02, 0x00, 0x20, 0x80, 0x01, 0x20, 0x00, 0x00, 0x08, 0x11, 0x00,
   0x45, 0x00, 0x00, 0x01, 0xa0, 0x80, 0x03, 0x05, 0x14, 0x02, 0x00, 0x40,
   0x00, 0x00, 0x22, 0x00, 0x10, 0x80, 0x00, 0x00, 0x20, 0x90, 0x02, 0x3d,
   0x00, 0x09, 0x00, 0x91, 0x00, 0x54, 0x09, 0x40, 0x00, 0x00, 0x04, 0x00,
   0x00, 0x00, 0x41, 0x00, 0x28, 0x80, 0x20, 0x00, 0x00, 0x10, 0x05, 0x04,
   0x80, 0x00, 0x00, 0x00, 0x00, 0x80, 0x00, 0x14, 0xa4, 0x42, 0x00, 0x40,
   0x00, 0x08, 0x00, 0x00, 0x00, 0x00, 0x80, 0x00, 0x01, 0x41, 0x00, 0x15,
   0x00, 0x00, 0x00, 0x00, 0x00, 0x10, 0x00, 0x02, 0x10, 0x00, 0x00, 0x80,
   0x88, 0x60, 0xa1, 0x12, 0xa0, 0x00, 0x00, 0x02, 0x00, 0x24, 0x23, 0x00,
   0x40, 0x00, 0x40, 0x00, 0x30, 0x18, 0x28, 0x05, 0x2a, 0x00, 0x01, 0x00,
   0x00, 0xc0, 0x08, 0x00, 0x80, 0x00, 0x08, 0x80, 0x16, 0xcc, 0x58, 0x02,
   0x00, 0x00, 0x00, 0x00, 0x00, 0x05, 0x04, 0x00, 0x03, 0x00, 0x0a, 0x88,
   0x50, 0x12, 0x00, 0x81, 0x02, 0x02, 0x00, 0x00, 0x00, 0x68, 0x08, 0x00,
   0x21, 0x16, 0x07, 0x60, 0x83, 0x00, 0x00, 0x00, 0x40, 0x03, 0x00, 0x00,
   0x20, 0x02, 0x04, 0x05, 0xa0, 0x40, 0x00, 0x5a, 0x01, 0x04, 0x00, 0x01,
   0x50, 0x00, 0x00, 0x00, 0x00, 0x61, 0x01, 0x14, 0x91, 0x02, 0x02, 0x28,
   0x00, 0x00, 0x00, 0x10, 0x50, 0x21, 0x00, 0x00, 0x20, 0x5a, 0x78, 0x00,
   0xe6, 0x41, 0x01, 0x36, 0x00, 0x41, 0x00, 0x00, 0x00, 0x00, 0x00, 0x00,
   0x00, 0x1b, 0x0d, 0x24, 0x8a, 0x82, 0x40, 0x1b, 0x00, 0x39, 0x64, 0x01,
   0x38, 0x03, 0x00, 0x00, 0x60, 0xbf, 0x08, 0x0c, 0x41, 0x81, 0xd0, 0x06,
   0x00, 0x00, 0x08, 0x01, 0x00, 0x01, 0x00, 0x00, 0xd0, 0xee, 0x8d, 0x12,
   0xa0, 0x60, 0xa0, 0x13, 0x20, 0x00, 0x10, 0x00, 0x00, 0x01, 0x00, 0x00,
   0x34, 0x51, 0x4a, 0x20, 0xa4, 0x00, 0x52, 0x24, 0x04, 0x00, 0x01, 0x10,
   0x44, 0x00, 0x00, 0x00, 0x50, 0x06, 0x80, 0x00, 0x51, 0xd8, 0x04, 0x01,
   0x00, 0x04, 0x00, 0x20, 0x02, 0x00, 0x00, 0x00, 0x14, 0x00, 0x00, 0x00,
   0x63, 0x80, 0x50, 0x02, 0xc0, 0x16, 0x00, 0x00, 0x20, 0x00, 0x00, 0x00,
   0x89, 0x08, 0x08, 0x80, 0x20, 0x42, 0xac, 0x00, 0x00, 0x0e, 0x00, 0x00,
   0x4a, 0x00, 0x00, 0x00, 0x24, 0xa4, 0x02, 0x80, 0x0c, 0x58, 0xc9, 0x00,
   0xc0, 0x01, 0x00, 0x04, 0x01, 0x00, 0x00, 0x40, 0x28, 0x10, 0x05, 0x40,
   0x88, 0x4e, 0x02, 0x00, 0x40, 0x01, 0x00, 0x01, 0x00, 0x20, 0x00, 0x00,
   0x16, 0x10, 0x00, 0x80, 0x83, 0x24, 0x30, 0x00, 0x80, 0x00, 0x60, 0x0c,
   0x02, 0x04, 0x00, 0x00, 0x08, 0xc0, 0x00, 0x80, 0xc0, 0x96, 0x40, 0x41,
   0x61, 0x00, 0x00, 0x84, 0x31, 0x00, 0x06, 0x00, 0x08, 0x14, 0x00, 0x60,
   0x40, 0x00, 0x04, 0x00, 0x88, 0x00, 0x10, 0x40, 0x29, 0x00, 0x01, 0x00,
   0x02, 0x18, 0x00, 0x28, 0x11, 0x28, 0x00, 0x00, 0x00, 0x00, 0x08, 0x80,
   0x02, 0x00, 0x02, 0x00, 0x02, 0x00, 0x01, 0x28, 0x22, 0x04, 0x00, 0x00,
   0x04, 0x00, 0x02, 0x2c, 0x00, 0x00, 0x00, 0x00, 0x82, 0x04, 0x00, 0x20,
   0x90, 0x00, 0x00, 0x40, 0x0b, 0x00, 0x08, 0x48, 0x01, 0x00, 0x00, 0x00,
   0x00, 0x01, 0x00, 0x0c, 0x01, 0x00, 0x00, 0x80, 0x00, 0x01, 0x00, 0x04,
   0x00, 0x00, 0x00, 0x04, 0x00, 0x82, 0x01, 0x10, 0x00, 0x00, 0x00, 0x50,
   0x40, 0x00, 0x00, 0x00, 0x00, 0x00, 0x00, 0x00, 0x80, 0x00, 0x00, 0x01,
   0x81, 0x00, 0x80, 0x10, 0x04, 0x00, 0x00, 0x60, 0x00, 0x00, 0x00, 0x00,
   0x00, 0x00, 0x00, 0x02, 0x80, 0x02, 0x00, 0x00, 0x00, 0x00, 0x00, 0x9c,
   0x00, 0x00, 0x00, 0x00, 0x80, 0x00, 0x40, 0x00, 0x00, 0x00, 0x00, 0x00,
   0x00, 0x00, 0x00, 0x44, 0x00, 0x00, 0x00, 0x00, 0x40, 0x08, 0x00, 0x09,
   0x19, 0x00, 0x80, 0x08, 0x00, 0x00, 0x00, 0x40, 0x00, 0x00, 0x00, 0x00,
   0x00, 0x00, 0x40, 0x08, 0x00, 0x00, 0x00, 0x00, 0x00, 0x00, 0x00, 0x16,
   0x00, 0x00, 0x00, 0x00, 0x00, 0x00, 0x04, 0x00, 0x00, 0x00, 0x10, 0x00,
   0x00, 0x00, 0x00, 0x06, 0x00, 0x00, 0x00, 0x00, 0x00, 0x10, 0x2a, 0x00,
   0x11, 0x00, 0x00, 0x00, 0x00, 0x00, 0xa0, 0x02, 0x00, 0x00, 0x00, 0x00,
   0x00, 0x00, 0x03, 0x40, 0x04, 0x00, 0x00, 0x00, 0x00, 0x00, 0x80, 0x00,
   0x00, 0x00, 0x00, 0x00, 0x00, 0x40, 0x05, 0x80, 0x00, 0x00, 0x00, 0x00,
   0x00, 0x00, 0x80, 0x00, 0x00, 0x00, 0x00, 0x00, 0x00, 0x00, 0x01, 0x00,
   0x00, 0x00, 0x01, 0x00, 0x00, 0x00, 0x00, 0x00, 0x00, 0x00, 0x00, 0x00,
   0x00, 0xc4, 0x02, 0x10, 0x10, 0x80, 0x00, 0x00, 0x00, 0x00, 0x80, 0x00,
   0x00, 0x00, 0x00, 0x00, 0x04, 0x70, 0x01, 0x00, 0x02, 0x00, 0x00, 0x00,
   0x00, 0x00, 0x00, 0x00, 0x00, 0x00, 0x00, 0x00, 0x81, 0x1c, 0x40, 0x00,
   0x01, 0x00, 0x00, 0x00, 0x00, 0x00, 0x80, 0x00, 0x00, 0x00, 0x00, 0x00,
   0x80, 0x10, 0x00, 0x88, 0x02, 0x00, 0x00, 0x00, 0x00, 0x00, 0x00, 0x00,
   0x00, 0x00, 0x00, 0xc0, 0x00, 0x40, 0x00, 0x40, 0x00, 0x00, 0x00, 0x00,
   0x00, 0x00, 0x00, 0x00, 0x00, 0x00, 0x00, 0x00, 0xa0, 0x00, 0x80, 0xc0,
   0x2a, 0x80, 0x01, 0x00, 0x00, 0x00, 0x00, 0x00, 0x00, 0x00, 0x00, 0x00,
   0x00, 0x08, 0x20, 0x28, 0x01, 0x00, 0x00, 0x00, 0x00, 0x00, 0x00, 0x00,
   0x00, 0x00, 0x00, 0x00, 0x00, 0x00, 0x00, 0xe0, 0x20, 0x00, 0x00, 0x00,
   0x00, 0x00, 0x00, 0x00, 0x00, 0x00, 0x00, 0x00, 0x00, 0x00, 0x00, 0x10,
   0x00, 0x00, 0x00, 0x00, 0x00, 0x00, 0x00, 0x00, 0x00, 0x00, 0x00, 0x00,
   0x04, 0x00, 0x00, 0x20, 0x04, 0x00, 0x00, 0x00, 0x00, 0x00, 0x00, 0x00,
   0x00, 0x00, 0x00, 0x00, 0x00, 0x00, 0x00, 0x10, 0x00, 0x00, 0x00, 0x00,
   0x00, 0x00, 0x00, 0x00, 0x00, 0x00, 0x00, 0x00, 0x02, 0x00, 0x00, 0xa8,
   0x00, 0x00, 0x00, 0x00, 0x00, 0x00, 0x00, 0x00, 0x00, 0x00, 0x00, 0x00,
   0x00, 0x00, 0x00, 0x05, 0x00, 0x40, 0x00, 0x00, 0x00, 0x00, 0x00, 0x00,
   0x00, 0x00, 0x00, 0x00, 0x04, 0x00, 0x00, 0x08, 0x00, 0x00, 0x00, 0x00,
   0x00, 0x00, 0x00, 0x00, 0x00, 0x00, 0x00, 0x00, 0x00, 0x00, 0x00, 0x08,
   0x00, 0x00, 0x00, 0x00, 0x00, 0x00, 0x00, 0x00, 0x00, 0x00, 0x08, 0x00,
   0x00, 0x00, 0x00, 0x02, 0x00, 0x00, 0x00, 0x00, 0x00, 0x00, 0x00, 0x00,
   0x00, 0x00, 0x18, 0x00, 0x00, 0x00, 0x20, 0x31, 0x00, 0x00, 0x00, 0x00,
   0x00, 0x00, 0x00, 0x00, 0x00, 0x00, 0x00, 0x00, 0x00, 0x20, 0x00, 0x14,
   0x00, 0x40, 0x00, 0x00, 0x00, 0x00, 0x00, 0x00, 0x00, 0x00, 0x04, 0x00,
   0x00, 0x00, 0x40, 0x01, 0x00, 0x00, 0x00, 0x00, 0x00, 0x00, 0x00, 0x00,
   0x00, 0x00, 0x00, 0x00, 0x00, 0x00, 0x00, 0x00, 0x00, 0x00, 0x00, 0x00,
   0x00, 0x00, 0x00, 0x00, 0x00, 0x00, 0x00, 0x00, 0x00, 0x00, 0x18, 0x00,
   0x00, 0x50, 0x00, 0x00, 0x00, 0x40, 0x00, 0x00, 0x00, 0x00, 0x00, 0x00,
   0x00, 0x00, 0x08, 0x02, 0x00, 0x60, 0x00, 0x00, 0x00, 0x00, 0x00, 0x00,
   0x00, 0x00, 0x01, 0x00, 0x00, 0x00, 0x00, 0x00, 0x00, 0x08, 0x00, 0x00,
   0x00, 0x00, 0x00, 0x00, 0x00, 0x00, 0x00, 0x00, 0x00, 0x02, 0x00, 0x00,
   0x00, 0x48, 0x00, 0x00, 0x00, 0x00, 0x00, 0x00, 0x00, 0x40, 0x00, 0x00,
   0x40, 0x00, 0x08, 0x00, 0x00, 0x10, 0x00, 0x00, 0x00, 0x00, 0x00, 0x00,
   0x00, 0x00, 0x00, 0x00, 0x00, 0x00, 0x00, 0x00, 0x00, 0x00, 0x00, 0x00,
   0x00, 0x00, 0x00, 0x00, 0x00, 0x00, 0x00, 0x00, 0x00, 0x00, 0x00, 0x00,
   0x00, 0x00, 0x00, 0x00, 0x00, 0x00, 0x00, 0x00, 0x00, 0x00, 0x00, 0x00,
   0x00, 0x00, 0x00, 0x00, 0x00, 0x00, 0x00, 0x00, 0x00, 0x00, 0x00, 0x00,
   0x00, 0x00, 0x00, 0x00, 0x00, 0x00, 0x00, 0x00, 0x00, 0x00, 0x00, 0x00,
   0x00, 0x00, 0x00, 0x00, 0x00, 0x00, 0x00, 0x00, 0x00, 0x00, 0x04, 0x00,
   0x00, 0x00, 0x00, 0x00, 0x00, 0x00, 0x00, 0x00, 0x00, 0x00, 0x00, 0x00,
   0x00, 0x00, 0x00, 0x00, 0x00, 0x00, 0x00, 0x00, 0x00, 0x00, 0x00, 0x00,
   0x00, 0x00, 0x00, 0x00, 0x00, 0x00, 0x00, 0x00, 0x00, 0x00, 0x00, 0x0e,
   0x00, 0x00, 0x00, 0x00, 0x00, 0x04, 0x00, 0x00, 0x00, 0x00, 0x01, 0x00,
   0x00, 0x00, 0x00, 0x01, 0x00, 0x00, 0x00, 0x00, 0x00, 0x00, 0x00, 0x20,
   0x00, 0x00, 0x00, 0x00, 0x00, 0x00, 0x80, 0x02, 0x00, 0x00, 0x00, 0x00,
   0x00, 0x00, 0x00, 0x00, 0x00, 0x00, 0x00, 0x00, 0x00, 0x00, 0x90, 0x00,
   0x00, 0x00, 0x00, 0x00, 0x00, 0x00, 0x00, 0x00 };
