<svg height="511pt" viewBox="0 0 511.99377 511" width="511pt" xmlns="http://www.w3.org/2000/svg"><path d="m196.265625 247.953125h59.734375c9.425781 0 17.066406 7.640625 17.066406 17.066406v25.601563h-93.867187v-25.601563c0-9.425781 7.640625-17.066406 17.066406-17.066406zm0 0" fill="#00838f"/><path d="m187.734375 247.953125h42.664063c9.425781 0 17.066406 7.640625 17.066406 17.066406v25.601563h-76.796875v-25.601563c0-9.425781 7.640625-17.066406 17.066406-17.066406zm0 0" fill="#00bcd4"/><path d="m68.265625 247.953125h25.601563c9.425781 0 17.066406 7.640625 17.066406 17.066406v25.601563h-59.734375v-25.601563c0-9.425781 7.640625-17.066406 17.066406-17.066406zm0 0" fill="#00838f"/><path d="m68.265625 247.953125h8.535156c9.425781 0 17.066407 7.640625 17.066407 17.066406v25.601563h-42.667969v-25.601563c0-9.425781 7.640625-17.066406 17.066406-17.066406zm0 0" fill="#00bcd4"/><path d="m347.050781 36.414062-1.878906 16.210938-25.597656 169.132812h-.085938c-.902343.15625-1.820312.183594-2.730469.085938l-25.34375-2.988281-127.234374-14.847657c-2.25-.257812-4.308594-1.402343-5.71875-3.179687-1.410157-1.773437-2.054688-4.039063-1.789063-6.292969l20.820313-178.003906c.578124-4.660156 4.8125-7.976562 9.472656-7.425781l152.578125 17.835937c2.25.257813 4.308593 1.398438 5.71875 3.175782 1.410156 1.777343 2.054687 4.042968 1.789062 6.296874zm0 0" fill="#00838f"/><path d="m318.464844 36.414062-1.878906 16.210938-25.171876 166.230469-127.234374-14.847657c-2.25-.257812-4.308594-1.402343-5.71875-3.179687-1.410157-1.773437-2.054688-4.039063-1.789063-6.292969l20.820313-178.003906c.226562-1.871094 1.066406-3.613281 2.390624-4.949219l131.070313 15.359375c2.253906.257813 4.3125 1.398438 5.722656 3.175782 1.410157 1.777343 2.050781 4.042968 1.789063 6.296874zm0 0" fill="#00bcd4"/><path d="m42.667969 282.078125h256c18.851562 0 34.132812 15.28125 34.132812 34.132813v153.609374c0 18.851563-15.28125 34.132813-34.132812 34.132813h-256c-18.851563 0-34.132813-15.28125-34.132813-34.132813v-153.609374c0-18.851563 15.28125-34.132813 34.132813-34.132813zm0 0" fill="#4527a0"/><path d="m42.667969 282.078125h221.867187c18.847656 0 34.132813 15.28125 34.132813 34.132813v153.609374c0 18.851563-15.285157 34.132813-34.132813 34.132813h-221.867187c-18.851563 0-34.132813-15.28125-34.132813-34.132813v-153.609374c0-18.851563 15.28125-34.132813 34.132813-34.132813zm0 0" fill="#673ab7"/><path d="m298.667969 397.289062c0 40.058594-32.476563 72.53125-72.535157 72.53125-40.058593 0-72.53125-32.472656-72.53125-72.53125 0-40.0625 32.472657-72.535156 72.53125-72.535156 40.058594 0 72.535157 32.472656 72.535157 72.535156zm0 0" fill="#ffb301"/><path d="m273.066406 397.289062c0-40.0625-26.742187-72.535156-59.734375-72.535156-32.988281 0-59.730469 32.472656-59.730469 72.535156 0 40.058594 26.742188 72.53125 59.730469 72.53125 32.992188 0 59.734375-32.472656 59.734375-72.53125zm0 0" fill="#fdd834"/><path d="m264.535156 397.289062c0 21.207032-17.195312 38.398438-38.402344 38.398438-21.207031 0-38.398437-17.191406-38.398437-38.398438 0-21.210937 17.191406-38.402343 38.398437-38.402343 21.207032 0 38.402344 17.191406 38.402344 38.402343zm0 0" fill="#00838f"/><path d="m238.933594 397.289062c0-21.210937-11.460938-38.402343-25.601563-38.402343-14.136719 0-25.597656 17.191406-25.597656 38.402343 0 21.207032 11.460937 38.398438 25.597656 38.398438 14.140625 0 25.601563-17.191406 25.601563-38.398438zm0 0" fill="#00bcd4"/><path d="m59.734375 316.210938h42.664063c9.425781 0 17.066406 7.640624 17.066406 17.066406 0 9.425781-7.640625 17.066406-17.066406 17.066406h-42.664063c-9.425781 0-17.066406-7.640625-17.066406-17.066406 0-9.425782 7.640625-17.066406 17.066406-17.066406zm0 0" fill="#02a9f4"/><path d="m307.285156 82.5625 1.878906-16.214844c.261719-2.253906-.382812-4.519531-1.789062-6.296875-1.410156-1.773437-3.46875-2.917969-5.722656-3.175781l-84.734375-9.984375c-4.683594-.515625-8.90625 2.835937-9.472657 7.511719l-9.898437 84.734375c-.265625 2.253906.375 4.519531 1.785156 6.300781 1.410157 1.777344 3.46875 2.921875 5.722657 3.179688l62.550781 7.339843zm0 0" fill="#3f51b5"/><path d="m500.222656 147.601562-140.542968 111.105469c-1.785157 1.410157-4.058594 2.054688-6.316407 1.78125-2.261719-.273437-4.316406-1.4375-5.714843-3.234375l-13.140626-16.640625-82.09375-103.847656c-2.902343-3.683594-2.292968-9.015625 1.367188-11.949219l140.628906-111.101562c1.398438-1.152344 3.140625-1.8125 4.949219-1.878906 2.714844-.09375 5.316406 1.109374 6.996094 3.242187l95.234375 120.492187c1.421875 1.773438 2.078125 4.039063 1.820312 6.300782-.253906 2.257812-1.402344 4.320312-3.1875 5.730468zm0 0" fill="#00838f"/><path d="m480.085938 127.71875-140.628907 111.105469c-1.429687 1.089843-3.15625 1.714843-4.949219 1.789062l-82.09375-103.847656c-2.902343-3.683594-2.292968-9.015625 1.367188-11.949219l140.628906-111.101562c1.398438-1.152344 3.140625-1.8125 4.949219-1.878906l82.089844 103.851562c2.910156 3.710938 2.300781 9.066406-1.363281 12.03125zm0 0" fill="#00bcd4"/><path d="m452.285156 141.957031-66.945312 52.914063c-3.695313 2.921875-9.0625 2.296875-11.984375-1.402344l-52.917969-66.945312c-2.921875-3.695313-2.292969-9.0625 1.402344-11.984376l66.945312-52.917968c3.695313-2.921875 9.0625-2.292969 11.984375 1.402344l52.917969 66.945312c2.921875 3.699219 2.296875 9.0625-1.402344 11.988281zm0 0" fill="#3f51b5"/><path d="m119.464844 333.289062c-.066406 9.394532-7.667969 16.996094-17.066406 17.066407h-25.597657v-34.136719h25.597657c9.425781 0 17.066406 7.644531 17.066406 17.070312zm0 0" fill="#0377bc"/><path d="m298.667969 273.554688h-17.066407v-8.535157c0-14.136719-11.464843-25.597656-25.601562-25.597656h-59.734375c-14.136719 0-25.597656 11.460937-25.597656 25.597656v8.535157h-51.203125v-8.535157c0-14.136719-11.460938-25.597656-25.597656-25.597656h-25.601563c-14.136719 0-25.597656 11.460937-25.597656 25.597656v8.535157c-23.554688.027343-42.6406252 19.113281-42.667969 42.664062v153.601562c.0273438 23.550782 19.113281 42.640626 42.667969 42.667969h256c23.550781-.027343 42.636719-19.117187 42.664062-42.667969v-153.601562c-.027343-23.550781-19.113281-42.636719-42.664062-42.664062zm-110.933594-8.535157c0-4.710937 3.820313-8.53125 8.53125-8.53125h59.734375c4.710938 0 8.535156 3.820313 8.535156 8.53125v8.535157h-76.800781zm-128 0c0-4.710937 3.820313-8.53125 8.53125-8.53125h25.601563c4.710937 0 8.53125 3.820313 8.53125 8.53125v8.535157h-42.664063zm264.53125 204.800781c0 14.140626-11.460937 25.601563-25.597656 25.601563h-256c-14.140625 0-25.601563-11.460937-25.601563-25.601563v-153.601562c0-14.136719 11.460938-25.597656 25.601563-25.597656h256c14.136719 0 25.597656 11.460937 25.597656 25.597656zm0 0"/><path d="m226.132812 316.21875c-44.769531 0-81.066406 36.296875-81.066406 81.070312 0 44.769532 36.296875 81.066407 81.066406 81.066407 44.773438 0 81.066407-36.296875 81.066407-81.066407-.050781-44.753906-36.316407-81.015624-81.066407-81.070312zm0 145.070312c-35.34375 0-64-28.65625-64-64 0-35.347656 28.65625-64 64-64 35.347657 0 64 28.652344 64 64-.042968 35.328126-28.671874 63.957032-64 64zm0 0"/><path d="m226.132812 350.355469c-25.921874 0-46.933593 21.011719-46.933593 46.933593 0 25.917969 21.011719 46.929688 46.933593 46.929688 25.921876 0 46.933594-21.011719 46.933594-46.929688-.027344-25.910156-21.023437-46.90625-46.933594-46.933593zm0 76.796875c-16.496093 0-29.867187-13.371094-29.867187-29.863282 0-16.496093 13.371094-29.867187 29.867187-29.867187 16.496094 0 29.867188 13.371094 29.867188 29.867187 0 16.492188-13.371094 29.863282-29.867188 29.863282zm0 0"/><path d="m102.398438 307.6875h-42.664063c-14.140625 0-25.601563 11.460938-25.601563 25.601562 0 14.136719 11.460938 25.597657 25.601563 25.597657h42.664063c14.140624 0 25.601562-11.460938 25.601562-25.597657 0-14.140624-11.460938-25.601562-25.601562-25.601562zm0 34.132812h-42.664063c-4.714844 0-8.535156-3.820312-8.535156-8.53125 0-4.714843 3.820312-8.535156 8.535156-8.535156h42.664063c4.714843 0 8.535156 3.820313 8.535156 8.535156 0 4.710938-3.820313 8.53125-8.535156 8.53125zm0 0"/><path d="m413.074219 9.78125c-5.847657-7.382812-16.566407-8.632812-23.953125-2.800781l-33.621094 26.554687c-.835938-7.914062-7.058594-14.1875-14.96875-15.085937l-152.492188-17.824219c-4.496093-.5546875-9.03125.707031-12.597656 3.503906-3.570312 2.792969-5.878906 6.894532-6.421875 11.394532l-20.828125 178.066406c-.511718 4.484375.777344 8.988281 3.582032 12.523437 2.796874 3.570313 6.910156 5.863281 11.417968 6.359375l152.21875 17.792969 25.546875 32.324219c2.808594 3.550781 6.910157 5.84375 11.410157 6.371094 4.496093.527343 9.019531-.757813 12.570312-3.566407l140.570312-111.128906c3.550782-2.804687 5.84375-6.910156 6.371094-11.40625s-.757812-9.019531-3.566406-12.570313zm-247.921875 185.734375 20.824218-177.960937 152.601563 17.859374-1.46875 12.664063-19.5 15.410156c-.347656-3.1875-1.589844-6.214843-3.582031-8.730469-2.789063-3.570312-6.90625-5.863281-11.410156-6.355468l-84.777344-9.992188c-4.492188-.53125-9.011719.753906-12.554688 3.566406-3.542968 2.8125-5.820312 6.921876-6.320312 11.417969l-9.882813 84.640625c-.566406 4.515625.699219 9.070313 3.515625 12.648438 2.8125 3.574218 6.945313 5.875 11.46875 6.382812l58.980469 6.917969 37.402344 47.328125zm83.371094-77.40625c-7.390626 5.84375-8.648438 16.578125-2.804688 23.972656l2.363281 2.984375-42.054687-4.941406 9.867187-84.761719 84.792969 9.976563-1.464844 12.664062zm105.816406 133.898437-79.933594-101.136718c-.085938-.121094-.179688-.238282-.28125-.359375l-15.027344-19.011719 53.222656-42.070312c.171876-.117188.324219-.246094.484376-.382813l37.410156-29.570313c.171875-.121093.332031-.25.488281-.390624l48.988281-38.714844 95.242188 120.507812zm0 0"/><path d="m383.488281 54.921875-66.945312 52.90625c-7.382813 5.847656-8.636719 16.570313-2.796875 23.960937l52.90625 66.953126c5.84375 7.386718 16.570312 8.636718 23.960937 2.800781l66.953125-52.910157c7.390625-5.84375 8.644532-16.574218 2.796875-23.96875l-52.90625-66.953124c-5.847656-7.386719-16.578125-8.636719-23.96875-2.789063zm63.503907 80.339844-66.953126 52.957031-52.90625-66.941406 66.953126-52.90625zm0 0"/><path d="m42.667969 384.488281c-4.714844 0-8.535157 3.820313-8.535157 8.53125v42.667969c0 4.710938 3.820313 8.53125 8.535157 8.53125 4.710937 0 8.53125-3.820312 8.53125-8.53125v-42.667969c0-4.710937-3.820313-8.53125-8.53125-8.53125zm0 0"/><path d="m42.667969 461.289062c-4.714844 0-8.535157 3.820313-8.535157 8.53125 0 4.714844 3.820313 8.535157 8.535157 8.535157 4.710937 0 8.53125-3.820313 8.53125-8.535157 0-4.710937-3.820313-8.53125-8.53125-8.53125zm0 0"/></svg>