<svg height="511pt" viewBox="-37 0 511 511.9277" width="511pt" xmlns="http://www.w3.org/2000/svg"><path d="m403.230469 307.125c-11.761719 18.976562-26.125 36.210938-42.667969 51.199219-9.472656 9.300781-28.074219 14.078125-44.800781 16.042969 13.640625-8.949219 14.449219-21.820313 20.78125-34.277344 7.140625-14.035156 18.992187-27.550782 20.347656-34.332032 12.375-3.839843 20.738281-7.167968 20.738281-7.167968 3.917969-2.125 7.632813-4.613282 11.09375-7.421875 2.648438-2.082031 5.183594-4.304688 7.59375-6.65625 8.789063 3.15625 15.617188 9.554687 6.914063 22.613281zm0 0" fill="#fdd7ad"/><path d="m365.253906 305.585938c-2.558594 12.800781-12.117187 49.582031-41.128906 68.609374-7.726562.949219-15.515625 1.320313-23.296875 1.109376.554687-.265626 1.125-.492188 1.707031-.683594 16.363282-6.011719 14.175782-25.042969 22.300782-39.402344 5.941406-10.496094 23.242187-15.484375 28.214843-26.046875 4.355469-1.191406 8.449219-2.390625 12.203125-3.585937zm0 0" fill="#dfc49c"/><path d="m352.027344 51.125c-63.144532-28.078125-97.449219-45.996094-145.578125-42.070312-11.347657.992187-22.59375 2.933593-33.621094 5.800781-66.558594 16.640625-67.839844 43.09375-91.988281 52.566406 12.738281 6.523437 19.097656 21.132813 15.1875 34.902344-3.925782 15.613281-19.371094 15.1875-28.328125 15.1875h-.085938c-5.0625 3.273437-9.777343 7.046875-14.082031 11.265625-4.898438 4.066406-8.019531 9.882812-8.703125 16.210937-.011719.316407.015625.632813.085937.941407.570313 6.09375 1.566407 12.136718 2.988282 18.089843 1.738281-3.335937 3.734375-6.53125 5.972656-9.558593 6.484375-8.617188 15.785156-14.847657 25.085938-.9375 17.066406 25.601562 0 42.667968-8.53125 42.667968-3.414063 0-8.363282-4.269531-12.972657-9.300781-3.070312-3.414063-6.058593-7.167969-8.363281-10.242187-.035156 6.808593-1.859375 13.488281-5.289062 19.371093-4.136719 6.765625-9.589844 12.628907-16.042969 17.238281-17.492188 13.140626-10.324219 21.757813.851562 27.050782 2.546875 1.199218 5.167969 2.226562 7.851563 3.070312 3.671875 1.195313 7.167968 2.046875 10.070312 2.730469 4.011719.855469 6.828125 1.28125 6.828125 1.28125s1.363281.851563 3.839844 2.21875c.425781.253906.9375.597656 1.449219.851563 1.621094.941406 3.667968 2.050781 5.972656 3.328124 2.476562 1.28125 5.121094 11.351563 8.191406 12.886719h.085938c2.988281 1.535157 6.316406 3.242188 9.8125 4.949219 2.476562 1.195312 5.035156 2.390625 7.683594 3.582031 2.8125 1.28125 5.800781 2.648438 8.789062 3.839844.621094.289063 1.28125.492187 1.960938.597656 5.886718 1.109375 11.863281-3.410156 17.75-1.449219 3.839843 1.28125 7.59375 2.390626 11.261718 3.328126 11.890625 2.453124 23.964844 3.882812 36.097656 4.265624l30.207032 1.792969c28.503906 1.960938 56.578125 5.886719 70.230468 19.542969 4.234376 3.976562 9.496094 6.695312 15.1875 7.847656 3.585938.863282 7.242188 1.40625 10.925782 1.621094h.082031l.597656.515625 51.203125-7.765625c11.160156-3 22.15625-6.589844 32.9375-10.753906 3.917969-2.125 7.632813-4.613282 11.09375-7.421875 2.648438-2.082031 5.183594-4.304688 7.59375-6.65625 21.53125-20.871094 33.324219-49.8125 32.511719-79.789063 0-68.265625 0-119.464844-76.800781-153.597656zm-187.730469 128c-6.804687 1.859375-14.046875 1.191406-20.394531-1.878906-21.847656-9.300782-41.644532-38.484375-22.273438-57.855469 1.242188-1.265625 2.550782-2.460937 3.925782-3.585937 22.613281-18.429688 31.144531 12.546874 47.273437 20.652343 9.917969 4.796875 16.453125 14.597657 17.066406 25.601563 0 0 0 8.53125-25.597656 17.066406zm0 0" fill="#fec108"/><path d="m326.429688 51.125c-51.457032-22.871094-83.714844-39-119.980469-42.070312-11.347657.992187-22.59375 2.933593-33.621094 5.800781-66.558594 16.640625-67.839844 43.09375-91.988281 52.566406 12.738281 6.523437 19.097656 21.132813 15.1875 34.902344-3.925782 15.613281-19.371094 15.1875-28.328125 15.1875h-.085938c-5.0625 3.273437-9.777343 7.046875-14.082031 11.265625-4.898438 4.066406-8.019531 9.882812-8.703125 16.210937-.011719.316407.015625.632813.085937.941407 3.582032 1.519531 6.554688 4.191406 8.449219 7.59375.214844.285156.390625.601562.511719.9375 7.460938 9.167968 8.863281 21.855468 3.582031 32.429687-2.433593 4.976563-7.152343 8.449219-12.628906 9.300781-.351563.027344-.699219-.03125-1.023437-.171875-4.136719 6.765625-9.589844 12.628907-16.042969 17.238281-17.492188 13.140626-10.324219 21.757813.851562 27.050782 2.546875 1.199218 5.167969 2.226562 7.851563 3.070312 3.671875 1.195313 7.167968 2.046875 10.070312 2.730469 4.011719.855469 6.828125 1.28125 6.828125 1.28125s1.363281.851563 3.839844 2.21875c.425781.253906.9375.597656 1.449219.851563 1.621094.941406 3.667968 2.050781 5.972656 3.328124 2.476562 1.28125 5.121094 11.351563 8.191406 12.886719h.085938c2.988281 1.535157 6.316406 3.242188 9.8125 4.949219 2.476562 1.195312 5.035156 2.390625 7.683594 3.582031 2.8125 1.28125 5.800781 2.648438 8.789062 3.839844.621094.289063 1.28125.492187 1.960938.597656 5.886718 1.109375 11.863281-3.410156 17.75-1.449219 3.839843 1.28125 7.59375 2.390626 11.261718 3.328126 11.890625 2.453124 23.964844 3.882812 36.097656 4.265624l30.207032 1.792969c28.503906 1.960938 56.578125 5.886719 70.230468 19.542969 4.234376 3.976562 9.496094 6.695312 15.1875 7.847656l37.207032-5.628906c11.164062-3 22.15625-6.589844 32.9375-10.753906 3.921875-2.125 7.632812-4.613282 11.09375-7.421875 2.648437-2.082031 5.183594-4.304688 7.59375-6.65625 21.53125-20.871094 33.328125-49.8125 32.515625-79.789063 0-68.265625 0-119.464844-76.800781-153.597656zm-187.734376 128c-25.601562 8.53125-68.265624-34.136719-42.667968-59.734375 13.226562-13.226563 21.933594-10.496094 29.527344-3.585937 7.167968 6.402343 13.480468 16.472656 21.675781 20.652343 9.917969 4.796875 16.449219 14.597657 17.066406 25.601563 0 0 0 7.335937-20.394531 15.1875-1.625.597656-3.328125 1.28125-5.207032 1.878906zm0 0" fill="#ffdc00"/><path d="m96.027344 102.324219c-3.925782 15.613281-19.371094 15.1875-28.328125 15.1875-3.585938-15.445313-7-43.261719 11.261719-49.320313.65625-.183594 1.285156-.441406 1.878906-.769531 12.738281 6.523437 19.097656 21.132813 15.1875 34.902344zm0 0" fill="#6d4122"/><path d="m189.894531 162.058594s0 8.53125-25.597656 17.066406c-6.804687 1.859375-14.046875 1.191406-20.394531-1.878906-21.847656-9.300782-41.644532-38.484375-22.273438-57.855469 1.242188-1.265625 2.550782-2.460937 3.925782-3.585937 22.613281-18.429688 31.144531 12.546874 47.273437 20.652343 9.917969 4.796875 16.453125 14.597657 17.066406 25.601563zm0 0" fill="#6d4122"/><path d="m164.296875 162.058594s0 7.335937-20.394531 15.1875c-21.847656-9.300782-41.644532-38.484375-22.273438-57.855469 1.242188-1.265625 2.550782-2.460937 3.925782-3.585937 7.167968 6.402343 13.480468 16.472656 21.675781 20.652343 9.917969 4.796875 16.449219 14.597657 17.066406 25.601563zm0 0" fill="#91562d"/><path d="m70.429688 196.191406c-5.804688 0-15.703126-12.035156-21.335938-19.542968 0-4.210938-.398438-8.410157-1.191406-12.542969v-.085938c5.714844-10.835937 18.34375-29.527343 31.058594-10.496093 17.066406 25.601562 0 42.667968-8.53125 42.667968zm0 0" fill="#91562d"/><path d="m352.027344 290.058594c-1.671875 6.695312-4.136719 13.167968-7.335938 19.285156-11.777344 25-22.1875 55.039062-50.519531 65.449219-.582031.191406-1.152344.417969-1.707031.683593h-.167969c-22.53125 8.53125-44.035156 19.625-67.671875 23.636719.769531-2.242187.769531-4.671875 0-6.914062-1.960938-6.570313-8.105469-13.226563-7.253906-20.050781 1.195312-9.984376 15.105468-19.96875 15.105468-25.089844 9.570313-.035156 19.03125-2.007813 27.820313-5.800782 12.542969-5.789062 23.824219-13.996093 33.191406-24.148437 1.59375-1.792969 3.273438-3.5 5.035157-5.121094 4.144531-4.011719 7.785156-8.507812 10.839843-13.398437 3.539063-5.59375 8.402344-10.222656 14.164063-13.480469 14.335937-7.765625 28.5-1.367187 28.5 4.949219zm0 0" fill="#dfc49c"/><path d="m326.429688 290.058594c-1.675782 6.695312-4.136719 13.167968-7.339844 19.285156-11.777344 25-22.1875 55.039062-50.515625 65.449219-.585938.191406-1.15625.417969-1.707031.683593h-.171876c-14.164062 5.375-27.902343 11.773438-42.070312 16.722657-1.960938-6.570313-8.105469-13.226563-7.253906-20.050781 1.195312-9.984376 15.105468-19.96875 15.105468-25.089844 9.570313-.035156 19.03125-2.007813 27.820313-5.800782 12.542969-5.789062 23.824219-13.996093 33.191406-24.148437 1.59375-1.792969 3.273438-3.5 5.035157-5.121094 4.144531-4.011719 7.785156-8.507812 10.839843-13.398437 3.539063-5.59375 8.402344-10.222656 14.164063-13.480469 1.660156 1.128906 2.726562 2.945313 2.902344 4.949219zm0 0" fill="#fdd7ad"/><path d="m232.476562 347.058594c.175782 17.660156-2.476562 35.234375-7.851562 52.054687-5.828125 1.058594-11.738281 1.601563-17.664062 1.621094l-.167969-.085937c4.09375-9.128907-9.902344-20.308594-8.363281-33.792969 0 0 18.941406-9.300781 20.050781-20.136719 4.652343.414062 9.328125.53125 13.996093.339844zm0 0" fill="#dfc49c"/><path d="m218.480469 346.71875c-1.109375 10.835938-2.984375 20.136719-2.984375 20.136719-1.148438 11.644531-4.085938 23.042969-8.703125 33.792969-9.914063 24.613281-33.082031 41.34375-59.5625 43.007812-7.75 18.074219-21.828125 32.699219-39.597657 41.132812h-.085937c-.492187.316407-1.003906.601563-1.535156.851563-1.695313 3.753906-3.175781 7.597656-4.4375 11.519531-.964844 3.644532-4.25 6.195313-8.019531 6.230469h-82.859376c-1.566406-5.542969-2.085937-11.332031-1.535156-17.066406 1.535156-28.503907 18.601563-68.265625 18.601563-68.265625 0-42.667969 0-42.667969 34.132812-85.335938 21.675781-27.136718 8.960938-61.097656-3.242187-82.261718 1.621094.941406 3.667968 2.050781 5.972656 3.328124 6.65625 3.585938 15.703125 8.277344 25.773438 12.886719 6.058593 2.816407 12.542968 5.546875 19.027343 8.105469 3.15625 1.195312 6.316407 2.390625 9.472657 3.414062 3.78125 9.25 3.902343 19.589844.339843 28.929688 5 2.976562 8.597657 7.832031 9.984375 13.480469 1.5625 6.875 1.058594 14.0625-1.449218 20.652343 0 0 7.082031-4.949218 33.707031-4.609374 4.949219 0 10.582031.171874 16.894531.683593h.085938c.585937-4.457031 1.554687-8.855469 2.902343-13.140625-6.132812-12.339844-11.1875-25.191406-15.105469-38.402344-1.160156-4.171874-1.820312-8.46875-1.960937-12.800781.296875-8.390625 6.164063-15.546875 14.335937-17.492187 2.757813-1.027344 5.855469-.535156 8.160157 1.300781 2.304687 1.832031 3.480469 4.738281 3.101562 7.660156.214844 5.546875 1.429688 11.011719 3.585938 16.128907.851562 2.304687 1.875 4.691406 2.984375 6.996093 1.527344 3.125 3.207031 6.171875 5.035156 9.128907 1.28125 2.21875 2.644531 4.269531 4.011719 6.230468 2.914062 4.546875 6.257812 8.804688 9.984375 12.714844 4.523437 4.523438 4.265625 18.773438 2.984375 31.0625zm0 0" fill="#dfc49c"/><path d="m206.195312 329.652344c-1.109374 10.835937-2.988281 20.136718-2.988281 20.136718-1.148437 11.644532-4.082031 23.042969-8.703125 33.792969-9.910156 24.613281-33.082031 41.34375-59.5625 43.007813-7.75 18.074218-21.828125 32.699218-39.59375 41.132812h-.085937c-.496094.316406-1.007813.601563-1.539063.851563-1.769531 3.722656-3.253906 7.570312-4.433594 11.519531-1.109374 3.667969 10.496094 23.296875 6.738282 23.296875h-85.332032c3.554688-28.832031 9.257813-57.355469 17.066407-85.332031 0-42.667969 0-42.667969 34.132812-85.335938 21.675781-27.136718 8.960938-61.097656-3.242187-82.261718 1.621094.941406 3.667968 2.050781 5.972656 3.328124 6.65625 3.585938 15.703125 8.277344 25.773438 12.886719 6.058593 2.816407 12.542968 5.546875 19.027343 8.105469.425781 5.292969 5.972657 2.050781 3.667969 6.742188 0 0 17.066406 8.535156 8.535156 34.132812 0 0-2.902344 6.230469 7.59375 4.949219 1.5625 6.875 1.058594 14.0625-1.449218 20.652343 0 0 7.082031-4.949218 33.707031-4.609374 4.949219 0 10.582031.171874 16.894531.683593h.085938c.585937-4.457031 1.554687-8.855469 2.902343-13.140625-6.132812-12.339844-11.1875-25.191406-15.105469-38.402344-1.160156-4.171874-1.820312-8.46875-1.960937-12.800781.296875-8.390625 6.164063-15.546875 14.335937-17.492187.683594 2.726562 1.535157 5.40625 2.558594 8.023437.851563 2.300781 1.878906 4.691407 2.988282 6.996094 4.671874 9.414063 10.488281 18.210937 17.320312 26.195313.597656.683593 1.109375 1.28125 1.707031 1.878906 1.132813 1.226562 1.929688 2.726562 2.304688 4.351562 1.8125 8.792969 2.042969 17.835938.683593 26.710938zm0 0" fill="#ffe0b2"/><path d="m106.011719 485.640625c-1.71875 3.75-3.195313 7.601563-4.425781 11.539063-.984376 3.628906-4.257813 6.164062-8.015626 6.210937h-17.59375c-.066406-.070313-.097656-.164063-.085937-.257813-.375-2.226562.152344-4.515624 1.464844-6.355468s3.300781-3.082032 5.53125-3.457032c8.054687-1.367187 15.855469-3.957031 23.125-7.679687-.511719.339844.511719-.253906 0 0zm0 0" fill="#cbb292"/><path d="m292.890625 325.128906c-11.847656.113282-23.324219-4.148437-32.226563-11.972656-11.925781-11.925781-39.445312-15.316406-64.785156-17.0625-4.65625-.378906-8.140625-4.433594-7.820312-9.09375.320312-4.660156 4.332031-8.195312 8.996094-7.929688 29.929687 2.058594 59.808593 6.152344 75.671874 22.019532 5.832032 4.691406 13.140626 7.167968 20.621094 6.988281 4.597656.273437 8.144532 4.144531 8.023438 8.746094-.125 4.601562-3.875 8.277343-8.480469 8.304687zm0 0"/><path d="m344.691406 317.875c-4.402344.019531-8.101562-3.308594-8.539062-7.6875-.4375-4.382812 2.527344-8.378906 6.847656-9.230469 10.632812-2.875 21.109375-6.300781 31.386719-10.261719 3.152343-1.867187 6.175781-3.949218 9.042969-6.230468 24.171874-19.285156 37.835937-48.835938 36.867187-79.742188 0-68.597656 0-113.917968-71.734375-145.804687l-16.699219-7.464844c-64.390625-28.882813-96.695312-43.378906-156.964843-28.320313-41.085938 10.273438-55.703126 24.222657-67.445313 35.433594-6.484375 7.019532-14.3125 12.667969-23.015625 16.609375-1 .503907-2.046875.910157-3.125 1.214844-12.714844 4.226563-6.652344 33.386719-5.300781 39.1875 1.050781 4.585937-1.804688 9.15625-6.386719 10.21875-4.582031 1.066406-9.160156-1.78125-10.238281-6.359375-7.367188-31.710938-1.210938-53.34375 16.886719-59.347656.472656-.230469.957031-.433594 1.453124-.609375 6.808594-3.171875 12.910157-7.679688 17.945313-13.257813 12.5-11.933594 29.625-28.277344 75.085937-39.644531 65.992188-16.492187 102.257813-.222656 168.085938 29.304687l16.652344 7.445313c81.867187 36.382813 81.867187 91.550781 81.867187 161.394531 1.015625 36.152344-15.058593 70.667969-43.378906 93.160156-3.90625 3.167969-8.105469 5.960938-12.539063 8.339844-11.285156 4.441406-22.816406 8.234375-34.535156 11.359375-.726562.191407-1.472656.292969-2.21875.292969zm0 0"/><path d="m67.699219 126.046875h-.085938c-4.707031-.023437-8.503906-3.851563-8.492187-8.554687.011718-4.707032 3.828125-8.511719 8.535156-8.511719 4.703125 0 8.519531 3.804687 8.53125 8.511719.011719 4.703124-3.785156 8.53125-8.488281 8.554687zm0 0"/><path d="m166.265625 294.324219c-.175781 0-.351563-.003907-.527344-.019531-12.671875-.378907-25.28125-1.890626-37.679687-4.511719-3.871094-.988281-7.824219-2.15625-11.863282-3.503907-21.382812-7.597656-42.046874-17.101562-61.734374-28.394531-1.714844-.964843-3.085938-1.757812-4.03125-2.316406-10.542969-1.683594-37.113282-7.488281-41.210938-23.484375-2.21875-8.683594 2.292969-17.316406 13.421875-25.664062 15.667969-11.753907 17.808594-22.15625 17.921875-29.90625-.007812-3.6875-.367188-7.367188-1.074219-10.984376-.027343-.136718-.042969-.277343-.058593-.414062-.34375-1.824219-.710938-3.601562-1.0625-5.328125-1.191407-4.851563-1.886719-9.8125-2.070313-14.808594.570313-8.648437 4.632813-16.695312 11.253906-22.292969 4.71875-4.648437 9.917969-8.785156 15.507813-12.34375 3.949218-2.453124 9.132812-1.296874 11.664062 2.605469 2.527344 3.902344 1.46875 9.109375-2.382812 11.710938-4.578125 2.910156-8.839844 6.285156-12.714844 10.082031-3.230469 2.566406-5.449219 6.195312-6.261719 10.238281.222657 3.828125.796875 7.628907 1.710938 11.351563.417969 1.996094.839843 4.050781 1.222656 6.164062.035156.199219.066406.390625.085937.585938.84375 4.523437 1.261719 9.117187 1.246094 13.722656-.671875 17.601562-9.914062 33.765625-24.746094 43.269531-6.816406 5.113281-7.121093 7.785157-7.121093 7.808594.8125 3.222656 14.265625 8.976563 28.808593 11.054687 1.144532.164063 2.242188.558594 3.226563 1.160157.066406.035156 1.925781 1.164062 5.042969 2.925781 18.753906 10.714844 38.40625 19.773438 58.738281 27.0625 3.660156 1.21875 7.214844 2.273438 10.695313 3.164062 11.371093 2.285157 22.910156 3.628907 34.503906 4.019532 4.59375.289062 8.128906 4.171875 7.992187 8.769531-.140625 4.601563-3.902343 8.265625-8.503906 8.277344zm0 0"/><path d="m10.695312 511.925781c-3.675781 0-6.933593-2.351562-8.09375-5.835937-8.746093-26.242188 11.886719-78.390625 16.628907-89.761719.023437-43.128906 1.132812-45.347656 36-88.933594 18.207031-22.792969 7.890625-52.101562-3.96875-72.671875-2.273438-4.074218-.851563-9.21875 3.1875-11.550781 4.042969-2.328125 9.207031-.980469 11.597656 3.027344 20.511719 35.578125 21.40625 68.199219 2.515625 91.847656-32.265625 40.335937-32.265625 40.335937-32.265625 80.011719 0 1.152344-.234375 2.296875-.6875 3.355468-9.402344 21.960938-22.28125 62.898438-16.820313 79.277344.867188 2.601563.429688 5.460938-1.175781 7.6875-1.601562 2.222656-4.175781 3.542969-6.917969 3.546875zm0 0"/><path d="m101.746094 511.921875c-3.148438-.132813-6.054688-1.710937-7.886719-4.273437-2.683594-4.125-2.785156-9.40625 4.355469-25.476563 1.207031-2.835937 3.847656-4.804687 6.914062-5.148437 3.0625-.339844 6.074219 1 7.875 3.503906 1.796875 2.503906 2.105469 5.785156.804688 8.578125-1.660156 3.5625-3.058594 7.238281-4.179688 11.003906 1.09375 2.636719.800782 5.644531-.78125 8.015625-1.582031 2.375-4.25 3.800781-7.101562 3.796875zm0 0"/><path d="m78.953125 503.390625c-4.429687-.011719-8.113281-3.410156-8.484375-7.824219-.367188-4.414062 2.703125-8.378906 7.074219-9.121094.464843-.085937 46.734375-8.390624 61.761719-45.960937 1.296874-3.238281 4.433593-5.359375 7.925781-5.359375 2.085937-.023438 52.238281-1.328125 59.785156-69.207031.28125-3.074219 2.203125-5.757813 5.023437-7.015625 2.820313-1.257813 6.097657-.894532 8.574219.953125 2.476563 1.847656 3.761719 4.886719 3.363281 7.945312-7.644531 68.78125-54.386718 81.507813-70.945312 83.863281-20.28125 42.417969-70.464844 51.246094-72.664062 51.613282-.46875.074218-.941407.113281-1.414063.113281zm0 0"/><path d="m296.816406 384.082031c-1.671875 0-3.234375-.03125-4.675781-.078125-4.660156-.167968-8.339844-4.023437-8.292969-8.6875.046875-4.636718 3.8125-8.367187 8.449219-8.375h.167969c19.046875.699219 50.605468-3.390625 62.117187-14.703125 16.128907-14.574219 30.113281-31.355469 41.546875-49.847656 2.472656-3.710937 2.757813-5.84375 2.535156-6.519531-.199218-.609375-1.527343-1.996094-5.230468-3.328125-2.9375-.976563-5.117188-3.46875-5.691406-6.511719-.578126-3.042969.542968-6.160156 2.921874-8.140625 2.378907-1.984375 5.644532-2.519531 8.535157-1.40625 7.160156 1.921875 12.976562 7.132813 15.671875 14.039063 1.945312 7.429687.261718 15.339843-4.542969 21.332031-12.070313 19.472656-26.808594 37.160156-43.78125 52.550781-15.984375 15.703125-50.238281 19.675781-69.730469 19.675781zm0 0"/><path d="m181.371094 375.390625c-3.238282.007813-6.199219-1.820313-7.640625-4.71875-8.054688-16.105469-3.691407-37.40625-1.480469-45.703125-4.472656-9.355469-16.488281-35.96875-16.488281-51.980469.378906-14.175781 11.617187-25.671875 25.785156-26.367187 4.445313-.085938 8.746094 1.609375 11.9375 4.707031 3.367187 3.519531 5.15625 8.261719 4.945313 13.128906 0 13.6875 14.957031 37.019531 23.097656 45.167969 10.234375 10.230469 5.855468 41.300781 2.335937 58.90625-.976562 4.566406-5.441406 7.496094-10.019531 6.582031-4.574219-.914062-7.570312-5.339843-6.714844-9.925781 3.765625-18.875 4.789063-39.710938 2.144532-43.714844-9.304688-9.273437-27.910157-36.679687-27.910157-57.015625 0-.253906-.011719-.511719-.042969-.761719-1.652343.214844-3.214843.886719-4.511718 1.933594-2.386719 1.710938-3.855469 4.425782-3.980469 7.359375 0 10.96875 9.917969 34.886719 16.167969 47.386719 1.003906 2.019531 1.171875 4.355469.464844 6.5-2.046876 6.21875-6.128907 24.84375-.464844 36.164062 1.320312 2.644532 1.179687 5.785157-.371094 8.300782-1.554688 2.515625-4.296875 4.046875-7.253906 4.050781zm0 0"/><path d="m127.613281 350c-2.777343-.011719-5.371093-1.375-6.953125-3.652344-1.578125-2.28125-1.949218-5.1875-.984375-7.789062 6.121094-18.367188-4.148437-23.75-4.253906-23.800782-4.203125-2.105468-5.914063-7.210937-3.828125-11.421874 2.558594-7.316407 2.273438-15.324219-.792969-22.441407-1.449219-4.460937.96875-9.253906 5.417969-10.738281 4.449219-1.480469 9.261719.90625 10.773438 5.34375 3.378906 9.15625 4.191406 19.0625 2.34375 28.644531 6.503906 6.71875 9.882812 15.863281 9.304687 25.199219 13.398437-1.660156 26.9375-1.832031 40.371094-.511719 3.078125.179688 5.816406 2.007813 7.167969 4.777344 1.351562 2.769531 1.105468 6.050781-.644532 8.585937-1.75 2.539063-4.734375 3.933594-7.800781 3.652344-35.222656-2.65625-45.390625 2.628906-45.488281 2.679688-1.355469.957031-2.972656 1.472656-4.632813 1.472656zm0 0"/><path d="m70.421875 418.058594c-2.957031-.003906-5.703125-1.535156-7.253906-4.050782-1.554688-2.515624-1.695313-5.65625-.371094-8.300781 10.042969-20.09375 22.78125-32.085937 37.871094-35.644531 12.011719-2.515625 24.535156.027344 34.613281 7.035156 3.703125 2.839844 4.4375 8.125 1.652344 11.867188-2.789063 3.738281-8.0625 4.550781-11.84375 1.820312-6.082032-4.046875-13.523438-5.511718-20.683594-4.070312-9.855469 2.410156-18.714844 11.367187-26.34375 26.621094-1.449219 2.894531-4.40625 4.722656-7.640625 4.722656zm0 0"/><path d="m130.160156 400.988281c-4.710937 0-8.53125-3.820312-8.53125-8.53125-.480468-11.265625 3.894532-22.191406 12.019532-30.007812 11.242187-8.960938 25.394531-13.460938 39.746093-12.636719 4.664063.355469 8.171875 4.398438 7.867188 9.066406-.304688 4.667969-4.3125 8.21875-8.984375 7.960938-9.679688-.535156-19.238282 2.339844-27.019532 8.121094-4.601562 4.617187-6.992187 10.992187-6.5625 17.496093 0 2.261719-.898437 4.433594-2.5 6.035157-1.601562 1.597656-3.769531 2.496093-6.035156 2.496093zm0 0"/><path d="m69.046875 126.046875c-2.40625.160156-4.773437-.652344-6.566406-2.261719-1.792969-1.605468-2.863281-3.871094-2.964844-6.277344-.078125-2.222656.75-4.386718 2.289063-5.992187 1.542968-1.609375 3.667968-2.523437 5.894531-2.535156h.910156c11.71875 0 17.269531-1.28125 19.144531-8.734375 3.171875-10.164063-1.699218-21.101563-11.375-25.546875-4.019531-2.464844-5.277344-7.71875-2.8125-11.738281 2.464844-4.015626 7.71875-5.277344 11.738282-2.8125 15.980468 8.414062 23.90625 26.855468 19.003906 44.238281-5.324219 21.191406-25.816406 21.660156-35.261719 21.660156zm0 0"/><path d="m157.191406 188.765625c-18.601562-1.632813-35.300781-12.070313-44.921875-28.074219-10.726562-14.433594-9.3125-34.539062 3.328125-47.328125 5.898438-7.214843 14.617188-11.53125 23.929688-11.847656 11.332031.367187 18.917968 9 25.601562 16.613281 3.203125 4.195313 7.101563 7.8125 11.519532 10.699219 12.800781 6.246094 21.15625 18.996094 21.78125 33.230469 0 4.414062-3.0625 15.699218-31.433594 25.160156-3.164063 1.042969-6.476563 1.5625-9.804688 1.546875zm-18.367187-70.195313c-4.40625.917969-8.351563 3.339844-11.164063 6.855469-6.820312 7.3125-7.195312 18.539063-.875 26.289063 8.292969 13.410156 24.863282 22.59375 34.808594 19.3125 7.316406-1.699219 14.074219-5.242188 19.636719-10.289063-1.042969-7.242187-5.625-13.484375-12.21875-16.648437-6.464844-3.777344-12.136719-8.769532-16.703125-14.703125-4.617188-5.253907-9.394532-10.6875-13.335938-10.816407zm0 0"/><path d="m70.429688 204.722656c-5.410157 0-12.984376-2.730468-28.160157-22.953125-2.457031-3.277343-2.242187-7.835937.511719-10.863281-2.152344-1.597656-3.417969-4.121094-3.414062-6.800781 0-1.417969.335937-2.8125.988281-4.070313 7.863281-14.902344 16.632812-22.710937 26.070312-23.203125 8.25.039063 15.804688 4.632813 19.632813 11.945313 13.082031 19.625 8.675781 34.441406 4.882812 41.523437-3.8125 8.09375-11.609375 13.574219-20.511718 14.421875zm-16.242188-34.921875c.660156.492188 1.242188 1.070313 1.734375 1.726563 4.046875 6.121094 9.078125 11.523437 14.890625 15.996094 2.554688-1.410157 4.539062-3.664063 5.617188-6.375 2.636718-7.898438.902343-16.605469-4.566407-22.890626-2.171875-3.242187-3.773437-4.398437-4.554687-4.378906-1.164063.058594-5.808594 2.746094-11.71875 13.863282-.367188.75-.835938 1.445312-1.398438 2.058593zm0 0"/><path d="m193.464844 289.117188c-4.492188 0-8.210938-3.484376-8.507813-7.96875-.296875-4.480469 2.929688-8.425782 7.382813-9.023438 17.105468-2.292969 47.367187-10.082031 57.898437-36.4375 4.839844-12.101562 2.953125-15.164062 2.929688-15.1875-3.878907-4.097656-29.78125 4.730469-38.292969 7.625l-5.214844 1.761719c-30.257812 10.09375-58.730468-17.925781-59.929687-19.128907-3.234375-3.347656-3.1875-8.671874.101562-11.960937 3.292969-3.292969 8.613281-3.339844 11.964844-.105469.207031.199219 22.269531 21.753906 42.464844 15.003906l5.121093-1.730468c20.972657-7.144532 44.757813-15.238282 56.167969-3.210938 9.738281 10.261719 2.816407 27.582032.539063 33.277344-13.746094 34.402344-50.679688 44.222656-71.46875 47.015625-.382813.050781-.769532.074219-1.15625.070313zm0 0"/><path d="m36.46875 251.914062c-3.605469 0-6.824219-2.265624-8.039062-5.660156-1.214844-3.398437-.160157-7.1875 2.628906-9.476562l19.882812-16.296875c3.648438-2.9375 8.980469-2.386719 11.953125 1.238281 2.96875 3.621094 2.460938 8.960938-1.136719 11.960938l-19.882812 16.300781c-1.523438 1.25-3.433594 1.933593-5.40625 1.933593zm0 0"/><path d="m64.625 262.324219c-3.617188.003906-6.84375-2.277344-8.050781-5.6875-1.207031-3.410157-.132813-7.210938 2.679687-9.484375l17.835938-14.421875c2.371094-1.917969 5.585937-2.421875 8.433594-1.328125 2.84375 1.09375 4.890624 3.625 5.363281 6.636718.476562 3.011719-.691407 6.050782-3.0625 7.96875l-17.835938 14.421876c-1.515625 1.226562-3.410156 1.894531-5.363281 1.894531zm0 0"/><path d="m90.398438 275.207031c-3.613282.003907-6.835938-2.265625-8.046876-5.667969-1.210937-3.402343-.152343-7.199218 2.648438-9.480468l21.675781-17.664063c3.652344-2.976562 9.03125-2.429687 12.007813 1.226563 2.976562 3.652344 2.429687 9.027344-1.222656 12.007812l-21.675782 17.664063c-1.523437 1.238281-3.425781 1.917969-5.386718 1.914062zm0 0"/><path d="m206.960938 409.226562c-4.710938 0-8.53125-3.820312-8.53125-8.53125 0-4.714843 3.820312-8.535156 8.53125-8.535156 22.234374 0 42.257812-8.277344 63.464843-17.042968 6.902344-2.855469 13.824219-5.714844 20.84375-8.296876 21.523438-7.917968 31.613281-30.171874 41.371094-51.6875 1.445313-3.191406 2.878906-6.351562 4.332031-9.433593 3.648438-7.996094 5.285156-12.273438 6.007813-14.414063-2.195313-1-4.613281-1.410156-7.015625-1.195312-8.25 1.019531-15.503906 5.941406-19.503906 13.226562-3.429688 5.457032-7.515626 10.472656-12.15625 14.941406-1.574219 1.445313-3.070313 2.96875-4.484376 4.566407-10.082031 10.949219-22.222656 19.808593-35.726562 26.066406-14.679688 5.9375-30.609375 8.113281-46.34375 6.324219-4.621094-.496094-7.996094-4.589844-7.597656-9.21875.398437-4.628906 4.425781-8.089844 9.0625-7.78125 12.609375 1.625 25.425781.042968 37.261718-4.597656 11.644532-5.335938 22.113282-12.933594 30.789063-22.355469 1.71875-1.898438 3.632813-3.902344 5.546875-5.625 3.59375-3.535157 6.757812-7.480469 9.425781-11.757813 13.488281-20.226562 32.15625-23.175781 44.070313-19.570312 7.710937 1.519531 13.507812 7.921875 14.253906 15.75 0 1.890625 0 5.058594-8.105469 22.824218-1.464843 3.101563-2.859375 6.1875-4.269531 9.296876-10.6875 23.566406-22.800781 50.277343-51.019531 60.65625-6.808594 2.503906-13.519531 5.285156-20.214844 8.050781-21.816406 9.015625-44.367187 18.339843-69.992187 18.339843zm0 0"/><path d="m395.765625 194.585938-.230469-.003907c-4.707031-.125-8.421875-4.042969-8.300781-8.75.015625-.734375 1.398437-73.671875-38.875-92.871093-2.777344-1.296876-4.644531-3.984376-4.894531-7.035157-.246094-3.054687 1.160156-6.007812 3.6875-7.738281s5.789062-1.972656 8.542968-.632812c50.296876 23.976562 48.6875 105.28125 48.59375 108.730468-.125 4.621094-3.902343 8.300782-8.523437 8.300782zm0 0"/></svg>