<?xml version="1.0" encoding="UTF-8" standalone="no"?>
<!-- Generator: Adobe Illustrator 16.0.0, SVG Export Plug-In . SVG Version: 6.00 Build 0)  -->

<svg
   xmlns:dc="http://purl.org/dc/elements/1.1/"
   xmlns:cc="http://creativecommons.org/ns#"
   xmlns:rdf="http://www.w3.org/1999/02/22-rdf-syntax-ns#"
   xmlns:svg="http://www.w3.org/2000/svg"
   xmlns="http://www.w3.org/2000/svg"
   xmlns:sodipodi="http://sodipodi.sourceforge.net/DTD/sodipodi-0.dtd"
   xmlns:inkscape="http://www.inkscape.org/namespaces/inkscape"
   version="1.1"
   id="Layer_1"
   x="0px"
   y="0px"
   width="64px"
   height="64px"
   viewBox="0 0 64 64"
   enable-background="new 0 0 64 64"
   xml:space="preserve"
   sodipodi:docname="floating_press_inactive.svg"
   inkscape:version="0.92.4 (unknown)"><metadata
   id="metadata965"><rdf:RDF><cc:Work
       rdf:about=""><dc:format>image/svg+xml</dc:format><dc:type
         rdf:resource="http://purl.org/dc/dcmitype/StillImage" /></cc:Work></rdf:RDF></metadata><defs
   id="defs963" /><sodipodi:namedview
   pagecolor="#ffffff"
   bordercolor="#666666"
   borderopacity="1"
   objecttolerance="10"
   gridtolerance="10"
   guidetolerance="10"
   inkscape:pageopacity="0"
   inkscape:pageshadow="2"
   inkscape:window-width="1344"
   inkscape:window-height="703"
   id="namedview961"
   showgrid="false"
   inkscape:zoom="3.6875"
   inkscape:cx="32"
   inkscape:cy="32"
   inkscape:window-x="0"
   inkscape:window-y="20"
   inkscape:window-maximized="0"
   inkscape:current-layer="Layer_1" />
<g
   id="g958">
	<rect
   x="1"
   y="15"
   fill="none"
   stroke="#27BBBE"
   stroke-width="2"
   stroke-miterlimit="10"
   width="54"
   height="42"
   id="rect946" />
	<polyline
   fill="none"
   stroke="#27BBBE"
   stroke-width="2"
   stroke-miterlimit="10"
   points="11,12 11,7 63,7 63,50 58,50  "
   id="polyline948" />
	<line
   fill="none"
   stroke="#27BBBE"
   stroke-width="2"
   stroke-miterlimit="10"
   x1="1"
   y1="23"
   x2="55"
   y2="23"
   id="line950" />
	<line
   fill="none"
   stroke="#27BBBE"
   stroke-width="2"
   stroke-miterlimit="10"
   x1="10"
   y1="19"
   x2="6"
   y2="19"
   id="line952" />
	<line
   fill="none"
   stroke="#27BBBE"
   stroke-width="2"
   stroke-miterlimit="10"
   x1="18"
   y1="19"
   x2="14"
   y2="19"
   id="line954" />
	<line
   fill="none"
   stroke="#27BBBE"
   stroke-width="2"
   stroke-miterlimit="10"
   x1="26"
   y1="19"
   x2="22"
   y2="19"
   id="line956" />
</g>
<path
   style="fill:#27bbbe;stroke:none;stroke-width:1"
   d="m 1.8434322,23.702436 c -0.2790299,6.936137 -0.041009,13.964551 -0.1197034,20.936441 0.078242,3.870192 -0.1548373,7.808689 0.1135341,11.637166 1.6254795,0.597674 3.7345253,0.06988 5.540579,0.23999 15.5028321,-0.0412 31.0056621,-0.08281 46.5084931,-0.124508 1.124567,-0.995303 0.208043,-3.130047 0.51626,-4.565638 0.04066,-9.26555 0.08132,-18.5311 0.121983,-27.79665 -0.990501,-1.130814 -3.132019,-0.198455 -4.5678,-0.502118 -15.911015,0 -31.822032,0 -47.7330492,0 l -0.2462764,0.113534 z"
   id="path3810"
   inkscape:connector-curvature="0" /></svg>