<?xml version="1.0" encoding="UTF-8" standalone="no"?>
<!-- Generator: Adobe Illustrator 16.0.0, SVG Export Plug-In . SVG Version: 6.00 Build 0)  -->

<svg
   xmlns:dc="http://purl.org/dc/elements/1.1/"
   xmlns:cc="http://creativecommons.org/ns#"
   xmlns:rdf="http://www.w3.org/1999/02/22-rdf-syntax-ns#"
   xmlns:svg="http://www.w3.org/2000/svg"
   xmlns="http://www.w3.org/2000/svg"
   xmlns:sodipodi="http://sodipodi.sourceforge.net/DTD/sodipodi-0.dtd"
   xmlns:inkscape="http://www.inkscape.org/namespaces/inkscape"
   version="1.0"
   id="Layer_1"
   x="0px"
   y="0px"
   width="64px"
   height="64px"
   viewBox="0 0 64 64"
   enable-background="new 0 0 64 64"
   xml:space="preserve"
   sodipodi:docname="ontop_press_inactive.svg"
   inkscape:version="0.92.4 (unknown)"><metadata
   id="metadata989"><rdf:RDF><cc:Work
       rdf:about=""><dc:format>image/svg+xml</dc:format><dc:type
         rdf:resource="http://purl.org/dc/dcmitype/StillImage" /></cc:Work></rdf:RDF></metadata><defs
   id="defs987" /><sodipodi:namedview
   pagecolor="#ffffff"
   bordercolor="#666666"
   borderopacity="1"
   objecttolerance="10"
   gridtolerance="10"
   guidetolerance="10"
   inkscape:pageopacity="0"
   inkscape:pageshadow="2"
   inkscape:window-width="1344"
   inkscape:window-height="703"
   id="namedview985"
   showgrid="false"
   inkscape:zoom="3.6875"
   inkscape:cx="32"
   inkscape:cy="32"
   inkscape:window-x="9"
   inkscape:window-y="32"
   inkscape:window-maximized="0"
   inkscape:current-layer="Layer_1" />
<polyline
   fill="none"
   stroke="#2C65B5"
   stroke-width="2"
   stroke-miterlimit="10"
   points="18,32.066 2,39 32,51 62,39 46,32.067 "
   id="polyline980" />
<polygon
   fill="none"
   stroke="#2C65B5"
   stroke-width="2"
   stroke-miterlimit="10"
   points="32,38 62,26 32,13 2,26 "
   id="polygon982"
   style="fill:none" />
<path
   style="fill:#2c65b5;stroke:none;stroke-width:1"
   d="m 26.069068,16.226801 c -7.060026,3.161 -14.309959,5.963928 -21.237818,9.383475 -0.3309107,1.273896 1.7417103,1.185194 2.4496822,1.787605 8.2093828,3.336984 16.4003278,6.801684 24.7086868,9.845869 9.079854,-3.363769 18.060743,-7.037741 26.963984,-10.849576 0.932325,-1.073002 -1.170099,-1.357275 -1.822113,-1.79056 -8.276626,-3.693856 -16.614742,-7.247518 -24.925771,-10.863042 -2.09437,0.505089 -4.093546,1.716389 -6.136651,2.486229 z"
   id="path3798"
   inkscape:connector-curvature="0" /></svg>