<?xml version="1.0" encoding="UTF-8" standalone="no"?>
<!-- Generator: Adobe Illustrator 16.0.0, SVG Export Plug-In . SVG Version: 6.00 Build 0)  -->

<svg
   xmlns:dc="http://purl.org/dc/elements/1.1/"
   xmlns:cc="http://creativecommons.org/ns#"
   xmlns:rdf="http://www.w3.org/1999/02/22-rdf-syntax-ns#"
   xmlns:svg="http://www.w3.org/2000/svg"
   xmlns="http://www.w3.org/2000/svg"
   xmlns:sodipodi="http://sodipodi.sourceforge.net/DTD/sodipodi-0.dtd"
   xmlns:inkscape="http://www.inkscape.org/namespaces/inkscape"
   version="1.0"
   id="Layer_1"
   x="0px"
   y="0px"
   width="64px"
   height="64px"
   viewBox="0 0 64 64"
   enable-background="new 0 0 64 64"
   xml:space="preserve"
   sodipodi:docname="ontop_press_active.svg"
   inkscape:version="0.92.4 (unknown)"><metadata
   id="metadata978"><rdf:RDF><cc:Work
       rdf:about=""><dc:format>image/svg+xml</dc:format><dc:type
         rdf:resource="http://purl.org/dc/dcmitype/StillImage" /></cc:Work></rdf:RDF></metadata><defs
   id="defs976" /><sodipodi:namedview
   pagecolor="#ffffff"
   bordercolor="#666666"
   borderopacity="1"
   objecttolerance="10"
   gridtolerance="10"
   guidetolerance="10"
   inkscape:pageopacity="0"
   inkscape:pageshadow="2"
   inkscape:window-width="1344"
   inkscape:window-height="703"
   id="namedview974"
   showgrid="false"
   inkscape:zoom="3.6875"
   inkscape:cx="32"
   inkscape:cy="32"
   inkscape:window-x="0"
   inkscape:window-y="20"
   inkscape:window-maximized="0"
   inkscape:current-layer="Layer_1" />
<polyline
   fill="none"
   stroke="#2C65B5"
   stroke-width="2"
   stroke-miterlimit="10"
   points="18,26.066 2,33 32,45 62,33 46,26.067 "
   id="polyline967" />
<polyline
   fill="none"
   stroke="#2C65B5"
   stroke-width="2"
   stroke-miterlimit="10"
   points="18,39.066 2,46 32,58 62,46 46,39.067 "
   id="polyline969" />
<polygon
   fill="none"
   stroke="#2C65B5"
   stroke-width="2"
   stroke-miterlimit="10"
   points="32,32 62,20 32,7 2,20 "
   id="polygon971" />
<path
   style="fill:#2c65b5;stroke:none;stroke-width:1"
   d="m 17.484852,27.077436 c -4.251634,1.66049 -8.4687804,3.458411 -12.5656783,5.46875 -0.6552804,1.221216 1.4963197,1.252519 2.1518012,1.775172 8.3116691,3.382051 16.6299891,6.84008 25.0171611,9.978536 9.02388,-3.498417 18.007796,-7.125381 26.930614,-10.873941 0.752436,-1.109904 -1.240703,-1.411652 -1.891949,-1.875 -3.671018,-1.554368 -7.29898,-3.39751 -11.159959,-4.395127 -4.685868,1.73321 -9.306278,3.662187 -13.961863,5.483581 -4.820154,-1.827294 -9.543289,-4.032004 -14.446504,-5.576801 z"
   id="path3802"
   inkscape:connector-curvature="0" /></svg>