/* XPM */
static constexpr char const* background[] = {
"128 128 28 1",
" 	c None",
".	c #BBBBBB",
"+	c #BDBDBD",
"@	c #BEBEBE",
"#	c #BCBCBC",
"$	c #BABABA",
"%	c #BFBFBF",
"&	c #C0C0C0",
"*	c #B7B7B7",
"=	c #B4B4B4",
"-	c #B3B3B3",
";	c #C2C2C2",
">	c #C3C3C3",
",	c #B6B6B6",
"'	c #B8B8B8",
")	c #B5B5B5",
"!	c #B9B9B9",
"~	c #B2B2B2",
"{	c #C1C1C1",
"]	c #C4C4C4",
"^	c #AFAFAF",
"/	c #B1B1B1",
"(	c #B0B0B0",
"_	c #C5C5C5",
":	c #C6C6C6",
"<	c #C7C7C7",
"[	c #C8C8C8",
"}	c #AEAEAE",
".+@+#$$$$.+##%&%@++.$*=-=*.&;>;%++@+$*=-,',=-=)'$#+%%$,,'$#@%%#$$!'',=,'$$.+.,))*!')--)--**-~)*=~~=)*.&&%%%@@&&&{;]]%!,==),'''''",
"*!...$!$.$.#.#@&&%%@#!*))*$+&>>&@+@@#!,=),,)=)*$.+%{&.*'$.#+@@+$'!!$$!$#+##++$*),*'!!',--,,=-),,==)),!+@++#$$.#+++@@+##..#$!'**)",
"~='!$$!$.'!..$#%%%%&%+.$!!$.+{]>%@%@.!',)))),***!+{>{#''$.#+++#!''!#+#+@{{%+@@.'''!#@+!=-))==),****,),!...$**'$.$!$.##+##@@+$'*-",
"^~)'!!!$$''$..#++@&{;{@###+@@%;>&@@#!''',==,!!*),.{]{#!!$.#+++.'''!#++@%{{@##++#$$$.@%$))*,,,*'!!''**,*!'!',,*'!''$.#++..#+.!')/",
"^/~)*'!$.!!!!$.###@&;&+..#%{%%;];@+#$'***,),'!'**.&;@$$...+@@#$'*'$#+@@&&&@#..##!!!!.+$=)**'!$$!'**!$!'',,)),**''!.$.##$!$$!'')(",
"//~=*'!.#$'*))'$$$.+%@#$!.@%%{_:;+.@@!'$!'*'!$!$.@{&.'$#++@%@#$!'!.+++@%&%@#.$!.$$','.$)),,*!$$'**'$#.$!,==),*,*'$#..##$'*'!$!,/",
"~/~)*'!.#!,,==),*'!.+++.!$+@%;__;#!#+.$...!!$$!$#&;{.''$.#@%%+..$$.###+%&&%+#$!.$!*)*..*,,=),,'''$.+@###!,,,,***$#+#+#.$!**!.$*/",
"//~)'!$..'====)==,'$.+@@#..#@&;]]&.$#+#++#$$.###+&;{.*,,'.@&&@+#.$$$..#+%&{%+$!..')=)'!'*)),)=)*'#@%%++@.''',,*'$#######$''!.$,~",
"//-,!..##'=-=))=),*'!.+@%+!'.+%;]>@.#+#######+++@&{%.*))*.+@@%@###$$$$$.+&{&%#.##!=-=,'*)=)**)**'.@&%+++'*'',))*!.##$!$##.$!!')/",
"/~=,$#+@@$,))==)***''$#@&&.*'$$+;];%+.$.#+@++++@%&&+.'*'!$.+@%@++@#..$$.#%&@@@+#.$,=-=,,)),'!!!!!.@&%@+.*,*'*,,,'$##$''!.##.!,-(",
"--=,!#@%&@$*)=),**'!'$#%;{#!'*,!+;]]{#!!$#++#++@%&%+.$$.!!.#+@@@%@++#.$$.%&%@@+.!!',--=)*''!$.#.#+@%+#.$'*,*'''**!.#.$$$..##$*=~",
"=--)'#@&{%+$*))),,*'!.#@&&@.!*,'.%;__{#''$##++%&;;&+.$.#$!!.+@@%@#.##..$#&{&+#.$$$#$,==,!..$$.#++++#$!'*****'!!'*'.++#++#$$$.!*,",
",=~-,$+%{&@#$*,,)==,!..#@@+..$''!#@{]]&.$$#+@@&;]>%#$$.@@.!$#@%@#$!!$#@%&;;%+#..$#%+$'***$+#..#+%@+.!''***,,**'*,'.++++%%#!!'*,,",
"!)--)$#@%%@#$',,))=,!.$.+#..+@.!'$$#&>;@++@%&{;>>;%##+#+%@#.#+@@+.!*'.&>>>&@++#.$.%%@#$,)'+@##+@%@#.$.$''*)),,*,)*$+++@&{+!*,,'!",
"')==*$#@%@#$',),,)=)*!!.+###+++.!''!+{;{%&&%&;>;{&%@%&+#+@@+++@%%@+!*'#{;;{%@++#$$+%%@#*)*+%+++%%+$!$..'**)),,**,*!#@@%;>%!))*!$",
")=-)*$#+@+.',==),)=)*!$#@%@+..++$*),$%;;;;;&&;>;&%@+@&%+##+%&{&&%%&+!'.+%;>{%@@+#..##+@#'*#&@#+++.'*'$!**,,))),,*'!.#+%;>&$==*!*",
"--=)*'.@%@+$*)=))=-=,!.+@%%+!!$$!*))'#&;]]>;;>{&@++##@%%@++%;>;{&&&&@+#+@{>>{&%@#$!''.%&+..@@+@@#$',,**,*'*,==),,*!$..@&{{.=~,*-",
"=),)),!#%{&#'**,)))==*$#..+#!***''*,*!+{_<:]>;&%+###.#+@@@%&{>>>;{%%{{%%%%&;>>{@#.!,)*#&&@#@%%&&+.!*)===),,)=-=)),'''!#%%@!-~==/",
"=,,,),!#%&%.!$!*,))==)*'*'$$!*,*''''*'.%>::>{{{&@+##..###@&&{;{{;{%%&{;&%+@{]];%+#!,)*.@&&&{{&&&@#.',-//~~=))===),*,,*$#++!=~--(",
"~),)=)!+%%+#$!!',==))=),,,*''*****'$$!.@;];%@%{>{&@#!!$.#@@%&{@#+%&%%%{{%@&;>>{%@+!*,'.+%{>];%@%%@+.')~/((-,'*)),**,),*'$+.*-~~/",
"(-)=-)!+&%@@#!*'*,'!',====),**,,**!#@+@{];%##+&>]];@.$..++++%%+$!$+&%@%{;;>]>;&+##$*,*.+%;]]>%@@%@+#$')~/~=*$$',,,,)=)),!#+$)/((",
"(~-==)'#@%%@#!*''!$.$')---),,,,*'!.%{;;>>%$!$.+{]];&&%+#..#++@+.'*!#%@@{]_::];&#$$$'*!#@%{>]>{@@@+###$,=--=,!.$'**,--=,*$#++!=~/",
"~~-=),*'.+%%+!*'!$.##$,===),,,**'!#%{{{&%.*)*!.+%&&%&{%+$!$.####',,!.@&>::<<_>{@.!'!$.+%&{;;>{%@++#..!,===),'$!**'')),*'$#+@#*)-",
")==,**,*$#+@@#$!$.+@+.'*,,**,**,*!.@@+.$$')=,!.#+@@+%&&@.!'''!..*)),*.%]<[[<]>;;@$''$.+%{{%&;;%@@+#..')=-=))*!!,,'!'**''!.#+#$',",
"**'!!',*!$........+%@#$$$!!!''*),'$..!***,),*'!$.#++%&%+.$!*,'.$,===)'.&]<[:;&&;{+.!!!$+&%+%;;&%&@#.$')-~-=-=**,),,***'!!$.#@@+$",
"$$...$'''!!!!!..$!$$!!!.#$!!'*****!$$!*,*,),'**'!.+@@@+.!!',,'#.*=~~-)'#%>:_&++%&%+###..++#@%&{;;&+#.')=~-=--=))))),**'$$$.@;;%#",
"######$''''''!$..$!'*,*.+$''***'!!$..!**''***'''$#++###$'*,),$++!,=--=,!$#{;%.$.%@++@%@+@@@@@%;>;&+#$')-~-))===),,)),'!$$$.@&&@#",
"++++++#.!'****'$$$$!'**!$.!'**''!$.#.$'*!$!'*'$..++#.##$*,)=,!#+$',=~-=),*$++.!!+++++@%&{{{{&@%{&@+#.!,==),*,,,),,***'$$.###$'!.",
".@&%@@@+$''''*,*''''****'$.$!!!''!$.#.'*!$!!$.++#++####$*)=--,$.$!*=~/~-,,,'$....###...+&;>>{%@@@+###.!*****'!!,,,**,'$.#+@+*=,$",
"$+&{&%%@#!'**,,,,****,,)*$#+@+#....#..!'!$!.+@%@++++++#.*=-~~-,!!!')-/~)'',),'.#..$$$*),$&>;&{&@++#....!'***'$$'***,)*!$.#@+*=)!",
"'.%;>{&%+.!,,,)=,'!'*,,,*!.+%%@+@@+##.!!$!!.+@%%+#++#.$$*-----=*'$$*)--)$.!*,,*...!'*)--,.%&%&%@@%@#$!$$!'''''''!!*)=),*'.@@*=)*",
"'$#&>;{&@+$**,=-=*!'*''!$..+&%+####.$$!!$!!$..+++##+.''',-----~-,.#!,=--*.#$!*,*'$.!,=)),!#++##@&{{@.!!!''!!!''$.$',))),*$@+,-=,",
"**'.@&{{&@+..$',,'!''!$#@%+%{%+.$....!'**'!''!!$##..!*,,)=---~~~,.+.,=~~='$$!',,,'!$!'$.$$$.#..#&>]{+$'**''!!'!.##$'***''$@#*===",
"*,,*'!+&{;;{%@##.!,*!$.@&&++&%+..$$##.!*),))))),'!$!')=))=-~~~~-)'.#!)~/~)'!!'*,),,,'.@{&@+++#+@&>];%#!**''''!!.###....##+@+')==",
",),**,*$@;>&++#++!),$#@&;;@+%@+++###+#.$')==-~~-=)*',=-=))=-~~~--)'$$')~~)*'!!',),)==,+>]]{&&++%&;>{%+.!!!'*'!$###.##+@%&++.',))",
"****,)),$+@#.$!$.$'!.+%;;>;&@#+@@@+++++#$*=)=~//~=,,)=-),*)-~~---~)!#.'=~=)*'!')=,,)~~,+;>;{{%@&{{&&@#.##.!*,*$####++@%%+'))====",
")*!!*=~='...$*)*$$.#@+%{{{;&@#+@@@@@@@@+.!,=-~~/-),,,,,'!!*=~-))-~)!#+$,-~=,*',=-=)))==*.#+@@@@&;{%%+.#++#.!''!.+@@@%%@.*~(/~~=)",
"*,*'*-/-'...$*,*'!$.++@%@@@@@+++++++%&%+.!,-~-)=)*,,*'!!!!')==)))),'.#.*--=)***)-~-)'',),,*!...#&;{%+#++##+#...##+@%%@.')-//~~-)",
"')=),=~-,$#$$..$$!!$#++++++#@@@@@@@@%%@+#$*=~~=),*,,!$!$$!'',==))=)*!.$*--==)*',=-=)!$*,,))=*!'!#&{%++@+..#++++##.#+#'**,)======",
"*,)))))--,!$#@+$!'*'!$.+%@++@%%@@%%%@@++#.'=~/~-)*,*!$$$!'*,)--=-~=)!.$,-//~-,**,==,'$!'*,=-,!!!!.+%&%@+#.#+@@%@#..#'=)'*,),'!!'",
"!'*,,,)-~~)$+@+.$!*,,,,!+@#....$$#+%%++++#$,-~~-),,*!$.!'*,)===~//-)!..*-/((~)*'***'!$!**'*,,'!!!!!+&;{%@#+@++@@+##$,=,!',),!.#.",
".!!'*,,)-/~*$..#+#!,==,'##$'*,=~~=!###+++@+!,-~-)))**!$!***)),=/(/-,#@@!)/^^/=,'!!'$##$*,****''!!!!$+&;{%#+@++@@@+#')=,'*)=,'..#",
"$$!!''*,)~/-)*'$#.!,--)*.#$',=~^}(~)*!$#@%%#')--=)=,,'$!***)),)--=,.&;{.,-/((~=,,))'.+.'*,**'!!!$$$##+%{&@+++@%@@+.',))*,)),'.##",
"''***''*,-~~/-,'..!')--)*!$')-~/^^^/)**,!#@@#!*)),***'$.$!!'*',)''$+%&&#')-~((~=,==,!$$',,,*''!!$$.++##@&&%@++@%@+.!'****,))*!#+",
",)===,**,=-~/~)'#+#!,--==,'*)-~~(^^/-))--)'.#++#$$$!!$.#+@+$!!','!$.!*$#$*=~((/-==)***!!*,*'''!$.##..###+&{&%@@%@.!''!!!'*,),'!$",
",,)==)**,==~/-=*#@@+!=~~=,*,,)-/((((~-=-~/-,'#%@###..++%{;&#!$$'*'*,=/=$$*))-(^(/~=***!$'**'''$##+#$!$+++%&&{{&%#!'''!$!!''**,,,",
"),,,),*'*=~~~-~=!+%&@'--)*'**,-/((^^(/~-~(/)'.#$*!..+%&;__>+!$.$!'',-/-*!'*',-^}^(-)))*'***''!$#+++#$!.+@@@@{;;&.!!'''!!!!!'**,,",
"),*,,,***)~~~~/()$+&{.)--,'*,)-///((((/~~(~)!#+!)),*$+%%&&&.'!$$$$.$*),'$$!$!)/^(/--=),**,*!$$$####+.$$.+%%@@&{{+$!'**'$$!*,,,,*",
"*''******,)===-/-*.%%.)~~)',)=-~~~~~~~~-~/-,$%&.,=--=*!!**!*,,))*$#+.!!$###$!*=//-===),,,,,'''!$..####.$.@&%%%&;&#$!'*'$.!,),,,*",
"=,*****'''*,,,))))'#@.*=~=,)=))---~~-~)**),'.%&.,--=))*'*,**))-/-'!$$$$.#++$!',~/~)=),**,),*,,!..$..#+#$$+{;;{&{{%#.$!!$.!,),,)=",
"-),))))**''*,**'*))$+.!',),,),***,,*,)'#@+.''$##!**!$!'!$!!'*,=~-,,,'.#.$.#$'*)-//-=,,*',==),*!$$$$!.##..#&;;;&%%&%+...#.'**,)=~",
"=))==)),,,*''!$$',=*$$$+#$'*,,'!!!$.#$.+%&#*),#&&@+@&@..+####.!*,))=)!$!!$!!',=-~~-=**'*,)=)'!!''!$$.##+##@%%%@#+%%@###+.!!!'*,=",
"),,)))))==),'!$!*,-=,*'..$'*))*'**'$+@+@%&+!,*+]>&++&{&&&@+@&&%+$,=-~=**$$'**)~~-=),'$$'**))*'***!$..$#++##@#$!!$#@@+###..$!$!'*",
"*',==))=~/~-=,,,,)-/~=)),,*,=)*'''**.@%@%%+$'$@;&#$#@+#++#.#%&{{#,=-/-'!#.',,,=~-,**!##$!$',))),,*'!!'!.+++@#!''!.#+.$$$$$!'!!'!",
"'',~/~==~/((~=)==)=~~~--),,),'..$!*,'####.*))*.@@##@+',,'!!'$#@%+')=)*.##.*,,'*)-),,'.+.$#$*)~~),,,*,,,*!.#@+$'*'$..!!'''***'***",
"**)~(/-===-/~)*,,,,=--~-)*',,$#.'*)-=*'*'*,))'.###++.'****,=),'.#$*,'..$.$',,''*,**,,'.$$..!,~(-,,,,***,**!+%#!*'$$**!!****,,**,",
")))-~-===,)~/='!'*))))-~-*#.'!$'))-~~-)))),'!$$!!$.$$!!'*,)-~~)'$##.##.$$$'****'!!',)'$$$$..!=~-=,***'''*,'#@+.$$.'=='!!$!*))**)",
"--=)=),))))=--)*'*,)),)~~,#%@$'*,,-/~-)===,!!'*,*'!!!'*,))))==)'$#@%%@#$'***'*,'.#.*),'!$$.#$,--=,'*,,,**,'.+@+##.'=-)'...',,*,=",
")=),,*'',,,,)-~=,**,*',=~-*@{#'!$!,=-=)),*!$',===),**)===),'**'$.#+%&%@.*,****,*$+@.*,*!$$$#.')))*'*)=)***!...#+++.!*,*$##.$!'*,",
")=),'!$$''*,=~/~=*'''!!'*)-'++$$..!***''!.#.')=---=)=/(~-),***'$.####@%+$*)==)==*#%@#!$##$...!**,***)=)),'.#$!.++@+#.$!!.###.!!!",
"))),!$!'''!*)-~~~-)*''!..'=-*.#.$..$$$..+@%#',)===))~^^/~-=),*''!$$!!$.##$*-~~--)*$##..@+..#.!!$',,),,,**'$.!'$.#+.$#+#.#++.'**!",
"),))*''*''!!*=--/(~),,'.#!,=='++.!$$.##+%{;@$$$!!''*)~/~~-=),*,,'''*,=)'.#$*-~=)==,!$$$..!$..!$#.',,*'!$!'!$!''!.#.$.#+@@%@#',*'",
"),,,,****,*'',)-~/~-=)*$.$'*)*#%+$$!$..#&]_{##@@+#$',==))),**,==),,)-/~=*!..'*'',==,*''!$$$+#'*!!!!$..##$''$$!!$#++###+%;>{@.!'*",
")*'''**''''''')===)==)*!..!'**$@@#$!$.$#{_:{++@@#$'*,,,)===),,)==-~//(//~=!##..!',)=)'!$###@+!,,*!#@%@%%+..+#..#+@@++++%;_]{@#$'",
"!$$$$!!''!!!!',==),,,***!$!'''!.++#$.#+%>_>@###.!''*,*,)=--=,''*)~/(^^(((/)'$.$!!!,-=*.+@++@@#',*#{>;{;;&%&&&%@@@@@###++&]];&%+$",
"+$'$.$.$''!!!'*,)),,,,)=,'**!$..#.###@&>_]@!!$$!!$$'*'*))),,*''*=/^^^^(((/-),,*!..!))'#%%%%&{&#$#{_:];{;{%&{{&@#..$$.##+{_]&@%%+",
"@#$#+++#!'!!!*,,*,,*'*,=)*',*$.#.$.@@%&>]&!,*''*'!$!'',=)'!!'*',=~/^^^((((/---)!+%#$$.+%;>>>>>;&;]];{&%@+.#++..$!'*'$.+{]]>&###+",
"!.#@%&&@.!''!*,,**,*'!!!'!',,'$.!'$#@#.#+.*,,,)),'$!',)))*$$''*)---~/~~~~/~=))*$@%#.@@.+;]_];{>_:]{@++.$$!$$'*'''!!!$$+]<_]{@!*'",
"-=*#&{;{%#$'!''*,,**'!$!!!!',)'$!!''!'*****,)===)*'*))**),'''*,=---=*!!!',),''$#+@##@+$+&{;>{&;::;%+#.$',,*',,**,*!$..@][<_]{!=/",
"//-'$$+%%%%+$!!*)),,**'*''!$',*$.$',=),)==))=---),,))*'*,,'!!*=---=,$+@%%+$$.#####..#..+%%{]];>_]&@+#.$'=~-=),*,)),!#+{_:_>>{#)^",
"~~-,*,*!$@&%+#.',)))))),**!$$$$.#.!*==))-/~--~~-,,=-=*'*,,'$!,~~---)*!.@&%+@%&@+..$$$!$+%{>__]>>&+#####!=//~=)***,,!#@{>>>&@@@!-",
"--)**,,,,'$.#@+.$',))==,,,,*!$!!$.$!*==)=/^/~//~),))==),)),!!,-==-~-)*!.+#.+&{@.$$$$$$$#%;]>;{{%#...#+#!=/~-=),***'$#@%&{&@+@&+!",
",=)****,=--='#@@@+.!,==--==-)*,),'!!')-=*,/^///~)**',)),,))*!')=)=-=),'!$###++.'***!$$.#@{;%@&{%!,,'$.$'=///~=)*''$#+++@%@++@{&+",
".*=)),*,=-~(/=!#@&{%.*=////(~,*)-,''',=)$#,/(/~-),,*****,)),'!*))==))*''.@+#$'**)),!$$$.+@@##@&&#*),**'*=-~(/=)*'!.+++#..##+@{;{",
"{+*)=)),))=/}^-,*.%{%#'-((//-*.!,,'!$!*'+{+)~~-)**,),,*,),)=*$.',=~/-,'$+%@#.!'*)=)'!!!$.###..#+@+$'**,,)=-//-=*$.++#....#++@&;>",
"_{.,=))),,)-(^(/-,!+%&%$*,)=,.&@.$$.+#..@{%'=--,!!',===-~=)-='++$')~='$.@%+#...!,==),**'!!$#+$''@;;@#$'***,==),'..#.$!.#...#@{;;",
"];@'))),*,,=((~~-)*'.%>>{&@.+&>{%+.$#+@+#%{+'-~)$.$*)---~-=~~)$@@+$*'#@+++#.$$.$*=~~=),''*'#@#'*#;_>&@#.$!'**,,*'!!!!!$#.$!.@{;;",
";&@.'****,)~((~-=),))!&]__]>>]]>;%+##+@+#+{;@*-='!!*)==)=--~~-,.%&+$$%&@+.$!'!!'*)~~-=,**,,$++!,*+;>>>{@+#.$$',,*'''''!$$$!$#@&;",
"&%%+.$$!!')/(((~===--,#%&&{]__]{&&&&@+@@+#&]]&$,,,)=-==))))==~-*#&%@%;;&@#$!!!'*,)-~~~-))=='#+$*)'+%;__>{%+++.!'***'!!'$$.$$.+@;",
"&&{%#.$$..*~(^(/-~~~-)!##.#@{>;@++%%#+%&@@{_<:{.',=--=)))))=-~-)$&{&;>;{%+#.!!',,)-~((/~~/~)$@@.!!$$@;::_;&%@@.!'*,*!!!$$$$$$$+%",
"%{]>@$!!..*=~((//~~=,'!$$$!!$+%%@###$.@@@%&;>]>%.!*=-=))=))-~-=)*+{>];{&%@+$*,**,)-/((//(^(-'#%&@$'!$+{]__];&@+$'*,,**''!$..!$#+",
"+&]>+',,*'**=~(//~-,'!''!!!*,!.#@@@+...$..!'$+&&+..',)=--=)=-~---*@>];%+++#!,),**,-~((//(}^/).@&&#!!$$.@{>_]{%@#$!'*,,,**!#+##++",
"#%{{.*))),,*)=-~~~~,'*,'!$',,*''$+%%@#$''*,))*$#+@%@.',=-==-~~--~-!{_>&#$.#.'==),,-~//~~(}}^-'#@&%.'!'*'$+%&%&&@#$!*,,,*'$#@@@++",
"+@&&#',)))),*,=--~-,)==*!!'**''**$+%&@.',)==)=,**!@&&+!)-==--~---~)+;];@..##$)==))-~~~~~^}}^~'.+%{+'*',)),,,'#%&@#.!'*,,!.#+@+++",
"@%&{@$,=))),*,=--~-,=~~)*!$$$!'**'$.+%@.',==,,,)-='+&%$*)-----==)=-,.@%%++#.$')=====~///(^((-'#+%&%.*,)=-~~~-,.%&@.$!!**'$$.++++",
"&&{{%#')),)))=))=-=,=//=*!.#.$$!!***'#&&+$,),,*,)=-*+%#!,-~~-))**,-~=*'!.+@.$!*==,*,-~~-~/~~=!+@%&&@$)))-~//~-*#&%+..$',**!$.#++",
"@%{;{@$*)==~~-,,=-,')~/-*!.#.$$.$',,'.@{{@$!*,,))=~=!+@$,=--===)'*)---=))!#@+.')=),,,,*,=---)$@&;{&%#',,)=~/~-='#+###.',***''$##",
"$#%{&%@.*=-~~-,)--*$*~//='$.$!'!!$$!$$.+@%@+.!',)=-=*$@+!)=),,)),)))=---~-*#@+!*,))),,*,=---,.%&;;&+#..',=~(//~)*!$.#.*),**,),''",
")*$+@%%+'=-~~-)=--,$'~(/-,'$$!!'!$##..$$!.+%%+.'*)=)*'.%@$'!$!'*)=))))=-~-='.#$'**)))))))=-)!@&+##$'!#+$*=/////-=,*'..'))**,==)=",
"-)'$#%&%.,=-~~-==-=''~(/~=,$..$!!$####.$!$#@@++.!,)),*!#%&%@+#.!*'''**,)))=,!..$!*,,)))*'*,'#%&$))==)!#.'=~~~//~-),,*!!*,,,,=-==",
"=,'$+%{&@.*=~~-==--))-((/-*$.#$!!$.####$!!!$$#++.',)=,'$+{]];&@#..#+++#..$!$#+@@+$''',*$+##+@@#'-~~/~,$#$,-~~~~-=),))*!',)==)=-=",
")'$.#@&&{%#')=-~-=-=))~(/-,!..$!$$$..##.!!''*'$.#+#*,*'!$+><<_;&%@%;>;;{&%%{;;;>{+#+#$$+@%&%#!,)=-~//-,$.$*-~---=))=,*'*,)--===)",
",'!!$#@%{{%.'*)====)**,-/-,!$$!!.....###.$!*)),*!@&@.$'''.{_<<_;&%&{{&&&%%&;_]>;>{&{&#$$'!.#$*==**=~//-*.%+!)==-=))),****,)===))",
")*'''$#@%&%+.$')===,!**)--,'$$$.#.$...###..$*)=)*$%{{&+.$.@{]_>%#$!$$!!!$#+%{;;;;&&{&#',==,**'),$.,--~-='@{+')==),**,*'!',)=~-)=",
")),,'$###+%&+.',=--'$,,*)-=,!$$$$!'!......#.$*)=),$%;;;{@..+&{@.'*,,))==,!$#@&;;{%@##.*=-=~/-,,*#@!)=)=-)!+@.*),,,*'**'!'*,=/(-)",
",)--)*$.##@{@$*)-~-'')=,,=-)*'''*,*!..######.!,===*.%{;]>@$!.##$'***,)=-=,*$@%{{{{+$!!'===/(~),*$@#'***,,*$++',,,,,'!!''!',=~(-'",
"',=--=*$##+@+.')~/-,*=-,*,)),**''**!....++++#$',)=)*$+%;]{.***!$''''**,)===*#+++%&@#$!!,=-/~-)**'#@.!!'*,*!##')))),'$!!!!')=-~)!",
"!,=---=*$####+$,~~=,!*))*'*==)*'!!$$.$$$#+++#.!***,*'$.+&{+*=)*'!$$$!!!*))-)*'!$#@@@+#.!)/(/~)!!!$..$!',))*!$!,),,,'!''$!'*,))*$",
"$,-~~~~=!##$.+@.,),*'!',,!$,-~=)*!$.....#+++#$''''''$.$!.%%.,=),'$$$!$$!$!,,))),!$.+%%@#'-/((=!.$!'*'!!*))),!$',''''!**'**!!'*'$",
"',-~-=--*$$!'$@@$$$!!!!'*$#$,-//-,'$.##+++++#$**'!!!..$!$+%+$,=)*!!'!$$$##$',-~-),*$@@@+.*-(^~'..!)-=*'*,)=='$!*'*'!$'*,*'$.$!!!",
"----====,'!!''.++@%@+#$$!$.#!)/(~-)'$#+++++##$'**'$!*,,*!.++#.*,*!'**!$$.@%.,=-~--=*!$$$$$'=--,!!*~(/,*'*,)),*''***!$$'*'$$..$',",
"~--==,*'''!.$''$#&>;&+##$'!+@$,=~~~=*!.#+####.!*,*$$')=-)*!.@+#$'!!!*'''!%{@',)--~~-)**'!.$'***$$,~(/=,**,),*,*''*'!.$!!$$$.#.!,",
"=))==*$.$$$##$!'!@;>;%+#$'!%;&@.*=---,'.....$!'*))'$.!,-~-,.@.!$$!$.$'*,*.%%$''**)-/~),*$..!!!!..*=-=),,,,*!!*,''!!!!!!!'!$.##$'",
"*'',,'.+#.#++#.$!#&;>;{&@#+&;{&%#!*)=),'!$$!''*,),,'.#$*=-)$+.,,!.#@+$*,,*.&&@@+.!,--==,!$$!!$!$..!***,,,,,'!!''!$.$$!!!!!$..#.!",
"!..!'!.+#.+%&@...#%{{{{{&%%%%+###$!',),,'!!',,,)=),'$++$,=,'##*=,$+&%$,,,'.&;>;{&@#')~~-,!$$$.$$#@#$!**,,)=)*!$.#+###.$...$$!$$$",
"+#.$!$##.$+&%#..$.%{&%%@@@+#.!'!!''')==,,'!*)=)=--)'$+%+$*,*.#,=,!#%%.''$+%%&{>]]>;+'=/~-,!!'!!$#@#$$''**,==),!#@%@@@+####..$$..",
"@#++#++#.!#@#!!$.#&;&+++%%@#.!'''**'=~-=)***,,)--=)*!$+%@.''$.,)*'!.++..&;&+#+{]::_{+')-~=***'''!!'***,,,)))==,!+%%@@@++##......",
"%+@%%@.!$$.#',*'.@{>&+$#&;{@#$!$.!'*=-=))****',=))),,*.%;{+!'$!*,*,*!#+%;;@$!$%>:_;&+.',--=)*!!',,,===-==)))))=)!#+++@%@+####..#",
"&%@%%+!*!..',,,*.%;]>%.#&;{%#..#@@#!*,,,,'',),,,,)))=,$%>>%$'.+!,=--,!.@&&#$'$%]]{#!'!!!*=-=,**,=))=-~~~==),,*,)*$###@%@+++++##@",
"{;%+@#*)*..*))))!@{]:]%+@&&@#..@{;;@.$!'''*))))))))==,$+&;%$!.+#*-/~)*$+&&#$$+;]{#*==,'!!*,,*,=~/~==-~~-=))=)**,,'..#@%@++@%%@@%",
"]]%.$')=*$.')),,'#%>::;@+#++#.#&>>;%+++#.!*,=-~-)))==)'.+%@#$.@@'~/-=,!#@@#.#@{{+!)~~-=,**''')~(}^~====-=)===,*,*!.#+%&@@@&;{@++",
";;#*))=,!##!)=,*'.+&]_>@.$$###+&;{%+#+++.$!*)~~=,)))==,'.#@%+.+@'-~-=)*$$.+@#..#$*-((/~=)),,*)~(}^/-)==-))=),,**'!#@%&&&&{>]>%.$",
"$#!,)==*!!!,=-=,*!.@;>{+!*'$.#@@@@++#...$!$.'=-=)==))),*!$#@@+++!))==)*!'!+&+'***)/^(///~-),,,-/((/-))==***,*''''$#%%%%%&&;>{+$*",
",'*,)==,,)=---=),'$+{;{&#!'!!#@#$.+@+#$!!!$..'==)==,,,*!$.#+@@@@.,=--)*$!'#;{.***=/^^((^/-,'**)-/(/-),,,!##$!$...#+@+##@&&&&@$*,",
",**,)==)-~--====,*!#%;>;@#$!!.#$!$#++.$!$$!!$'***)),,)*!+@@++++@#*=~-=*!$!.&;%.$!,-/(((^(-*$.$*~(^(-),,*!#%+#+@@+##@#$$#@%&%#',,",
"'**,==))===)))),'$.#@&;>&+.!!$!''....!''!!!'***!!'*,)),'+&&@+.!!!!!)=),'!$$+&{@.')=-/(^(/=*.%%!-^}(~),,),!##+%{&#!$++....#@%+!,)",
"$,,)),**,)===,,*!###+%{_]&+..$!''...$',),'!',)=)'!!'*,,*$@&%#!,)*.@.*),*'!$.@{%!)--)-(^(-)'.&;@*/^(-),)-=,'$#%;{+$$++#$''!.##.!*",
"$*)),*'!!*)-=,**'...+%{__;%++#$*,'''')-~=,**')~='$..$'**$+@.!*))*!#+*),,,'$.#%@.*)*$'-/~)'.+&>;#=~=,'',==**'.%{&@####.$!!!'!$##.",
"$*)),*'$.$',),),*'$.#@{]_{%@%%.,=,,),=-~=,,,*,),'$###...+@.*)))),,!+$=-)*!$...#+$!#%#,==,$+%&>]%!,*!..!*,,*'.%%+#..$$.#.$$!'!.##",
"$*),***'.#.!,))))=,!$+{>>&@@%&+*=,)====),**,,,,*'$.#+@%&{{#*,,==),'##**$##.#.!!$!'.@.',,,!+%{]>&#!''!$..!**!+&@#!'!!!$++.$!!!$$.",
"),*$.!*,'...!',)=-=,'$@{{@#+@%#*)*,)=),''*,,,,,,'!.#@%&;>>@!',==,'$#++@%%+##$'''**'$!*,**!#%{;;{%.'**!#@#!$#%&+$',*!'*$..$'!!!$$",
",*#&&+!*,*'$!',,)),*!!.@&+###++'===),*'!',,)))),'!$#+%{;>{+$!',)*!..#@%%+$$$',**,,*!'*,,*!.+%%&{{+!'!$+%%@@@@@.*)),'*,*'!!*'!$$.",
"@@;_>&#!*,,**,),*'!$.$.+&&@##++!)=-=,'!'*,)=-~-)'!$.@&{{{%+##.!*,'$$!#@@+!'*,=)*,,'!'*,))'$.#.#%&@$!$.@&{&@.$.$*)),*,=)*!$!'$#+%",
";{>:]{@+.!*,,)-=)*!.###+@&{@###.!,)),*'*,*')~~=,*'$.@&&@@+++++.!'''!*'.@@$*))),'**'!''*)),*'!'!...$!!$@{&@.''$$!,)),,==*'!'!#&;>",
"@@{]>{%@@+.$')--=),'.###+&>&$!!.$*))))*'!.$*==,**!.+%%+$$#++@+#$',,,))'#@.)=)==)),*!'*)))=),****'!'**!@{%.****''*,,'')=,*''$#&;;",
"#+%{{&@+@%&%#!*,)))*!$$!.@>{.$$$$',)-=,*'$$',),,*!.+%@$'!#++@+#!*)===)*$#$=-,=/~-)*'',=-),****,),*,,'.%%#!,,)=)'!'**,,))***!$#@#",
"@%%@%@+##@&&&%#$'*****,,$#&;%@+.!!$'==,,*!!*,),,'!#@%+!*!$#+@@+!,==,)),'$$',')~~-=,,,)=-)'!'''*)),,'$+%+.$'''''$$!*,=))===,*'!$$",
"%{%+++.$!$.+&;{+#..$',=='+%{{++.!$#.*)**'!*--,*''$#@%#!'''!#+%@$*),!'))'$$#+.,)=)===-=)=)!!''',==),'.@&%%&@+%&&%#'**)-=-//)'!''!"};
