/* XPM */
static constexpr char const *background[] = {
/* columns rows colors chars-per-pixel */
"100 100 2 1 ",
"  c #69B5B5",
". c #868686",
/* pixels */
" . ...  .... . .   ....   ..   .  ..  ..  . . ........ .. .  ...... ... .  . ... .   . . ... . ..  .",
"      .   .. .     . ....... ... .... .    .... . .     . ....   .. ..   ..  ... . ... . .   .   .. ",
"   .. ..... ...  . . .. .  .   . . . .  .  .. . . . ...  .... . . .      ....  .    ...... .. ... . ",
"..   ..  .  .   .    .  . .     .   .....  .  ..  ... . . ....    .  . ... ..   .  ..  .  .   ...  .",
" .   ..  .. ..     . . . .. .  .  ...      . . . ..  ...  .   ....  ....  ...   . . ....     ..     ",
"...... ... .. ..    ... .   .. . .    ...... .....    ...   ..  .   ...  . . .      . .    .  . ... ",
". ..... .  ...  ...  ..  . .. .. . .. . .. . ..... ...     . . .   .. . .    ...    . .. ..  .    . ",
". ...      ..  .    ...  . . .. .   .  . ... .  .  .. ...  ...  . . .. ..  .... . . .. ... . . .. . ",
" .        . .. . ...   .....  . .  .     .       ..... .. .   ........ . ........ ..     .....   . .",
" . . ..  .   .. ..   .. .. .         . .   . . .. .... ..  . ..   . ..  .. . .  .. .. .  .. ... .   ",
"  .  .....  . . .    ... .. .. ...  . ...  .. ....   . .... .  .  .   ... ...      .. .....   .. .. ",
".     ....  ..    .   .   .... .. . .    ...  . ..... ....   .    . ....   . ...  .  .  .  ..  .... ",
" .  ....  ... ... ... ....    ..   . .. ... ..... .  ..  . . ..  ..   . .... .       .  . ...       ",
" .   .  . ..  ..    ... . ...      ... .    ..   .. .  .. ....   . ...  .     . .. . .. . .  .. .   ",
"   ... . .... .......  . ....  ... .     . .   .   .... ..  .. ... .. .     . .  ...  .       .. .. ",
". .. .    ...  ..  ... .    . .     . ..    ....     .   .. .. .    .. ..... ....      ....  .......",
". .    . .     .... ..  .  . .. . . . .    ..  . ..  ..   ...     ..   .. . .. .. . ..  . . .   ... ",
" .  .        ..  ...  .    ..     . . . . . ..  ...     . ..  . . .. .    ...... . ........ ... ....",
". ....  . ..  .. .   .     .  ..  .    ............ ..... ..  .       .   ..       ......  . . .....",
" ....  . .  .  ....... . .  ...  . .. .. ... ..  ... . .      ...  . ... .  ...   .    . . .   .... ",
". . ... ... . .  . .  .  ....  .  .. .  ... ... ... ... .  .. ... .... ..   . . .  ...... .  ... .. ",
".. ..      .. ...  .   .  . .... . ..  ... .  .    .... .  ....  ..    ... . ..    .   . .... ... . ",
".....   .   .. . .  .  ....  .. . .   ...... .. ...... .. .  . . . ..  .    . .  ....  ..   .     . ",
"   . . .       . .. .... ..    ... .. . . .    . .    ......    .  ..  ... .   ...... . .....       ",
" .. ..    ..... .. . .  . .... ..  . ..   . .    ..   .. . ..  .... ...  . ..  .  ...  . ...   . . .",
" .. ...  .  ..... .   ... . ... ..    ..   .   .  . ......   .....   . . .. .   . .. . .......     .",
" .   . ... .  .  ..    .. . . . ....   .  ... ... . ..      ... .... ...      . . . ..... . . .. . .",
"...   . ... ..   ..  ...  .. . .. ....     ..  .. . ...  ..  . ....  ....... ..  . ..... ... . .. . ",
". ..  . .. ..   . .. .  ..  . . ... . .      .  .   . .. .   .  . . ..  .    . .....   .     ...   .",
". . ........ ..     .  .   ..   ..   .. .  .. .   .. . .   ... .....  .  . . . .....    ...   . .  .",
" .... .  ...  .   .. ..   .    .... ...  . .  .... ....   ..    . ..   ..... .... .. . .. ...   .. .",
"   .   .. . .   ..  ... ..    ...    .. ..  ... .   . .. ....  .  . .....   .....     .  . .   ..  .",
".  ..  .  . . . ....    ..  ...     ..   .  ...    . ..    . .  ...... .. .  ...  .  ...   ..  .. ..",
". ..  .....  .   .... . ..  ..  . . . . .....    ...  . . .. ......  .  .. .   . .... .. ....  .. ..",
" ..... .....  ....    .  ... ... .. ....    . .  .  .     .  .. . .   .... .  . .  . .....   ... . .",
"....... .   . .   .  .....   .. .  ......    . ....         .... . . ..      ...... ..  ... ....... ",
".  . .  ..  .   ..        .  ..     . ...    .. .  ....... .   .. .. . ... ...  .  . . .  ..  .  .. ",
".. ...       .  ..  ..   ..... .       ......... . . .....       ...  .. . .. . . .  .. .  .. .   . ",
". . .. ..    ......... .. ... .. .  . ...  .  . .  .  . . .    .  .   . .  .  . .. .   .  ..   .   .",
" .  .    ..       . .  ...   .  ..  .  . . .   ..... .  . .. . ... .. . ....... . .. ..  ...  .  ...",
"      ...   ..... . ... ...  .    .. .  . ..    .    . .   . .        ..  .. . . ... .   .. ..   .  ",
"... . .. ..  .. . .. ..   . ..  .  .    .   ..  ....   .  .. ...... .   . . .  ...... .   .      .. ",
"...  ... . ... . ....  ... ... ...  ..  .....   .......  .     ..  .  ... . .. . . . . .  .  .   . .",
". .. .. . .  . ....  .   ..    .   .. . ...      . .. ......  ... ..   ...    .... . .. ..  ..  . ..",
"  . .. . . . . ... .. ...... .. . .    . . ...  . .. ...   ..   . . .... .. ..... . ...  ..... . ...",
"..... .. .    .... ........  .. . . .    ..    . . .. ...   ..  ..  .. .  .   .... .      ..   .   .",
". ..... .. ....  . .   ..    . ..  ..... ...... ... . ... .. . .  ... . .  .. ... .     . . .   . ..",
".. .. ... .  .......  . .. .. .  . .  .. .  . . .    ...  .  ... ... ..... ... . ..     .... .. ..  ",
"..... ...  . .   .. ..  .....      ... .     . .  . .   .... .. . ..... .... . ..  .  . ...         ",
".. ... .. .. .....  ..    . . ....... ..  .  .. ... .. .....  .  ...     .   .. .    ..  ..  . .  . ",
". . ..       . . .. ..  . .   .....  . ...   .  .  . . .  .  .. ... .  .  .......     . ..    ..... ",
".. ..  ... .. .. . .   ..  .   ....... .    . . . . .  .  .. .. . .    ..  ... ...   . .   .. .   . ",
".    . . ...  .....     .  .  ..  .  .    .  .       . .... ... .   ..  ..    .   . . .  . ..  . . .",
"...  .    ..     .  . .  .   ... . .  . .  . .. .   .... .   ........ .   ...  .. ..... .  ........ ",
".... .. .   . .....  ... . .  ...  ... . .    .    .. .  . . .    ...  ..  ..    .  ...  .   . . ...",
"...    ....   ...   ...     .......  . ...   ...  .  .. ......     ..    . .   . ...  . .... . .    ",
" ..   .       ... .  .  ..    .. ..   .... .    ..    .    .. . ..    . . .. .  .  .   . ...    ..  ",
" . . .  . ...  .. . . . ..... ....  .... .  ..   .....  .  . ..... . . ..  .  .. . . .     .. .   ..",
"    .   .. . . . ..   . ...... ..  ... ....   ..    .   .  . ... . .   ... ...     .    ....  ... . ",
" .   .  ... .... .    .... ..      . .. .    ... ..   . ..   . .  .  . .   . .  ...  .     ... .....",
"    ...   ...  .  . . .  ......   .      .     .    ....   ......   ...   ...  ....      ... .  .. .",
"....  . ..  . ... ...  ..   .. .. ..   .     ..      ...    .  ....    . ..  . .  . .. . .  . .. .  ",
"    ..  ..    . ... ..... ..  .    .  ... . ..  .   . .    ..    .   . ..  ..... ...  ...  .........",
" . ...  . ..  . .  .. .. .....     ..   .    . .. .    ..... .      .   .    .... ..   . . .... . . ",
".... .  .  . ...     .. ... .   ..  ...  .   ....  .... ..... .   .  ....  .. . .. . ... .  .. .. . ",
". . .    .    . .  .    . ...  .  ... .. .... . ... .  ..  .  .  .  ....  ....  . . .  .... .... .  ",
"... .    ...  ...  .....  .       .. ... .  . . .  . .     . .    .         .. ..    ..  .   .. .  .",
"... ..      .... ...  . .. .. .    .. .. .  .. ....  .  ...... ... .. ..  . .. .... .  .  .. .  .   ",
". .. . .. .. .   ... ..  .      . . ..   .  .    .   .  ...   ..   .   .   .. .......  .   ..      .",
".. .     ..  ....  ...  ..  ...    .   ....  .  ..     ..    ... . .    ....     ...     ..  ...... ",
".... .  ... . ..   .. .. . . .. .. . .  ..   ..  . .. ... ...   ......      .. .   ... .    .... .  ",
"...  .. ... .. . . . ...  .  .    ... . .......  ....   . ...    . .  .   ...  .... . .   .. . ...  ",
". .. ...     ....  .. ... .  .  .    .... .   ..   ... .. .    ... .  .  .....  . .. .. .. . .   ...",
"     ............. ..   .... . ....        . . ... . ....   .      . ...  ...   .    . . . ..  .....",
".... .  . .  ..   .  .. ... . .... . .    .. . ... .    .  . .  ... . .  .  ... .. . .  .. ...... . ",
".  .  . . ..  .  ......   . . ..   ..... . .   .. .. . .     .    ..... . .. ..  ..  .  .... . . . .",
"   . .    . ..   .  .. .. ..  ...    . .. . ... ..    .  .. ... ...  ...... .  .  .   . .  ...     .",
"....... ...   .   ... .... ... ..   .  .      ...... . ...... .... . .   ....     ... .. .. . . . . ",
" ...... ..  . . .....  .. ..      .   . ...  ..... ... . ..  . .. ...   ..  .... . . .   ..  . . . .",
" . .. .. ..     .   .. .. . . . ..   . ....  .   ......   ....   . . ....  .    ..  ......    .. .  ",
" ..... ......  ....  .    ...     ..... .   .      .. ....   . .    . .... .. ...  ..   . . ...   . ",
" . .. ...  .  ... .  .    .   .    .... .    .    ....  .     .....  .. ....  .. . .. .  .... . .   ",
".  .....      ... . . ..    .      . ...  ...  .  .. .        ... . . . .. .    . .  .. .. .  .... .",
".. . .. . ...   .. .    .   .. .. . . ..    ..   ..  . ..  ..  ... . ..   ... . .  . ..   ..   . .. ",
" .. ...  .   ... ... ..    .  .  . ...... . ....        .    . . . .   .   ..... .. . ... ..   ..  .",
" .  .. .  .... ..  .... ....   .  . ..  ...   ..   ..    . .  ... .     .. .....  .. .. .  ......   ",
".  ..   .  .. . .   .. .  .  . .. .  ...     . .   .. ..     .  . . ... .....   ..  .....     .  ...",
"....   ......   .. .. .         ..  .... ...   .  .. . . .  .. ....  .. .... ... .  ..... .  ... . .",
"  ..   .... ..   ... .  ..     .   ..  .. . .  .. .   ........  . .. .  .. .   ... .  .    . . ..  .",
".  . .. ...  .   . . .. .   .. .. . . .  .     .    ..  . .   ....   .  ..  . . ..  ..   .   . ...  ",
" .....      .. ..    .. .   ... ......    ... . ..  .   ..  . .... . .  ..  .  .... ... ..      . ..",
".. .  ... ..  ............ .     .. . . ....  . ..... .....  ....  .. .. ..   .   .....  . . .. .. .",
" .   .  .. . . ... .. .        . ..  ...    . .  .. .  . . .... .... . ... ... ... ......  .... ... ",
" .. .  ..... .  .. .  . . .. . .  . ...... ...    .. .... ...     .  .   .  ... .     ..  . .    . .",
". .  ....  ...  . .. ..  .  . ... .  .  . . ..  .. .. ....  .. .. .. . .... . . ..... .....       . ",
". .. ..   ... .. . . . .   .... .... ... ..    . . .... ..   . .... . .... .  .... .....  . ..   .  ",
"    ..... ....  .    . .   ... ..   .. .   .. ..  ..  . .......  .   .  . .   . ..  .. . .  .  .    ",
". .... ..    ....  ...... ..   .  .   . . . .. .  . .. ..  .  ..  . . . ...  . .       ..  . . . .. ",
"..      .. . . ... ..   . .. ....  .... ..  . ......      . ..   ..  .. ..  . .  .      . .. . .  . ",
"... ....  .... . . .. .. ...    .  . . .. .  .  ... .  .. ..    .  ..    . .   .  ..  .  . .  .. . ."
};
