<svg height="508pt" viewBox="-63 0 508 508.64552" width="508pt" xmlns="http://www.w3.org/2000/svg"><path d="m382.882812 217.335938v35.308593l-44.136718 17.65625-22.6875-9.09375c-4.589844 28.25-13.332032 44.757813-65.589844 70.886719-19.753906 9.957031-40.65625 17.457031-62.234375 22.332031l-8.386719 92.425781v61.792969h-52.964844v-61.792969l-8.296874-90.921874c-1.238282-.355469-2.472657-.707032-3.707032-1.148438-13.949218-4.503906-27.71875-9.621094-41.316406-15.097656-13.042969-4.699219-25.78125-10.210938-38.132812-16.503906-25.070313-14.214844-33.546876-43.523438-35.046876-70.535157-.613281-34.988281 3.453126-69.902343 12.09375-103.8125 4.949219-25.863281 12.707032-51.113281 23.128907-75.296875 18.890625-41.226562 57.378906-73.003906 104.34375-73.535156 33.121093.75 65.882812 7.046875 96.925781 18.625l34.78125 13.332031 2.382812.882813c2.503907.988281 4.898438 2.230468 7.148438 3.707031 12.800781 8.648437 18.628906 23.921875 23.21875 38.046875l2.117188 7.414062 32.222656 11.742188v44.136719l-18.890625 7.503906v.089844c2.3125 15.933593 3.519531 32.007812 3.617187 48.109375zm0 0" fill="#d1d4d1"/><path d="m188.234375 354.425781-8.386719 92.425781s0 8.828126-26.480468 8.828126c-26.484376 0-26.484376-8.828126-26.484376-8.828126l-8.296874-90.921874c23.105468 3.867187 46.730468 3.355468 69.648437-1.503907zm0 0" fill="#a5a5a4"/><path d="m271.65625 31.957031c-15.371094-3.691406-31.457031-3.109375-46.523438 1.675781-22.386718 5.363282-43.601562 14.785157-62.585937 27.808594-64.617187 46.609375-63.914063 137.796875-70.972656 208.859375-5.738281 57.46875 10.945312 77.507813 23.304687 84.480469-13.949218-4.503906-27.71875-9.621094-41.316406-15.097656-13.042969-4.699219-25.78125-10.210938-38.132812-16.503906-25.070313-14.214844-33.546876-43.523438-35.046876-70.535157-.613281-34.988281 3.453126-69.902343 12.09375-103.8125 4.949219-25.863281 12.707032-51.113281 23.128907-75.296875 18.890625-41.226562 57.378906-73.003906 104.34375-73.535156 33.121093.75 65.882812 7.046875 96.925781 18.625zm0 0" fill="#ecf0f1"/><path d="m259.296875 270.300781-44.136719 17.65625-88.277344-35.3125 44.136719-17.652343zm0 0" fill="#f3d55b"/><path d="m215.160156 287.957031v35.308594l-88.277344-35.308594v-35.3125zm0 0" fill="#b19046"/><path d="m259.296875 270.300781v35.308594l-44.136719 17.65625v-35.308594zm0 0" fill="#e4c05c"/><path d="m382.882812 217.335938-44.136718 17.65625-88.277344-35.3125 44.136719-17.65625 28.867187 11.566406zm0 0" fill="#f3d55b"/><path d="m338.746094 234.992188v35.308593l-22.6875-9.09375-65.589844-26.214843v-35.3125zm0 0" fill="#b19046"/><path d="m382.882812 217.335938v35.308593l-44.136718 17.65625v-35.308593zm0 0" fill="#e4c05c"/><path d="m338.746094 93.75-44.140625 17.652344-97.101563-35.308594 44.136719-17.65625zm0 0" fill="#f3d55b"/><path d="m294.605469 111.402344v44.140625l-97.101563-35.3125v-44.136719zm0 0" fill="#b19046"/><path d="m338.746094 93.75v44.136719l-18.890625 7.503906v.089844l-25.25 10.0625v-44.140625zm0 0" fill="#e4c05c"/></svg>