<svg height="508pt" viewBox="-61 0 508 508.75733" width="508pt" xmlns="http://www.w3.org/2000/svg"><path d="m378.710938 218.625v34.132812l-42.667969 17.066407-12.800781-5.121094-9.128907-3.667969c-.425781 2.730469-.9375 5.375-1.535156 7.933594-5.035156 22.699219-16.472656 37.890625-61.867187 60.589844-19.097657 9.625-39.300782 16.875-60.160157 21.589844l-8.109375 89.34375v59.730468h-51.199218v-59.730468l-8.019532-87.894532c-1.195312-.339844-2.390625-.683594-3.585937-1.109375-7.59375-2.476562-15.101563-5.121093-22.613281-7.851562-5.800782-2.21875-11.605469-4.4375-17.320313-6.742188-12.609375-4.542969-24.921875-9.871093-36.867187-15.957031-24.234376-13.738281-32.425782-42.066406-33.875-68.179688-.59375-33.824218 3.335937-67.574218 11.691406-100.351562 4.785156-25.003906 12.28125-49.410156 22.355468-72.789062 16.980469-37.121094 50.433594-66.304688 91.5625-70.570313 3.074219-.257813 6.144532-.511719 9.300782-.511719 32.019531.722656 63.691406 6.808594 93.695312 18.003906l33.625 12.886719 2.300782.851563c2.421874.953125 4.738281 2.15625 6.914062 3.585937 12.371094 8.359375 18.003906 23.125 22.441406 36.777344l2.046875 7.167969 31.148438 11.347656v42.667969l-18.261719 7.253906v.085937c2.238281 15.402344 3.40625 30.941407 3.5 46.503907zm0 0" fill="#cfd8dc"/><path d="m353.109375 218.625v34.132812l-29.867187 11.945313-10.664063 4.265625-2.136719.855469-21.929687-8.789063c-4.4375 27.304688-12.886719 43.261719-63.402344 68.523438-19.097656 9.625-39.300781 16.875-60.160156 21.589844l-8.105469 89.34375v59.730468h-25.601562v-59.730468l-8.019532-87.894532c-1.195312-.339844-2.390625-.683594-3.585937-1.109375-7.59375-2.476562-15.101563-5.121093-22.613281-7.851562-5.800782-2.21875-11.605469-4.4375-17.320313-6.742188-12.609375-4.542969-24.921875-9.871093-36.867187-15.957031-24.234376-13.738281-32.425782-42.066406-33.875-68.179688-.59375-33.824218 3.335937-67.574218 11.691406-100.351562 4.785156-25.003906 12.28125-49.410156 22.355468-72.789062 16.980469-37.121094 50.433594-66.304688 91.5625-70.570313 26.421876 2.617187 52.417969 8.492187 77.398438 17.492187l33.621094 12.886719 2.304687.851563c2.417969.953125 4.734375 2.15625 6.910157 3.585937 12.375 8.359375 18.007812 23.125 22.445312 36.777344l2.046875 7.167969 31.144531 11.347656v42.667969l-18.261718 7.253906v.085937c2.238281 15.402344 3.40625 30.941407 3.5 46.503907zm0 0" fill="#f5f5f5"/><path d="m190.550781 351.148438-8.109375 89.34375s0 8.53125-25.597656 8.53125c-4.285156.0625-8.570312-.253907-12.800781-.9375-12.800781-2.21875-12.800781-7.59375-12.800781-7.59375l-7.765626-85.503907-.253906-2.390625c5.667969 1.042969 11.394532 1.730469 17.152344 2.046875.128906-.085937.296875-.085937.425781 0 7.925781.503907 15.875.535157 23.808594.085938 8.722656-.550781 17.394531-1.746094 25.941406-3.582031zm0 0" fill="#545c60"/><path d="m164.949219 351.148438-.339844 3.582031-7.765625 85.761719s0 5.375-12.800781 7.59375c-12.800781-2.21875-12.800781-7.59375-12.800781-7.59375l-7.765626-85.503907c5.636719.175781 11.273438.058594 16.898438-.34375.128906-.085937.296875-.085937.425781 0 8.117188-.640625 16.183594-1.808593 24.148438-3.496093zm0 0" fill="#7f8e94"/><path d="m271.191406 39.425781c-14.859375-3.566406-30.410156-3.007812-44.972656 1.621094-21.640625 5.179687-42.148438 14.292969-60.5 26.878906-62.464844 45.054688-61.78125 133.203125-68.609375 201.898438-5.546875 55.550781 10.582031 74.921875 22.527344 81.664062-13.480469-4.351562-26.792969-9.300781-39.933594-14.59375-12.609375-4.542969-24.921875-9.871093-36.867187-15.957031-24.234376-13.738281-32.425782-42.066406-33.875-68.179688-.59375-33.824218 3.335937-67.574218 11.691406-100.351562 4.785156-25.003906 12.28125-49.410156 22.355468-72.789062 18.261719-39.851563 55.46875-70.570313 100.863282-71.082032 32.019531.722656 63.691406 6.808594 93.695312 18.003906zm0 0" fill="#cfd8dc"/><path d="m259.242188 269.824219-42.664063 17.066406-85.335937-34.132813 42.667968-17.066406zm0 0" fill="#ffdc00"/><path d="m216.578125 286.890625v34.132813l-85.335937-34.132813v-34.132813zm0 0" fill="#fec108"/><path d="m259.242188 269.824219v34.132812l-42.664063 17.066407v-34.132813zm0 0" fill="#ffeb3a"/><path d="m378.710938 218.625-42.667969 17.066406-85.332031-34.132812 42.664062-17.066406 27.90625 11.175781zm0 0" fill="#ffdc00"/><path d="m336.042969 235.691406v34.132813l-21.929688-8.789063-63.402343-25.34375v-34.132812zm0 0" fill="#fec108"/><path d="m378.710938 218.625v34.132812l-42.667969 17.066407v-34.132813zm0 0" fill="#ffeb3a"/><path d="m336.042969 99.15625-42.667969 17.066406-93.867188-34.132812 42.667969-17.066406zm0 0" fill="#ffdc00"/><path d="m293.375 116.222656v42.667969l-93.867188-34.132813v-42.667968zm0 0" fill="#fec108"/><path d="m336.042969 99.15625v42.667969l-18.261719 7.253906v.085937l-24.40625 9.726563v-42.667969zm0 0" fill="#ffeb3a"/><path d="m131.242188 363.691406c-5.28125-.253906-10.429688-1.738281-15.03125-4.34375-12.402344-4.023437-25.425782-8.789062-39.691407-14.535156-2.992187-1.21875-5.976562-2.378906-8.960937-3.546875-9.925782-3.613281-19.582032-7.917969-28.902344-12.886719-23.007812-13.042968-36.214844-39.027344-38.214844-75.148437-.621094-34.585938 3.371094-69.097657 11.867188-102.628907 4.921875-25.609374 12.617187-50.605468 22.941406-74.546874 21.257812-46.394532 62.851562-75.542969 108.527344-76.054688 32.96875.75 65.578125 6.984375 96.5 18.449219l33.964844 12.941406c3.863281 1.3125 7.53125 3.128906 10.917968 5.402344 14.675782 9.890625 21.015625 26.457031 25.808594 41.210937 1.457031 4.480469-.996094 9.296875-5.480469 10.753906-4.480469 1.457032-9.296875-.996093-10.753906-5.480468-3.90625-12.046875-8.941406-25.472656-19.109375-32.332032-1.613281-1.082031-3.335938-1.996093-5.140625-2.722656l-.03125-.007812-1.28125-.492188c-13.460937-3.421875-27.625-2.863281-40.773437 1.601563-20.628907 4.875-40.179688 13.511719-57.671876 25.480469-51.734374 37.3125-57.625 107.820312-62.824218 170.027343-.742188 8.824219-1.46875 17.476563-2.304688 25.84375-5.066406 50.71875 8.515625 67.476563 17.566406 72.992188 2.773438.914062 5.523438 1.765625 8.25 2.609375l2.359376.734375c4.019531 1.253906 6.527343 5.257812 5.894531 9.425781-.632813 4.164062-4.210938 7.246094-8.425781 7.253906zm14.984374-346.644531c-.75 0-1.492187.007813-2.234374.019531-39.03125.441406-74.742188 25.769532-93.222657 66.105469-9.804687 22.816406-17.105469 46.632813-21.777343 71.027344-8.148438 32.050781-12.019532 65.039062-11.507813 98.105469 1.160156 20.925781 7.234375 48.550781 29.558594 61.210937 8.617187 4.566406 17.546875 8.527344 26.71875 11.847656 3.0625 1.195313 6.121093 2.390625 9.15625 3.625 3.917969 1.574219 7.738281 3.078125 11.46875 4.503907-7.066407-20.734376-9.046875-42.863282-5.769531-64.519532.824218-8.269531 1.542968-16.835937 2.277343-25.566406 5.507813-65.878906 11.75-140.539062 69.847657-182.441406 19.207031-13.214844 40.6875-22.761719 63.367187-28.160156.957031-.25 1.933594-.496094 2.941406-.742188-26.007812-9.136719-53.269531-14.199219-80.824219-15.015625zm0 0"/><path d="m321.28125 204.203125c-4.714844 0-8.535156-3.820313-8.535156-8.535156-.085938-15.195313-1.226563-30.363281-3.40625-45.402344-.542969-4.605469 2.695312-8.800781 7.285156-9.445313 4.59375-.644531 8.859375 2.492188 9.609375 7.070313 2.296875 15.824219 3.492187 31.789063 3.578125 47.777344 0 2.265625-.898438 4.433593-2.5 6.035156-1.597656 1.601563-3.769531 2.5-6.03125 2.5zm0 0"/><path d="m147.234375 364.667969c-5.816406.082031-11.632813-.285157-17.390625-1.09375-3.050781-.457031-5.617188-2.519531-6.714844-5.398438-1.097656-2.882812-.558594-6.132812 1.414063-8.5 1.972656-2.371093 5.066406-3.492187 8.101562-2.933593.464844.066406 49.589844 7.507812 114.25-24.816407 50.421875-25.214843 55.191407-40.085937 58.792969-62.253906.488281-3.011719 2.542969-5.53125 5.394531-6.617187 2.851563-1.082032 6.0625-.558594 8.425781 1.367187 2.363282 1.925781 3.515626 4.96875 3.03125 7.980469-4.984374 30.695312-15.984374 48.773437-68.011718 74.785156-33.164063 17.316406-69.886719 26.722656-107.292969 27.480469zm0 0"/><path d="m216.578125 295.425781c-1.085937-.003906-2.160156-.207031-3.167969-.609375l-85.332031-34.132812c-3.246094-1.296875-5.371094-4.433594-5.371094-7.925782 0-3.492187 2.125-6.628906 5.371094-7.925781l42.664063-17.066406c2.035156-.808594 4.300781-.808594 6.335937 0l85.332031 34.132813c3.242188 1.296874 5.367188 4.433593 5.367188 7.925781 0 3.492187-2.125 6.628906-5.367188 7.925781l-42.667968 17.066406c-1.007813.402344-2.082032.605469-3.164063.609375zm-62.359375-42.667969 62.359375 24.941407 19.691406-7.875-62.359375-24.941407zm0 0"/><path d="m216.578125 329.558594c-1.085937 0-2.160156-.207032-3.167969-.609375l-85.332031-34.132813c-3.242187-1.296875-5.367187-4.4375-5.367187-7.925781v-34.132813c0-4.714843 3.820312-8.535156 8.53125-8.535156 4.714843 0 8.535156 3.820313 8.535156 8.535156v28.355469l68.265625 27.304688v-21.527344c0-4.710937 3.820312-8.535156 8.535156-8.535156 4.710937 0 8.53125 3.824219 8.53125 8.535156v34.132813c0 4.714843-3.820313 8.535156-8.53125 8.535156zm0 0"/><path d="m216.578125 329.5625c-4.097656.003906-7.621094-2.898438-8.394531-6.921875-.773438-4.023437 1.417968-8.027344 5.226562-9.542969l37.300782-14.917968v-28.355469c0-4.714844 3.820312-8.535157 8.53125-8.535157 4.714843 0 8.535156 3.820313 8.535156 8.535157v34.132812c-.003906 3.492188-2.128906 6.628907-5.367188 7.925781l-42.667968 17.066407c-1.007813.402343-2.082032.609375-3.164063.613281zm0 0"/><path d="m336.042969 244.222656c-1.085938 0-2.160157-.207031-3.167969-.605468l-85.332031-34.136719c-3.242188-1.292969-5.367188-4.433594-5.367188-7.921875 0-3.492188 2.125-6.632813 5.367188-7.925782l42.667969-17.066406c2.03125-.808594 4.296874-.808594 6.332031 0l85.332031 34.132813c3.242188 1.292969 5.371094 4.433593 5.371094 7.925781 0 3.488281-2.128906 6.628906-5.371094 7.925781l-42.664062 17.066407c-1.007813.398437-2.082032.605468-3.167969.605468zm-62.359375-42.664062 62.359375 24.941406 19.691406-7.875-62.359375-24.941406zm0 0"/><path d="m336.042969 278.355469c-1.085938.003906-2.160157-.203125-3.167969-.605469l-85.332031-34.132812c-3.238281-1.296876-5.363281-4.4375-5.367188-7.925782v-34.132812c0-4.714844 3.820313-8.535156 8.535157-8.535156 4.710937 0 8.53125 3.820312 8.53125 8.535156v28.351562l68.265624 27.308594v-21.527344c0-4.714844 3.824219-8.535156 8.535157-8.535156 4.710937 0 8.535156 3.820312 8.535156 8.535156v34.132813c0 4.710937-3.824219 8.53125-8.535156 8.53125zm0 0"/><path d="m336.042969 278.363281c-4.097657.003907-7.617188-2.902343-8.394531-6.921875-.773438-4.023437 1.421874-8.027344 5.226562-9.542968l37.300781-14.917969v-28.355469c0-4.714844 3.820313-8.535156 8.535157-8.535156 4.710937 0 8.53125 3.820312 8.53125 8.535156v34.132812c0 3.488282-2.125 6.628907-5.367188 7.925782l-42.664062 17.066406c-1.007813.402344-2.082032.609375-3.167969.613281zm0 0"/><path d="m156.84375 457.558594c-31.675781 0-34.132812-13.0625-34.132812-17.066406l-7.902344-86.4375c-.457032-4.6875 2.84375-8.910157 7.5-9.597657 4.511718-.625 8.6875 2.496094 9.367187 6.996094l.132813 1.046875 7.765625 85.390625c5.476562 2.199219 11.390625 3.085937 17.269531 2.601563 4.710938 0 8.53125 3.820312 8.53125 8.53125 0 4.714843-3.820312 8.535156-8.53125 8.535156zm-17.167969-18.597656.066407.753906c.003906-.253906-.015626-.503906-.066407-.753906zm0 0"/><path d="m156.84375 457.558594c-4.714844 0-8.535156-3.820313-8.535156-8.535156 0-4.710938 3.820312-8.53125 8.535156-8.53125 5.890625.496093 11.816406-.402344 17.296875-2.617188l7.910156-87.496094c.425781-4.695312 4.578125-8.15625 9.269531-7.730468 4.695313.425781 8.15625 4.578124 7.730469 9.269531l-8.105469 89.347656c.03125 3.230469-2.425781 16.292969-34.101562 16.292969zm17.183594-18.378906c-.078125.429687-.117188.871093-.117188 1.3125zm0 0"/><path d="m182.441406 508.757812h-51.199218c-4.710938 0-8.53125-3.820312-8.53125-8.535156v-59.730468c0-4.714844 3.820312-8.535157 8.53125-8.535157 4.714843 0 8.535156 3.820313 8.535156 8.535157v51.199218h34.132812v-51.199218c0-4.714844 3.820313-8.535157 8.53125-8.535157 4.714844 0 8.535156 3.820313 8.535156 8.535157v59.730468c0 4.714844-3.820312 8.535156-8.535156 8.535156zm0 0"/><path d="m293.375 167.425781c-.992188-.003906-1.980469-.175781-2.914062-.515625l-93.867188-34.132812c-3.375-1.226563-5.617188-4.429688-5.617188-8.019532v-51.199218c.003907-2.785156 1.359376-5.390625 3.640626-6.988282 2.277343-1.597656 5.191406-1.984374 7.808593-1.035156l93.867188 34.132813c3.371093 1.226562 5.617187 4.433593 5.617187 8.023437v51.199219c-.007812 4.710937-3.824218 8.527344-8.535156 8.535156zm-85.332031-48.640625 76.800781 27.925782v-33.046876l-76.800781-27.925781zm0 0"/><path d="m293.375 116.226562c-4.09375.007813-7.617188-2.898437-8.390625-6.917968-.773437-4.023438 1.417969-8.027344 5.226563-9.542969l19.972656-7.992187-60.023438-18.003907-49.25 8.207031c-3.03125.558594-6.128906-.5625-8.101562-2.933593-1.972656-2.371094-2.511719-5.617188-1.414063-8.5 1.097657-2.878907 3.664063-4.945313 6.714844-5.398438l51.199219-8.535156c1.285156-.210937 2.601562-.128906 3.851562.242187l85.332032 25.601563c3.476562 1.039063 5.917968 4.167969 6.078124 7.792969.160157 3.628906-1.988281 6.960937-5.359374 8.304687l-42.667969 17.066407c-1.007813.40625-2.082031.609374-3.167969.609374zm0 0"/><path d="m293.375 167.429688c-4.09375.003906-7.617188-2.898438-8.390625-6.921876-.773437-4.023437 1.417969-8.027343 5.226563-9.542968l37.296874-14.917969v-45.421875c0-4.714844 3.824219-8.535156 8.535157-8.535156 4.710937 0 8.535156 3.820312 8.535156 8.535156v51.199219c-.003906 3.488281-2.128906 6.628906-5.367187 7.925781l-42.667969 17.066406c-1.007813.402344-2.082031.609375-3.167969.613282zm0 0"/></svg>