<svg height="512pt" viewBox="-102 0 512 512" width="512pt" xmlns="http://www.w3.org/2000/svg"><path d="m153.601562 8.535156c9.425782 0 17.066407 7.640625 17.066407 17.066406v42.664063h-34.132813v-42.664063c0-9.425781 7.640625-17.066406 17.066406-17.066406zm0 0" fill="#ffeb3a"/><path d="m281.601562 76.800781v25.597657h-256v-25.597657c.011719-4.707031 3.824219-8.519531 8.53125-8.535156 4.707032-.011719 8.519532-3.824219 8.535157-8.53125.011719-4.707031 3.824219-8.519531 8.53125-8.535156h204.800781c4.707031.015625 8.519531 3.828125 8.535156 8.535156.011719 4.707031 3.824219 8.519531 8.53125 8.53125 4.707032.015625 8.519532 3.828125 8.535156 8.535156zm0 0" fill="#283593"/><path d="m256 85.332031v17.066407h-230.398438v-25.597657c.011719-4.707031 3.824219-8.519531 8.53125-8.535156 4.707032-.011719 8.519532-3.824219 8.535157-8.53125h187.730469c4.707031.011719 8.519531 3.824219 8.535156 8.53125.011718 4.707031 3.824218 8.519531 8.53125 8.535156 4.710937.011719 8.523437 3.824219 8.535156 8.53125zm0 0" fill="#3f51b5"/><path d="m17.066406 110.933594h273.066406v375.464844h-273.066406zm0 0" fill="#283593"/><path d="m17.066406 110.933594h247.46875v375.464844h-247.46875zm0 0" fill="#3f51b5"/><path d="m51.199219 213.332031h102.402343v256h-102.402343zm0 0" fill="#283593"/><path d="m153.601562 213.332031h102.398438v256h-102.398438zm0 0" fill="#283593"/><path d="m17.066406 85.332031h273.066406c4.714844 0 8.535157 3.820313 8.535157 8.535157v17.066406c0 4.710937-3.820313 8.53125-8.535157 8.53125h-273.066406c-4.710937 0-8.53125-3.820313-8.53125-8.53125v-17.066406c0-4.714844 3.820313-8.535157 8.53125-8.535157zm0 0" fill="#0377bc"/><path d="m256 162.132812v51.199219h-204.800781v-51.199219c0-9.300781 3.839843-17.066406 8.535156-17.066406h187.730469c4.695312 0 8.535156 7.765625 8.535156 17.066406zm0 0" fill="#fdd834"/><path d="m230.398438 162.132812v51.199219h-179.199219v-51.199219c0-9.300781 3.839843-17.066406 8.535156-17.066406h162.132813c4.691406 0 8.53125 7.765625 8.53125 17.066406zm0 0" fill="#ffeb3a"/><path d="m187.734375 392.535156h34.132813c4.710937 0 8.53125 3.820313 8.53125 8.53125v34.132813c0 4.714843-3.820313 8.535156-8.53125 8.535156h-34.132813c-4.714844 0-8.535156-3.820313-8.535156-8.535156v-34.132813c0-4.710937 3.820312-8.53125 8.535156-8.53125zm0 0" fill="#0377bc"/><path d="m85.332031 238.933594h34.132813c4.714844 0 8.535156 3.820312 8.535156 8.53125v34.136718c0 4.710938-3.820312 8.53125-8.535156 8.53125h-34.132813c-4.710937 0-8.53125-3.820312-8.53125-8.53125v-34.136718c0-4.710938 3.820313-8.53125 8.53125-8.53125zm0 0" fill="#cfd8dc"/><path d="m110.933594 247.464844v34.136718c0 4.691407-5.121094 8.53125-11.378906 8.53125h-11.378907c-6.253906 0-11.375-3.839843-11.375-8.53125v-34.136718c0-4.691406 5.121094-8.53125 11.375-8.53125h11.378907c6.257812 0 11.378906 3.839844 11.378906 8.53125zm0 0" fill="#f5f5f5"/><path d="m85.332031 315.734375h34.132813c4.714844 0 8.535156 3.820313 8.535156 8.53125v34.132813c0 4.714843-3.820312 8.535156-8.535156 8.535156h-34.132813c-4.710937 0-8.53125-3.820313-8.53125-8.535156v-34.132813c0-4.710937 3.820313-8.53125 8.53125-8.53125zm0 0" fill="#0377bc"/><path d="m85.332031 392.535156h34.132813c4.714844 0 8.535156 3.820313 8.535156 8.53125v34.132813c0 4.714843-3.820312 8.535156-8.535156 8.535156h-34.132813c-4.710937 0-8.53125-3.820313-8.53125-8.535156v-34.132813c0-4.710937 3.820313-8.53125 8.53125-8.53125zm0 0" fill="#0377bc"/><path d="m187.734375 238.933594h34.132813c4.710937 0 8.53125 3.820312 8.53125 8.53125v34.136718c0 4.710938-3.820313 8.53125-8.53125 8.53125h-34.132813c-4.714844 0-8.535156-3.820312-8.535156-8.53125v-34.136718c0-4.710938 3.820312-8.53125 8.535156-8.53125zm0 0" fill="#0377bc"/><path d="m187.734375 315.734375h34.132813c4.710937 0 8.53125 3.820313 8.53125 8.53125v34.132813c0 4.714843-3.820313 8.535156-8.53125 8.535156h-34.132813c-4.714844 0-8.535156-3.820313-8.535156-8.535156v-34.132813c0-4.710937 3.820312-8.53125 8.535156-8.53125zm0 0" fill="#0377bc"/><g fill="#02a9f4"><path d="m213.332031 401.066406v34.132813c0 4.695312-5.117187 8.535156-11.375 8.535156h-11.378906c-6.257813 0-11.378906-3.839844-11.378906-8.535156v-34.132813c0-4.691406 5.121093-8.53125 11.378906-8.53125h11.378906c6.257813 0 11.375 3.839844 11.375 8.53125zm0 0"/><path d="m110.933594 324.265625v34.132813c0 4.695312-5.121094 8.535156-11.378906 8.535156h-11.378907c-6.253906 0-11.375-3.839844-11.375-8.535156v-34.132813c0-4.691406 5.121094-8.53125 11.375-8.53125h11.378907c6.257812 0 11.378906 3.839844 11.378906 8.53125zm0 0"/><path d="m110.933594 401.066406v34.132813c0 4.695312-5.121094 8.535156-11.378906 8.535156h-11.378907c-6.253906 0-11.375-3.839844-11.375-8.535156v-34.132813c0-4.691406 5.121094-8.53125 11.375-8.53125h11.378907c6.257812 0 11.378906 3.839844 11.378906 8.53125zm0 0"/><path d="m213.332031 247.464844v34.136718c0 4.691407-5.117187 8.53125-11.375 8.53125h-11.378906c-6.257813 0-11.378906-3.839843-11.378906-8.53125v-34.136718c0-4.691406 5.121093-8.53125 11.378906-8.53125h11.378906c6.257813 0 11.375 3.839844 11.375 8.53125zm0 0"/><path d="m213.332031 324.265625v34.132813c0 4.695312-5.117187 8.535156-11.375 8.535156h-11.378906c-6.257813 0-11.378906-3.839844-11.378906-8.535156v-34.132813c0-4.691406 5.121093-8.53125 11.378906-8.53125h11.378906c6.257813 0 11.375 3.839844 11.375 8.53125zm0 0"/></g><path d="m17.066406 469.332031h273.066406c4.714844 0 8.535157 3.820313 8.535157 8.535157v17.066406c0 4.710937-3.820313 8.53125-8.535157 8.53125h-273.066406c-4.710937 0-8.53125-3.820313-8.53125-8.53125v-17.066406c0-4.714844 3.820313-8.535157 8.53125-8.535157zm0 0" fill="#0377bc"/><path d="m17.066406 85.332031h247.46875c4.710938 0 8.53125 3.820313 8.53125 8.535157v17.066406c0 4.710937-3.820312 8.53125-8.53125 8.53125h-247.46875c-4.710937 0-8.53125-3.820313-8.53125-8.53125v-17.066406c0-4.714844 3.820313-8.535157 8.53125-8.535157zm0 0" fill="#02a9f4"/><path d="m17.066406 469.332031h247.46875c4.710938 0 8.53125 3.820313 8.53125 8.535157v17.066406c0 4.710937-3.820312 8.53125-8.53125 8.53125h-247.46875c-4.710937 0-8.53125-3.820313-8.53125-8.53125v-17.066406c0-4.714844 3.820313-8.535157 8.53125-8.535157zm0 0" fill="#02a9f4"/><path d="m290.132812 512h-273.066406c-9.421875-.011719-17.0546872-7.644531-17.066406-17.066406v-17.066406c.0117188-9.421876 7.644531-17.054688 17.066406-17.066407h273.066406c9.421876.011719 17.054688 7.644531 17.066407 17.066407v17.066406c-.011719 9.421875-7.644531 17.054687-17.066407 17.066406zm-273.066406-34.132812v17.066406h273.085938l-.019532-17.066406zm0 0"/><path d="m290.132812 128h-273.066406c-9.421875-.011719-17.0546872-7.644531-17.066406-17.066406v-17.066406c.0117188-9.421876 7.644531-17.054688 17.066406-17.066407h273.066406c9.421876.011719 17.054688 7.644531 17.066407 17.066407v17.066406c-.011719 9.421875-7.644531 17.054687-17.066407 17.066406zm-273.066406-34.132812v17.066406h273.085938l-.019532-17.066406zm0 0"/><path d="m290.132812 477.867188h-273.066406c-4.710937 0-8.53125-3.820313-8.53125-8.535157v-349.867187c0-4.710938 3.820313-8.53125 8.53125-8.53125h273.066406c4.714844 0 8.535157 3.820312 8.535157 8.53125v349.867187c0 4.714844-3.820313 8.535157-8.535157 8.535157zm-264.53125-17.066407h256v-332.800781h-256zm0 0"/><path d="m153.601562 477.867188h-102.402343c-4.710938 0-8.53125-3.820313-8.53125-8.535157v-315.730469c.011719-9.421874 7.644531-17.054687 17.066406-17.066406h93.867187c4.710938 0 8.53125 3.820313 8.53125 8.53125v324.265625c0 4.714844-3.820312 8.535157-8.53125 8.535157zm-93.867187-17.066407h85.332031v-307.199219h-85.332031zm0 0"/><path d="m256 477.867188h-102.398438c-4.714843 0-8.535156-3.820313-8.535156-8.535157v-324.265625c0-4.710937 3.820313-8.53125 8.535156-8.53125h93.863282c9.421875.011719 17.054687 7.644532 17.070312 17.066406v315.730469c0 4.714844-3.824218 8.535157-8.535156 8.535157zm-93.867188-17.066407h85.332032v-307.199219h-85.332032zm0 0"/><path d="m256 221.867188h-204.800781c-4.710938 0-8.53125-3.820313-8.53125-8.535157 0-4.710937 3.820312-8.53125 8.53125-8.53125h204.800781c4.710938 0 8.535156 3.820313 8.535156 8.53125 0 4.714844-3.824218 8.535157-8.535156 8.535157zm0 0"/><path d="m256 187.734375h-204.800781c-4.710938 0-8.53125-3.820313-8.53125-8.535156 0-4.710938 3.820312-8.53125 8.53125-8.53125h204.800781c4.710938 0 8.535156 3.820312 8.535156 8.53125 0 4.714843-3.824218 8.535156-8.535156 8.535156zm0 0"/><path d="m85.332031 221.867188c-4.710937 0-8.53125-3.820313-8.53125-8.535157v-68.265625c0-4.710937 3.820313-8.53125 8.53125-8.53125 4.714844 0 8.535157 3.820313 8.535157 8.53125v68.265625c0 4.714844-3.820313 8.535157-8.535157 8.535157zm0 0"/><path d="m119.464844 221.867188c-4.710938 0-8.53125-3.820313-8.53125-8.535157v-68.265625c0-4.710937 3.820312-8.53125 8.53125-8.53125 4.714844 0 8.535156 3.820313 8.535156 8.53125v68.265625c0 4.714844-3.820312 8.535157-8.535156 8.535157zm0 0"/><path d="m187.734375 221.867188c-4.714844 0-8.535156-3.820313-8.535156-8.535157v-68.265625c0-4.710937 3.820312-8.53125 8.535156-8.53125 4.710937 0 8.53125 3.820313 8.53125 8.53125v68.265625c0 4.714844-3.820313 8.535157-8.53125 8.535157zm0 0"/><path d="m221.867188 221.867188c-4.714844 0-8.535157-3.820313-8.535157-8.535157v-68.265625c0-4.710937 3.820313-8.53125 8.535157-8.53125 4.710937 0 8.53125 3.820313 8.53125 8.53125v68.265625c0 4.714844-3.820313 8.535157-8.53125 8.535157zm0 0"/><path d="m25.601562 93.867188c-4.714843 0-8.535156-3.820313-8.535156-8.535157v-8.53125c.011719-9.421875 7.648438-17.054687 17.066406-17.066406.011719-9.421875 7.648438-17.054687 17.066407-17.066406h102.402343c4.710938 0 8.53125 3.820312 8.53125 8.53125 0 4.714843-3.820312 8.535156-8.53125 8.535156h-102.402343c-.011719 9.417969-7.644531 17.054687-17.066407 17.066406v8.53125c0 4.714844-3.820312 8.535157-8.53125 8.535157zm0 0"/><path d="m281.601562 93.867188c-4.714843 0-8.535156-3.820313-8.535156-8.535157v-8.53125c-9.421875-.011719-17.054687-7.648437-17.066406-17.066406h-102.398438c-4.714843 0-8.535156-3.820313-8.535156-8.535156 0-4.710938 3.820313-8.53125 8.535156-8.53125h102.398438c9.421875.011719 17.054688 7.644531 17.066406 17.066406 9.421875.011719 17.054688 7.644531 17.066406 17.066406v8.53125c0 4.714844-3.820312 8.535157-8.53125 8.535157zm0 0"/><path d="m170.667969 59.734375h-34.132813c-4.714844 0-8.535156-3.820313-8.535156-8.535156v-25.597657c0-14.140624 11.460938-25.601562 25.601562-25.601562 14.136719 0 25.597657 11.460938 25.597657 25.601562v25.597657c0 4.714843-3.820313 8.535156-8.53125 8.535156zm-25.601563-17.066406h17.066406v-17.066407c0-4.714843-3.820312-8.535156-8.53125-8.535156-4.714843 0-8.535156 3.820313-8.535156 8.535156zm0 0"/><path d="m119.464844 298.667969h-34.132813c-9.417969-.015625-17.050781-7.648438-17.066406-17.066407v-34.136718c.015625-9.417969 7.648437-17.050782 17.066406-17.066406h34.132813c9.421875.015624 17.054687 7.648437 17.070312 17.066406v34.136718c-.015625 9.417969-7.648437 17.050782-17.070312 17.066407zm-34.132813-51.203125v34.136718h34.152344l-.019531-34.136718zm0 0"/><path d="m119.464844 375.464844h-34.132813c-9.417969-.011719-17.050781-7.644532-17.066406-17.066406v-34.132813c.015625-9.417969 7.648437-17.054687 17.066406-17.066406h34.132813c9.421875.011719 17.054687 7.648437 17.070312 17.066406v34.132813c-.015625 9.421874-7.648437 17.054687-17.070312 17.066406zm-34.132813-51.199219v34.132813h34.152344l-.019531-34.132813zm0 0"/><path d="m119.464844 452.265625h-34.132813c-9.417969-.011719-17.050781-7.644531-17.066406-17.066406v-34.132813c.015625-9.421875 7.648437-17.054687 17.066406-17.066406h34.132813c9.421875.011719 17.054687 7.644531 17.070312 17.066406v34.132813c-.015625 9.421875-7.648437 17.054687-17.070312 17.066406zm-34.132813-51.199219v34.132813h34.152344l-.019531-34.132813zm0 0"/><path d="m221.867188 298.667969h-34.132813c-9.421875-.015625-17.054687-7.648438-17.066406-17.066407v-34.136718c.011719-9.417969 7.644531-17.050782 17.066406-17.066406h34.132813c9.417968.015624 17.054687 7.648437 17.066406 17.066406v34.136718c-.011719 9.417969-7.648438 17.050782-17.066406 17.066407zm-34.132813-51.203125v34.136718h34.148437l-.015624-34.136718zm0 0"/><path d="m221.867188 375.464844h-34.132813c-9.421875-.011719-17.054687-7.644532-17.066406-17.066406v-34.132813c.011719-9.417969 7.644531-17.054687 17.066406-17.066406h34.132813c9.417968.011719 17.054687 7.648437 17.066406 17.066406v34.132813c-.011719 9.421874-7.648438 17.054687-17.066406 17.066406zm-34.132813-51.199219v34.132813h34.148437l-.015624-34.132813zm0 0"/><path d="m221.867188 452.265625h-34.132813c-9.421875-.011719-17.054687-7.644531-17.066406-17.066406v-34.132813c.011719-9.421875 7.644531-17.054687 17.066406-17.066406h34.132813c9.417968.011719 17.054687 7.644531 17.066406 17.066406v34.132813c-.011719 9.421875-7.648438 17.054687-17.066406 17.066406zm-34.132813-51.199219v34.132813h34.148437l-.015624-34.132813zm0 0"/></svg>