<svg height="512pt" viewBox="0 0 512 512" width="512pt" xmlns="http://www.w3.org/2000/svg"><path d="m503.464844 25.601562v256h-494.929688v-256c.027344-9.414062 7.652344-17.039062 17.066406-17.066406h460.796876c9.414062.027344 17.039062 7.652344 17.066406 17.066406zm0 0" fill="#0377bc"/><path d="m477.867188 25.601562v256h-469.332032v-256c.027344-9.414062 7.652344-17.039062 17.066406-17.066406h435.199219c9.414063.027344 17.039063 7.652344 17.066407 17.066406zm0 0" fill="#02a9f4"/><path d="m196.265625 25.601562v247.464844c-.011719 4.707032-3.824219 8.519532-8.53125 8.535156h-17.066406c-4.707031-.015624-8.519531-3.828124-8.535157-8.535156v-68.265625c-.011718-4.707031-3.824218-8.519531-8.53125-8.535156h-102.402343c-4.707031.015625-8.519531 3.828125-8.53125 8.535156v68.265625c-.015625 4.707032-3.828125 8.519532-8.535157 8.535156h-17.066406c-4.707031-.015624-8.519531-3.828124-8.53125-8.535156v-247.464844c.027344-9.414062 7.652344-17.039062 17.066406-17.066406 2.671876.003906 5.304688.644532 7.679688 1.875 1.621094.796875 3.089844 1.863282 4.351562 3.15625 3.242188 3.164063 5.058594 7.507813 5.035157 12.035156v128c.011719 4.707032 3.824219 8.519532 8.53125 8.53125h102.402343c4.707032-.011718 8.519532-3.824218 8.53125-8.53125v-128c.011719-6.429687 3.644532-12.304687 9.386719-15.191406 5.285157-2.652344 11.5625-2.382812 16.601563.710938 5.035156 3.089844 8.117187 8.566406 8.144531 14.480468zm0 0" fill="#cfd8dc"/><path d="m179.199219 25.601562v247.464844c.277343 4.382813-3.007813 8.179688-7.386719 8.535156h-1.621094c-4.835937.113282-8.859375-3.699218-9.007812-8.535156v-68.265625c-.148438-4.835937-4.167969-8.648437-9.007813-8.535156h-108.085937c-4.835938-.113281-8.859375 3.699219-9.007813 8.535156v68.265625c-.148437 4.835938-4.171875 8.648438-9.007812 8.535156h-1.621094c-4.378906-.355468-7.664063-4.152343-7.386719-8.535156v-247.464844c-.183594-6.144531 2.898438-11.925781 8.105469-15.191406 1.699219.789063 3.253906 1.855469 4.59375 3.15625 3.386719 3.085938 5.316406 7.453125 5.316406 12.035156v128c.148438 4.835938 4.171875 8.644532 9.007813 8.53125h108.085937c4.839844.113282 8.859375-3.695312 9.007813-8.53125v-128c.09375-6.554687 3.953125-12.464843 9.910156-15.191406 1.449219.804688 2.734375 1.875 3.785156 3.15625 2.847656 3.355469 4.382813 7.632813 4.320313 12.035156zm0 0" fill="#f5f5f5"/><path d="m503.464844 281.601562v204.796876c-.027344 9.414062-7.652344 17.039062-17.066406 17.066406h-460.796876c-9.414062-.027344-17.039062-7.652344-17.066406-17.066406v-204.796876zm0 0" fill="#549414"/><path d="m477.867188 281.601562v204.796876c-.027344 9.414062-7.652344 17.039062-17.066407 17.066406h-435.199219c-9.414062-.027344-17.039062-7.652344-17.066406-17.066406v-204.796876zm0 0" fill="#60a917"/><path d="m330.496094 443.734375c-11.09375-1.109375-20.734375-2.644531-28.929688-4.269531-10.507812-1.933594-20.839844-4.730469-30.890625-8.359375-1.109375-1.109375-2.132812-2.136719-3.070312-3.242188-31.355469-34.84375-53.167969-77.203125-63.316407-122.96875-17.921874-75.605469-5.890624-148.394531 26.878907-192.851562 13.507812-19.335938 33.140625-33.554688 55.722656-40.363281-39.253906 13.566406-50.347656 109.996093-24.574219 218.625 9.542969 42.464843 25.085938 83.351562 46.164063 121.429687 1.363281 2.304687 2.730469 4.605469 4.09375 6.742187 1.625 2.730469 3.414062 5.375 5.121093 7.933594 3.753907 5.632813 8.191407 11.605469 12.800782 17.324219zm0 0" fill="#283593"/><path d="m301.566406 439.464844c-10.507812-1.933594-20.839844-4.730469-30.890625-8.359375-1.109375-1.109375-2.132812-2.136719-3.070312-3.242188-31.355469-34.84375-53.167969-77.203125-63.316407-122.96875-17.921874-75.605469-5.890624-148.394531 26.878907-192.851562-12.375 40.789062-11.347657 106.921875 5.546875 178.261719 9.542968 42.464843 25.085937 83.351562 46.164062 121.429687 1.367188 2.304687 2.730469 4.605469 4.097656 6.742187 1.621094 2.730469 3.414063 5.375 5.121094 7.933594 2.8125 4.265625 6.058594 8.703125 9.46875 13.054688zm0 0" fill="#3f51b5"/><path d="m449.707031 410.28125c-3.132812 5.21875-6.671875 10.183594-10.582031 14.847656-.769531.941406-1.535156 1.878906-2.304688 2.734375-4.984374 5.691407-10.53125 10.863281-16.554687 15.445313h-.085937l-36.179688 26.023437-8.105469-34.132812c13.085938.074219 26.101563-1.910157 38.570313-5.886719 12.828125-4.097656 24.777344-10.550781 35.242187-19.03125zm0 0" fill="#d1d4d1"/><path d="m465.324219 385.109375c-3.953125 11.527344-9.132813 22.597656-15.445313 33.023437-.046875.046876-.109375.078126-.171875.085938-10.414062 8.652344-22.371093 15.253906-35.242187 19.457031-12.449219 4.078125-25.472656 6.121094-38.570313 6.058594l-.597656-2.390625-8.363281-36.011719-77.566406-334.25c3.253906-.832031 6.5625-1.457031 9.898437-1.875 70.570313-9.730469 145.234375 62.890625 170.324219 168.019531 12.46875 48.71875 10.992187 99.964844-4.265625 147.882813zm0 0" fill="#cfd8dc"/><path d="m439.722656 385.109375c-3.953125 11.527344-9.132812 22.597656-15.445312 33.023437-.046875.046876-.105469.078126-.171875.085938-10.414063 8.652344-22.371094 15.253906-35.242188 19.457031-4.445312 1.484375-8.976562 2.710938-13.566406 3.667969l-8.363281-36.011719-77.566406-334.25c3.253906-.832031 6.5625-1.457031 9.898437-1.875 62.207031 8.277344 122.621094 75.605469 144.722656 168.019531 12.46875 48.71875 10.992188 99.964844-4.265625 147.882813zm0 0" fill="#f5f5f5"/><path d="m423.765625 393.695312c-.695313 7.035157-1.75 14.03125-3.15625 20.957032-.855469 4.019531-1.792969 7.949218-2.816406 11.527344-1.023438 3.667968-2.132813 7.6875-3.328125 11.527343-12.585938 4.113281-25.757813 6.148438-39 6.027344-15.019532.046875-30.03125-.710937-44.96875-2.273437-.257813 0-.511719-.082032-.769532-.082032-4.179687-5.503906-8.191406-11.351562-12.03125-17.117187-1.707031-2.535157-3.496093-5.152344-5.121093-7.859375-1.363281-2.183594-2.730469-4.453125-4.09375-6.726563-21.074219-37.816406-36.617188-78.457031-46.164063-120.6875-25.773437-107.9375-14.679687-203.824219 24.574219-217.273437.851563-.261719 1.621094-.523438 2.476563-.695313 33.109374-8.296875 74.835937 42.265625 103.59375 119.464844l7.421874 26.199219 7.511719 26.195312 7.421875 26.199219c9.0625 40.878906 11.910156 82.886719 8.449219 124.617187zm0 0" fill="#f5f5f5"/><path d="m442.964844 503.464844h-160.597656c-9.75-.003906-18.652344-5.554688-22.945313-14.308594-4.296875-8.753906-3.242187-19.1875 2.722656-26.90625 7.421875-9.640625 14.761719-19.371094 22.269531-28.925781 2.734376 2.003906 5.71875 3.636719 8.875 4.863281 3.925782 1.875 7.765626 3.667969 8.449219 3.925781 10.472657 3.59375 21.324219 5.972657 32.339844 7.082031 8.402344 1.242188 16.863281 2.039063 25.347656 2.390626 4.351563.167968 8.703125.253906 13.054688.082031 14.820312-.085938 29.527343-2.621094 43.519531-7.507813 5.222656-2.082031 9.957031-5.21875 13.910156-9.214844 2.304688-2.21875 4.523438-4.609374 6.910156-7.082031l10.582032 13.820313 15.785156 20.566406c5.964844 7.71875 7.019531 18.152344 2.726562 26.90625-4.296874 8.753906-13.195312 14.304688-22.949218 14.308594zm0 0" fill="#fdd834"/><path d="m422.058594 503.464844h-135.851563c-18.003906 0-28.074219-24.402344-17.152343-41.214844 5.292968-8.019531 10.410156-16.128906 15.703124-24.0625 3.925782 1.875 7.765626 3.667969 8.449219 3.925781 10.46875 3.59375 21.324219 5.972657 32.339844 7.082031 8.398437 1.242188 16.859375 2.039063 25.34375 2.390626 4.351563.167968 8.703125.253906 13.054687.082031 14.824219-.082031 29.527344-2.621094 43.519532-7.507813 5.222656-2.082031 9.957031-5.21875 13.910156-9.214844l4.4375 6.738282 13.398438 20.566406c10.921874 16.8125.851562 41.214844-17.152344 41.214844zm0 0" fill="#ffeb3a"/><path d="m187.734375 290.132812h-17.066406c-9.421875-.011718-17.058594-7.644531-17.066407-17.066406v-68.265625h-102.402343v68.265625c-.011719 9.421875-7.644531 17.054688-17.066407 17.066406h-17.066406c-9.421875-.011718-17.0546872-7.644531-17.066406-17.066406v-247.464844c0-14.140624 11.460938-25.601562 25.601562-25.601562 14.136719 0 25.597657 11.460938 25.597657 25.601562v128h102.402343v-128c0-14.140624 11.460938-25.601562 25.597657-25.601562 14.140625 0 25.601562 11.460938 25.601562 25.601562v247.464844c-.011719 9.421875-7.644531 17.054688-17.066406 17.066406zm-136.535156-102.398437h102.402343c9.417969.011719 17.054688 7.644531 17.066407 17.066406v68.265625h17.066406v-247.464844c0-4.714843-3.820313-8.535156-8.535156-8.535156-4.710938 0-8.53125 3.820313-8.53125 8.535156v128c-.011719 9.417969-7.648438 17.054688-17.066407 17.066407h-102.402343c-9.421875-.011719-17.054688-7.648438-17.066407-17.066407v-128c0-4.714843-3.820312-8.535156-8.53125-8.535156-4.714843 0-8.535156 3.820313-8.535156 8.535156v247.464844h17.066406v-68.265625c.011719-9.421875 7.644532-17.054687 17.066407-17.066406zm0 0"/><path d="m420.265625 451.839844c-3.828125.011718-7.195313-2.519532-8.246094-6.199219s.472657-7.613281 3.730469-9.621094c5.324219-4.121093 10.242188-8.746093 14.683594-13.808593.714844-.804688 1.390625-1.636719 2.074218-2.476563 35.15625-42.355469 46.175782-112.964844 28.792969-184.332031-10.542969-47.316406-34.867187-90.445313-69.902343-123.949219-31.882813-28.726563-67.398438-40.144531-100.007813-32.171875-.503906.105469-1.003906.238281-1.492187.402344-67.617188 18.398437-101.960938 115.394531-77.316407 216.449218 12.789063 52.308594 39.949219 98.972657 74.507813 128.011719l2.265625 1.867188c3.601562 2.941406 6.65625 5.195312 9.808593 7.371093 3.835938 2.691407 4.78125 7.976563 2.117188 11.832032-2.664062 3.855468-7.941406 4.84375-11.816406 2.207031-3.515625-2.429687-6.941406-4.953125-10.359375-7.746094l-2.957031-2.433593c-37.859376-31.8125-66.304688-80.476563-80.152344-137.0625-27.253906-111.828126 11.6875-215.8125 88.652344-236.734376 1.003906-.324218 2.019531-.597656 3.050781-.820312 37.933593-9.277344 78.925781 3.542969 115.125 36.160156 37.578125 35.800782 63.699219 81.9375 75.058593 132.578125 18.632813 76.511719 6.300782 152.84375-32.191406 199.214844-.800781.988281-1.65625 2.03125-2.515625 2.988281-5.355469 6.101563-11.3125 11.648438-17.777343 16.5625-1.476563 1.113282-3.28125 1.710938-5.132813 1.710938zm0 0"/><path d="m346.191406 456.789062c-1.941406 0-3.820312-.660156-5.332031-1.878906-11.664063-9.78125-21.839844-21.207031-30.210937-33.921875-3.097657-4.351562-6.324219-9.347656-9.507813-14.714843-21.496094-37.570313-37.367187-78.089844-47.117187-120.261719-27.339844-111.894531-14.375-207.515625 30.160156-222.425781 1.15625-.378907 2.328125-.699219 3.515625-.960938 36.875-9.027344 81.5 38.832031 113.238281 122.066406 1.085938 2.851563.570312 6.0625-1.355469 8.429688-1.921875 2.363281-4.964843 3.523437-7.972656 3.039062-3.011719-.484375-5.535156-2.535156-6.621094-5.386718-27.144531-71.207032-66.355469-118.089844-93.597656-111.492188-.503906.109375-1 .242188-1.492187.402344-30.832032 10.308594-45.757813 93.996094-19.289063 202.277344 9.425781 40.503906 24.648437 79.433593 45.199219 115.589843 2.949218 4.972657 5.925781 9.570313 8.839844 13.667969 7.46875 11.359375 16.523437 21.589844 26.894531 30.378906 2.824219 2.269532 3.910156 6.074219 2.707031 9.492188-1.203125 3.417968-4.433594 5.703125-8.058594 5.699218zm0 0"/><path d="m404.820312 454.570312c-3.199218-.003906-6.132812-1.796874-7.589843-4.648437-1.457031-2.847656-1.199219-6.273437.671875-8.871094.617187-.855469 1.160156-1.628906 1.785156-2.5625 4.398438-7.089843 7.738281-14.78125 9.914062-22.839843.972657-3.3125 1.867188-6.953126 2.664063-10.667969 7.625-35.90625 5.703125-86.46875-5.300781-138.6875-.929688-4.59375 2.019531-9.078125 6.605468-10.042969 4.585938-.96875 9.09375 1.945312 10.097657 6.523438 11.464843 54.46875 13.394531 107.601562 5.289062 145.78125-.910156 4.164062-1.902343 8.207031-2.976562 11.894531-2.65625 9.699219-6.726563 18.953125-12.074219 27.46875-.765625 1.152343-1.425781 2.082031-2.15625 3.105469-1.605469 2.230468-4.183594 3.546874-6.929688 3.546874zm0 0"/><path d="m442.964844 512h-160.597656c-13.003907-.003906-24.875-7.40625-30.605469-19.078125-5.730469-11.675781-4.328125-25.589844 3.621093-35.882813l22.378907-29.203124c1.84375-2.476563 4.882812-3.761719 7.945312-3.363282 3.0625.402344 5.667969 2.421875 6.816407 5.289063 1.148437 2.867187.660156 6.132812-1.28125 8.535156l-22.332032 29.148437c-3.984375 5.140626-4.695312 12.097657-1.835937 17.9375 2.859375 5.839844 8.792969 9.546876 15.292969 9.550782h160.597656c6.5-.003906 12.429687-3.707032 15.289062-9.539063 2.863282-5.835937 2.15625-12.792969-1.820312-17.933593l-26.371094-34.386719c-1.859375-2.414063-2.292969-5.640625-1.132812-8.460938 1.160156-2.820312 3.734374-4.804687 6.757812-5.210937s6.03125.832031 7.894531 3.246094l26.375 34.402343c7.941407 10.292969 9.34375 24.207031 3.613281 35.878907-5.734374 11.671874-17.601562 19.066406-30.605468 19.070312zm0 0"/><path d="m362.667969 457.128906c-5.777344 0-11.460938-.082031-16.882813-.347656-18.351562-.414062-36.566406-3.203125-54.203125-8.292969-5.300781-1.488281-10.195312-4.167969-14.300781-7.839843-2.210938-2.140626-3.097656-5.308594-2.320312-8.289063.777343-2.980469 3.101562-5.308594 6.078124-6.09375 2.976563-.789063 6.148438.089844 8.292969 2.300781 2.257813 1.761719 4.855469 3.035156 7.636719 3.730469 16.164062 4.558594 32.839844 7.054687 49.632812 7.433594 19.0625.902343 38.167969.183593 57.105469-2.148438 5.992188-.816406 10.601563-1.632812 14.484375-2.566406.242188-.058594.492188-.109375.742188-.148437 6.082031-.660157 11.910156-2.796876 16.980468-6.21875 3.300782-3.324219 8.664063-3.367188 12.015626-.097657 3.351562 3.269531 3.441406 8.632813.203124 12.011719-7.523437 6.007812-16.546874 9.84375-26.09375 11.09375l-.367187.070312c-4.332031 1.019532-9.339844 1.902344-15.699219 2.769532-14.363281 1.804687-28.828125 2.683594-43.304687 2.632812zm0 0"/><path d="m503.464844 290.132812h-26.28125c-4.710938 0-8.53125-3.820312-8.53125-8.53125 0-4.714843 3.820312-8.535156 8.53125-8.535156h26.28125c4.714844 0 8.535156 3.820313 8.535156 8.535156 0 4.710938-3.820312 8.53125-8.535156 8.53125zm0 0"/><path d="m200.789062 290.132812h-192.253906c-4.714844 0-8.535156-3.820312-8.535156-8.53125 0-4.714843 3.820312-8.535156 8.535156-8.535156h192.253906c4.714844 0 8.535157 3.820313 8.535157 8.535156 0 4.710938-3.820313 8.53125-8.535157 8.53125zm0 0"/><path d="m443.734375 273.066406h-42.667969c-4.710937 0-8.53125-3.820312-8.53125-8.53125 0-4.714844 3.820313-8.535156 8.53125-8.535156h42.667969c4.710937 0 8.53125 3.820312 8.53125 8.535156 0 4.710938-3.820313 8.53125-8.53125 8.53125zm0 0"/><path d="m435.199219 247.464844h-42.664063c-4.714844 0-8.535156-3.820313-8.535156-8.53125 0-4.714844 3.820312-8.535156 8.535156-8.535156h42.664063c4.714843 0 8.535156 3.820312 8.535156 8.535156 0 4.710937-3.820313 8.53125-8.535156 8.53125zm0 0"/><path d="m426.667969 221.867188h-42.667969c-4.710938 0-8.535156-3.820313-8.535156-8.535157 0-4.710937 3.824218-8.53125 8.535156-8.53125h42.667969c4.710937 0 8.53125 3.820313 8.53125 8.53125 0 4.714844-3.820313 8.535157-8.53125 8.535157zm0 0"/><path d="m418.132812 196.265625h-42.667968c-4.710938 0-8.53125-3.820313-8.53125-8.53125 0-4.714844 3.820312-8.535156 8.53125-8.535156h42.667968c4.714844 0 8.535157 3.820312 8.535157 8.535156 0 4.710937-3.820313 8.53125-8.535157 8.53125zm0 0"/><path d="m290.125 230.398438c-4.0625 0-7.5625-2.867188-8.363281-6.851563-5.507813-27.445313-9.773438-59.570313.277343-89.714844.898438-2.972656 3.34375-5.222656 6.378907-5.871093 3.039062-.652344 6.1875.398437 8.226562 2.742187 2.039063 2.34375 2.640625 5.613281 1.574219 8.53125-8.78125 26.34375-4.789062 55.707031.277344 80.953125.503906 2.507812-.144532 5.109375-1.765625 7.089844-1.625 1.976562-4.046875 3.125-6.605469 3.121094zm0 0"/><path d="m307.199219 110.933594c0 4.710937-3.820313 8.53125-8.53125 8.53125-4.714844 0-8.535157-3.820313-8.535157-8.53125 0-4.714844 3.820313-8.535156 8.535157-8.535156 4.710937 0 8.53125 3.820312 8.53125 8.535156zm0 0"/></svg>