<svg height="512pt" viewBox="0 -81 512.15046 512" width="512pt" xmlns="http://www.w3.org/2000/svg"><path d="m500.128906 183.457031c-7.023437 22.824219-20.222656 43.261719-38.144531 59.050781-.664063.492188-1.289063 1.035157-1.875 1.621094-17.382813 14.785156-37.804687 25.5625-59.820313 31.574219-6.828124 1.828125-13.789062 3.113281-20.820312 3.839844l2.816406-6.058594 15.273438-32.683594c28.851562-9.78125 52.738281-30.453125 66.5625-57.601562 7.96875-15.3125 6.890625-33.765625-2.816406-48.042969-8.058594-12.324219-22.925782-18.34375-37.292969-15.101562-1.6875.410156-3.34375.953124-4.949219 1.621093-14.480469 6.628907-27.304688 16.390625-37.546875 28.585938l-11.773437-13.484375-10.667969-12.199219c12.550781-14.210937 27.847656-25.734375 44.96875-33.878906 4.417969-1.867188 9.023437-3.238281 13.742187-4.097657 20.140625-3.773437 40.933594 1.359376 57 14.082032 6.984375 5.585937 13.007813 12.273437 17.835938 19.796875 11.277344 18.992187 14.003906 41.863281 7.507812 62.976562zm0 0" fill="#f57c00"/><path d="m474.53125 183.457031c-7.023438 22.824219-20.226562 43.261719-38.144531 59.050781-.664063.492188-1.292969 1.035157-1.878907 1.621094-15.363281 13.042969-33.09375 23.007813-52.222656 29.355469l15.273438-32.683594c28.851562-9.78125 52.738281-30.453125 66.5625-57.601562 7.96875-15.3125 6.890625-33.765625-2.816406-48.042969-8.058594-12.324219-22.925782-18.34375-37.292969-15.101562-1.6875.410156-3.34375.953124-4.949219 1.621093-6.398438-2.816406-27.902344 21.503907-35.070312 23.464844-10.667969 2.902344-5.71875-15.871094-14.25-8.363281l-10.667969-12.199219c12.550781-14.210937 27.847656-25.734375 44.96875-33.878906 4.417969-1.867188 9.023437-3.238281 13.742187-4.097657 11.480469 1.984376 22.28125 6.828126 31.402344 14.082032 6.980469 5.585937 13.003906 12.273437 17.832031 19.796875 11.277344 18.992187 14.003907 41.863281 7.511719 62.976562zm0 0" fill="#ff9801"/><path d="m108.960938 251.039062c-11.945313-2.644531-27.476563-14.933593-40.703126-54.695312-12.121093-36.070312-31.71875-69.171875-57.515624-97.144531-1.9375-2.132813-2.664063-5.101563-1.929688-7.886719s2.832031-5.007812 5.570312-5.902344h11.980469c5.714844-.058594 11.34375 1.359375 16.347657 4.117188 20.089843 11.367187 36.738281 32.671875 51.148437 47.082031 7.246094 7.574219 16.421875 13.03125 26.539063 15.785156zm0 0" fill="#ff9801"/><path d="m401.058594 213.410156c.007812 9.242188-1.167969 18.445313-3.5 27.390625-3.535156 13.9375-9.671875 27.082031-18.089844 38.742188-11.242188 15.785156-25.695312 29.015625-42.410156 38.824219-2.609375 1.53125-4.230469 4.316406-4.265625 7.339843v7.167969c-.015625 4.707031-3.828125 8.519531-8.535157 8.535156h-145.066406c-4.707031-.015625-8.519531-3.828125-8.535156-8.535156v-7.167969c-.035156-3.023437-1.65625-5.808593-4.265625-7.339843-26.375-15.097657-46.675781-38.902344-57.429687-67.328126-4.335938-12.070312-6.558594-24.800781-6.570313-37.628906.089844-21.636718 6.332031-42.800781 18.007813-61.015625 10.75-16.652343 24.984374-30.773437 41.726562-41.386719l61.355469-8.53125h52.820312l65.023438 8.53125c6.269531 4.039063 12.207031 8.578126 17.75 13.570313 8.597656 7.519531 16.144531 16.15625 22.441406 25.683594 12.667969 18.628906 19.472656 40.621093 19.542969 63.148437zm0 0" fill="#fec108"/><path d="m375.457031 213.410156c.011719 9.242188-1.164062 18.445313-3.496093 27.390625-3.539063 13.9375-9.675782 27.082031-18.09375 38.742188-11.242188 15.785156-25.695313 29.015625-42.410157 38.824219-2.609375 1.53125-4.226562 4.316406-4.265625 7.339843v7.167969c-.011718 4.707031-3.828125 8.519531-8.535156 8.535156h-119.464844c-4.707031-.015625-8.519531-3.828125-8.535156-8.535156v-7.167969c-.035156-3.023437-1.65625-5.808593-4.265625-7.339843-26.375-15.097657-46.675781-38.902344-57.429687-67.328126-4.335938-12.070312-6.558594-24.800781-6.570313-37.628906.089844-21.636718 6.332031-42.800781 18.007813-61.015625 10.75-16.652343 24.984374-30.773437 41.726562-41.386719l61.355469-8.53125h27.21875l65.027343 8.53125c6.269532 4.039063 12.203126 8.578126 17.746094 13.570313 8.597656 7.519531 16.144532 16.15625 22.445313 25.683594 12.667969 18.628906 19.472656 40.621093 19.539062 63.148437zm0 0" fill="#ffdc00"/><path d="m136.535156 221.941406c-2.511718.003906-4.894531-1.101562-6.519531-3.015625-1.621094-1.914062-2.320313-4.445312-1.90625-6.921875 9.140625-54.855468 45.714844-73.71875 47.265625-74.496094 4.210938-2.117187 9.339844-.421874 11.457031 3.789063 2.121094 4.207031.421875 9.339844-3.785156 11.457031-1.328125.683594-30.464844 16.234375-38.105469 62.058594-.6875 4.109375-4.242187 7.125-8.40625 7.128906zm0 0" fill="#f5efca"/><path d="m307.191406 162.207031h25.601563c4.710937 0 8.53125 3.820313 8.53125 8.535157v25.601562c0 4.710938-3.820313 8.53125-8.53125 8.53125h-25.601563c-4.710937 0-8.535156-3.820312-8.535156-8.53125v-25.601562c0-4.714844 3.824219-8.535157 8.535156-8.535157zm0 0" fill="#02a9f4"/><path d="m359.671875 92.660156-18.347656 18.347656h-179.199219l-18.347656-18.347656c-1.207032-1.226562-1.554688-3.0625-.882813-4.648437.671875-1.585938 2.234375-2.613281 3.957031-2.601563h12.03125c2.078126-.054687 4.074219-.839844 5.632813-2.21875 1.316406-1.203125 2.710937-2.316406 4.179687-3.328125h.085938c13.136719-9.03125 27.925781-15.382812 43.519531-18.6875 3.132813-.769531 6.335938-1.226562 9.558594-1.367187 5.800781 0 11.605469-11.945313 14.761719-19.457032l.339844-.425781 14.335937-16.640625 15.53125 17.066406c3.15625 7.511719 8.960937 19.457032 14.761719 19.457032 20.882812 2.449218 40.703125 10.53125 57.34375 23.382812 1.558594 1.378906 3.554687 2.164063 5.632812 2.21875h12.03125c1.722656-.011718 3.285156 1.015625 3.957032 2.601563.671874 1.585937.324218 3.421875-.882813 4.648437zm0 0" fill="#fdd834"/><path d="m340.128906 103.585938-7.421875 7.421874h-170.582031l-16.980469-16.980468c3.761719-3.320313 7.882813-6.214844 12.285157-8.617188 3.632812-2.089844 7.398437-3.941406 11.265624-5.546875h.085938c10.617188-4.816406 21.941406-7.902343 33.535156-9.132812 3.5 0 7.082032-4.4375 9.984375-9.554688 3.132813-.769531 6.335938-1.226562 9.558594-1.367187 5.800781 0 11.605469-11.945313 14.761719-19.457032l.339844-.425781 10.328124 11.347657c3.15625 7.511718 8.957032 19.457031 14.761719 19.457031 20.878907 2.449219 40.703125 10.53125 57.34375 23.382812 1.554688 1.378907 3.550781 2.164063 5.632813 2.21875h12.03125c1.722656-.011719 3.28125 1.015625 3.953125 2.601563.671875 1.585937.324219 3.421875-.882813 4.652344zm0 0" fill="#ffeb3a"/><path d="m281.589844 25.675781c0 9.386719-13.394532 17.066407-29.863282 17.066407-4.328124.03125-8.636718-.542969-12.800781-1.707032-10.070312-2.730468-17.066406-8.617187-17.066406-15.359375 0-6.742187 6.996094-12.628906 17.066406-15.359375 4.164063-1.164062 8.472657-1.738281 12.800781-1.707031 16.46875 0 29.863282 7.679687 29.863282 17.066406zm0 0" fill="#fec108"/><path d="m255.992188 25.675781c0-8.484375-7.640626-15.359375-17.066407-15.359375s-17.066406 6.875-17.066406 15.359375 7.640625 15.359375 17.066406 15.359375 17.066407-6.875 17.066407-15.359375zm0 0" fill="#ffdc00"/><path d="m324.257812 349.941406h-145.066406c-9.421875-.007812-17.058594-7.644531-17.066406-17.066406v-7.152344c-28.101562-16.121094-49.734375-41.496094-61.195312-71.796875-4.667969-13-7.058594-26.707031-7.070313-40.515625.125-23.238281 6.820313-45.964844 19.3125-65.558594 11.441406-17.695312 26.566406-32.710937 44.34375-44.023437 1.375-.882813 2.976563-1.351563 4.609375-1.351563h179.199219c1.648437-.003906 3.261719.476563 4.640625 1.375 6.65625 4.285157 12.957031 9.101563 18.839844 14.398438 9.136718 8.007812 17.160156 17.203125 23.855468 27.339844 13.558594 20.027344 20.84375 43.636718 20.929688 67.820312.011718 9.972656-1.257813 19.902344-3.777344 29.554688-3.789062 14.949218-10.375 29.050781-19.410156 41.554687-11.90625 16.777344-27.246094 30.832031-45.003906 41.226563l-.074219 7.128906c-.007813 9.421875-7.644531 17.058594-17.066407 17.066406zm-159.585937-230.398437c-14.808594 9.789062-27.433594 22.535156-37.082031 37.4375-10.832032 16.828125-16.617188 36.410156-16.664063 56.429687.011719 11.847656 2.066407 23.609375 6.074219 34.761719 10.121094 26.550781 29.125 48.777344 53.78125 62.902344 5.175781 3.074219 8.367188 8.628906 8.410156 14.648437v7.152344h145.066406v-7.144531c.042969-6.019531 3.230469-11.578125 8.410157-14.652344 15.675781-9.226563 29.242187-21.636719 39.820312-36.4375 7.816407-10.804687 13.511719-22.992187 16.792969-35.914063 2.160156-8.265624 3.25-16.773437 3.242188-25.316406-.09375-20.832031-6.394532-41.164062-18.097657-58.398437-5.890625-8.917969-12.949219-17.003907-20.992187-24.039063-4.613282-4.15625-9.511719-7.976562-14.667969-11.429687zm0 0"/><path d="m397.558594 249.332031c-4.1875.011719-7.761719-3.015625-8.441406-7.148437-.675782-4.132813 1.742187-8.144532 5.710937-9.472656 26.695313-8.972657 48.804687-28.0625 61.574219-53.164063 6.613281-12.523437 5.824218-27.664063-2.046875-39.4375-6.066407-9.328125-17.207031-14.015625-28.117188-11.824219-15.097656 5.648438-28.394531 15.253906-38.503906 27.8125-2.085937 2.222656-5.199219 3.160156-8.167969 2.464844s-5.339844-2.921875-6.222656-5.839844c-.878906-2.917968-.136719-6.085937 1.949219-8.308594 12.1875-14.960937 28.28125-26.246093 46.5-32.601562 17.785156-4.1875 36.296875 3.125 46.417969 18.339844 11.550781 16.796875 12.9375 38.582031 3.617187 56.710937-14.808594 29.242188-40.492187 51.511719-71.539063 62.023438-.878906.296875-1.800781.449219-2.730468.445312zm0 0"/><path d="m379.460938 288.074219c-4.542969-.011719-8.28125-3.582031-8.5-8.121094s3.15625-8.453125 7.679687-8.902344c6.578125-.6875 13.09375-1.894531 19.484375-3.605469 20.765625-5.6875 40.027344-15.863281 56.4375-29.800781.71875-.710937 1.488281-1.367187 2.304688-1.957031 16.425781-14.675781 28.546874-33.542969 35.0625-54.585938 5.863281-18.753906 3.5-39.117187-6.503907-56.03125-4.316406-6.726562-9.699219-12.707031-15.9375-17.699218-17.660156-13.847656-41.378906-17.199219-62.183593-8.78125-16.035157 7.738281-30.363282 18.605468-42.140626 31.960937-2.117187 2.25-5.285156 3.179688-8.28125 2.429688-3-.75-5.359374-3.0625-6.167968-6.042969-.808594-2.984375.058594-6.171875 2.269531-8.332031 13.34375-15.058594 29.617187-27.238281 47.828125-35.796875 26.503906-10.949219 56.863281-6.65625 79.296875 11.210937 7.703125 6.152344 14.347656 13.527344 19.671875 21.828125 12.65625 21.035156 15.765625 46.460938 8.558594 69.929688-7.421875 24.40625-21.507813 46.257812-40.667969 63.101562-.535156.398438-1.046875.828125-1.53125 1.289063-18.46875 15.808593-40.199219 27.34375-63.644531 33.777343-7.277344 1.953126-14.699219 3.320313-22.195313 4.097657-.28125.023437-.558593.035156-.839843.03125zm0 0"/><path d="m251.726562 51.273438c-21.894531 0-38.402343-11.007813-38.402343-25.597657 0-14.59375 16.507812-25.6015622 38.402343-25.6015622 21.890626 0 38.398438 11.0078122 38.398438 25.6015622 0 14.589844-16.507812 25.597657-38.398438 25.597657zm0-34.132813c-13.859374 0-21.335937 6.058594-21.335937 8.535156 0 2.472657 7.476563 8.53125 21.335937 8.53125 13.855469 0 21.332032-6.058593 21.332032-8.53125 0-2.476562-7.476563-8.535156-21.332032-8.535156zm0 0"/><path d="m162.125 119.542969c-2.265625 0-4.433594-.898438-6.035156-2.5l-18.34375-18.347657c-3.648438-3.671874-4.722656-9.175781-2.730469-13.949218 1.992187-4.773438 6.660156-7.878906 11.835937-7.871094h12.03125c17.839844-14.042969 39.214844-22.886719 61.761719-25.5625 3.582031-4.199219 6.332031-9.039062 8.105469-14.265625 1.828125-4.347656 6.832031-6.386719 11.175781-4.558594s6.386719 6.828125 4.558594 11.175781c-7.175781 17.066407-14.15625 24.679688-22.625 24.679688-18.785156 2.472656-36.601563 9.792969-51.695313 21.238281-3.128906 2.742188-7.125 4.289063-11.28125 4.359375h-1.757812l11.03125 11.035156c2.441406 2.4375 3.171875 6.109376 1.851562 9.296876-1.320312 3.1875-4.433593 5.265624-7.882812 5.269531zm0 0"/><path d="m341.324219 119.542969c-3.449219 0-6.5625-2.082031-7.882813-5.269531-1.320312-3.1875-.589844-6.859376 1.851563-9.296876l11.03125-11.035156h-1.757813c-4.085937-.058594-8.023437-1.550781-11.121094-4.214844-15.128906-11.519531-33.003906-18.890624-51.855468-21.382812-8.46875 0-15.449219-7.613281-22.628906-24.679688-1.179688-2.8125-.773438-6.039062 1.070312-8.46875 1.84375-2.429687 4.839844-3.691406 7.867188-3.308593 3.023437.382812 5.613281 2.347656 6.796874 5.160156 1.773438 5.226563 4.527344 10.066406 8.105469 14.265625 22.539063 2.679688 43.910157 11.496094 61.78125 25.488281l12.015625.074219c5.175782-.007812 9.84375 3.097656 11.835938 7.871094 1.992187 4.773437.914062 10.277344-2.730469 13.949218l-18.347656 18.347657c-1.597657 1.601562-3.769531 2.5-6.03125 2.5zm0 0"/><path d="m108.96875 259.574219c-.621094 0-1.242188-.066407-1.851562-.199219-19.261719-4.269531-35.058594-24.574219-46.953126-60.34375-11.722656-34.953125-30.71875-67.023438-55.734374-94.097656-3.878907-4.265625-5.335938-10.203125-3.871094-15.777344 1.464844-5.578125 5.648437-10.035156 11.125-11.84375.871094-.289062 1.78125-.4375 2.699218-.4375h11.976563c7.1875-.054688 14.265625 1.746094 20.550781 5.230469 15.808594 10.144531 29.996094 22.617187 42.082032 36.996093 3.78125 4.070313 7.410156 7.976563 10.902343 11.472657 6.148438 6.472656 13.941407 11.152343 22.546875 13.539062 3.019532.671875 5.4375 2.925781 6.320313 5.894531.882812 2.964844.089843 6.175782-2.066407 8.390626-2.160156 2.214843-5.351562 3.089843-8.339843 2.28125-11.636719-3.097657-22.199219-9.339844-30.53125-18.039063-3.632813-3.632813-7.40625-7.695313-11.339844-11.929687-10.941406-13.042969-23.734375-24.414063-37.972656-33.753907-3.726563-2.03125-7.910157-3.070312-12.152344-3.015625h-8.875c26.425781 28.714844 46.488281 62.691406 58.871094 99.699219 9.589843 28.851563 21.828125 46.273437 34.453125 49.066406 4.25.941407 7.109375 4.929688 6.640625 9.257813-.472657 4.328125-4.125 7.605468-8.480469 7.609375zm0 0"/><path d="m136.535156 221.941406c-2.511718.003906-4.894531-1.101562-6.519531-3.015625-1.621094-1.914062-2.320313-4.445312-1.90625-6.921875 9.140625-54.855468 45.714844-73.71875 47.265625-74.496094 4.210938-2.117187 9.339844-.421874 11.457031 3.789063 2.121094 4.207031.421875 9.339844-3.785156 11.457031-1.328125.683594-30.464844 16.234375-38.105469 62.058594-.6875 4.109375-4.242187 7.125-8.40625 7.128906zm0 0"/><path d="m315.726562 162.207031c-4.714843 0-8.535156-3.820312-8.535156-8.53125 0-27.664062-19.566406-34.503906-19.765625-34.570312-4.472656-1.492188-6.886719-6.324219-5.398437-10.796875 1.492187-4.472656 6.328125-6.886719 10.796875-5.394532 1.285156.429688 31.433593 10.9375 31.433593 50.761719 0 4.710938-3.820312 8.53125-8.53125 8.53125zm0 0"/><path d="m332.792969 213.410156h-25.601563c-9.421875-.011718-17.058594-7.648437-17.066406-17.066406v-25.601562c.007812-9.421876 7.644531-17.058594 17.066406-17.066407h25.601563c9.421875.007813 17.054687 7.644531 17.066406 17.066407v25.601562c-.011719 9.417969-7.644531 17.054688-17.066406 17.066406zm-25.601563-42.667968v25.601562h25.613282l-.011719-25.601562zm0 0"/></svg>