/* XPM */
static char * ci_xpm[] = {
"17 17 3 1",
" 	c None",
".	c #444851",
"+	c #838383",
".................",
".................",
".................",
".................",
"....++.....++....",
"....+++...+++....",
".....+++.+++.....",
"......+++++......",
".......+++.......",
"......+++++......",
".....+++.+++.....",
"....+++...+++....",
"....++.....++....",
".................",
".................",
".................",
"................."};
