/* XPM */
static char *unsel_4[] = {
/* columns rows colors chars-per-pixel */
"17 17 2 1 ",
"  c #444851",
". c #838383",
/* pixels */
"                 ",
"                 ",
"                 ",
"                 ",
"                 ",
"                 ",
"                 ",
"                 ",
"                 ",
"                 ",
"                 ",
"    .........    ",
"    .........    ",
"                 ",
"                 ",
"                 ",
"                 "
};
