/* XPM */
static char *unsel_9[] = {
/* columns rows colors chars-per-pixel */
"9 9 2 1 ",
"  c #444851",
". c #DDDDDD",
/* pixels */
".........",
".       .",
". .. .. .",
". ..... .",
".  ...  .",
". ..... .",
". .. .. .",
".       .",
"........."
};
