/* XPM */
static char * bullet_active_xpm[] = {
"7 7 3 1",
" 	c None",
".	c #262626",
"+	c #F0F0F0",
".......",
"..+....",
"..++...",
"..+++..",
"..++...",
"..+....",
"......."};
