/* XPM */
static char * i_xpm[] = {
"17 17 3 1",
" 	c None",
".	c #444444",
"+	c #DDDDDD",
".................",
".................",
".................",
".................",
".................",
".................",
".................",
".................",
".................",
".................",
".................",
"....+++++++++....",
"....+++++++++....",
".................",
".................",
".................",
"................."};
