#define WaterDrops_width 158
#define WaterDrops_height 163
static char WaterDrops_bits[] = {
  0x00, 0x10, 0x10, 0x00, 0x01, 0x4A, 0x10, 0x00, 0xC0, 0x2F, 0x00, 0x00, 
  0x00, 0x08, 0x8A, 0x7F, 0x00, 0xFC, 0x07, 0x00, 0x00, 0x10, 0x80, 0x02, 
  0x07, 0x00, 0x00, 0x00, 0xE0, 0xF5, 0x81, 0x00, 0x00, 0x00, 0xF8, 0x7F, 
  0xC0, 0xEE, 0xA3, 0x01, 0x00, 0x00, 0x20, 0x00, 0x06, 0x00, 0x40, 0x00, 
  0x90, 0x17, 0x44, 0x40, 0x00, 0x02, 0x02, 0xAB, 0xE0, 0xFF, 0x2B, 0x04, 
  0x00, 0x00, 0x00, 0xA1, 0x0E, 0x00, 0x50, 0x00, 0x40, 0x23, 0x11, 0x00, 
  0x40, 0x00, 0x08, 0x09, 0x00, 0x5F, 0x80, 0x19, 0x00, 0x00, 0x00, 0xA3, 
  0x0E, 0x00, 0x00, 0x00, 0x04, 0x80, 0x01, 0x00, 0x23, 0x04, 0x00, 0x00, 
  0x58, 0x04, 0x8A, 0x04, 0x00, 0x00, 0x00, 0xC7, 0x07, 0x00, 0x40, 0x00, 
  0x60, 0x00, 0x08, 0x40, 0x80, 0x00, 0x80, 0x1C, 0x00, 0x02, 0x90, 0x00, 
  0x00, 0x60, 0x00, 0xBE, 0x06, 0x00, 0x10, 0x02, 0x0A, 0x00, 0x02, 0x00, 
  0x12, 0x00, 0x08, 0x00, 0x82, 0x00, 0x14, 0x28, 0x00, 0x20, 0x00, 0x04, 
  0x00, 0x00, 0x00, 0x00, 0x80, 0x00, 0x00, 0x00, 0x00, 0x00, 0x52, 0x29, 
  0x20, 0x42, 0x00, 0x00, 0x00, 0xE0, 0x50, 0x00, 0x80, 0x00, 0x00, 0x00, 
  0x04, 0x00, 0x01, 0x00, 0x00, 0x00, 0x00, 0x00, 0x80, 0x20, 0x00, 0x00, 
  0x00, 0xA0, 0x1B, 0x00, 0x10, 0x00, 0x00, 0x18, 0xD0, 0x00, 0x00, 0x50, 
  0x00, 0x00, 0x00, 0x07, 0x00, 0x00, 0x00, 0x00, 0x00, 0x40, 0xB1, 0x10, 
  0x02, 0x00, 0x00, 0x30, 0x00, 0x80, 0x01, 0x00, 0x01, 0x04, 0x00, 0x07, 
  0xC0, 0x01, 0x02, 0x02, 0x00, 0x80, 0x11, 0x40, 0x00, 0x00, 0x00, 0x08, 
  0x90, 0xC0, 0x00, 0x80, 0x01, 0x00, 0x00, 0x0B, 0x00, 0x00, 0x00, 0x10, 
  0x00, 0x80, 0x03, 0x00, 0x09, 0x80, 0x00, 0x58, 0x00, 0x02, 0x21, 0x10, 
  0x07, 0x03, 0x00, 0x0F, 0x00, 0x05, 0x40, 0x10, 0x00, 0xC0, 0x01, 0x00, 
  0x08, 0x00, 0x00, 0xF8, 0x20, 0xC8, 0x01, 0x00, 0x03, 0x00, 0x00, 0x0F, 
  0x40, 0x50, 0x80, 0x08, 0x00, 0xC0, 0x03, 0x00, 0x0C, 0x40, 0x80, 0x78, 
  0x00, 0x52, 0x09, 0xF0, 0x03, 0x02, 0x80, 0xBF, 0x40, 0x00, 0x00, 0x1E, 
  0x00, 0x80, 0x41, 0xB0, 0x00, 0x00, 0x80, 0xF0, 0x00, 0x00, 0x00, 0x40, 
  0x00, 0x02, 0xE0, 0x0F, 0x00, 0x00, 0x00, 0x00, 0x58, 0xE0, 0x11, 0x00, 
  0x00, 0x10, 0x00, 0x0E, 0x00, 0x00, 0x01, 0x00, 0x20, 0x00, 0xB2, 0x2B, 
  0x82, 0x40, 0x14, 0x06, 0x00, 0x3C, 0x00, 0x02, 0x00, 0x80, 0x00, 0x41, 
  0x80, 0x00, 0x40, 0x00, 0x02, 0x00, 0xC5, 0x07, 0x00, 0x0A, 0x40, 0x10, 
  0x00, 0x1A, 0x12, 0x00, 0x00, 0xA0, 0x00, 0x04, 0x80, 0x00, 0x60, 0x00, 
  0x10, 0x00, 0x08, 0x03, 0x00, 0x01, 0x86, 0x04, 0x24, 0x1F, 0x48, 0x00, 
  0x00, 0x10, 0x20, 0x00, 0x00, 0x08, 0xE0, 0x00, 0x08, 0x00, 0x02, 0x10, 
  0x04, 0x20, 0x00, 0x20, 0x04, 0x00, 0x90, 0x00, 0x00, 0x80, 0x00, 0x38, 
  0x00, 0x00, 0xF0, 0x30, 0x00, 0x10, 0x01, 0x60, 0x02, 0xEA, 0xC9, 0x28, 
  0x11, 0x00, 0x04, 0x08, 0x00, 0x80, 0x00, 0x30, 0x00, 0x40, 0x00, 0xC0, 
  0x10, 0x80, 0x00, 0xA0, 0x00, 0x84, 0x01, 0x01, 0x04, 0x02, 0xD0, 0x01, 
  0x00, 0x10, 0x00, 0x10, 0x00, 0x00, 0x00, 0x90, 0x00, 0x29, 0x00, 0x00, 
  0x03, 0xB8, 0x0E, 0x24, 0x03, 0x00, 0x01, 0x00, 0x00, 0x00, 0x00, 0x04, 
  0x00, 0x00, 0x00, 0x02, 0x11, 0x00, 0x80, 0x00, 0x00, 0x04, 0x2C, 0x22, 
  0x04, 0x00, 0x28, 0x08, 0x00, 0x19, 0x00, 0x00, 0x00, 0x80, 0x00, 0x00, 
  0x03, 0x90, 0x00, 0x00, 0x1F, 0x14, 0xE2, 0x05, 0x01, 0x00, 0x02, 0x00, 
  0x00, 0xE0, 0x00, 0x00, 0x00, 0x00, 0x00, 0x00, 0x03, 0x00, 0x00, 0x00, 
  0x0F, 0x05, 0xF0, 0x03, 0x08, 0x00, 0x01, 0x00, 0x00, 0xC0, 0x00, 0x1A, 
  0x04, 0x00, 0x00, 0xF0, 0x07, 0x10, 0x40, 0x10, 0x0F, 0x04, 0xE0, 0x1F, 
  0x00, 0x00, 0x00, 0x00, 0x00, 0xC2, 0x00, 0x9E, 0x00, 0x08, 0x00, 0xF0, 
  0x0F, 0xC0, 0x24, 0xF0, 0x07, 0x20, 0xE0, 0x0F, 0x0A, 0x00, 0x00, 0x00, 
  0x00, 0x48, 0x80, 0x0C, 0x00, 0x00, 0x01, 0x01, 0x01, 0xC0, 0x02, 0x80, 
  0x01, 0x00, 0x00, 0x3F, 0x00, 0x40, 0x00, 0x00, 0x00, 0xC1, 0xC1, 0x0C, 
  0x00, 0x10, 0x00, 0x01, 0x04, 0xC0, 0x03, 0x00, 0xA4, 0x08, 0xC0, 0x3D, 
  0x14, 0x00, 0x00, 0x00, 0x00, 0xC0, 0x03, 0x00, 0x40, 0x50, 0x00, 0x00, 
  0x08, 0xC0, 0x00, 0x80, 0x00, 0x0A, 0xE0, 0x3F, 0x00, 0x80, 0x00, 0x00, 
  0x00, 0x40, 0x01, 0x00, 0x00, 0x60, 0x00, 0x00, 0x16, 0x00, 0x00, 0x00, 
  0x40, 0x00, 0x60, 0x2D, 0x00, 0x40, 0x00, 0x00, 0x00, 0x40, 0x23, 0x00, 
  0x40, 0x1F, 0x20, 0x00, 0x74, 0x00, 0xC0, 0x09, 0x30, 0x00, 0xA0, 0x3F, 
  0x00, 0x00, 0x00, 0x00, 0x00, 0xCC, 0x07, 0x30, 0x00, 0x07, 0x00, 0x00, 
  0xC0, 0x00, 0x00, 0x0E, 0xC5, 0x0B, 0x40, 0x3F, 0x00, 0x00, 0x00, 0x00, 
  0x00, 0x9E, 0x05, 0x30, 0x00, 0x00, 0x60, 0x00, 0xC0, 0x00, 0x00, 0x0C, 
  0x40, 0x01, 0xE0, 0x3F, 0x01, 0x10, 0x00, 0x00, 0x00, 0xFE, 0x03, 0x60, 
  0x48, 0x04, 0x04, 0x80, 0xC0, 0x18, 0x00, 0x1D, 0x80, 0x09, 0xB0, 0x3F, 
  0x01, 0x08, 0x00, 0x02, 0x04, 0xC0, 0x00, 0x30, 0x40, 0x00, 0x15, 0x00, 
  0x00, 0x03, 0x00, 0xE8, 0x20, 0x4F, 0xFF, 0x3F, 0x00, 0x18, 0x00, 0x03, 
  0x00, 0x00, 0x00, 0x30, 0x00, 0x00, 0x00, 0x00, 0x00, 0x05, 0x00, 0x78, 
  0x00, 0xDC, 0xFF, 0x3F, 0xC3, 0x18, 0x00, 0x00, 0x00, 0x00, 0x00, 0x50, 
  0xC0, 0x01, 0x10, 0x00, 0x20, 0x03, 0x00, 0x78, 0x00, 0xD8, 0xFF, 0x3F, 
  0x08, 0x16, 0x00, 0x00, 0x00, 0x00, 0x00, 0x00, 0x80, 0x01, 0x40, 0x80, 
  0xE0, 0x03, 0x00, 0x7C, 0x00, 0x89, 0xFE, 0x3F, 0x00, 0x10, 0x00, 0x00, 
  0x50, 0x00, 0x00, 0x00, 0xE0, 0x00, 0x10, 0x00, 0xFD, 0x07, 0xC2, 0xFE, 
  0x41, 0x05, 0xFC, 0x07, 0x2C, 0x08, 0x00, 0x00, 0x70, 0x00, 0x00, 0x00, 
  0x40, 0x00, 0x00, 0x07, 0xF8, 0x03, 0xE0, 0xFC, 0x08, 0x50, 0x02, 0x24, 
  0x00, 0x10, 0x00, 0x00, 0xB0, 0x00, 0x00, 0x00, 0x00, 0x00, 0x00, 0x00, 
  0x0A, 0x02, 0xA1, 0xFF, 0x00, 0x86, 0x0A, 0x00, 0x01, 0x05, 0x00, 0x00, 
  0xC0, 0x00, 0x00, 0x00, 0x00, 0x00, 0x78, 0x00, 0x80, 0x00, 0x07, 0x9C, 
  0x04, 0x20, 0x40, 0x14, 0x42, 0x00, 0x09, 0x00, 0x90, 0x00, 0x00, 0x00, 
  0x00, 0x00, 0x80, 0x00, 0x00, 0x00, 0x1C, 0x10, 0x09, 0x16, 0x92, 0x24, 
  0x18, 0x00, 0x08, 0x00, 0xF0, 0x00, 0xC0, 0x00, 0x00, 0x00, 0x90, 0x00, 
  0x00, 0x00, 0x3C, 0x70, 0x04, 0xBD, 0x84, 0x01, 0x80, 0x00, 0x00, 0x00, 
  0x2C, 0x00, 0x80, 0x01, 0x00, 0x00, 0x00, 0x00, 0x40, 0x00, 0x39, 0xC0, 
  0x02, 0xE4, 0x43, 0x00, 0x10, 0x00, 0x00, 0x00, 0x00, 0x00, 0xC0, 0x07, 
  0x00, 0x00, 0x80, 0x00, 0x01, 0x00, 0x0C, 0xC0, 0x00, 0x06, 0x07, 0x1A, 
  0x00, 0x00, 0x01, 0x00, 0x00, 0x00, 0x00, 0x00, 0x00, 0x05, 0x00, 0x00, 
  0x30, 0x01, 0x60, 0xE8, 0x09, 0x80, 0x57, 0x20, 0x02, 0x00, 0x00, 0x00, 
  0x00, 0x00, 0x00, 0x10, 0x00, 0xA2, 0x00, 0x00, 0x00, 0x00, 0xF0, 0xF8, 
  0x03, 0x00, 0x07, 0x00, 0x04, 0x00, 0x00, 0x08, 0x04, 0x00, 0x00, 0x70, 
  0x00, 0xA8, 0x80, 0x00, 0xC0, 0x12, 0xF0, 0xA1, 0x00, 0x00, 0x5F, 0x00, 
  0x10, 0x00, 0x00, 0x00, 0x20, 0x00, 0x00, 0xE0, 0x00, 0x10, 0x00, 0x00, 
  0x80, 0x00, 0x60, 0x05, 0x8A, 0x00, 0x2F, 0x00, 0x98, 0x00, 0x00, 0x04, 
  0x20, 0x00, 0x40, 0xF0, 0x08, 0xF8, 0x00, 0x0A, 0xA0, 0x08, 0xAC, 0x40, 
  0xA0, 0x00, 0xFF, 0x04, 0x98, 0x00, 0x00, 0x06, 0x00, 0x00, 0x08, 0xE0, 
  0x18, 0x3C, 0x00, 0x26, 0xF0, 0xC0, 0xFC, 0x04, 0xA0, 0xC0, 0xFF, 0x00, 
  0x3C, 0x00, 0x00, 0x18, 0x00, 0x00, 0x00, 0xA0, 0x22, 0xA0, 0x00, 0x00, 
  0x20, 0x88, 0xC0, 0x48, 0x48, 0x80, 0x7F, 0x04, 0x9C, 0x00, 0x00, 0x61, 
  0x00, 0x00, 0x00, 0xE0, 0x80, 0x1C, 0x00, 0x00, 0xA0, 0x12, 0x00, 0x30, 
  0x80, 0xE1, 0x7F, 0x05, 0x00, 0x00, 0x00, 0x00, 0x00, 0x00, 0x04, 0xD0, 
  0x8F, 0x1F, 0x00, 0x76, 0x00, 0x02, 0x1A, 0x00, 0x10, 0xFF, 0xFB, 0x01, 
  0x00, 0x00, 0x00, 0x80, 0x00, 0x00, 0x04, 0x70, 0x0F, 0x00, 0x20, 0x0F, 
  0x00, 0x6A, 0x40, 0x00, 0x97, 0xF6, 0x3F, 0x20, 0x00, 0x00, 0x00, 0xC0, 
  0x00, 0x00, 0x02, 0xD0, 0x0F, 0x08, 0xE4, 0x1E, 0x02, 0x66, 0x86, 0x00, 
  0x28, 0x35, 0x29, 0x04, 0x00, 0x00, 0x00, 0xE0, 0x00, 0x00, 0x04, 0xD0, 
  0x03, 0x00, 0xD0, 0x04, 0x40, 0xB2, 0x20, 0x82, 0x30, 0x92, 0x00, 0x10, 
  0x00, 0x22, 0x00, 0xC0, 0x00, 0x00, 0x00, 0x7C, 0x03, 0x00, 0x02, 0x00, 
  0x00, 0x50, 0x85, 0x00, 0x58, 0x00, 0x80, 0x0A, 0x00, 0x04, 0x00, 0xDC, 
  0x01, 0x00, 0xC0, 0xFC, 0x0F, 0x00, 0x88, 0x80, 0x40, 0xF0, 0x08, 0x00, 
  0x70, 0x00, 0x00, 0x00, 0x00, 0x08, 0x00, 0xF0, 0x00, 0x04, 0x00, 0xFE, 
  0x08, 0x00, 0x02, 0x40, 0x08, 0xE0, 0x02, 0x00, 0x78, 0x00, 0x00, 0x02, 
  0x00, 0xB8, 0x00, 0xC0, 0x00, 0x0C, 0x20, 0x10, 0x00, 0x28, 0x0C, 0x00, 
  0x00, 0xF8, 0x48, 0x00, 0x78, 0x0E, 0x00, 0x00, 0x20, 0x1E, 0x00, 0x00, 
  0x00, 0x01, 0x00, 0x00, 0x00, 0x00, 0x00, 0x00, 0x00, 0xDC, 0x00, 0x48, 
  0xF6, 0x0B, 0x00, 0x00, 0x00, 0x0E, 0x00, 0x80, 0x00, 0x01, 0x00, 0x10, 
  0x00, 0x00, 0x00, 0x00, 0x00, 0x7F, 0x80, 0x21, 0xEF, 0x00, 0x00, 0x00, 
  0x10, 0x1F, 0x00, 0x00, 0x00, 0x00, 0x00, 0x00, 0x00, 0x00, 0x00, 0x10, 
  0x80, 0xBF, 0x10, 0x4A, 0xFF, 0x28, 0xE8, 0x00, 0x08, 0x10, 0x20, 0x40, 
  0x00, 0x00, 0x00, 0x00, 0x00, 0x00, 0x00, 0x00, 0x00, 0x1A, 0x00, 0x50, 
  0x32, 0x00, 0x30, 0x00, 0x03, 0x00, 0x00, 0x80, 0x00, 0x00, 0x00, 0x00, 
  0x00, 0x00, 0x00, 0x08, 0x00, 0x00, 0x00, 0x2A, 0x00, 0x81, 0x26, 0x00, 
  0x10, 0x0A, 0x00, 0xE0, 0x00, 0x00, 0x00, 0x00, 0x00, 0x00, 0x01, 0x10, 
  0x00, 0x05, 0x13, 0x40, 0x05, 0x80, 0x00, 0x24, 0x04, 0x01, 0x00, 0x20, 
  0x00, 0x00, 0x00, 0x00, 0x00, 0x00, 0x22, 0x00, 0x00, 0x04, 0x20, 0x02, 
  0x05, 0x40, 0x04, 0x04, 0x11, 0x00, 0x00, 0x00, 0x00, 0x00, 0x00, 0x00, 
  0x00, 0x00, 0x28, 0x20, 0x00, 0x21, 0xC0, 0x8E, 0x20, 0x00, 0xF0, 0x21, 
  0x00, 0x00, 0x80, 0x00, 0x00, 0x00, 0x00, 0x00, 0x00, 0x00, 0x0C, 0x00, 
  0x01, 0x00, 0x80, 0x98, 0x0A, 0x51, 0xF0, 0x2B, 0x00, 0x00, 0x40, 0x00, 
  0x00, 0x00, 0x00, 0x00, 0x00, 0x00, 0x02, 0x04, 0x00, 0x00, 0x00, 0x12, 
  0x02, 0x07, 0x20, 0x06, 0x00, 0x00, 0xA0, 0x00, 0x00, 0x00, 0x10, 0x01, 
  0x00, 0x00, 0x00, 0x0C, 0x00, 0xD0, 0x00, 0x70, 0x00, 0x59, 0x30, 0x3E, 
  0x00, 0x00, 0xA0, 0x00, 0x00, 0x00, 0x00, 0x00, 0x00, 0x00, 0x08, 0x8C, 
  0x00, 0xC0, 0x40, 0xE2, 0x00, 0xFC, 0x04, 0x1D, 0x20, 0x00, 0x88, 0x00, 
  0x00, 0xA0, 0x38, 0xA8, 0x00, 0x20, 0x00, 0x00, 0x00, 0x00, 0x00, 0xF0, 
  0x01, 0xF0, 0x10, 0x10, 0x0D, 0x00, 0x00, 0x00, 0x00, 0x00, 0x72, 0x00, 
  0x00, 0x00, 0x05, 0x51, 0x00, 0x00, 0x40, 0xE0, 0x01, 0xE1, 0x10, 0x00, 
  0x00, 0x61, 0x00, 0x00, 0x00, 0x80, 0xBE, 0x80, 0x01, 0x00, 0x0F, 0x40, 
  0x00, 0x00, 0x0A, 0xFC, 0x03, 0xE0, 0x20, 0x00, 0x29, 0x00, 0x00, 0x80, 
  0x00, 0x00, 0x1F, 0x00, 0x08, 0x00, 0x20, 0xE0, 0x00, 0x00, 0x00, 0xFC, 
  0x01, 0xF0, 0x00, 0x00, 0x02, 0x04, 0x00, 0x00, 0x00, 0x04, 0x00, 0x00, 
  0xF1, 0x00, 0x40, 0x00, 0xB4, 0x40, 0x40, 0xFF, 0x21, 0xF1, 0x09, 0x00, 
  0x08, 0x0C, 0x00, 0x20, 0x00, 0x04, 0x00, 0x00, 0xF0, 0x01, 0xC0, 0x00, 
  0xC0, 0x00, 0x08, 0xFF, 0x69, 0xFF, 0x03, 0x00, 0x00, 0x98, 0x04, 0x00, 
  0x00, 0x0A, 0x00, 0x00, 0xF1, 0x00, 0x00, 0x00, 0x84, 0x00, 0x00, 0xCD, 
  0xA2, 0xFF, 0x03, 0x00, 0x08, 0x28, 0x00, 0x80, 0xD0, 0x04, 0x00, 0x00, 
  0xF0, 0x00, 0x00, 0x00, 0x00, 0x03, 0x01, 0xD2, 0x00, 0x7C, 0xC2, 0x00, 
  0x00, 0xFC, 0x12, 0x20, 0x00, 0x09, 0x00, 0x00, 0xF0, 0x21, 0x00, 0x00, 
  0x00, 0x07, 0x02, 0x4F, 0xAA, 0x86, 0xCE, 0x01, 0x00, 0xF8, 0x08, 0x44, 
  0x00, 0x00, 0x10, 0x00, 0xA0, 0x08, 0x00, 0x00, 0x00, 0x43, 0x02, 0x38, 
  0x00, 0x28, 0x0C, 0x00, 0x00, 0x78, 0x60, 0x00, 0x04, 0x20, 0x00, 0x00, 
  0xD0, 0x21, 0x00, 0x80, 0xF0, 0x07, 0x02, 0x64, 0x12, 0x80, 0x01, 0x20, 
  0x00, 0xB4, 0x01, 0x1A, 0x00, 0x04, 0x00, 0x20, 0xB8, 0x21, 0x00, 0x80, 
  0xF0, 0x81, 0x01, 0xD1, 0x4A, 0x35, 0x08, 0x00, 0x00, 0xD8, 0x02, 0x00, 
  0x00, 0x00, 0x40, 0x00, 0xC4, 0x01, 0x7C, 0x00, 0x00, 0x81, 0x0B, 0x40, 
  0x67, 0x31, 0x52, 0x01, 0x00, 0xBC, 0x20, 0x00, 0x01, 0x80, 0x00, 0x0A, 
  0xD0, 0x00, 0x3C, 0x00, 0x00, 0xC8, 0x83, 0x01, 0x07, 0x74, 0x04, 0x00, 
  0x00, 0x68, 0x01, 0x00, 0x00, 0x00, 0x00, 0x02, 0x04, 0x02, 0x04, 0x00, 
  0x40, 0xC8, 0x23, 0x80, 0x4F, 0x98, 0x40, 0x01, 0x00, 0xF0, 0x01, 0x00, 
  0x00, 0x00, 0x00, 0x02, 0x04, 0x80, 0x04, 0x00, 0x00, 0x14, 0x84, 0xC2, 
  0x9F, 0x10, 0x55, 0x34, 0xC0, 0xFA, 0xAC, 0x00, 0x00, 0x0E, 0x00, 0x16, 
  0x80, 0x02, 0x04, 0x00, 0x00, 0x70, 0x40, 0xC0, 0x0F, 0xD0, 0x02, 0x28, 
  0xD8, 0x6F, 0x01, 0x00, 0x02, 0x70, 0x04, 0x0C, 0x86, 0x00, 0x00, 0x80, 
  0x00, 0xF0, 0x50, 0xA8, 0x0F, 0x80, 0x41, 0x04, 0xF8, 0x3F, 0x04, 0x10, 
  0x00, 0xD6, 0x00, 0x26, 0x51, 0x44, 0x00, 0x00, 0x00, 0x00, 0x80, 0xFE, 
  0x1F, 0x40, 0x0E, 0x34, 0x40, 0x06, 0x20, 0x00, 0x00, 0xC0, 0x80, 0x1F, 
  0x00, 0x01, 0x0A, 0x80, 0x00, 0x00, 0x00, 0xFC, 0x1F, 0x80, 0xBC, 0x01, 
  0x00, 0x00, 0x20, 0x08, 0x00, 0x00, 0xDB, 0x38, 0x50, 0x00, 0x00, 0x40, 
  0x00, 0x82, 0x1B, 0x52, 0x10, 0x01, 0x68, 0x0A, 0x00, 0x00, 0x60, 0x80, 
  0x00, 0x80, 0xC3, 0x3C, 0x00, 0x00, 0x00, 0x00, 0x40, 0x80, 0x43, 0x00, 
  0xB0, 0x80, 0x70, 0x02, 0x00, 0x00, 0x10, 0x00, 0x00, 0x80, 0x0E, 0x88, 
  0x00, 0x00, 0x0C, 0x00, 0x00, 0x00, 0xD3, 0x04, 0xF0, 0x00, 0xF0, 0x00, 
  0x00, 0x00, 0x00, 0x80, 0x00, 0x80, 0x03, 0x00, 0x00, 0x00, 0x04, 0x00, 
  0x00, 0xC1, 0x07, 0x01, 0xF0, 0x00, 0xF0, 0x08, 0x00, 0x00, 0x00, 0x00, 
  0x00, 0x00, 0x0F, 0xC0, 0x00, 0x00, 0xE8, 0x00, 0x0F, 0xFD, 0x06, 0x88, 
  0xF9, 0x5B, 0xF7, 0x00, 0x40, 0x00, 0x20, 0x00, 0x00, 0x80, 0x0E, 0xE1, 
  0x00, 0x00, 0x80, 0x00, 0xA8, 0xF8, 0x61, 0x02, 0xF2, 0xE1, 0x6F, 0x02, 
  0x00, 0x00, 0x00, 0x00, 0x00, 0xC0, 0x07, 0x60, 0x0A, 0x00, 0x04, 0x00, 
  0x22, 0xB1, 0x00, 0x81, 0xFC, 0x81, 0x3B, 0x00, 0x00, 0x00, 0x00, 0x84, 
  0x00, 0x8E, 0x0B, 0x40, 0x00, 0x00, 0x02, 0x11, 0xF0, 0x14, 0x62, 0x04, 
  0x29, 0x64, 0x02, 0x00, 0x00, 0x00, 0x00, 0xC0, 0x00, 0x3D, 0x03, 0x00, 
  0x00, 0x01, 0x40, 0x1C, 0xF0, 0xC3, 0xC0, 0x85, 0x0A, 0x15, 0x00, 0x00, 
  0x04, 0x10, 0x80, 0x20, 0x00, 0x06, 0x05, 0x40, 0x08, 0x08, 0x10, 0x16, 
  0xF0, 0x07, 0x00, 0x23, 0x92, 0xBE, 0x00, 0x00, 0x06, 0x60, 0x00, 0x00, 
  0x00, 0x18, 0x00, 0x00, 0x00, 0x02, 0x01, 0x2C, 0xF0, 0x41, 0x10, 0x8F, 
  0x40, 0x10, 0x00, 0x00, 0x01, 0x40, 0x80, 0x00, 0x00, 0x0C, 0x08, 0x00, 
  0x01, 0xE4, 0x05, 0x74, 0xF8, 0x07, 0x02, 0x0F, 0x26, 0x74, 0xA0, 0x32, 
  0x80, 0x40, 0x00, 0x00, 0x00, 0x00, 0x00, 0x00, 0x00, 0x80, 0x00, 0xFC, 
  0x77, 0x41, 0x86, 0x06, 0x50, 0x38, 0x04, 0x29, 0x21, 0xC0, 0x20, 0x01, 
  0x00, 0x00, 0x03, 0x00, 0x00, 0x20, 0x00, 0xFA, 0xFE, 0x01, 0x14, 0x15, 
  0xA0, 0x0C, 0x02, 0x00, 0x80, 0x80, 0x20, 0x00, 0x80, 0x00, 0x07, 0x00, 
  0x00, 0xC2, 0x00, 0xDE, 0x2B, 0x0A, 0xE1, 0x03, 0xE0, 0x00, 0x00, 0x04, 
  0x42, 0x40, 0x40, 0x00, 0x00, 0x03, 0x07, 0x00, 0x02, 0x88, 0x00, 0xFF, 
  0x07, 0x80, 0x78, 0x03, 0xF0, 0x05, 0x0F, 0x00, 0x00, 0x38, 0x00, 0x00, 
  0x00, 0x04, 0x0F, 0x00, 0x80, 0x00, 0x02, 0xFA, 0x00, 0x02, 0x08, 0xC2, 
  0xC0, 0x07, 0xB0, 0x1A, 0x05, 0x67, 0x0A, 0x00, 0x00, 0x00, 0x0B, 0x00, 
  0x00, 0xC0, 0x09, 0xFE, 0xA5, 0x00, 0x52, 0xC8, 0xF0, 0x03, 0xF3, 0x00, 
  0x00, 0x00, 0x0A, 0x00, 0x00, 0x91, 0x5A, 0x00, 0x40, 0x00, 0xC9, 0xF6, 
  0x09, 0x02, 0x59, 0x14, 0xFF, 0x01, 0xC0, 0x01, 0x01, 0x00, 0x00, 0x00, 
  0x00, 0xF0, 0x1F, 0x00, 0x72, 0x5A, 0xCE, 0xFF, 0x4B, 0x24, 0x08, 0x41, 
  0x71, 0x00, 0xC0, 0x27, 0x00, 0x00, 0xC0, 0x00, 0x08, 0xE8, 0x1F, 0x00, 
  0x40, 0x05, 0xE0, 0xAF, 0x06, 0x05, 0x74, 0x01, 0x21, 0x00, 0xC0, 0x13, 
  0x0A, 0x00, 0x40, 0x0B, 0x20, 0xC4, 0x8F, 0x00, 0x91, 0x01, 0x02, 0x06, 
  0x5D, 0x00, 0x22, 0x00, 0x08, 0x00, 0xE2, 0x06, 0x00, 0x00, 0x80, 0x01, 
  0x12, 0x00, 0x05, 0x00, 0x82, 0x03, 0x00, 0x02, 0x70, 0x04, 0x80, 0x02, 
  0x10, 0x08, 0x7F, 0x1D, 0x00, 0x00, 0x00, 0x07, 0x0C, 0x18, 0x40, 0xA0, 
  0x00, 0x03, 0x02, 0x04, 0xF2, 0x05, 0x08, 0x80, 0x00, 0x05, 0xCE, 0x03, 
  0x40, 0x28, 0xF8, 0x03, 0x20, 0x00, 0xA0, 0x40, 0xC0, 0x87, 0x0A, 0x01, 
  0x41, 0x00, 0xC0, 0xD3, 0x00, 0x00, 0x08, 0x01, 0x00, 0x18, 0x11, 0x00, 
  0x00, 0x00, 0x18, 0xA0, 0xC0, 0x1E, 0x60, 0x40, 0x40, 0x47, 0xC0, 0xC7, 
  0x00, 0x46, 0x02, 0x00, 0xF0, 0xC0, 0x41, 0x00, 0x00, 0x00, 0x48, 0x04, 
  0xC0, 0x2F, 0x02, 0x84, 0xC0, 0xD1, 0xC0, 0x57, 0x00, 0x04, 0x0C, 0x00, 
  0x0E, 0x00, 0x03, 0x00, 0x10, 0x02, 0x2A, 0x60, 0xDF, 0x0F, 0xAC, 0xAA, 
  0xE0, 0x01, 0xDC, 0x8F, 0x00, 0x05, 0x01, 0x00, 0x00, 0x80, 0x8F, 0x00, 
  0x20, 0x0D, 0x40, 0x02, 0xE0, 0x53, 0x04, 0x18, 0xA0, 0x16, 0xC0, 0x83, 
  0x02, 0x12, 0x10, 0x20, 0x10, 0xC0, 0x0B, 0x00, 0x00, 0x18, 0x00, 0xB0, 
  0x00, 0x04, 0xC2, 0x61, 0xF8, 0x0F, 0xC0, 0x1C, 0x00, 0x3C, 0x25, 0x00, 
  0x00, 0xC0, 0x27, 0xA0, 0x00, 0x30, 0x00, 0x02, 0x00, 0x08, 0x00, 0xC8, 
  0xFF, 0x0E, 0x00, 0x80, 0x02, 0x60, 0x00, 0x00, 0x00, 0xE0, 0x07, 0xE8, 
  0x00, 0x10, 0x40, 0x00, 0x02, 0x30, 0xA1, 0x03, 0xFC, 0x27, 0x00, 0x29, 
  0x02, 0x40, 0x80, 0x00, 0x00, 0x00, 0x00, 0x84, 0x52, 0xC0, 0x20, 0x00, 
  0x00, 0x10, 0xC0, 0x14, 0xF4, 0x01, 0x00, 0x04, 0x22, 0x00, 0x00, 0x00, 
  0x02, 0x00, 0x60, 0x01, 0x08, 0x40, 0x20, 0x21, 0x00, 0x00, 0xEC, 0x02, 
  0x90, 0x00, 0x40, 0xD1, 0x28, 0x41, 0x00, 0x00, 0x02, 0x00, 0x04, 0x04, 
  0x00, 0xC0, 0x01, 0x48, 0x00, 0x50, 0xE0, 0x80, 0x58, 0x03, 0x00, 0xDC, 
  0x01, 0xF8, 0x00, 0x00, 0x0F, 0x04, 0x40, 0x00, 0x00, 0xF8, 0x00, 0x20, 
  0x01, 0x00, 0xE7, 0x06, 0x00, 0x40, 0x40, 0x00, 0x0F, 0x30, 0x00, 0x00, 
  0x07, 0x02, 0x00, 0x00, 0x20, 0xFF, 0x01, 0x70, 0x00, 0x40, 0x8A, 0xA2, 
  0x40, 0x8A, 0x00, 0x00, 0x04, 0x10, 0x00, 0x02, 0xC5, 0x07, 0x00, 0x00, 
  0xC0, 0xBF, 0x01, 0x08, 0x01, 0x04, 0x90, 0x00, 0x18, 0x70, 0x00, 0x00, 
  0x35, 0x00, 0x20, 0x3C, 0x01, 0x03, 0x00, 0x21, 0x04, 0xA0, 0x00, 0x83, 
  0x02, 0xAA, 0x16, 0x12, 0xA5, 0x16, 0x00, 0x00, 0x78, 0x00, 0x00, 0x10, 
  0x08, 0x00, 0x00, 0x00, 0x00, 0x08, 0x01, 0x2F, 0x00, 0x18, 0x81, 0x0A, 
  0x00, 0x80, 0x00, 0x00, 0x70, 0x00, 0x00, 0x1A, 0x00, 0x01, 0x00, 0x00, 
  0x00, 0x80, 0x00, 0x4C, 0x3C, 0xF0, 0x00, 0x44, 0x0E, 0x29, 0x00, 0x01, 
  0xFC, 0x00, 0x00, 0x00, 0x00, 0x14, 0x00, 0x00, 0x00, 0x00, 0x00, 0x06, 
  0x18, 0xF0, 0x5A, 0xA0, 0x0C, 0x40, 0x00, 0x00, 0xFC, 0x00, 0x81, 0x00, 
  0x80, 0x07, 0x00, 0x02, 0x80, 0x00, 0x00, 0x00, 0x74, 0xF1, 0x3E, 0x04, 
  0x1D, 0x1D, 0x06, 0x02, 0xEC, 0x20, 0x00, 0x00, 0x00, 0x00, 0x01, 0x02, 
  0x00, 0x00, 0x80, 0x0A, 0xF0, 0x7C, 0x04, 0xA1, 0x02, 0x90, 0x02, 0x02, 
  0xF5, 0x01, 0x05, 0x00, 0x80, 0x40, 0x00, 0x04, 0x80, 0x00, 0x00, 0x00, 
  0xF0, 0xEC, 0x10, 0x87, 0x00, 0x60, 0x61, 0xCC, 0xFF, 0x00, 0x04, 0x00, 
  0x00, 0x00, 0x00, 0x07, 0xC0, 0x0C, 0x50, 0x00, 0xD0, 0x7C, 0x10, 0x37, 
  0x08, 0xC0, 0x08, 0xF9, 0xFF, 0x10, 0x0E, 0x00, 0x02, 0x40, 0xC0, 0x07, 
  0x50, 0x04, 0x00, 0x00, 0xD8, 0x2D, 0x20, 0xBC, 0x00, 0x80, 0x60, 0x01, 
  0x3F, 0x00, 0x0C, 0x00, 0x00, 0x60, 0x00, 0x07, 0x00, 0x00, 0x10, 0x00, 
  0xFE, 0xA5, 0x00, 0x2C, 0x00, 0xC0, 0x01, 0x40, 0x0E, 0x00, 0x1F, 0x00, 
  0x08, 0x40, 0x08, 0x00, 0x04, 0xA0, 0x40, 0x01, 0xBF, 0x01, 0x07, 0x7A, 
  0xD0, 0x62, 0x4B, 0x00, 0xAB, 0x0D, 0x10, 0x00, 0x38, 0xC0, 0x00, 0x00, 
  0x40, 0x00, 0x00, 0x00, 0xC4, 0x21, 0x00, 0x7F, 0x04, 0xD0, 0x23, 0x00, 
  0x0C, 0x90, 0x17, 0x00, 0x38, 0xA0, 0x01, 0x00, 0x07, 0x11, 0xE0, 0x00, 
  0xFF, 0x31, 0xC3, 0x6F, 0x80, 0x1C, 0x07, 0x00, 0x0E, 0xE0, 0x0F, 0x08, 
  0x10, 0x60, 0x40, 0x00, 0x04, 0xC0, 0xC0, 0x1F, 0xBF, 0x08, 0xEC, 0xFB, 
  0x05, 0x80, 0x03, 0x00, 0x20, 0xC0, 0x00, 0x01, 0x3F, 0x00, 0x04, 0x20, 
  0x80, 0x03, 0xC0, 0xFA, 0x5C, 0x00, 0xE0, 0x7F, 0x80, 0x00, 0x00, 0x00, 
  0x00, 0x00, 0x01, 0x30, 0x02, 0x00, 0x00, 0x00, 0x14, 0x00, 0x80, 0xFC, 
  0x7C, 0x18, 0xCA, 0x3F, 0x1B, 0x48, 0x05, 0x00, 0x00, 0x00, 0x00, 0x10, 
  0x00, 0x00, 0x04, 0x00, 0x14, 0x00, 0x70, 0x40, 0x20, 0x80, 0x40, 0x05, 
  0x20, 0x80, 0x00, 0x00, 0x64, 0x00, 0x01, 0x05, 0x14, 0x00, 0x04, 0x0A, 
  0x26, 0x00, 0xF0, 0x00, 0x00, 0x00, 0x01, 0x54, 0x09, 0x00, 0x01, 0x00, 
  0xF0, 0x00, 0x00, 0x00, 0x18, 0x00, 0x00, 0x01, 0x7C, 0x20, 0x70, 0x08, 
  0x00, 0x08, 0x28, 0x80, 0xC0, 0x80, 0x00, 0x01, 0x00, 0x02, 0x00, 0x12, 
  0x82, 0x02, 0x58, 0x80, 0x3D, 0x00, 0xF0, 0x08, 0x00, 0xB2, 0x01, 0x00, 
  0x04, 0x00, 0x0A, 0x00, 0x00, 0x04, 0x00, 0x08, 0x22, 0x80, 0x05, 0x00, 
  0x59, 0x10, 0xFC, 0x05, 0x00, 0x43, 0x00, 0xBC, 0x81, 0x06, 0xC2, 0x01, 
  0x00, 0x4D, 0x00, 0x11, 0x00, 0x00, 0x00, 0x02, 0x0C, 0xA4, 0xFC, 0x00, 
  0x00, 0x15, 0x00, 0x21, 0x08, 0x28, 0x08, 0x00, 0x00, 0xBC, 0x00, 0x0E, 
  0x92, 0x00, 0x00, 0x20, 0x01, 0xEC, 0xDC, 0x00, 0x00, 0xA6, 0x05, 0x01, 
  0x40, 0x1D, 0x02, 0x00, 0x00, 0xC0, 0x00, 0x3C, 0x08, 0x04, 0x00, 0x04, 
  0x14, 0x40, 0x70, 0x00, 0x00, 0x1C, 0x00, 0xB8, 0x07, 0x98, 0x00, 0x00, 
  0x00, 0xC0, 0x00, 0x1C, 0x34, 0x00, 0x00, 0x5E, 0x08, 0x20, 0x14, 0x00, 
  0x00, 0x18, 0x00, 0x01, 0x02, 0x10, 0x04, 0x00, 0x40, 0x70, 0x00, 0x1E, 
  0x00, 0x14, 0x00, 0xE0, 0x42, 0x0A, 0x42, 0x00, 0x00, 0x2B, 0x10, 0x14, 
  0x08, 0x38, 0x01, 0x00, 0x00, 0xD0, 0x10, 0x10, 0x20, 0x04, 0x00, 0xC0, 
  0x00, 0x01, 0x00, 0x00, 0x10, 0x60, 0x31, 0x21, 0xA0, 0x5A, 0x10, 0x00, 
  0x00, 0xF8, 0xB0, 0x0B, 0x00, 0x00, 0x00, 0xE2, 0x03, 0x00, 0x00, 0x00, 
  0x10, 0x70, 0x44, 0x84, 0x82, 0x1B, 0x2D, 0x40, 0x00, 0xF8, 0xE2, 0x0E, 
  0x02, 0x00, 0x00, 0x01, 0xC3, 0x00, 0x00, 0x00, 0x01, 0xB0, 0x25, 0x21, 
  0xE1, 0x8F, 0x00, 0x00, 0x01, 0xFC, 0x01, 0x00, };
