#define worm_width 64
#define worm_height 64
static unsigned char worm_bits[] = {
   0x00, 0x3c, 0x60, 0x20, 0x00, 0x00, 0x80, 0x00, 0x00, 0x0e, 0x38, 0x30,
   0x00, 0x05, 0x00, 0x00, 0x10, 0x04, 0x28, 0x30, 0x00, 0x04, 0x80, 0x00,
   0x00, 0x00, 0x00, 0x1c, 0x80, 0xc0, 0x41, 0x00, 0x00, 0x04, 0x00, 0x06,
   0x40, 0xc0, 0xe1, 0x00, 0x00, 0x00, 0x00, 0x00, 0x70, 0x00, 0x00, 0x10,
   0x00, 0x00, 0x00, 0x00, 0x30, 0x00, 0x00, 0x00, 0x00, 0x00, 0x00, 0x00,
   0x38, 0x7c, 0x00, 0x00, 0x00, 0xa0, 0x00, 0xe0, 0x17, 0x0e, 0x00, 0x00,
   0x12, 0x00, 0x00, 0x9f, 0x02, 0x07, 0x00, 0x00, 0x30, 0x00, 0x00, 0x07,
   0x00, 0x02, 0x00, 0x00, 0x01, 0x1c, 0xc0, 0x01, 0x00, 0x00, 0xe2, 0x00,
   0x00, 0x0a, 0x40, 0x00, 0x00, 0x00, 0xfa, 0x01, 0x00, 0x00, 0x00, 0x00,
   0x00, 0x20, 0x30, 0x00, 0x00, 0x00, 0x00, 0x00, 0x04, 0x10, 0x00, 0x00,
   0x00, 0x00, 0x88, 0x10, 0x3c, 0x08, 0x00, 0x60, 0x00, 0x00, 0x08, 0x00,
   0x00, 0x0c, 0x00, 0x20, 0x00, 0x00, 0x00, 0x00, 0x00, 0x84, 0x00, 0x00,
   0x00, 0x00, 0x00, 0x00, 0x00, 0x0c, 0x80, 0x01, 0x02, 0x00, 0x00, 0x00,
   0x00, 0x04, 0xc0, 0x01, 0x06, 0x48, 0x08, 0x00, 0xf0, 0x0f, 0xf8, 0x80,
   0x80, 0x1c, 0x00, 0x84, 0x73, 0x04, 0x1c, 0x00, 0x00, 0x0e, 0x00, 0x04,
   0x09, 0x00, 0x00, 0x00, 0x00, 0x06, 0xf0, 0x07, 0x00, 0x00, 0x00, 0x00,
   0x80, 0x03, 0xa0, 0x00, 0x00, 0x00, 0x02, 0x01, 0x40, 0x03, 0x10, 0x00,
   0x00, 0x00, 0xe0, 0x01, 0x00, 0x00, 0x00, 0x00, 0x00, 0x00, 0xd4, 0x01,
   0x00, 0x00, 0x00, 0x00, 0x00, 0x00, 0x00, 0x00, 0xc0, 0x00, 0x00, 0x00,
   0x00, 0x00, 0x00, 0x00, 0x60, 0x30, 0x18, 0x00, 0x40, 0x00, 0x00, 0x00,
   0x7a, 0x74, 0x0e, 0x00, 0xcc, 0x00, 0x00, 0x00, 0x36, 0x04, 0x04, 0x00,
   0x00, 0x04, 0x00, 0x00, 0x06, 0x00, 0x04, 0x00, 0x00, 0x1c, 0x02, 0x00,
   0x02, 0x00, 0x00, 0x00, 0x00, 0xe0, 0x07, 0x00, 0x06, 0x00, 0x80, 0x02,
   0x00, 0x00, 0x51, 0x00, 0x81, 0x00, 0x04, 0x00, 0x00, 0x00, 0x00, 0x28,
   0x40, 0x38, 0x02, 0x40, 0x00, 0x00, 0x00, 0x00, 0x00, 0x00, 0x02, 0x00,
   0x21, 0x00, 0x80, 0x00, 0x00, 0x00, 0x00, 0x04, 0xf8, 0x17, 0x00, 0x00,
   0x02, 0x00, 0x00, 0x00, 0x10, 0x55, 0x01, 0x00, 0x00, 0x00, 0x0a, 0x40,
   0x0f, 0x00, 0x02, 0x80, 0x80, 0x05, 0x03, 0x40, 0x01, 0x00, 0x00, 0x00,
   0xc0, 0xcf, 0x02, 0x00, 0x00, 0x08, 0x00, 0x08, 0x00, 0xc0, 0x00, 0x08,
   0x80, 0x08, 0x00, 0x1c, 0x00, 0x00, 0x00, 0x00, 0x00, 0x00, 0x80, 0x0f,
   0x03, 0x00, 0x00, 0x00, 0x40, 0x00, 0xc0, 0x03, 0x03, 0x00, 0x02, 0x20,
   0x61, 0x04, 0x00, 0x00, 0x01, 0x80, 0x06, 0x04, 0x3d, 0x5e, 0x30, 0x00,
   0x00, 0x02, 0x10, 0x00, 0x3a, 0x06, 0x30, 0x00, 0x00, 0x0f, 0x00, 0x00,
   0x00, 0x00, 0xe0, 0x00, 0xe0, 0x03, 0x00, 0x80, 0x00, 0x00, 0x18, 0x54,
   0x5c, 0x01, 0x00, 0x00, 0x00, 0x00, 0x38, 0x14, 0x00, 0x80, 0x02, 0x14,
   0x00, 0xc0, 0x0c, 0x00, 0x00, 0x1c, 0x10, 0x0f, 0x01, 0x80, 0x04, 0x00,
   0xc0, 0x83, 0x30, 0xae, 0x04, 0x00, 0x00, 0x00, 0x90, 0x00, 0x01, 0x46,
   0x00, 0x00, 0x00, 0x00, 0x00, 0x00, 0x1c, 0x40, 0x00, 0x80, 0x00, 0x10,
   0x00, 0x00, 0x00, 0x00, 0x00, 0xc0, 0x00, 0x18, 0x00, 0x00, 0x00, 0x00,
   0x08, 0xe0, 0x01, 0x1e, 0x00, 0x00, 0x00, 0x00, 0x08, 0x30, 0xb0, 0x06,
   0x00, 0x00, 0x00, 0x00, 0x10, 0x00, 0x10, 0x01, 0x03, 0x00, 0x00, 0x20,
   0x00, 0x00, 0x00, 0x04, 0x40, 0x00, 0x00, 0x20, 0x00, 0x00, 0x00, 0x01,
   0x00, 0x18, 0x60, 0x20, 0x00, 0x00, 0x00, 0x00 };
