<?xml version="1.0" encoding="UTF-8" standalone="no"?> <svg xmlns="http://www.w3.org/2000/svg" viewBox="0 0 64 64"><defs><style>.cls-1,.cls-6{fill:#54596e;}.cls-1{opacity:0.15;}.cls-2{fill:#999;}.cls-2,.cls-3,.cls-5,.cls-9{stroke:#54596e;}.cls-2,.cls-3,.cls-5,.cls-8,.cls-9{stroke-linecap:round;stroke-linejoin:round;stroke-width:2px;}.cls-3{fill:#8065c4;}.cls-4{fill:#ffb8f2;}.cls-5{fill:#fff35f;}.cls-7{fill:#61c5a8;}.cls-8,.cls-9{fill:none;}.cls-8{stroke:#f4a14e;}</style></defs><title>speakers</title><g id="speakers"><path class="cls-1" d="M56.7,26.3A16,16,0,0,1,34.3,48.7,16,16,0,1,0,56.7,26.3Z"/><rect class="cls-2" x="2" y="13" width="29" height="42" rx="1.81" ry="1.81"/><rect class="cls-2" x="5" y="13" width="23" height="42" rx="1.81" ry="1.81"/><circle class="cls-3" cx="16.5" cy="43.5" r="7.5"/><circle class="cls-3" cx="19.5" cy="22.5" r="5.5"/><circle class="cls-4" cx="10" cy="31" r="3"/><circle class="cls-5" cx="47" cy="39" r="16"/><path class="cls-1" d="M56.7,26.3A16,16,0,0,1,34.3,48.7,16,16,0,1,0,56.7,26.3Z"/><circle class="cls-6" cx="49.66" cy="30.36" r="1.47"/><circle class="cls-6" cx="39.36" cy="30.36" r="1.47"/><circle class="cls-7" cx="37.15" cy="36.24" r="1.47"/><circle class="cls-7" cx="53.34" cy="36.24" r="1.47"/><circle class="cls-6" cx="44.51" cy="38.45" r="2.94"/><line class="cls-8" x1="34" y1="11" x2="38" y2="7"/><line class="cls-8" x1="31" y1="9" x2="31" y2="4"/><line class="cls-8" x1="35" y1="15" x2="40" y2="15"/><line class="cls-9" x1="23" y1="55" x2="63" y2="55"/></g></svg>