<?xml version="1.0" encoding="UTF-8" standalone="no"?> <svg xmlns="http://www.w3.org/2000/svg" viewBox="0 0 64 64"><defs><style>.cls-1{fill:#fff;}.cls-1,.cls-2,.cls-3{stroke:#54596e;stroke-linecap:round;stroke-linejoin:round;stroke-width:2px;}.cls-2{fill:#ff80c3;}.cls-3{fill:#ffd578;}</style></defs><title>bikini</title><g id="bikini"><circle class="cls-1" cx="4" cy="25" r="3"/><circle class="cls-1" cx="10" cy="27" r="3"/><circle class="cls-1" cx="16" cy="30" r="3"/><circle class="cls-1" cx="21" cy="33" r="3"/><circle class="cls-1" cx="26" cy="38" r="3"/><circle class="cls-1" cx="28" cy="44" r="3"/><circle class="cls-1" cx="60" cy="25" r="3"/><circle class="cls-1" cx="54" cy="27" r="3"/><circle class="cls-1" cx="48" cy="30" r="3"/><circle class="cls-1" cx="43" cy="33" r="3"/><circle class="cls-1" cx="39" cy="38" r="3"/><circle class="cls-1" cx="37" cy="44" r="3"/><path class="cls-2" d="M36.5,45.5c0-10.35,11.41-18.94,26.42-20.68,0-.6.08-1.21.08-1.82a23.74,23.74,0,0,0-.68-5.63A200.46,200.46,0,0,1,32,20,185.3,185.3,0,0,1,1.72,17.21,23.74,23.74,0,0,0,1,23c0,.58,0,1.15.07,1.72C16.58,26.17,28.5,34.92,28.5,45.5a14.06,14.06,0,0,1-.36,3.14A1,1,0,0,0,29,49.87C30,50,31,50,32,50a35.41,35.41,0,0,0,4-.23,1,1,0,0,0,.86-1.22A14,14,0,0,1,36.5,45.5Z"/><polygon class="cls-3" points="32 20 24 23 24 16 32 20"/><polygon class="cls-3" points="32.01 20.08 40.07 22.92 39.93 15.92 32.01 20.08"/></g></svg>