/* XPM */
static char * stick_focus_xpm[] = {
"20 20 3 1",
" 	c None",
".	c #EDECE8",
"+	c #424242",
"....................",
"....................",
"....................",
"....................",
"....................",
"....................",
"....................",
".......++..++.......",
".......++..++.......",
"....................",
"....................",
".......++..++.......",
".......++..++.......",
"....................",
"....................",
"....................",
"....................",
"....................",
"....................",
"...................."};
