/* XPM */
static char * stuck_focus_xpm[] = {
"20 20 3 1",
" 	c None",
".	c #EDECE8",
"+	c #30C798",
"....................",
"....................",
"....................",
"....................",
"....................",
"....................",
"....................",
".......++..++.......",
".......++..++.......",
"....................",
"....................",
".......++..++.......",
".......++..++.......",
"....................",
"....................",
"....................",
"....................",
"....................",
"....................",
"...................."};
