/* XPM */
static char * stuck_unfocus_xpm[] = {
"20 20 3 1",
" 	c None",
".	c #EDECE8",
"+	c #6CD1B2",
"....................",
"....................",
"....................",
"....................",
"....................",
"....................",
"....................",
".......++..++.......",
".......++..++.......",
"....................",
"....................",
".......++..++.......",
".......++..++.......",
"....................",
"....................",
"....................",
"....................",
"....................",
"....................",
"...................."};
