/* XPM */
static char *close_xpm[] = {
/* width height num_colors chars_per_pixel */
  "    13    11       2            1",
/* colors */
  ". c #000000",
  "  c None s None",
/* pixels */
  "             ",
  "             ",
  "   ..    ..  ",
  "    ..  ..   ",
  "     ....    ",
  "      ..     ",
  "     ....    ",
  "    ..  ..   ",
  "   ..    ..  ",
  "             ",
  "             "
};