<svg height="512pt" viewBox="0 -85 512 512" width="512pt" xmlns="http://www.w3.org/2000/svg"><path d="m128 285.867188c-.003906 1.425781.082031 2.851562.257812 4.265624h-102.65625v-213.332031c0-42.417969 34.382813-76.800781 76.796876-76.800781h290.136718c42.414063 0 76.796875 34.382812 76.796875 76.800781v136.53125c9.386719 0 34.132813 7.679688 34.132813 17.066407v42.667968c0 4.714844-3.820313 8.535156-8.53125 8.535156h-25.855469l-76.542969 4.265626c-.003906 1.425781.082032 2.851562.253906 4.265624h-188.246093c.175781-1.414062.257812-2.839843.257812-4.265624zm0 0" fill="#cc4b4c"/><path d="m503.464844 341.332031h-443.730469c-4.714844 0-8.535156-3.820312-8.535156-8.53125 0-4.714843 3.820312-8.535156 8.535156-8.535156h443.730469c4.714844 0 8.535156 3.820313 8.535156 8.535156 0 4.710938-3.820312 8.53125-8.535156 8.53125zm0 0" fill="#7f8c8d"/><path d="m25.601562 341.332031h-17.066406c-4.714844 0-8.535156-3.820312-8.535156-8.53125 0-4.714843 3.820312-8.535156 8.535156-8.535156h17.066406c4.710938 0 8.53125 3.820313 8.53125 8.535156 0 4.710938-3.820312 8.53125-8.53125 8.53125zm0 0" fill="#7f8c8d"/><path d="m469.332031 153.601562v59.730469h-51.199219c-4.710937 0-8.53125-3.820312-8.53125-8.53125v-42.667969c0-4.710937 3.820313-8.53125 8.53125-8.53125zm0 0" fill="#67b9cc"/><path d="m25.601562 290.132812h-8.535156c-4.710937 0-8.53125-3.820312-8.53125-8.53125 0-4.714843 3.820313-8.535156 8.53125-8.535156h8.535156c4.710938 0 8.53125 3.820313 8.53125 8.535156 0 4.710938-3.820312 8.53125-8.53125 8.53125zm0 0" fill="#cc4b4c"/><path d="m204.800781 285.867188c0 1.425781-.082031 2.851562-.257812 4.265624-2.246094 19.367188-18.648438 33.972657-38.144531 33.972657-19.492188 0-35.894532-14.605469-38.140626-33.972657-.175781-1.414062-.261718-2.839843-.257812-4.265624 0-21.207032 17.191406-38.402344 38.398438-38.402344 21.210937 0 38.402343 17.195312 38.402343 38.402344zm0 0" fill="#2c2f38"/><path d="m166.304688 307.199219c-10.804688.007812-19.882813-8.113281-21.085938-18.847657-.660156-6.023437 1.253906-12.042968 5.269531-16.578124 4.015625-4.535157 9.761719-7.164063 15.816407-7.238282 5.675781-.0625 11.140624 2.167969 15.152343 6.179688 4.015625 4.015625 6.242188 9.476562 6.183594 15.152344-.308594 11.652343-9.683594 21.023437-21.335937 21.332031zm0 0" fill="#bdc3c7"/><path d="m469.332031 285.867188c.003907 1.425781-.082031 2.851562-.253906 4.265624-2.25 19.367188-18.648437 33.972657-38.144531 33.972657s-35.898438-14.605469-38.144532-33.972657c-.171874-1.414062-.257812-2.839843-.253906-4.265624.082032-20.316407 15.976563-37.054688 36.261719-38.183594 20.285156-1.132813 37.941406 13.734375 40.28125 33.917968.171875 1.414063.257813 2.839844.253906 4.265626zm0 0" fill="#2c2f38"/><g fill="#67b9cc"><path d="m153.601562 42.667969h34.132813c4.710937 0 8.53125 3.820312 8.53125 8.53125v25.601562c0 4.710938-3.820313 8.53125-8.53125 8.53125h-34.132813c-4.714843 0-8.535156-3.820312-8.535156-8.53125v-25.601562c0-4.710938 3.820313-8.53125 8.535156-8.53125zm0 0"/><path d="m230.398438 42.667969h34.136718c4.710938 0 8.53125 3.820312 8.53125 8.53125v25.601562c0 4.710938-3.820312 8.53125-8.53125 8.53125h-34.136718c-4.710938 0-8.53125-3.820312-8.53125-8.53125v-25.601562c0-4.710938 3.820312-8.53125 8.53125-8.53125zm0 0"/><path d="m307.199219 42.667969h34.132812c4.714844 0 8.535157 3.820312 8.535157 8.53125v25.601562c0 4.710938-3.820313 8.53125-8.535157 8.53125h-34.132812c-4.710938 0-8.53125-3.820312-8.53125-8.53125v-25.601562c0-4.710938 3.820312-8.53125 8.53125-8.53125zm0 0"/></g><path d="m153.601562 162.132812h34.132813c4.710937 0 8.53125 3.820313 8.53125 8.535157v25.597656c0 4.714844-3.820313 8.535156-8.53125 8.535156h-34.132813c-4.714843 0-8.535156-3.820312-8.535156-8.535156v-25.597656c0-4.714844 3.820313-8.535157 8.535156-8.535157zm0 0" fill="#41767f"/><path d="m230.398438 162.132812h34.136718c4.710938 0 8.53125 3.820313 8.53125 8.535157v25.597656c0 4.714844-3.820312 8.535156-8.53125 8.535156h-34.136718c-4.710938 0-8.53125-3.820312-8.53125-8.535156v-25.597656c0-4.714844 3.820312-8.535157 8.53125-8.535157zm0 0" fill="#41767f"/><path d="m307.199219 162.132812h34.132812c4.714844 0 8.535157 3.820313 8.535157 8.535157v25.597656c0 4.714844-3.820313 8.535156-8.535157 8.535156h-34.132812c-4.710938 0-8.53125-3.820312-8.53125-8.535156v-25.597656c0-4.714844 3.820312-8.535157 8.53125-8.535157zm0 0" fill="#41767f"/><path d="m93.867188 42.667969h17.066406c4.710937 0 8.53125 3.820312 8.53125 8.53125v25.601562c0 4.710938-3.820313 8.53125-8.53125 8.53125h-34.132813c-4.714843 0-8.535156-3.820312-8.535156-8.53125v-8.535156c0-14.136719 11.460937-25.597656 25.601563-25.597656zm0 0" fill="#67b9cc"/><path d="m384 42.667969h17.066406c14.140625 0 25.601563 11.460937 25.601563 25.597656v8.535156c0 4.710938-3.820313 8.53125-8.535157 8.53125h-34.132812c-4.710938 0-8.535156-3.820312-8.535156-8.53125v-25.601562c0-4.710938 3.824218-8.53125 8.535156-8.53125zm0 0" fill="#67b9cc"/><path d="m469.332031 136.535156h-443.730469c-4.714843 0-8.535156-3.824218-8.535156-8.535156s3.820313-8.535156 8.535156-8.535156h443.730469c4.714844 0 8.535157 3.824218 8.535157 8.535156s-3.820313 8.535156-8.535157 8.535156zm0 0" fill="#802f34"/><path d="m503.464844 230.398438v17.066406h-17.066406c-4.710938 0-8.53125-3.820313-8.53125-8.53125 0-4.714844 3.820312-8.535156 8.53125-8.535156zm0 0" fill="#f9eab0"/><path d="m45.652344 162.132812h62.976562c4.714844 0 8.535156 3.820313 8.535156 8.535157v98.386719c0 4.714843-3.820312 8.535156-8.535156 8.535156h-62.976562c-4.710938 0-8.53125-3.820313-8.53125-8.535156v-98.386719c0-4.714844 3.820312-8.535157 8.53125-8.535157zm0 0" fill="#802f34"/><path d="m68.265625 162.132812h17.066406v115.457032h-17.066406zm0 0" fill="#7f8c8d"/><path d="m430.933594 307.199219c-10.800782 0-19.878906-8.117188-21.085938-18.847657-.65625-6.023437 1.257813-12.042968 5.273438-16.578124 4.011718-4.53125 9.757812-7.164063 15.8125-7.238282 5.675781-.0625 11.136718 2.167969 15.152344 6.179688 4.011718 4.015625 6.242187 9.476562 6.179687 15.152344-.308594 11.652343-9.679687 21.023437-21.332031 21.332031zm0 0" fill="#bdc3c7"/></svg>