<?xml version="1.0" encoding="iso-8859-1"?>
<!-- Generator: Adobe Illustrator 19.0.0, SVG Export Plug-In . SVG Version: 6.00 Build 0)  -->
<svg version="1.1" id="Capa_1" xmlns="http://www.w3.org/2000/svg" xmlns:xlink="http://www.w3.org/1999/xlink" x="0px" y="0px"
	 viewBox="0 0 512 512" style="enable-background:new 0 0 512 512;" xml:space="preserve">
<g>
	<path style="fill:#F09372;" d="M502.443,274.504l-7.509-56.917h-128v34.133c0,61.267-49.667,110.933-110.933,110.933
		S145.067,312.987,145.067,251.72v-34.133h-128l-7.509,56.917v0.119C21.186,402.052,128.042,499.601,256,499.601
		s234.814-97.549,246.443-224.978V274.504z"/>
	<path style="fill:#FF5364;" d="M502.443,274.504v0.085c-0.831,2.361-2.205,4.495-4.011,6.229
		c-3.161,3.241-7.504,5.059-12.032,5.035c-9.414-0.028-17.039-7.653-17.067-17.067v-25.6c-0.028-9.414-7.653-17.039-17.067-17.067
		c-9.397,0.07-16.997,7.67-17.067,17.067v25.6c-0.07,9.397-7.67,16.997-17.067,17.067c-9.414-0.028-17.039-7.653-17.067-17.067
		v-25.6c-0.028-9.414-7.653-17.039-17.067-17.067c-9.397,0.07-16.997,7.67-17.067,17.067v8.533
		c-0.093-45.11-27.384-85.71-69.12-102.827c-3.012-1.245-6.088-2.328-9.216-3.243c-1.539-0.517-3.106-0.944-4.693-1.28
		c-1.109-0.341-2.304-0.597-3.413-0.853c-2.048-0.512-4.096-0.853-6.144-1.195c-1.608-0.311-3.232-0.539-4.864-0.683
		c-1.451-0.256-2.987-0.341-4.523-0.512h-0.427c-2.816-0.256-5.632-0.341-8.533-0.341c-61.251,0.038-110.896,49.682-110.933,110.933
		v-8.533c-0.07-9.397-7.67-16.997-17.067-17.067c-9.414,0.028-17.039,7.653-17.067,17.067v25.6
		c-0.028,9.414-7.653,17.039-17.067,17.067c-9.397-0.07-16.997-7.67-17.067-17.067v-25.6c-0.07-9.397-7.67-16.997-17.067-17.067
		c-9.414,0.028-17.039,7.653-17.067,17.067v25.6c-0.028,9.414-7.653,17.039-17.067,17.067c-4.528,0.024-8.871-1.793-12.032-5.035
		c-1.808-1.766-3.181-3.928-4.011-6.315c-3.096-33.915,0.826-68.104,11.52-100.437c2.892,0.588,5.838,0.874,8.789,0.853
		c21.812,0.033,40.751-15.013,45.653-36.267c4.561,1.406,9.307,2.125,14.08,2.133c25.921,0,46.933-21.013,46.933-46.933
		c0.037-5.636-1.006-11.226-3.072-16.469c17.387-7.344,28.684-24.389,28.672-43.264c0.011-3.651-0.419-7.289-1.28-10.837
		c32.811-13.637,68.168-20.068,103.68-18.859h0.256c3.669,0.171,7.339,0.341,11.093,0.683c3.157,0.171,6.4,0.512,9.643,0.939
		c1.024,0.085,1.963,0.171,2.987,0.341c3.157,0.427,6.229,0.853,9.301,1.451c0.295-0.035,0.594,0.025,0.853,0.171
		c2.901,0.427,5.717,0.939,8.533,1.621c1.581,0.26,3.148,0.601,4.693,1.024c2.475,0.512,4.949,1.109,7.339,1.792
		c0.959,0.176,1.901,0.433,2.816,0.768c2.219,0.512,4.352,1.195,6.571,1.877c3.157,0.939,6.229,1.963,9.301,3.072
		c3.243,1.109,6.4,2.219,9.472,3.499c1.109,0.427,2.133,0.853,3.157,1.28c2.901,1.195,5.717,2.389,8.533,3.755
		c0.599,0.184,1.172,0.442,1.707,0.768c3.499,1.621,6.912,3.328,10.325,5.12c3.072,1.621,6.144,3.243,9.131,5.035
		c0.768,0.427,1.536,0.853,2.219,1.28c3.328,1.963,6.571,4.011,9.728,6.144c2.56,1.707,5.12,3.413,7.68,5.291
		c11.101,7.904,21.519,16.724,31.147,26.368C483.079,128.719,509.26,201.226,502.443,274.504z"/>
	<g>
		<path style="fill:#FDD7AD;" d="M88.96,316.889c-1.057-2.91-3.607-5.019-6.663-5.512c-3.056-0.492-6.14,0.709-8.057,3.14
			c-1.917,2.431-2.368,5.709-1.177,8.567c1.172,3.004,2.418,5.976,3.738,8.917c1.184,2.875,3.838,4.878,6.928,5.228
			c3.089,0.351,6.125-1.007,7.923-3.543c1.798-2.536,2.075-5.85,0.723-8.649C91.167,322.353,90.03,319.637,88.96,316.889z"/>
		<path style="fill:#FDD7AD;" d="M190.831,418.76c-23.097-9.01-44.058-22.743-61.542-40.32c-6.488-6.489-12.479-13.458-17.92-20.847
			c-2.795-3.799-8.14-4.612-11.938-1.818c-3.799,2.795-4.612,8.14-1.818,11.938c5.961,8.079,12.522,15.698,19.627,22.793
			c19.15,19.253,42.112,34.292,67.413,44.151c2.858,1.191,6.136,0.74,8.567-1.177c2.431-1.917,3.632-5.001,3.14-8.057
			c-0.492-3.056-2.602-5.607-5.512-6.663H190.831z"/>
		<path style="fill:#FDD7AD;" d="M231.543,429.281c-2.731-0.375-5.444-0.802-8.141-1.297c-4.637-0.848-9.084,2.223-9.933,6.861
			c-0.848,4.637,2.223,9.085,6.861,9.933c2.964,0.535,5.939,1.004,8.926,1.408c0.379,0.056,0.761,0.087,1.143,0.094
			c4.466-0.035,8.15-3.508,8.447-7.964c0.298-4.456-2.891-8.388-7.312-9.017L231.543,429.281z"/>
	</g>
	<g>
		<path style="fill:#804537;" d="M503.467,490.653H486.4c-4.713,0-8.533,3.82-8.533,8.533s3.82,8.533,8.533,8.533h17.067
			c4.713,0,8.533-3.821,8.533-8.533S508.18,490.653,503.467,490.653z"/>
		<path style="fill:#804537;" d="M452.267,490.653H8.533c-4.713,0-8.533,3.82-8.533,8.533s3.821,8.533,8.533,8.533h443.733
			c4.713,0,8.533-3.821,8.533-8.533S456.98,490.653,452.267,490.653z"/>
	</g>
	<path style="fill:#2FA8CC;" d="M243.652,47.816l-17.067,8.533c-2.729,1.363-4.523,4.078-4.707,7.122s1.27,5.956,3.814,7.637
		c2.544,1.682,5.793,1.878,8.521,0.515l17.067-8.533c4.218-2.107,5.93-7.234,3.823-11.452
		C252.997,47.421,247.87,45.709,243.652,47.816z"/>
	<path style="fill:#65DDB9;" d="M451.413,145.505c-1.011-2.026-2.786-3.568-4.934-4.285c-2.148-0.717-4.493-0.551-6.518,0.462
		l-17.067,8.533c-4.218,2.107-5.93,7.234-3.823,11.452c2.107,4.218,7.234,5.93,11.452,3.823l17.067-8.533
		c2.026-1.011,3.568-2.786,4.285-4.934C452.592,149.876,452.426,147.531,451.413,145.505z"/>
	<g>
		<path style="fill:#46B29D;" d="M141.252,150.216l-17.067,8.533c-4.218,2.107-5.93,7.234-3.823,11.452
			c2.107,4.218,7.234,5.93,11.452,3.823l17.067-8.533c4.218-2.107,5.93-7.234,3.823-11.452
			C150.597,149.821,145.47,148.109,141.252,150.216z"/>
		<path style="fill:#46B29D;" d="M277.786,90.483l-17.067,8.533c-4.218,2.107-5.93,7.234-3.823,11.452
			c2.107,4.218,7.234,5.93,11.452,3.823l17.067-8.533c2.729-1.363,4.523-4.078,4.707-7.122c0.184-3.044-1.27-5.956-3.814-7.637
			C283.762,89.316,280.514,89.12,277.786,90.483z"/>
	</g>
	<g>
		<path style="fill:#F0C419;" d="M177.118,89.757c-3.674-2.96-9.051-2.381-12.011,1.293c-2.96,3.674-2.381,9.051,1.293,12.011
			l14.865,11.947c3.671,2.964,9.051,2.391,12.015-1.28c2.964-3.671,2.391-9.051-1.28-12.015L177.118,89.757z"/>
		<path style="fill:#F0C419;" d="M84.352,181.909c-3.674-2.955-9.047-2.372-12.002,1.301c-2.955,3.674-2.372,9.047,1.301,12.002
			l14.865,11.947c3.673,2.923,9.018,2.331,11.962-1.326c2.944-3.657,2.38-9.005-1.261-11.969L84.352,181.909z"/>
		<path style="fill:#F0C419;" d="M338.15,105.109c-3.674-2.955-9.047-2.372-12.002,1.301s-2.372,9.047,1.301,12.002l14.865,11.947
			c3.673,2.923,9.018,2.331,11.962-1.326s2.38-9.005-1.261-11.969L338.15,105.109z"/>
	</g>
	<g>
		<path style="fill:#B49ACA;" d="M306.347,43.105c-2.107-4.218-7.234-5.93-11.452-3.823c-4.218,2.107-5.93,7.234-3.823,11.452
			l8.533,17.067c2.107,4.218,7.234,5.93,11.452,3.823c4.218-2.107,5.93-7.234,3.823-11.452L306.347,43.105z"/>
		<path style="fill:#B49ACA;" d="M391.68,154.039c-2.107-4.218-7.234-5.93-11.452-3.823c-4.218,2.107-5.93,7.234-3.823,11.452
			l8.533,17.067c1.363,2.729,4.078,4.523,7.122,4.707c3.044,0.184,5.956-1.27,7.637-3.814c1.682-2.544,1.878-5.793,0.515-8.521
			L391.68,154.039z"/>
	</g>
	<path style="fill:#2FA8CC;" d="M384,106.653c2.956-0.002,5.701-1.533,7.255-4.048c1.554-2.515,1.695-5.655,0.374-8.3l-8.533-17.067
		c-2.107-4.218-7.234-5.93-11.452-3.823c-4.218,2.107-5.93,7.234-3.823,11.452l8.533,17.067
		C377.801,104.83,380.763,106.658,384,106.653z"/>
</g>
<g>
</g>
<g>
</g>
<g>
</g>
<g>
</g>
<g>
</g>
<g>
</g>
<g>
</g>
<g>
</g>
<g>
</g>
<g>
</g>
<g>
</g>
<g>
</g>
<g>
</g>
<g>
</g>
<g>
</g>
</svg>
