<?xml version="1.0" encoding="iso-8859-1"?>
<!-- Generator: Adobe Illustrator 19.0.0, SVG Export Plug-In . SVG Version: 6.00 Build 0)  -->
<svg version="1.1" id="Capa_1" xmlns="http://www.w3.org/2000/svg" xmlns:xlink="http://www.w3.org/1999/xlink" x="0px" y="0px"
	 viewBox="0 0 512.048 512.048" style="enable-background:new 0 0 512.048 512.048;" xml:space="preserve">
<g transform="translate(0 -1)">
	<g transform="translate(1 2)">
		<g>
			<path style="fill:#F57C00;" d="M237.446,364.616c-5.813,0.931-11.692,1.387-17.579,1.365
				c-61.251-0.038-110.896-49.682-110.933-110.933v-34.133h35.157v34.133C144.148,309.515,183.678,355.911,237.446,364.616z"/>
			<path style="fill:#F57C00;" d="M501.467,277.832v0.085c-12.394,134.058-129.739,233.577-264.021,223.915
				c120.836-8.503,217.721-103.293,228.864-223.915v-0.085l-7.509-56.917h35.157L501.467,277.832z"/>
		</g>
		<path style="fill:#FF9801;" d="M476.891,277.832v0.085c-11.143,120.621-108.028,215.411-228.864,223.915
			C127.129,493.467,30.169,398.604,19.163,277.917v-0.085l7.509-56.917h92.843v34.133c0.038,61.251,49.682,110.896,110.933,110.933
			c5.887,0.022,11.766-0.435,17.579-1.365c5.813,0.931,11.692,1.387,17.579,1.365c28.564-0.558,55.622-12.914,74.752-34.133
			c20.992-20.907,25.6-47.189,25.6-76.8l10.581-34.133h92.843L476.891,277.832z"/>
		<g>
			<path style="fill:#AD1457;" d="M237.872,145.395c-53.961,8.536-93.718,55.021-93.781,109.653v-8.533
				c-0.07-9.397-7.67-16.997-17.067-17.067c-7.377,0.024-13.909,4.769-16.213,11.776c7.016-55.465,54.173-97.066,110.08-97.109
				c2.901,0,5.717,0.085,8.533,0.341h0.427c1.536,0.171,3.072,0.256,4.523,0.512C235.568,145.053,236.763,145.224,237.872,145.395z"
				/>
			<path style="fill:#AD1457;" d="M365.958,246.515v8.533c0.019-4.622-0.266-9.24-0.853-13.824
				C365.698,242.924,365.987,244.715,365.958,246.515z"/>
			<path style="fill:#AD1457;" d="M501.467,277.832v0.085c-0.831,2.361-2.205,4.495-4.011,6.229
				c-3.161,3.241-7.504,5.059-12.032,5.035c-9.414-0.028-17.039-7.653-17.067-17.067v-25.6c0.003-0.916-0.082-1.831-0.256-2.731
				c-2.768-61.685-28.521-120.102-72.192-163.755c-9.627-9.644-20.046-18.464-31.147-26.368c-2.56-1.877-5.12-3.584-7.68-5.291
				c-3.157-2.133-6.4-4.181-9.728-6.144c-0.683-0.427-1.451-0.853-2.219-1.28c-2.987-1.792-6.059-3.413-9.131-5.035
				c-3.413-1.792-6.827-3.499-10.325-5.12c-0.535-0.326-1.108-0.584-1.707-0.768c-2.816-1.365-5.632-2.56-8.533-3.755
				c-1.024-0.427-2.048-0.853-3.157-1.28c-3.072-1.28-6.229-2.389-9.472-3.499c-3.072-1.109-6.144-2.133-9.301-3.072
				c-2.219-0.683-4.352-1.365-6.571-1.877c-0.915-0.335-1.857-0.592-2.816-0.768c-2.389-0.683-4.864-1.28-7.339-1.792
				c-1.546-0.423-3.112-0.764-4.693-1.024c-2.816-0.683-5.632-1.195-8.533-1.621c-0.259-0.146-0.558-0.206-0.853-0.171
				c-3.072-0.597-6.144-1.024-9.301-1.451c-1.024-0.171-1.963-0.256-2.987-0.341c-3.243-0.427-6.485-0.768-9.643-0.939
				c-0.793-0.099-1.59-0.156-2.389-0.171c8.375-0.64,16.779-0.811,25.173-0.512h0.256c3.669,0.171,7.339,0.341,11.093,0.683
				c3.157,0.171,6.4,0.512,9.643,0.939c1.024,0.085,1.963,0.171,2.987,0.341c3.157,0.427,6.229,0.853,9.301,1.451
				c0.295-0.035,0.594,0.025,0.853,0.171c2.901,0.427,5.717,0.939,8.533,1.621c1.581,0.26,3.148,0.601,4.693,1.024
				c2.475,0.512,4.949,1.109,7.339,1.792c0.959,0.176,1.901,0.433,2.816,0.768c2.219,0.512,4.352,1.195,6.571,1.877
				c3.157,0.939,6.229,1.963,9.301,3.072c3.243,1.109,6.4,2.219,9.472,3.499c1.109,0.427,2.133,0.853,3.157,1.28
				c2.901,1.195,5.717,2.389,8.533,3.755c0.599,0.184,1.172,0.442,1.707,0.768c3.499,1.621,6.912,3.328,10.325,5.12
				c3.072,1.621,6.144,3.243,9.131,5.035c0.768,0.427,1.536,0.853,2.219,1.28c3.328,1.963,6.571,4.011,9.728,6.144
				c2.56,1.707,5.12,3.413,7.68,5.291c11.101,7.904,21.519,16.724,31.147,26.368C482.103,132.048,508.284,204.554,501.467,277.832z"
				/>
		</g>
		<g>
			<path style="fill:#E91E63;" d="M468.102,243.784c-1.337-8.25-8.453-14.318-16.811-14.336c-9.397,0.07-16.997,7.67-17.067,17.067
				v25.6c-0.07,9.397-7.67,16.997-17.067,17.067c-9.414-0.028-17.039-7.653-17.067-17.067v-25.6
				c-0.028-9.414-7.653-17.039-17.067-17.067c-9.397,0.07-16.997,7.67-17.067,17.067c0.029-1.8-0.26-3.591-0.853-5.291
				c-5.089-39.787-31.158-73.775-68.267-89.003c-3.012-1.245-6.088-2.328-9.216-3.243c-1.539-0.517-3.106-0.944-4.693-1.28
				c-1.109-0.341-2.304-0.597-3.413-0.853c-2.048-0.512-4.096-0.853-6.144-1.195c-1.608-0.311-3.232-0.539-4.864-0.683
				c-1.451-0.256-2.987-0.341-4.523-0.512h-0.427c-2.816-0.256-5.632-0.341-8.533-0.341c-5.741-0.005-11.475,0.423-17.152,1.28
				c-1.109-0.171-2.304-0.341-3.499-0.427c-1.451-0.256-2.987-0.341-4.523-0.512h-0.427c-2.816-0.256-5.632-0.341-8.533-0.341
				c-55.907,0.044-103.064,41.644-110.08,97.109c-0.594,1.7-0.883,3.491-0.853,5.291v25.6c-0.028,9.414-7.653,17.039-17.067,17.067
				c-9.397-0.07-16.997-7.67-17.067-17.067v-25.6c-0.07-9.397-7.67-16.997-17.067-17.067c-9.414,0.028-17.039,7.653-17.067,17.067
				v25.6c-0.028,9.414-7.653,17.039-17.067,17.067c-4.528,0.024-8.871-1.793-12.032-5.035c-1.808-1.766-3.181-3.928-4.011-6.315
				c-0.683-7.509-1.024-15.019-1.024-22.528c0-3.925,0.085-7.936,0.256-11.861c0.059-0.104,0.089-0.222,0.085-0.341
				c1.035-22.358,5.141-44.468,12.203-65.707c2.892,0.588,5.838,0.874,8.789,0.853c21.812,0.033,40.751-15.013,45.653-36.267
				c4.561,1.406,9.307,2.125,14.08,2.133c25.921,0,46.933-21.013,46.933-46.933c0.037-5.636-1.006-11.226-3.072-16.469
				c17.387-7.344,28.684-24.389,28.672-43.264c0.011-3.651-0.419-7.289-1.28-10.837c24.973-10.42,51.502-16.62,78.507-18.347
				c0.799,0.014,1.597,0.071,2.389,0.171c3.157,0.171,6.4,0.512,9.643,0.939c1.024,0.085,1.963,0.171,2.987,0.341
				c3.157,0.427,6.229,0.853,9.301,1.451c0.295-0.035,0.594,0.025,0.853,0.171c2.901,0.427,5.717,0.939,8.533,1.621
				c1.581,0.26,3.148,0.601,4.693,1.024c2.475,0.512,4.949,1.109,7.339,1.792c0.959,0.176,1.901,0.433,2.816,0.768
				c2.219,0.512,4.352,1.195,6.571,1.877c3.157,0.939,6.229,1.963,9.301,3.072c3.243,1.109,6.4,2.219,9.472,3.499
				c1.109,0.427,2.133,0.853,3.157,1.28c2.901,1.195,5.717,2.389,8.533,3.755c0.599,0.184,1.172,0.442,1.707,0.768
				c3.499,1.621,6.912,3.328,10.325,5.12c3.072,1.621,6.144,3.243,9.131,5.035c0.768,0.427,1.536,0.853,2.219,1.28
				c3.328,1.963,6.571,4.011,9.728,6.144c2.56,1.707,5.12,3.413,7.68,5.291c11.101,7.904,21.519,16.724,31.147,26.368
				C439.581,123.682,465.334,182.099,468.102,243.784z"/>
			<path style="fill:#E91E63;" d="M110.811,241.224c-0.587,4.584-0.872,9.202-0.853,13.824v-8.533
				C109.928,244.715,110.217,242.924,110.811,241.224z"/>
		</g>
	</g>
	<g>
		<path d="M74.973,438.1c25.375,25.38,55.831,45.106,89.37,57.882H8.558c-4.713,0-8.533,3.821-8.533,8.533
			c0,4.713,3.821,8.533,8.533,8.533h443.733c4.713,0,8.533-3.82,8.533-8.533c0-4.713-3.821-8.533-8.533-8.533H347.706
			c33.538-12.776,63.995-32.502,89.37-57.882c42.216-42.181,68.295-97.836,73.694-157.269c0.113-0.599,0.158-1.209,0.137-1.818
			c7.792-89.157-31.589-175.902-103.837-228.721s-166.851-64.03-249.443-29.557c-3.883,1.613-6.012,5.814-5.018,9.899
			c0.695,2.886,1.036,5.846,1.015,8.815c0.011,15.447-9.235,29.397-23.467,35.405c-4.279,1.81-6.323,6.711-4.599,11.025
			c1.666,4.236,2.503,8.752,2.466,13.303c-0.023,21.198-17.202,38.376-38.4,38.4c-3.921-0.002-7.819-0.594-11.563-1.758
			c-2.268-0.701-4.725-0.426-6.781,0.76c-2.056,1.185-3.526,3.173-4.056,5.487c-3.951,17.415-19.476,29.743-37.333,29.645
			c-2.358,0.022-4.712-0.204-7.023-0.674c-4.254-0.897-8.502,1.547-9.865,5.675c-7.641,23.076-11.985,47.116-12.902,71.407
			c0,0.137-0.077,0.256-0.077,0.393v8.738C-0.113,325.119,26.87,390.226,74.973,438.1z M424.984,426.008
			c-62.966,62.864-155.626,85.576-240.525,58.955c-84.9-26.621-148.002-98.173-163.801-185.735
			c7.514,1.486,15.299-0.471,21.218-5.334s9.349-12.12,9.349-19.78v-25.6c0-4.713,3.821-8.533,8.533-8.533s8.533,3.82,8.533,8.533
			v25.6c0,14.138,11.462,25.6,25.6,25.6s25.6-11.462,25.6-25.6v-25.6c0-4.713,3.821-8.533,8.533-8.533
			c4.713,0,8.533,3.82,8.533,8.533v8.533c0,65.98,53.487,119.467,119.467,119.467s119.467-53.487,119.467-119.467v-8.533
			c0-4.713,3.82-8.533,8.533-8.533s8.533,3.82,8.533,8.533v25.6c0,14.138,11.462,25.6,25.6,25.6c14.138,0,25.6-11.462,25.6-25.6
			v-25.6c0-4.713,3.821-8.533,8.533-8.533c4.713,0,8.533,3.82,8.533,8.533v25.6c0,14.138,11.462,25.6,25.6,25.6
			c1.552-0.012,3.1-0.163,4.625-0.452C482.558,347.29,459.492,391.541,424.984,426.008z M183.619,184.643
			c34.545-34.543,88.68-39.873,129.299-12.73c40.618,27.143,56.407,79.198,37.71,124.331
			c-18.697,45.133-66.672,70.774-114.585,61.241c-47.913-9.533-82.421-51.584-82.418-100.436
			C153.55,229.875,164.351,203.803,183.619,184.643z M27.109,188.713c0.913,0.068,1.843,0.068,2.782,0.068
			c22.667,0.112,43.086-13.684,51.439-34.756c15.977,2.416,32.214-2.255,44.464-12.792c12.251-10.537,19.297-25.893,19.297-42.052
			c0.008-4.082-0.441-8.152-1.34-12.134c16.722-10.028,26.95-28.1,26.94-47.599c0-1.86-0.085-3.678-0.265-5.47
			C247.363,4.392,334.12,16.595,399.909,66.256s101.3,129.753,93.931,211.852c-0.393,0.772-0.908,1.476-1.527,2.082
			c-1.548,1.584-3.673,2.471-5.888,2.458c-4.713,0-8.533-3.82-8.533-8.533v-25.6c0-14.138-11.462-25.6-25.6-25.6
			c-14.138,0-25.6,11.462-25.6,25.6v25.6c0,4.713-3.821,8.533-8.533,8.533s-8.533-3.82-8.533-8.533v-25.6
			c0-14.138-11.462-25.6-25.6-25.6c-4.438,0.028-8.791,1.222-12.621,3.465c-13.849-52.359-61.219-88.828-115.379-88.828
			s-101.53,36.469-115.379,88.828c-3.83-2.242-8.183-3.437-12.621-3.465c-14.138,0-25.6,11.462-25.6,25.6v25.6
			c0,4.713-3.821,8.533-8.533,8.533c-4.713,0-8.533-3.82-8.533-8.533v-25.6c0-14.138-11.462-25.6-25.6-25.6s-25.6,11.462-25.6,25.6
			v25.6c0,4.713-3.821,8.533-8.533,8.533c-2.33,0-4.555-0.968-6.144-2.671c-0.658-0.683-1.18-1.485-1.536-2.364
			c-0.569-6.741-0.853-13.511-0.853-20.309v-0.085v-5.973C17.656,230.051,21.025,209.024,27.109,188.713z"/>
		<path d="M88.984,322.217c-1.057-2.91-3.607-5.019-6.663-5.512c-3.056-0.492-6.14,0.709-8.057,3.14
			c-1.917,2.431-2.368,5.709-1.177,8.567c1.172,3.004,2.418,5.976,3.738,8.917c1.184,2.875,3.838,4.878,6.928,5.228
			c3.089,0.351,6.125-1.007,7.923-3.543c1.798-2.536,2.075-5.85,0.723-8.649C91.192,327.681,90.054,324.965,88.984,322.217z"/>
		<path d="M190.855,424.088c-23.097-9.01-44.058-22.743-61.542-40.32c-6.488-6.489-12.479-13.458-17.92-20.847
			c-2.795-3.799-8.14-4.612-11.938-1.818s-4.612,8.14-1.818,11.938c5.961,8.079,12.522,15.698,19.627,22.793
			c19.15,19.253,42.112,34.292,67.413,44.151c2.858,1.191,6.136,0.74,8.567-1.177c2.431-1.917,3.632-5.001,3.14-8.057
			c-0.492-3.056-2.602-5.607-5.512-6.663H190.855z"/>
		<path d="M231.568,434.61c-2.731-0.375-5.444-0.802-8.141-1.297c-4.637-0.848-9.084,2.223-9.933,6.861
			c-0.848,4.637,2.223,9.085,6.861,9.933c2.964,0.535,5.939,1.004,8.926,1.408c0.379,0.056,0.761,0.087,1.143,0.094
			c4.466-0.035,8.15-3.508,8.447-7.964c0.298-4.456-2.891-8.388-7.312-9.017L231.568,434.61z"/>
		<path d="M503.491,495.981h-17.067c-4.713,0-8.533,3.821-8.533,8.533c0,4.713,3.821,8.533,8.533,8.533h17.067
			c4.713,0,8.533-3.82,8.533-8.533C512.024,499.802,508.204,495.981,503.491,495.981z"/>
		<path d="M230.424,77.848c1.321,0,2.624-0.307,3.806-0.896l17.067-8.533c4.218-2.107,5.93-7.234,3.823-11.452
			s-7.234-5.93-11.452-3.823l-17.067,8.533c-3.547,1.768-5.41,5.744-4.498,9.601C223.015,75.134,226.462,77.856,230.424,77.848z"/>
		<path d="M426.691,171.715c1.321,0,2.624-0.307,3.806-0.896l17.067-8.533c2.729-1.363,4.523-4.078,4.707-7.122
			c0.184-3.044-1.27-5.956-3.814-7.637c-2.544-1.682-5.793-1.878-8.521-0.515l-17.067,8.533c-3.547,1.768-5.41,5.744-4.498,9.601
			C419.282,169.001,422.728,171.722,426.691,171.715z"/>
		<path d="M128.024,180.248c1.321,0,2.624-0.307,3.806-0.896l17.067-8.533c4.218-2.107,5.93-7.234,3.823-11.452
			c-2.107-4.218-7.234-5.93-11.452-3.823l-17.067,8.533c-3.547,1.768-5.41,5.744-4.498,9.601
			C120.615,177.534,124.062,180.256,128.024,180.248z"/>
		<path d="M264.558,120.515c1.321,0,2.624-0.307,3.806-0.896l17.067-8.533c2.729-1.363,4.523-4.078,4.707-7.122
			c0.184-3.044-1.27-5.956-3.814-7.637c-2.544-1.682-5.793-1.878-8.521-0.515l-17.067,8.533c-3.547,1.768-5.41,5.744-4.498,9.601
			C257.148,117.801,260.595,120.522,264.558,120.515z"/>
		<path d="M181.306,120.344c3.674,2.96,9.051,2.381,12.011-1.293c2.96-3.674,2.381-9.051-1.293-12.011l-14.865-11.947
			c-2.375-1.918-5.592-2.423-8.441-1.325c-2.848,1.098-4.894,3.632-5.367,6.647c-0.473,3.016,0.698,6.054,3.073,7.972
			L181.306,120.344z"/>
		<path d="M88.541,212.496c3.673,2.923,9.018,2.331,11.962-1.326c2.944-3.657,2.38-9.005-1.261-11.969l-14.865-11.947
			c-3.674-2.955-9.047-2.372-12.002,1.301c-2.955,3.674-2.372,9.047,1.301,12.002L88.541,212.496z"/>
		<path d="M342.339,135.696c3.673,2.923,9.018,2.331,11.962-1.326c2.944-3.657,2.38-9.005-1.261-11.969l-14.865-11.947
			c-3.674-2.955-9.047-2.372-12.002,1.301c-2.955,3.674-2.372,9.047,1.301,12.002L342.339,135.696z"/>
		<path d="M299.544,73.129c2.107,4.218,7.234,5.93,11.452,3.823c4.218-2.107,5.93-7.234,3.823-11.452l-8.533-17.067
			c-1.363-2.729-4.078-4.523-7.122-4.707c-3.044-0.184-5.956,1.27-7.637,3.814c-1.682,2.544-1.878,5.793-0.515,8.521L299.544,73.129
			z"/>
		<path d="M380.21,155.544c-2.026,1.011-3.568,2.786-4.285,4.934c-0.717,2.148-0.551,4.493,0.462,6.518l8.533,17.067
			c1.363,2.729,4.078,4.523,7.122,4.707s5.956-1.27,7.637-3.814c1.682-2.544,1.878-5.793,0.515-8.521l-8.533-17.067
			c-1.011-2.026-2.786-3.568-4.934-4.285C384.58,154.365,382.235,154.531,380.21,155.544z"/>
		<path d="M376.387,107.262c2.107,4.218,7.234,5.93,11.452,3.823c4.218-2.107,5.93-7.234,3.823-11.452l-8.533-17.067
			c-2.107-4.218-7.234-5.93-11.452-3.823c-4.218,2.107-5.93,7.234-3.823,11.452L376.387,107.262z"/>
	</g>
</g>
<g>
</g>
<g>
</g>
<g>
</g>
<g>
</g>
<g>
</g>
<g>
</g>
<g>
</g>
<g>
</g>
<g>
</g>
<g>
</g>
<g>
</g>
<g>
</g>
<g>
</g>
<g>
</g>
<g>
</g>
</svg>
