<svg height="512" viewBox="0 0 60 60" width="512" xmlns="http://www.w3.org/2000/svg"><g id="025---Cheese-and-Strawberries" fill="none"><g id="Icons" transform="translate(1 1)"><path id="Shape" d="m2.26 23.42c-.24911307.2804272-.48279144.5741943-.7.88.21655694-.3062952.45026344-.6000977.7-.88z" fill="#fec108"/><path id="Shape" d="m40.8 43.01c.967982 2.4989966 3.555884 3.9766052 6.2 3.54v9.93c-.0298925.8660554-.7537976 1.5452749-1.62 1.52h-43.76c-.86620244.0252749-1.59010746-.6539446-1.62-1.52v-26.48h39.97c2.1039401 1.9333325 4.4707046 3.559431 7.03 4.83v1.21c-3.824-.588-7.563 2.867-6.2 6.97z" fill="#ffdc00"/><path id="Shape" d="m44.11 36.36c.9202426-.3515356 1.9151433-.4616976 2.89-.32v-1.21c-2.5580367-1.2727093-4.9245134-2.8986101-7.03-4.83h-3c2.1039401 1.9333325 4.4707046 3.559431 7.03 4.83v1.21c-3.885-.6-7.55 2.907-6.2 6.97.967982 2.4989966 3.555884 3.9766052 6.2 3.54v9.93c-.0298925.8660554-.7537976 1.5452749-1.62 1.52h3c.8662024.0252749 1.5901075-.6539446 1.62-1.52v-9.93c-.9766771.1374467-1.9721416.0344677-2.9-.3-2.1410425-.6987851-3.5888756-2.6964418-3.5865983-4.9486315.0022772-2.2521898 1.454147-4.2469145 3.5965983-4.9413685z" fill="#fec108"/><path id="Shape" d="m11 51c-.0009336 1.4556384-1.0466857 2.7005654-2.48031794 2.9527216-1.43363224.2521561-2.84141291-.5612283-3.33897844-1.9291876-.49756554-1.3679593.05867643-2.8957143 1.31929638-3.623534.92850089-.5360705 2.07250429-.5358873 3.00083341.0004806.92832909.536368 1.49985429 1.527379 1.49916659 2.5995194z" fill="#783e22"/><path id="Shape" d="m30 48c.0003396 2.008168-1.4900945 3.7044861-3.4816118 3.9625511s-3.8650895-1.0023381-4.3766117-2.944266c-.5115221-1.9419279.4980036-3.9617662 2.3582235-4.7182851 1.231661-.4982346 2.630331-.3523962 3.732715.3892075 1.1023839.7416037 1.7645959 1.982177 1.767285 3.3107925z" fill="#783e22"/><path id="Shape" d="m6.5 53.6c-.93008329-.5353928-1.50333705-1.526827-1.50333705-2.6s.57325376-2.0646072 1.50333705-2.6c.93008329.5353928 1.50333705 1.526827 1.50333705 2.6s-.57325376 2.0646072-1.50333705 2.6z" fill="#a0522d"/><path id="Shape" d="m24.5 51.7c-1.5087556-.6089468-2.4966481-2.0729906-2.4966481-3.7s.9878925-3.0910532 2.4966481-3.7c1.5087556.6089468 2.4966481 2.0729906 2.4966481 3.7s-.9878925 3.0910532-2.4966481 3.7z" fill="#a0522d"/><path id="Shape" d="m10.5 39.84c-2.08373738-.4580944-3.84480924-1.8414712-4.78332948-3.7574545-.93852023-1.9159832-.95202117-4.1553856-.03667052-6.0825455h12.64c1.1451694 2.4124645.8179572 5.2663113-.8435254 7.3569748-1.6614825 2.0906635-4.3677293 3.0538547-6.9764746 2.4830252z" fill="#f57c00"/><path id="Shape" d="m10.5 39.84c-2.08373738-.4580944-3.84480924-1.8414712-4.78332948-3.7574545-.93852023-1.9159832-.95202117-4.1553856-.03667052-6.0825455h9.64c.9153507 1.9271599.9018497 4.1665623-.0366705 6.0825455-.9385203 1.9159833-2.6995921 3.2993601-4.7833295 3.7574545z" fill="#ff9801"/><path id="Shape" d="m39.97 30h-39.97v-2.37c.27-1.84 2.19-4.9 5.49-6.92 4.6-2.76 9.45-3.47 14.81-3.69.6799868-.1122529 1.3776445-.0397241 2.02.21 7.17 3.69 10.47 5.4 12.45 6.43 1.3416843 2.4063162 3.1027152 4.5534192 5.2 6.34z" fill="#ffeb3a"/><path id="Shape" d="m34.77 23.66c-1.98-1.03-5.28-2.74-12.45-6.43-.627-.324-1.233-.263-3.364-.137.405.116 12.713 6.514 12.814 6.567 1.3416843 2.4063162 3.1027152 4.5534192 5.2 6.34h3c-2.0972848-1.7865808-3.8583157-3.9336838-5.2-6.34z" fill="#fdd834"/><path id="Shape" d="m18.12 17.13c-.53.04-1.04.09-1.54.14.336-.046 1.071-.108 1.54-.14z" fill="#fdd834"/><path id="Shape" d="m53.06 8.54c-1.9047083-.85454339-3.9725234-1.28448513-6.06-1.26-3.0910454-.11984944-6.1265457.84599156-8.58 2.73-1.7246588 1.1820875-3.168671 2.7285119-4.23 4.53-.55.11-2.58.26-4.11-2.7.6933916-.6216224 1.5384866-1.049344 2.45-1.24-1.4147735-.2173112-2.57834-1.2291082-2.99-2.6 0 0 2.73-3.05 6.17-1.8l.03-.01c-.2537912-.9075992-.3083712-1.85933772-.16-2.79 1.1516328-.29398691 2.3692239-.18458017 3.45.31l.03-.08s-.38-1.22.9-3.63c2.43 1.23 2.82 2.45 2.82 2.45l.07.04c.6003499-1.02458324 1.5313313-1.81450684 2.64-2.24.6575841.67472396 1.1623343 1.48300632 1.48 2.37l.03-.01c2.08-3.01 6.08-2.1 6.08-2.1.4552645 1.35722694.0895041 2.855288-.94 3.85.8568604-.36616471 1.7940007-.50397947 2.72-.4.46 3.3-1.29 4.35-1.8 4.58z" fill="#549414"/><path id="Shape" d="m50.45 8.26v-.01l-.01.03c.01-.01.01-.01.01-.02z" fill="#549414"/><path id="Shape" d="m56.44 27.52c-.589701 2.2731701-1.6228265 4.4073898-3.04 6.28-1.45 1.67-3.8 2.26-6.4 1.03-2.5586372-1.2716886-4.9252509-2.8976835-7.03-4.83-3.4-3.01-6.45-6.98-6.72-11.55-.15-3.544 2.309-6.342 5.17-8.44 2.4534543-1.88400844 5.4889546-2.84984944 8.58-2.73 3.569.068 7.123.925 9.08 3.91 2.95 4.73 2.05 11 .36 16.33z" fill="#f44335"/><path id="Shape" d="m56.08 11.19c-2.209-3.369-6.758-4.17-10.752-3.837 3.1.253 6.03 1.21 7.752 3.837 2.95 4.73 2.05 11 .36 16.33-.953 2.991-2.321 6.822-5.273 7.735 4.765 1.314 6.773-3.024 8.273-7.735 1.69-5.33 2.59-11.6-.36-16.33z" fill="#c81e1e"/><path id="Shape" d="m36.22 11.88c-.8069488.7792109-1.4913607 1.6760265-2.03 2.66-.55.11-2.58.26-4.11-2.7 2.091-1.879 4.729-1.607 6.14.04z" fill="#60a917"/><path id="Shape" d="m36.24 11.89c-.01 0-.01-.01-.02-.01" fill="#24ae5f"/><path id="Shape" d="m53.06 8.54c-1.0086711-.48972399-2.0832784-.82996017-3.19-1.01.2-2.139 2.135-3.877 4.99-3.57.46 3.3-1.29 4.35-1.8 4.58z" fill="#60a917"/><path id="Shape" d="m49.87 7.53v.01c0 .01 0 .01-.01.02" fill="#24ae5f"/><path id="Shape" d="m47 7.13v.15c-3.0910339-.11976453-6.126506.8460675-8.58 2.73-1.2816754-.95122915-2.2216999-2.29111487-2.68-3.82-.2537912-.9075992-.3083712-1.85933772-.16-2.79 1.1516328-.29398691 2.3692239-.18458017 3.45.31 1.4960274.74567165 2.6563654 2.02739886 3.25 3.59-.4123854-1.61858582-.209266-3.33262859.57-4.81.6003499-1.02458324 1.5313313-1.81450684 2.64-2.24 1.7654776 1.8224003 2.3500216 4.48575322 1.51 6.88z" fill="#60a917"/></g><g id="Layer_10" fill="#000" transform="translate(-1 -1)"><path id="Shape" d="m10 49c-2.209139 0-4 1.790861-4 4s1.790861 4 4 4 4-1.790861 4-4-1.790861-4-4-4zm0 6c-1.1045695 0-2-.8954305-2-2s.8954305-2 2-2 2 .8954305 2 2-.8954305 2-2 2z"/><path id="Shape" d="m28 45c-2.7614237 0-5 2.2385763-5 5s2.2385763 5 5 5 5-2.2385763 5-5c-.0033061-2.7600532-2.2399468-4.9966939-5-5zm0 8c-1.6568542 0-3-1.3431458-3-3s1.3431458-3 3-3 3 1.3431458 3 3-1.3431458 3-3 3z"/><circle id="Oval" cx="28" cy="41" r="1"/><circle id="Oval" cx="40" cy="53" r="1"/><circle id="Oval" cx="16" cy="47" r="1"/><circle id="Oval" cx="36" cy="38" r="1"/><path id="Shape" d="m58.926 12.654c-.5624976-.8718722-1.2869005-1.6278446-2.134-2.227 1.0183895-1.30007709 1.4054017-2.98592561 1.056-4.6-.0631847-.45162941-.4239114-.80330705-.877-.855-.2910915-.03316185-.5840983-.0465259-.877-.04.2529429-.89990369.2285469-1.85518032-.07-2.741-.1116899-.32853967-.3857154-.57569245-.724-.653-2.1253415-.45108811-4.3419164.03897221-6.079 1.344-.2878266-.47833949-.6268194-.92395916-1.011-1.329-.2651001-.27135935-.6609218-.36934652-1.022-.253-.8954932.31131456-1.7000606.83933337-2.342 1.537-.7088481-.71099958-1.5336484-1.29603625-2.439-1.73-.4864608-.24582337-1.080183-.05681066-1.335.425-.4903667.87563448-.828505 1.82817004-1 2.817-.9272725-.19837931-1.8892419-.16402326-2.8.1-.3616379.11508157-.6269679.42495596-.685.8-.0800142.55256479-.0994627 1.11221372-.058 1.669-2.1681384-.0576027-4.2559012.82210746-5.729 2.414-.2307647.25797952-.3117124.61694873-.214.949.2681443.8954512.7999348 1.6893035 1.526 2.278-.2424137.1636904-.4735972.3434256-.692.538-.3405684.3037356-.4323159.7995016-.223 1.205.6466321 1.5197022 1.9364878 2.6724718 3.519 3.145-.6523548 1.9774785-.6203015 4.1169516.091 6.074-11.428-5.906-10.58-5.521-10.927-5.521-20.88 0-22.797 11.011-22.869 11.479-.019.13-.011-1.737-.011 29 .02899054 1.4189253 1.20101052 2.5466591 2.62 2.521h43.76c1.4183899.0251102 2.5899218-1.1017067 2.62-2.52v-9.93c-.0000075-.2950302-.1302944-.5750006-.356-.765-.446-.375-.8-.179-1.405-.175-4.083 0-5.893-4-3.942-6.7 1.0591574-1.411414 2.8048062-2.1313839 4.551-1.877.2520326.0439152.5111559-.0149089.7195236-.1633403s.3486305-.3741115.3894764-.6266597c.5572407.1746986 1.138019.2627259 1.722.261 4.5 0 6.35-4.4 7.712-8.68 1.773-5.578 2.657-12.255-.465-17.17zm-5.832-3.878c.4993475-1.12144294 1.6134132-1.84258577 2.841-1.839.1061067.92697144-.242156 1.84809847-.935 2.473-.6167776-.26349328-1.2542818-.47554872-1.906-.634zm1.163-5.376c.0783107.79616595-.196154 1.58666793-.751 2.163-1.1575941.5937794-2.0283729 1.62740144-2.417 2.869-.281-.032-.559-.066-.851-.086.2184566-1.15848182.1667841-2.35173939-.151-3.487 1.0788359-1.12188154 2.6270632-1.66357548 4.17-1.459zm-7.035.065c1.0472814 1.37773549 1.4074957 3.15854931.978 4.835-1.0086025.01237319-2.0127289.13646363-2.994.37-.483-3.248 1.094-4.67 2.016-5.203zm-4.822-.058c.5008842.3019078.9416264.69382935 1.3 1.156-.919 2.05.244 1.68-1.69.537.0250852-.58347372.1572849-1.15735597.39-1.693zm.768 5.9c-.9397363.37886531-1.8345423.8608129-2.668 1.437-1.3183655-1.11798099-2.0547383-2.77629263-2-4.504 1.067-.103 3.189.132 4.671 3.069zm-6.2-.276c.3953751 1.1095203 1.04187 2.1126312 1.889 2.931-.227.186-.434.374-.645.562-1.0332108-.7881018-2.3396522-1.1282233-3.626-.944-.7866118-.1490806-1.4682958-.6355801-1.865-1.331 1.1429614-1.05763285 2.7205927-1.50902101 4.25-1.216zm-3.568 5.069c.9994503-.7110384 2.3241562-.7659241 3.379-.14-.4412058.5058245-.8392642 1.0477192-1.19 1.62-.9255043-.1118284-1.7404087-.6627916-2.189-1.48zm-9.762 5.9c29.117 15.054-4.3-2.136 12.434 6.436.9500883 1.6586951 2.1040581 3.1919464 3.435 4.564h-36.507v-1.278c.171-.814 2.467-9.644 20.638-9.722zm-9.638 21c-1.9473048-.0009263-3.7730506-.9468279-4.89694943-2.5370632-1.1238988-1.5902354-1.40615247-3.6270001-.75705057-5.4629368h11.308c.6491019 1.8359367.3668482 3.8727014-.7570506 5.4629368-1.1238988 1.5902353-2.9496446 2.5361369-4.8969494 2.5370632zm28.675-1.265c-2.806 3.89-.321 9.7 5.325 9.871v8.874c-.0336362.3116274-.3072757.5411315-.62.52h-43.76c-.31272429.0211315-.58636383-.2083726-.62-.52v-25.48h3.262c-.83972945 3.2378458.42523201 6.6561643 3.17040015 8.5674055 2.74516815 1.9112411 6.39003155 1.9112411 9.13519975 0 2.7451681-1.9112412 4.0101295-5.3295597 3.1704001-8.5674055h19.868c1.7252473 1.5220443 3.5886446 2.8799206 5.566 4.056-1.7993257.2489185-3.4213955 1.2152349-4.497 2.679zm14.809-10.522c-2.731 8.587-5.592 9.174-12.484 3.971-4.137-3.121-8.485-7.632-8.744-12.786-.142-2.82 1.691-5.532 5.447-8.059 2.9229372-1.865956 6.4551425-2.52687802 9.855-1.844l.019.01c.0304408.0049785.0611715.0079848.092.009 2.623.438 4.492 1.511 5.571 3.212 2.767 4.362 1.811 10.562.244 15.487z"/><path id="Shape" d="m52.607 32.192c-.1678946-.5266035-.7308965-.8173946-1.2575-.6495s-.8173946.7308965-.6495 1.2575l.3.952c.0953806.3547696.3776047.628677.7350677.7134065.3574631.0847296.7326029-.0333627.9770719-.3075777.244469-.2742149.3189003-.6603958.1938604-1.0058288z"/><path id="Shape" d="m48.648 30.61-1.256-.65c-.3180611-.171815-.7040903-.158593-1.00965.034582-.3055597.1931749-.4830722.5362239-.4642796.8972366.0187927.3610126.2309642.6837766.5549296.8441814l1.256.65c.4887312.2419852 1.0812271.0477604 1.3318585-.4365937.2506315-.4843542.0669656-1.0802078-.4128585-1.3394063z"/><path id="Shape" d="m55.017 27.536c-.2355087-.1220192-.5098461-.1454757-.7626507-.0652084-.2528046.0802674-.463364.2576822-.5853493.4932084l-.65 1.256c-.176142.3182806-.1655526.7071076.0276516 1.0153293.1932042.3082218.5385445.4872151.9017743.4673985.3632297-.0198165.6870478-.2353168.8455741-.5627278l.65-1.256c.2542427-.49016.0630879-1.0936183-.427-1.348z"/><path id="Shape" d="m51.4 28.38-.3-.953c-.1082515-.3404741-.3899207-.5973337-.7389057-.6738222-.348985-.0764886-.7122665.0390144-.953.303s-.3223458.6363481-.2140943.9768222l.3.953c.1673423.5263274.7296726.8173422 1.256.65.5263273-.1673423.8173423-.7296726.65-1.256z"/><path id="Shape" d="m46.18 26.148-1.256-.648c-.3180611-.171815-.7040903-.158593-1.00965.034582-.3055597.1931749-.4830722.5362239-.4642796.8972366.0187927.3610126.2309642.6837766.5549296.8441814 1.309.677 1.391.762 1.715.762.4627034.0018765.8662689-.3139261.9756912-.763509s-.1038779-.9155222-.5156912-1.126491z"/><path id="Shape" d="m52.456 24.152c-.1641635.3174305-.1465098.6983285.0463113.9992136.1928211.300885.5315154.4760454.8885.4595.3569847-.0165455.6780252-.2222831.8421887-.5397136l.65-1.256c.2537748-.4909811.0614811-1.0947251-.4295-1.3485-.4909811-.2537748-1.0947251-.0614811-1.3485.4295z"/><path id="Shape" d="m41.347 23.181c-.1673423-.5266035-.7298965-.8178422-1.2565-.6504999-.5266035.1673422-.8178422.7298964-.6505 1.2564999l.3.953c.1082515.3404741.3899207.5973337.7389057.6738222.348985.0764886.7122665-.0390144.953-.303s.3223458-.6363481.2140943-.9768222z"/><path id="Shape" d="m56.594 18.331c-.1676184-.5266035-.7303965-.8176184-1.257-.65s-.8176184.7303965-.65 1.257l.3.954c.1086087.3404741.3906081.5971431.7397717.6733222s.7124452-.039705.953-.304c.2405549-.264295.321837-.6368481.2132283-.9773222z"/><path id="Shape" d="m45.764 23.875c.1084301.3404741.3902644.5972384.7393387.6735722s.7123558-.0393597.953-.3035.3220914-.6365981.2136613-.9770722l-.3-.953c-.1084301-.3404741-.3902644-.5972384-.7393387-.6735722s-.7123558.0393597-.953.3035-.3220914.6365981-.2136613.9770722z"/><path id="Shape" d="m49.272 21.71.3.953c.1676184.5263274.7301726.8171184 1.2565.6495s.8171184-.7301726.6495-1.2565l-.3-.953c-.1676184-.5266035-.7303965-.8176184-1.257-.65s-.8176184.7303965-.65 1.257z"/><path id="Shape" d="m43.6 20.366-.3-.953c-.1082515-.3404741-.3899207-.5973337-.7389057-.6738222-.348985-.0764886-.7122665.0390144-.953.303s-.3223458.6363481-.2140943.9768222l.3.953c.1673423.5263273.7296726.8173422 1.256.65.5263273-.1673423.8173423-.7296726.65-1.256z"/><path id="Shape" d="m51.223 17.941c.1673423.5263274.7296726.8173423 1.256.65s.8173423-.7296726.65-1.256l-.3-.953c-.1673423-.5263274-.7296726-.8173423-1.256-.65s-.8173423.7296726-.65 1.256z"/><path id="Shape" d="m46.155 18.5c.1084301.3404741.3902644.5972384.7393387.6735722.3490743.0763339.7123558-.0393597.953-.3035s.3220914-.6365981.2136613-.9770722l-.3-.953c-.1084301-.3404741-.3902644-.5972384-.7393387-.6735722s-.7123558.0393597-.953.3035-.3220914.6365981-.2136613.9770722z"/><path id="Shape" d="m42.387 16.554c.1082515.3404741.3899207.5973337.7389057.6738222.348985.0764886.7122665-.0390144.953-.303s.3223458-.6363481.2140943-.9768222l-.303-.948c-.1673423-.5266035-.7298965-.8178423-1.2565-.6505s-.8178423.7298965-.6505 1.2565z"/><path id="Shape" d="m48.1 14.735c.1673423.5266035.7298965.8178422 1.2565.6504999.5266035-.1673422.8178422-.7298964.6505-1.2564999l-.3-.952c-.1034787-.3461519-.3856243-.6095718-.7380567-.6890726-.3524324-.0795009-.720343.0372808-.962407.3054859-.242064.2682052-.3206368.6461238-.2055363.9885867z"/></g></g></svg>