<svg height="512" viewBox="0 0 38 60" width="512" xmlns="http://www.w3.org/2000/svg"><g id="022---End-of-The-Earth" fill="none"><g id="Icons" transform="translate(1 1)"><path id="Shape" d="m36 40c-.0014126 9.7458571-7.7591075 17.7204229-17.5012223 17.9904792-9.74211488.2700564-17.92967505-7.262499-18.47099069-16.9933113-.54131563-9.7308124 6.76025457-18.125013 16.47221299-18.9371679 5.017581-.4195913 9.9815356 1.2815893 13.6870177 4.6906329 3.7054822 3.4090435 5.8137121 8.2142727 5.8129823 13.2493671z" fill="#283593"/><ellipse id="Oval" cx="16.5" cy="40" fill="#3f51b5" rx="16.5" ry="17.94"/><path id="Shape" d="m29.88 40.68c-.34 1-1.16 1.77-1.4 2.84-.56 2.45.13 5.82-2.54 8.22-.4490298.551819-1.230422.6996499-1.85.35-.46-.35-.5-1-.54-1.61-.31-5.77-6.26-4.42-6.54-8.89-.08-1.31.37-2.86 1.61-3.29.6757772-.1502922 1.3713431-.1908106 2.06-.12 1.5305031-.027121 3.051886-.2420625 4.53-.64 1.34-.29 2.74-.43 3.86.47.787728.6425448 1.1079502 1.6980922.81 2.67z" fill="#549414"/><path id="Shape" d="m26.88 40.68c-.34 1-1.16 1.77-1.4 2.84-.56 2.44.07 5-1.88 7.51-.0265687-.182298-.0432597-.3658994-.05-.55-.31-5.77-6.26-4.42-6.54-8.89-.08-1.31.37-2.86 1.61-3.29.6757772-.1502922 1.3713431-.1908106 2.06-.12 1.5305031-.027121 3.051886-.2420625 4.53-.64 1.3225203.4128541 2.0669875 1.8126306 1.67 3.14z" fill="#60a917"/><path id="Shape" d="m14 23c-5.2.94-5.33 3.25-.37 4.25 2.887366.5500961 5.852634.5500961 8.74 0 5-1 4.84-3.31-.37-4.25z" fill="#ecf0f1"/><path id="Shape" d="m24.93 56.61c-4.4347993 1.8500023-9.4252007 1.8500023-13.86 0 .43-1.47 3.37-2.61 6.93-2.61s6.5 1.14 6.93 2.61z" fill="#cfd8dc"/><path id="Shape" d="m8.48 47.05c-1.11 2.31-.64 5.29-.51 7.89-4.37910589-2.9405633-7.24800338-7.6539625-7.84845832-12.8944715-.60045495-5.2405091 1.12796886-10.4806671 4.72845832-14.3355285 3.72 3.5 2.4 5.1 1.86 8.1-.24789078 1.3209919.09566742 2.6842601.94 3.73.91 1.1 2.18 1.54 2.36 3.14s-.87 2.97-1.53 4.37z" fill="#549414"/><path id="Shape" d="m5.48 47.05c-.65488039 1.6429977-.88863335 3.4236453-.68 5.18-5.83004897-6.294126-6.4076133-15.8281227-1.38-22.78 1.72 2.41.7 4.08.29 6.36-.24789078 1.3209919.09566742 2.6842601.94 3.73.91 1.1 2.18 1.54 2.36 3.14s-.87 2.97-1.53 4.37z" fill="#60a917"/><path id="Shape" d="m35.34 35.18c-3.76-.81-4.87-.94-5.91-1.78-1.210727-.8757535-2.1779147-2.0460162-2.81-3.4-.7311109-1.8160207-.5138316-3.8764278.58-5.5 3.9893866 2.3767279 6.9058812 6.2032834 8.14 10.68z" fill="#549414"/><path id="Shape" d="m32.13 34.49c-.9737656-.1438512-1.8992866-.5174874-2.7-1.09-1.210727-.8757535-2.1779147-2.0460162-2.81-3.4-.5182417-1.2324874-.5715417-2.6111808-.15-3.88 2.6564037 2.1839299 4.6224709 5.0913473 5.66 8.37z" fill="#60a917"/><path id="Shape" d="m25 34h-14c1.8737758-1.2519689 2.9991699-3.3564559 3-5.61v-12.6h8v12.6c.0008301 2.2535441 1.1262242 4.3580311 3 5.61z" fill="#f57c00"/><path id="Shape" d="m22 34h-11c1.8737758-1.2519689 2.9991699-3.3564559 3-5.61v-12.6h5v12.6c.0008301 2.2535441 1.1262242 4.3580311 3 5.61z" fill="#ff9801"/><path id="Shape" d="m33.28 12.82c-.0208253 1.391134-.7180934 2.6848932-1.8686249 3.467175-1.1505316.7822818-2.6100418.9549827-3.9113751.462825-1.2220558 1.3733103-2.9928302 2.1301743-4.8299689 2.064424-1.8371386-.0657502-3.5492763-.9472657-4.6700311-2.404424-1.3903476 1.9510215-3.84469 2.835541-6.16 2.22-1.2889295-.2446557-2.46214611-.9050291-3.34-1.88-1.30133333.4921577-2.76084354.3194568-3.91137506-.462825-1.15053153-.7822818-1.84779966-2.076041-1.86862494-3.467175-.00470957-1.4608309.75356082-2.8181349 2-3.58-.13775363-.46741613-.20515901-.95273489-.2-1.44.02210625-2.00261373 1.12909122-3.83554155 2.8912397-4.78726797s3.9019481-.87236858 5.5887603.20726797c.9195194-1.92714193 2.8647267-3.15429256 5-3.15429256s4.0804806 1.22715063 5 3.15429256c.8758494-.53639243 1.8829513-.82018059 2.91-.82 1.700305-.02178642 3.3122735.75565594 4.3537949 2.09980804 1.0415214 1.34415211 1.3918486 3.09918205.9462051 4.74019196 1.2733129.7445269 2.0599707 2.105027 2.07 3.58z" fill="#ffdc00"/><path id="Shape" d="m31.24 9.24c.5055096-1.90182037-.0534797-3.92845376-1.4624655-5.30221492s-3.4491192-1.88127238-5.3375345-1.32778508c1.3851158.37208413 2.564822 1.28086109 3.2780117 2.5251894.7131896 1.24432831.9010452 2.72158673.5219883 4.1048106 1.2464392.7618651 2.0047096 2.1191691 2 3.58-.0208253 1.391134-.7180934 2.6848932-1.8686249 3.467175-1.1505316.7822818-2.6100418.9549827-3.9113751.462825-.823424.9308023-1.9123055 1.5869231-3.12 1.88 2.2310235.5659134 4.5914368-.1591809 6.12-1.88 1.3013333.4921577 2.7608435.3194568 3.9113751-.462825 1.1505315-.7822818 1.8477996-2.076041 1.8686249-3.467175.0047096-1.4608309-.7535608-2.8181349-2-3.58z" fill="#fec108"/></g><g id="Layer_2" fill="#000"><path id="Shape" d="m2.72 13.82c.03840613 2.8838458 2.39594706 5.1967363 5.28 5.18.39450785-.0043068.78716468-.0546475 1.17-.15 1.3562508 1.1575251 3.0506517 1.845108 4.83 1.96v2.38c-2.61.6-4 1.62-4 3s1.39 2.37 4 3v.26c-.0013277 1.9209212-.9618018 3.7143065-2.56 4.78-.3158165.2593667-.4420332.6848039-.3187591 1.0744379.123274.389634.4712297.6650506.8787591.6955621.1994427.0004453.3944627-.0587572.56-.17 2.1297374-1.4143316 3.4186133-3.7935067 3.44-6.35 1.9928973.2383732 4.0071027.2383732 6 0 .019152 2.5546042 1.3040698 4.9333878 3.43 6.35.1683588.11317.367155.1724601.57.17.4403997.0009866.8296015-.2862564.9584701-.7073807.1288687-.4211244-.0329363-.8769815-.3984701-1.1226193-1.5981982-1.0656935-2.5586723-2.8590788-2.56-4.78v-.26c2.61-.6 4-1.62 4-3s-1.39-2.37-4-3v-2.32c1.7900045-.0294035 3.5048538-.7246127 4.81-1.95 1.5475055.3938513 3.1901668.0534075 4.4536779-.9230308 1.2635112-.9764383 2.0071963-2.4801571 2.0163221-4.0769692-.0004851-1.5554622-.7066788-3.0266991-1.92-4 .0562128-.33030837.0829846-.66495583.08-1-.0132095-1.71066251-.7054626-3.3460074-1.9244603-4.54625128s-2.864878-1.86706107-4.5755397-1.85374872c-.8610474.00358541-1.7133065.17335814-2.51.5-1.2115734-1.81379255-3.2487725-2.90287993-5.43-2.90287993s-4.2184266 1.08908738-5.43 2.90287993c-.7966935-.32664186-1.6489526-.49641459-2.51-.5-1.71066172-.01331235-3.35654203.65350484-4.57553972 1.85374872s-1.91125073 2.83558877-1.92446028 4.54625128c-.00298461.33504417.02378718.66969163.08 1-1.20245061.964497-1.90745911 2.4185771-1.92 3.96zm9.28 12.34c.5805672-.4650156 1.2680023-.7777986 2-.91v1.82c-.7343614-.1245648-1.4236373-.4381853-2-.91zm4 1.3v-6.85c1.1286028-.3069231 2.1608332-.8952944 3-1.71.8538061.7839693 1.8822484 1.3530407 3 1.66v6.9c-1.992185.2500392-4.007815.2500392-6 0zm10-1.3c-.5789796.4675924-1.2671026.7806884-2 .91v-1.82c.7319977.1322014 1.4194328.4449844 2 .91zm-19.73-15.06c.37525326-.2280883.55779489-.6743011.45-1.1-.10910716-.37690358-.16300091-.76763324-.16-1.16.01318658-1.18023705.49471878-2.30688768 1.33864881-3.13206371.84393004-.82517604 1.98111581-1.28127187 3.16135119-1.26793629 1.6878429-.00007048 3.2331404.94642428 4 2.45.2457667.4998177.8501823.70576671 1.35.46s.7057667-.8501823.46-1.35c-.3883091-.767964-.9293638-1.44853605-1.59-2 .8494865-1.21423423 2.238112-1.93746278 3.72-1.93746278s2.8705135.72322855 3.72 1.93746278c-.6606362.55146395-1.2016909 1.232036-1.59 2-.2013504.48352717.0045141 1.04049627.4719378 1.2768341s1.0380149.07195864 1.3080622-.3768341c.9533061-1.83449524 3.029773-2.78836722 5.0425917-2.31642849 2.0128187.47193874 3.4488834 2.24938201 3.4874083 4.31642849-.0026494.37226808-.0564872.74240296-.16 1.1-.1277247.4381657.0574264.9072152.45 1.14.9625335.5675716 1.5523424 1.602591 1.55 2.72-.059638 1.7635287-1.515548 3.1572961-3.28 3.14-.3961369.0001915-.7890719-.0709433-1.16-.21-1.1079103-.3994052-1.9068933-1.3750863-2.08-2.54-.0823117-.5426636-.5866369-.9175603-1.13-.84-.5467163.0773971-.9272331.5832605-.85 1.13.1986055 1.3422608.9169328 2.5526423 2 3.37-2.2636181 1.5400286-5.3359431 1.0440675-7-1.13-.1894263-.2440794-.4810387-.3868932-.79-.3868932s-.6005737.1428138-.79.3868932c-.9200203 1.2877478-2.4177896 2.0366325-4 2-1.0361866-.069835-2.0422851-.3778243-2.94-.9 1.0841056-.8120422 1.8030589-2.0198838 2-3.36.0772331-.5467395-.3032837-1.0526029-.85-1.13-.5433631-.0775603-1.0476883.2973364-1.13.84-.2572728 1.6077578-1.65186177 2.7855053-3.28 2.77-1.78724579.0167087-3.25258081-1.4128864-3.28-3.2.00472646-1.1102702.59360475-2.1360582 1.55-2.7z"/><path id="Shape" d="m9.1 10.4c.1019644-.0012733.20313422-.018135.3-.05.25368183-.0803135.46489367-.2584205.58688688-.49489963.12199322-.23647913.14470672-.51182736.06311312-.76510037-.09088564-.25449086-.06528751-.53607033.07-.77.2657138-.25590195.6350853-.37410082 1-.32.5522847 0 1-.44771525 1-1s-.4477153-1-1-1c-1.0482425-.10165045-2.07302134.3538068-2.7 1.2-.48500154.73994557-.60299265 1.66175117-.32 2.5.13574747.4333092.5463999.7207659 1 .7z"/><path id="Shape" d="m23.83 38c-.7152333.1062769-1.4369471.1630784-2.16.17h-.5c-.629092-.0540296-1.2627645.0069656-1.87.18-1.73.6-2.39 2.59-2.29 4.3.16 2.61 2 3.72 3.5 4.62.7061243.3684861 1.3532612.8403568 1.92 1.4.7021979.8256142 1.1009271 1.8665447 1.13 2.95-.0534792.854124.2851873 1.6860656.92 2.26.3531985.2787326.7900656.4302268 1.24.43.7102576-.0364177 1.3825906-.331675 1.89-.83 1.1651464-1.0928804 1.958933-2.523095 2.27-4.09.1664277-.8071547.2667602-1.6265366.3-2.45.0363759-.7389238.1266155-1.474209.27-2.2.1386771-.4501671.3479489-.8754614.62-1.26.3126112-.4605709.567832-.9575799.76-1.48.3476236-1.0969558.1305088-2.2948307-.58-3.2-.1651895-.2067072-.3493224-.3975357-.55-.57-.9990965-.7553947-2.2634971-1.0696885-3.5-.87-.6499123.0815621-1.2943875.2017751-1.93.36-.48.11-.96.22-1.44.28zm3.6 1.33c.6983385-.1121426 1.4132047.045128 2 .44.0841083.0725208.1611223.1528833.23.24.2985949.3780266.3988999.8758364.27 1.34-.1508703.3730182-.342002.7284561-.57 1.06-.3959278.5719883-.6902412 1.207976-.87 1.88-.1653701.8210939-.2689935 1.6534231-.31 2.49-.0315064.744921-.1150434 1.4867288-.25 2.22-.2329479 1.1464392-.8124112 2.1936621-1.66 3-.29.26-.51.33-.57.3s-.13-.54-.15-.87c-.0663003-1.5081941-.6407593-2.9496281-1.63-4.09-.6989432-.7100592-1.5013713-1.3101945-2.38-1.78-1.54-.92-2.44-1.56-2.54-3.04-.06-1 .24-2 .93-2.27.2339576-.0667794.4768031-.097135.72-.09h1c.8260197.0030906 1.6512822-.0503677 2.47-.16.54-.08 1.07-.2 1.6-.32s1.15-.27 1.71-.34z"/><path id="Shape" d="m37.26 35.83c-.9978862-3.5410344-3.0023434-6.7162058-5.77-9.14-.2651659-.2546943-.6487093-.3433359-.9987417-.2308216-.3500324.1125144-.6100907.4080352-.6771882.7695321-.0670976.361497.069589.7306577.3559299.9612895 2.0632947 1.8033666 3.6559271 4.0824785 4.64 6.64l-1.46-.32c-.822132-.1146474-1.6062159-.4193788-2.29-.89-1.0703065-.7787324-1.9323574-1.8090721-2.51-3-.2043454-.5136248-.7863752-.7643453-1.3-.56-.5136248.2043454-.7643453.7863752-.56 1.3.7046426 1.5000017 1.7738594 2.7995642 3.11 3.78.9300165.6720984 2.0060973 1.1141826 3.14 1.29l2.05.44.52.11c1.9234625 7.8009344-1.9215736 15.8759288-9.19 19.3-1.32-1.54-4.53-2.28-7.32-2.28s-6 .74-7.32 2.32c-.6010717-.3012851-1.1852718-.6351138-1.75-1 0-.28 0-.56-.05-.84-.15-2.14-.31-4.36.5-6 .15-.32.32-.63.49-.94.8077348-1.172112 1.2050406-2.578504 1.13-4-.1664081-1.1634397-.8071667-2.2060299-1.77-2.88-.28930415-.2427861-.56005825-.5068549-.81-.79-.64376537-.8076558-.90963115-1.8529089-.73-2.87.07-.39.17-.79.27-1.18.47361158-1.3587377.5327825-2.8275687.17-4.22-.39978208-1.0802363-1.03123417-2.0598403-1.85-2.87.19-.17.36-.36.55-.53.28634092-.2306318.42302749-.5997925.35592993-.9612895-.06709756-.3614969-.32715588-.6570177-.67718824-.7695321-.35003236-.1125143-.73357577-.0238727-.99874169.2308216-.47165165.4102717-.92222844.8441605-1.35 1.3-6.24510004 6.683068-6.84204761 16.8673249-1.42048317 24.2342314 5.42156443 7.3669065 15.32266687 9.8252808 23.56044347 5.8498929 8.2377766-3.975388 12.4738389-13.2560782 10.0800397-22.0841243-.0327995-.0614212-.0731087-.1185259-.12-.17zm-35.26 5.17c.008545-3.9480404 1.39095992-7.770011 3.91-10.81.58420884.5789141 1.03473518 1.2785951 1.32 2.05.22276157 1.0306391.14288992 2.1036974-.23 3.09-.11.43-.22.87-.3 1.31-.29139488 1.6099958.1320102 3.2671157 1.16 4.54.30658766.359047.64095298.6934123 1 1 .67.58 1 .92 1.1 1.59-.00304633 1.000887-.31759937 1.9760015-.9 2.79-.19.35-.38.69-.54 1-.76933906 1.9562537-1.02746097 4.076295-.75 6.16-3.66531512-3.2112712-5.76812654-7.8469317-5.77-12.72zm11.75 16.16c1.6172578-.8423975 3.4283691-1.2425668 5.25-1.16 1.8216309-.0825668 3.6327422.3176025 5.25 1.16-3.410442 1.1197373-7.089558 1.1197373-10.5 0z"/></g></g></svg>