<svg height="512" viewBox="0 0 36 58" width="512" xmlns="http://www.w3.org/2000/svg"><g id="022---End-of-The-Earth" fill="none"><circle id="Oval" cx="18" cy="40" fill="#3b97d3" r="18"/><path id="Shape" d="m26.31 37.35c-1.73.2-2.83.81-5.63.83-.6886569-.0708106-1.3842228-.0302922-2.06.12-1.24.43-1.69 2-1.61 3.29.27 4.48 6.2 3.1 6.54 8.89-.0611903.5894936.1357347 1.176622.54 1.61.619578.3496499 1.4009702.201819 1.85-.35 2.67-2.41 2-5.74 2.54-8.22.24-1.07 1.06-1.82 1.4-2.84.54-1.57-.72-3.68-3.57-3.33z" fill="#4fba6f"/><path id="Shape" d="m14 22.34c-5.17.93-5.36 3.23-.37 4.25 2.887835.5451059 5.852165.5451059 8.74 0 5-1 4.81-3.32-.37-4.25z" fill="#ecf0f1"/><path id="Shape" d="m24.93 56.61c-4.4347993 1.8500023-9.4252007 1.8500023-13.86 0 .43-1.47 3.37-2.61 6.93-2.61s6.5 1.14 6.93 2.61z" fill="#ecf0f1"/><path id="Shape" d="m8.48 47.05c-1.11 2.31-.64 5.29-.51 7.89-4.37910589-2.9405633-7.24800338-7.6539625-7.84845832-12.8944715-.60045495-5.2405091 1.12796886-10.4806671 4.72845832-14.3355285 3.72 3.5 2.4 5.1 1.86 8.1-.24789078 1.3209919.09566742 2.6842601.94 3.73.91 1.1 2.18 1.54 2.36 3.14s-.87 2.97-1.53 4.37z" fill="#4fba6f"/><path id="Shape" d="m35.34 35.18c-3.46-.74-4.83-.91-5.91-1.78-1.210727-.8757535-2.1779147-2.0460162-2.81-3.4-.723983-1.8170102-.5070669-3.8739732.58-5.5 3.9893866 2.3767279 6.9058812 6.2032834 8.14 10.68z" fill="#4fba6f"/><path id="Shape" d="m25 34c-1.8737758-1.2519689-2.9991699-3.3564559-3-5.61v-12.62h-8v12.62c-.0008301 2.2535441-1.1262242 4.3580311-3 5.61z" fill="#35495e"/><path id="Shape" d="m11 35c-.4403997.0009866-.8296015-.2862564-.9584701-.7073807-.1288687-.4211244.0329363-.8769815.3984701-1.1226193 1.5981982-1.0656935 2.5586723-2.8590788 2.56-4.78v-12.6c0-.5522847.4477153-1 1-1s1 .4477153 1 1v12.6c.0014532 2.5866144-1.2892827 5.0029922-3.44 6.44-.1655373.1112428-.3605573.1704453-.56.17z" fill="#3f5c6c"/><path id="Shape" d="m25 35c-.1994427.0004453-.3944627-.0587572-.56-.17-2.1507173-1.4370078-3.4414532-3.8533856-3.44-6.44v-12.63c0-.5522847.4477153-1 1-1s1 .4477153 1 1v12.63c.0013277 1.9209212.9618018 3.7143065 2.56 4.78.3655338.2456378.5273388.7014949.3984701 1.1226193-.1288686.4211243-.5180704.7083673-.9584701.7073807z" fill="#3f5c6c"/><path id="Shape" d="m33.28 12.82c-.0208253 1.391134-.7180934 2.6848932-1.8686249 3.467175-1.1505316.7822818-2.6100418.9549827-3.9113751.462825-1.2220558 1.3733103-2.9928302 2.1301743-4.8299689 2.064424-1.8371386-.0657502-3.5492763-.9472657-4.6700311-2.404424-1.1285402 1.5656657-2.9608905 2.4687259-4.89 2.41-1.7489358-.057578-3.40494685-.8011664-4.61-2.07-1.3013452.4971541-2.76355268.3266183-3.91556144-.4566679s-1.84825528-2.0803498-1.86443856-3.4733321c-.00470957-1.4608309.75356082-2.8181349 2-3.58-.13775363-.46741613-.20515901-.95273489-.2-1.44.02210625-2.00261373 1.12909122-3.83554155 2.8912397-4.78726797s3.9019481-.87236858 5.5887603.20726797c.9195194-1.92714193 2.8647267-3.15429256 5-3.15429256s4.0804806 1.22715063 5 3.15429256c1.6850234-1.05835431 3.8097705-1.12598215 5.5586871-.17692552 1.7489165.94905662 2.8502668 2.76733918 2.8813129 4.75692552.005159.48726511-.0622464.97258387-.2 1.44 1.2617854.75200704 2.0362531 2.1111219 2.04 3.58z" fill="#547580"/><path id="Shape" d="m8.1 9.4c-1.3 0-1.37-2.12-.63-3.2.62697866-.8461932 1.65175749-1.30165045 2.7-1.2.5522847 0 1 .44771525 1 1s-.4477153 1-1 1c-.3649147-.05410082-.73428618.06409805-1 .32-.13528751.23392967-.16088564.51550914-.07.77.10248601.31293436.0443451.65626497-.15545903.91800838-.19980412.2617434-.51565828.40834634-.84454097.39199162z" fill="#9fc9d3"/></g></svg>