<svg height="512pt" viewBox="0 -4 512 512" width="512pt" xmlns="http://www.w3.org/2000/svg"><path d="m503.464844 477.769531c-21.789063.292969-42.179688-10.707031-53.894532-29.082031-1.484374-3.046875-4.578124-4.984375-7.96875-4.984375-3.390624 0-6.484374 1.9375-7.972656 4.984375-11.921875 18.148438-32.179687 29.078125-53.894531 29.078125-21.71875 0-41.972656-10.929687-53.898437-29.078125-1.484376-3.046875-4.578126-4.984375-7.96875-4.984375-3.390626 0-6.484376 1.9375-7.96875 4.984375-11.925782 18.148438-32.183594 29.078125-53.898438 29.078125s-41.972656-10.929687-53.898438-29.078125c-1.484374-3.046875-4.578124-4.984375-7.96875-4.984375-3.390624 0-6.484374 1.9375-7.96875 4.984375-11.714843 18.375-32.109374 29.375-53.898437 29.082031-21.789063.292969-42.179687-10.707031-53.894531-29.082031-1.488282-3.046875-4.582032-4.984375-7.972656-4.984375-3.390626 0-6.484376 1.9375-7.96875 4.984375-11.714844 18.375-32.105469 29.375-53.894532 29.082031v25.597657h494.929688zm0 0" fill="#00bcd4"/><g fill="#0377bc"><path d="m226.132812 193.949219c-9.386718 7.167969-20.992187 16.386719-35.328124 28.332031-51.199219 42.582031-51.199219 93.695312-51.199219 93.695312 27.9375 8.714844 46.617187 35.007813 45.652343 64.257813-.109374 3.472656-2.320312 6.535156-5.582031 7.734375s-6.929687.300781-9.265625-2.273438c-4.777344-5.378906-10.070312-10.15625-13.738281-10.15625h-5.632813c-1.0625-27.492187-19.308593-51.34375-45.566406-59.5625 0 0 0-51.113281 51.199219-93.695312s68.265625-51.117188 68.265625-51.117188c4.984375 6.652344 5.457031 15.652344 1.195312 22.785157zm0 0"/><path d="m335.871094 171.164062c-.765625 11.765626-3.714844 23.28125-8.703125 33.964844-14.507813 29.011719-42.835938 29.097656-62.804688 24.660156 12.695313-3.644531 23.167969-12.652343 28.671875-24.660156 4.988282-10.683594 7.9375-22.199218 8.703125-33.964844zm0 0"/><path d="m444.757812 103.410156c-3.714843-.3125-6.753906-3.074218-7.425781-6.738281-4.09375-21.078125-23.636719-87.296875-109.992187-87.296875-7.597656 0-14.765625.167969-21.417969.511719-68.269531 3.839843-89.515625 25-89.515625 25-4.894531-4.039063-10.121094-7.664063-15.617188-10.835938-20.578124-13.050781-45.277343-17.980469-69.289062-13.824219-12.738281 2.867188-24.613281 8.71875-34.648438 17.066407-2.046874 1.707031-3.179687 4.269531-3.0625 6.933593.117188 2.660157 1.472657 5.117188 3.660157 6.636719 12.972656 9.042969 36.097656 27.132813 42.15625 45.140625 0 0-85.332031 68.179688-68.265625 229.972656-26.269532 8.222657-44.539063 32.058594-45.65625 59.5625-.15625 1.558594-.183594 3.128907-.082032 4.695313.125 3.488281 2.351563 6.550781 5.628907 7.75 3.277343 1.199219 6.957031.292969 9.304687-2.289063 4.777344-5.378906 10.066406-10.15625 13.738282-10.15625h25.597656c3.078125-.324218 6.019531-1.441406 8.535156-3.242187 6.144531-3.980469 11.863281-8.585937 17.066406-13.738281 0 0 17.066406 16.980468 25.597656 16.980468h19.96875c-1.0625-27.492187-19.308593-51.34375-45.566406-59.5625 0 0 0-51.113281 51.199219-93.695312s68.265625-51.117188 68.265625-51.117188c4.984375 6.652344 5.457031 15.652344 1.195312 22.785157 10.378907-8.429688 21.390626-16.046875 32.9375-22.785157 0 0 8.535157 8.535157 0 25.601563-2.949218 5.910156-6.34375 11.585937-10.152343 16.980469-1.589844 2.179687-2.042969 4.984375-1.214844 7.550781s2.832031 4.582031 5.394531 5.421875c3.6875 1.261719 7.449219 2.289062 11.265625 3.070312 12.695313-3.644531 23.167969-12.652343 28.671875-24.660156 4.988282-10.683594 7.9375-22.199218 8.703125-33.964844h153.601563s34.132812 0 34.132812-34.046874c0-26.453126-30.976562-32.339844-44.714844-33.707032zm0 0"/></g><path d="m455.339844 137.117188c0 34.046874-34.132813 34.046874-34.132813 34.046874h-119.46875c-.765625 11.765626-3.714843 23.28125-8.703125 33.964844-5.503906 12.007813-15.976562 21.015625-28.671875 24.660156-3.816406-.78125-7.578125-1.808593-11.265625-3.070312-2.5625-.839844-4.566406-2.855469-5.394531-5.421875s-.375-5.371094 1.214844-7.550781c3.808593-5.394532 7.203125-11.070313 10.152343-16.980469 8.535157-17.066406 0-25.601563 0-25.601563-11.546874 6.738282-22.558593 14.355469-32.9375 22.785157 4.261719-7.132813 3.789063-16.132813-1.195312-22.785157 0 0-17.066406 8.535157-68.265625 51.117188s-51.199219 93.695312-51.199219 93.695312c26.257813 8.21875 44.503906 32.070313 45.566406 59.5625h-19.96875c-8.53125 0-25.597656-16.980468-25.597656-16.980468-5.203125 5.152344-10.921875 9.757812-17.066406 13.738281-2.515625 1.800781-5.457031 2.917969-8.535156 3.242187h-25.597656c-3.671876 0-8.960938 4.777344-13.738282 10.15625-2.347656 2.582032-6.027344 3.488282-9.304687 2.289063-3.277344-1.199219-5.503907-4.261719-5.628907-7.75-.101562-1.566406-.074218-3.136719.082032-4.695313 1.117187-27.503906 19.386718-51.339843 45.65625-59.5625-17.066406-161.792968 68.265625-229.972656 68.265625-229.972656-6.058594-18.007812-29.183594-36.097656-42.15625-45.140625-2.1875-1.519531-3.542969-3.976562-3.660157-6.636719-.117187-2.664062 1.015626-5.226562 3.0625-6.933593 10.035157-8.347657 21.910157-14.199219 34.648438-17.066407 24.011719-4.15625 48.710938.773438 69.289062 13.824219 5.496094 3.171875 10.722657 6.796875 15.617188 10.835938 0 0 21.246094-21.160157 89.515625-25 48.859375 2.304687 89.433594 38.503906 97.277344 86.785156.667969 3.664063 3.710937 6.425781 7.425781 6.738281 13.738281 1.367188 44.714844 7.253906 44.714844 33.707032zm0 0" fill="#02a9f4"/><path d="m370.003906 171.164062v.941407s0 40.789062-30.378906 55.550781c-2.648438 1.257812-5.757812 1.078125-8.242188-.476562-2.488281-1.554688-4.011718-4.269532-4.042968-7.203126v-14.761718l-.171875-.085938c4.988281-10.683594 7.9375-22.199218 8.703125-33.964844zm0 0" fill="#283593"/><path d="m384 170.570312-.851562.59375h-47.277344c-.765625 11.765626-3.714844 23.28125-8.703125 33.964844-.597657 1.195313-1.28125 2.390625-1.878907 3.5-.425781.679688-.851562 1.277344-1.277343 1.875-1.84375 2.992188-4.050781 5.742188-6.570313 8.191406-.960937.980469-1.988281 1.894532-3.074218 2.730469-1.644532 1.414063-3.414063 2.667969-5.289063 3.757813-.941406.597656-1.964844 1.109375-2.988281 1.703125-.066406.007812-.125.039062-.167969.085937-1.28125.597656-2.648437 1.109375-4.011719 1.621094-2.742187 1.015625-5.570312 1.789062-8.449218 2.304688-3.628907.679687-7.316407 1.023437-11.007813 1.023437-10-.164063-19.90625-1.921875-29.355469-5.203125-2.5625-.839844-4.566406-2.855469-5.394531-5.421875s-.375-5.371094 1.214844-7.550781c3.808593-5.394532 7.203125-11.070313 10.152343-16.980469 8.535157-17.066406 0-25.601563 0-25.601563s-17.066406 8.535157-68.265624 51.117188c-51.199219 42.582031-51.199219 93.695312-51.199219 93.695312 5.417969 1.761719 10.585937 4.230469 15.359375 7.339844 19.964844 11.796875 31.660156 33.765625 30.292968 56.917969-.109374 3.472656-2.320312 6.535156-5.582031 7.734375s-6.929687.300781-9.265625-2.273438c-4.777344-5.378906-10.070312-10.15625-13.738281-10.15625h-25.601563c-8.019531 0-23.464843-14.933593-25.425781-16.808593l-.171875-.171875-1.023437-1.621094-2.050781 1.363281s0-315.730469 281.601562-187.730469zm0 0" fill="#1566c0"/><path d="m241.945312 208.816406c-3.148437 4.382813-4.019531 10.003906-2.347656 15.136719s5.6875 9.164063 10.8125 10.855469c14.773438 4.929687 42.847656 11.09375 64.9375-3.355469 1.847656-1.207031 3.617188-2.53125 5.292969-3.96875 1.960937 4.058594 5.453125 7.167969 9.710937 8.644531 4.257813 1.472656 8.929688 1.191406 12.980469-.785156 26.578125-12.917969 33.074219-41.8125 34.667969-55.617188h77.332031c11.429688.4375 22.53125-3.90625 30.628907-11.988281 8.09375-8.085937 12.457031-19.179687 12.035156-30.613281 0-23.285156-19.625-39.054688-52.316406-42.042969-4.234376-22.109375-25.25-94.234375-118.347657-94.234375-66.449219 0-98.628906 15.363282-110.867187 23.382813-17.441406-12.527344-72.992188-45.617188-124.980469-3.550781-4.144531 3.335937-6.464844 8.441406-6.246094 13.757812.210938 5.378906 2.929688 10.351562 7.347657 13.429688 14.6875 9.183593 27.21875 21.425781 36.738281 35.902343-18.390625 17.527344-79.675781 87.199219-67.132813 226.414063-28.332031 11.609375-46.371094 39.710937-45.125 70.304687.15625 7.027344 4.605469 13.242188 11.210938 15.652344 6.601562 2.414063 14.007812.527344 18.65625-4.746094 2.242187-2.859375 4.945312-5.324219 8.003906-7.289062h24.925781c9.761719-1.867188 18.703125-6.714844 25.601563-13.875 6.898437 7.15625 15.839844 12.003906 25.597656 13.875h24.96875c3.058594 1.964843 5.769531 4.429687 8.011719 7.289062 3.195312 3.617188 7.789062 5.6875 12.613281 5.683594 2.011719-.003906 4.007812-.355469 5.898438-1.042969 6.597656-2.371094 11.070312-8.539062 11.28125-15.546875 1.253906-30.644531-16.832032-58.785156-45.226563-70.375 4.960937-32.167969 22.003906-61.230469 47.65625-81.261719 18.558594-15.839843 37.902344-30.734374 57.960937-44.628906-.398437 3.042969-1.339843 5.988282-2.785156 8.695313-2.75 5.535156-5.925781 10.851562-9.496094 15.898437zm93.917969 11.09375v-13.332031c3.785157-8.546875 6.339844-17.585937 7.585938-26.851563h17.316406c-1.613281 11.144532-6.972656 31.546876-24.902344 40.222657zm-150.519531-4.183594c-53.65625 44.621094-54.28125 97.980469-54.28125 100.234376 0 3.8125 2.527344 7.164062 6.195312 8.207031 24.183594 7.710937 40.320313 30.523437 39.542969 55.894531-8.003906-9.003906-14.207031-13.023438-20.136719-13.023438h-25.457031c-7.449219-3.515624-14.144531-8.441406-19.71875-14.503906-3.332031-3.320312-8.71875-3.320312-12.050781 0-5.550781 6.027344-12.191406 10.949219-19.574219 14.503906h-25.601562c-5.921875 0-12.125 4.019532-20.09375 12.953126-.953125-25.394532 15.238281-48.277344 39.507812-55.824219 3.988281-1.136719 6.582031-4.980469 6.144531-9.105469-16.324218-154.734375 64.308594-221.71875 65.101563-222.367188 2.804687-2.238281 3.914063-5.988281 2.773437-9.386718-6.453124-19.3125-28.230468-37.558594-45.472656-49.359375 51.199219-41.378907 106.253906 5.410156 108.578125 7.417969 3.363281 2.855468 8.339844 2.71875 11.542969-.316407.25-.230469 25.429688-23.136719 104.960938-23.136719 77.816406 0 96.964843 56.210938 101.546874 80.367188 1.441407 7.375 7.550782 12.925781 15.027344 13.65625 13.824219 1.320312 36.992188 6.339844 36.992188 25.199219.351562 6.882812-2.234375 13.597656-7.113282 18.464843-4.882812 4.871094-11.601562 7.4375-18.488281 7.066407h-119.464843c-4.425782-.019531-8.132813 3.347656-8.535157 7.753906-2.105469 23.152344-9.292969 38.878906-21.332031 46.746094-16.070312 10.515625-38.347656 5.4375-50.175781 1.5625 4.078125-5.765625 7.707031-11.835938 10.855469-18.160157 8.914062-17.789062 3.191406-30.632812-1.605469-35.410156-2.59375-2.589844-6.550781-3.230468-9.832031-1.597656-.65625.359375-18.464844 9.4375-69.835938 52.164062zm0 0"/><path d="m503.464844 469.234375c-18.8125.269531-36.4375-9.179687-46.625-25-3.035156-5.585937-8.882813-9.0625-15.238282-9.0625-6.359374 0-12.207031 3.476563-15.242187 9.0625-10.375 15.613281-27.878906 25-46.625 25-18.75 0-36.253906-9.386719-46.628906-25-3.035157-5.585937-8.882813-9.0625-15.238281-9.0625-6.355469 0-12.203126 3.476563-15.242188 9.0625-10.375 15.613281-27.878906 25-46.625 25s-36.25-9.386719-46.625-25c-3.039062-5.585937-8.886719-9.0625-15.242188-9.0625-6.355468 0-12.203124 3.476563-15.238281 9.0625-10.1875 15.820313-27.8125 25.269531-46.628906 25-18.8125.269531-36.4375-9.179687-46.625-25-3.140625-5.484375-8.921875-8.925781-15.242187-9.0625-6.316407.136719-12.097657 3.578125-15.238282 9.0625-10.1875 15.820313-27.8125 25.269531-46.625 25-4.714844 0-8.535156 3.820313-8.535156 8.535156 0 4.710938 3.820312 8.53125 8.535156 8.53125 24.746094.25 47.875-12.285156 61.171875-33.160156.199219-.292969.414063-.578125.640625-.851563.308594.226563.558594.519532.742188.851563 13.300781 20.875 36.425781 33.410156 61.175781 33.160156 24.75.25 47.878906-12.285156 61.175781-33.160156.199219-.292969.414063-.578125.640625-.851563.304688.226563.558594.519532.742188.851563 13.476562 20.683594 36.488281 33.160156 61.175781 33.160156s47.699219-12.476562 61.175781-33.160156c.199219-.292969.410157-.578125.640625-.851563.304688.226563.558594.519532.742188.851563 13.472656 20.683594 36.488281 33.160156 61.175781 33.160156 24.683594 0 47.699219-12.476562 61.175781-33.160156.195313-.292969.410156-.578125.636719-.851563.308594.226563.5625.519532.746094.851563 13.296875 20.875 36.425781 33.410156 61.171875 33.160156 4.714844 0 8.535156-3.820312 8.535156-8.53125 0-4.714843-3.820312-8.535156-8.535156-8.535156zm0 0"/><path d="m387.0625 103.0625c0 4.710938-3.820312 8.53125-8.53125 8.53125-4.714844 0-8.535156-3.820312-8.535156-8.53125 0-4.714844 3.820312-8.535156 8.535156-8.535156 4.710938 0 8.53125 3.820312 8.53125 8.535156zm0 0"/></svg>