<?xml version="1.0" encoding="UTF-8" standalone="no"?> <svg xmlns="http://www.w3.org/2000/svg" viewBox="0 0 64 64"><defs><style>.cls-1{fill:#61c5a8;stroke:#54596e;stroke-linecap:round;stroke-linejoin:round;stroke-width:2px;}.cls-2,.cls-3{fill:#54596e;}.cls-3{opacity:0.2;}</style></defs><title>forward</title><g id="forward"><path class="cls-1" d="M60.82,32.76,31.9,15.91A2.59,2.59,0,0,0,28,18.15v33.7a2.59,2.59,0,0,0,3.9,2.24L60.82,37.24A2.59,2.59,0,0,0,60.82,32.76Z"/><circle class="cls-2" cx="48.5" cy="31.5" r="1.5"/><circle class="cls-2" cx="38.5" cy="31.5" r="1.5"/><path class="cls-2" d="M41.42,35A3.58,3.58,0,0,0,41,36.67a3,3,0,1,0,6,0A3.58,3.58,0,0,0,46.58,35C46.06,36,41.94,36,41.42,35Z"/><path class="cls-3" d="M34,51.85V18.15a2.55,2.55,0,0,1,.18-.91L31.9,15.91A2.59,2.59,0,0,0,28,18.15v33.7a2.59,2.59,0,0,0,3.9,2.24l2.28-1.33A2.55,2.55,0,0,1,34,51.85Z"/><path class="cls-1" d="M35.82,32.76,6.9,15.91A2.59,2.59,0,0,0,3,18.15v33.7a2.59,2.59,0,0,0,3.9,2.24L35.82,37.24A2.59,2.59,0,0,0,35.82,32.76Z"/><circle class="cls-2" cx="23.5" cy="31.5" r="1.5"/><circle class="cls-2" cx="13.5" cy="31.5" r="1.5"/><path class="cls-2" d="M16.42,35A3.58,3.58,0,0,0,16,36.67,3.18,3.18,0,0,0,19,40a3.18,3.18,0,0,0,3-3.33A3.58,3.58,0,0,0,21.58,35C21.06,36,16.94,36,16.42,35Z"/><path class="cls-3" d="M9,51.85V18.15a2.55,2.55,0,0,1,.18-.91L6.9,15.91A2.59,2.59,0,0,0,3,18.15v33.7a2.59,2.59,0,0,0,3.9,2.24l2.28-1.33A2.55,2.55,0,0,1,9,51.85Z"/></g></svg>