<svg height="511pt" viewBox="-59 0 511 511.92193" width="511pt" xmlns="http://www.w3.org/2000/svg"><path d="m256.460938 119.386719c-.019532 5.898437-.878907 11.757812-2.558594 17.410156l-19.882813 13.566406-8.535156-11.6875 2.816406-1.878906c1.679688-5.652344 2.542969-11.511719 2.558594-17.410156-.03125-28.050781-19.542969-52.3125-46.933594-58.367188 4.210938-.886719 8.5-1.347656 12.800781-1.363281 32.976563.035156 59.695313 26.757812 59.734376 59.730469zm0 0" fill="#fdd834"/><path d="m230.859375 119.386719c-.015625 5.898437-.878906 11.757812-2.558594 17.410156l-2.816406 1.878906-5.800781-7.9375c.167968-.425781.425781-.9375.597656-1.367187 1.378906-3.144532 2.078125-6.546875 2.046875-9.984375 0-14.136719-11.460937-25.597657-25.601563-25.597657-14.136718 0-25.597656 11.460938-25.597656 25.597657-.03125 3.4375.667969 6.839843 2.046875 9.984375l-10.582031 19.371094-19.96875-10.324219-3.070312-1.621094c-1.679688-5.652344-2.542969-11.511719-2.558594-17.410156.03125-28.050781 19.539062-52.3125 46.929687-58.367188 27.390625 6.054688 46.902344 30.316407 46.933594 58.367188zm0 0" fill="#ffeb3a"/><path d="m290.59375 221.789062c.015625 24.898438-9.871094 48.78125-27.476562 66.386719-17.605469 17.609375-41.492188 27.492188-66.390626 27.480469-49.617187.0625-90.617187 38.734375-93.578124 88.265625-2.960938 49.53125 33.140624 92.8125 82.402343 98.785156h.339844c1.753906.257813 3.519531.429688 5.289063.511719-26.628907-.6875-52.796876-7.121094-76.714844-18.859375-76.148438-37.082031-118.011719-120.585937-102.164063-203.789063 15.847657-83.199218 85.472657-145.46875 169.921875-151.964843 2.898438-.257813 5.972656-.425781 8.957032-.511719 1.878906-.085938 3.671874-.171875 5.546874-.171875 1.878907 0 3.671876.085937 5.546876.171875 22.640624 2.378906 44.191406 10.941406 62.292968 24.746094-3.582031-2.046875-7.253906-4.011719-11.007812-5.804688 23.359375 17.753906 37.066406 45.414063 37.035156 74.753906zm0 0" fill="#dfc49c"/><path d="m264.996094 221.789062c.011718 24.898438-9.875 48.78125-27.480469 66.386719-17.605469 17.609375-41.488281 27.492188-66.386719 27.480469-40.328125 0-76.144531 25.753906-88.984375 63.980469-12.839843 38.226562.171875 80.382812 32.320313 104.722656-76.148438-37.082031-118.011719-120.585937-102.164063-203.789063 15.847657-83.199218 85.472657-145.46875 169.921875-151.964843 20.589844 3.390625 40.058594 11.703125 56.746094 24.234375-3.585938-2.046875-7.253906-4.011719-11.007812-5.804688 23.359374 17.753906 37.0625 45.414063 37.035156 74.753906zm0 0" fill="#ffe0b2"/><path d="m267.128906 332.722656c-51.882812 0-126.890625 13.738282-126.890625 65.621094 0 48.128906 1.535157 98.21875 45.652344 104.363281h-.339844c-49.261719-5.972656-85.363281-49.253906-82.402343-98.785156 2.960937-49.53125 43.960937-88.203125 93.578124-88.265625 40.3125.023438 76.136719-25.6875 89.011719-63.886719s-.078125-80.351562-32.179687-104.734375c3.753906 1.792969 7.425781 3.757813 11.007812 5.804688.113282.128906.261719.21875.429688.253906 28.671875 20.824219 51.199218 51.457031 51.199218 80.984375 0 51.882813 2.816407 98.644531-49.066406 98.644531zm0 0" fill="#dfc49c"/><path d="m384.460938 315.65625c.027343 101.519531-80.710938 184.636719-182.1875 187.5625-1.875.085938-3.667969.167969-5.546876.167969-1.875 0-3.667968-.082031-5.546874-.167969-1.875-.085938-3.753907-.257812-5.628907-.511719-49.261719-5.972656-85.363281-49.253906-82.402343-98.785156 2.960937-49.53125 43.960937-88.203125 93.578124-88.265625 40.3125.023438 76.136719-25.6875 89.011719-63.886719s-.078125-80.351562-32.179687-104.734375c-14.777344-11.367187-32.664063-17.972656-51.285156-18.941406 101.476562 2.921875 182.214843 86.042969 182.1875 187.5625zm0 0" fill="#37474f"/><path d="m358.859375 315.65625c.027344 97.949219-75.316406 179.425781-172.96875 187.050781h-.339844c-49.261719-5.972656-85.363281-49.253906-82.402343-98.785156 2.960937-49.53125 43.960937-88.203125 93.578124-88.265625 40.3125.023438 76.136719-25.6875 89.011719-63.886719s-.078125-80.351562-32.179687-104.734375c3.753906 1.792969 7.425781 3.757813 11.007812 5.804688.113282.128906.261719.21875.429688.253906 58.113281 33.496094 93.910156 95.484375 93.863281 162.5625zm0 0" fill="#545c60"/><path d="m230.859375 221.789062c0 18.851563-15.28125 34.132813-34.132813 34.132813-2.882812.027344-5.753906-.347656-8.53125-1.109375-15.023437-3.925781-25.503906-17.496094-25.503906-33.023438 0-15.527343 10.480469-29.097656 25.503906-33.023437 2.777344-.761719 5.648438-1.136719 8.53125-1.109375 18.851563 0 34.132813 15.28125 34.132813 34.132812zm0 0" fill="#37474f"/><path d="m213.792969 221.789062c0-18.238281-11.460938-33.023437-25.597657-33.023437-14.140624 0-25.601562 14.785156-25.601562 33.023437 0 18.238282 11.460938 33.023438 25.601562 33.023438 14.136719 0 25.597657-14.785156 25.597657-33.023438zm0 0" fill="#545c60"/><path d="m230.859375 409.523438c0 18.851562-15.28125 34.132812-34.132813 34.132812-2.882812.023438-5.753906-.347656-8.53125-1.109375-15.023437-3.925781-25.503906-17.496094-25.503906-33.023437 0-15.527344 10.480469-29.097657 25.503906-33.027344 2.777344-.761719 5.648438-1.132813 8.53125-1.109375 18.851563 0 34.132813 15.285156 34.132813 34.136719zm0 0" fill="#dfc49c"/><path d="m213.792969 409.523438c0-18.238282-11.460938-33.027344-25.597657-33.027344-14.140624 0-25.601562 14.789062-25.601562 33.027344 0 18.238281 11.460938 33.023437 25.601562 33.023437 14.136719 0 25.597657-14.785156 25.597657-33.023437zm0 0" fill="#ffe0b2"/><path d="m196.726562 511.921875c-108.394531 0-196.265624-87.871094-196.265624-196.265625s87.871093-196.269531 196.265624-196.269531c108.394532 0 196.269532 87.875 196.269532 196.269531-.125 108.34375-87.925782 196.144531-196.269532 196.265625zm0-375.464844c-98.96875 0-179.199218 80.230469-179.199218 179.199219s80.230468 179.199219 179.199218 179.199219 179.199219-80.230469 179.199219-179.199219c-.109375-98.921875-80.277343-179.089844-179.199219-179.199219zm0 0"/><path d="m108.324219 449.628906h-.085938c-4.707031-.023437-8.503906-3.851562-8.492187-8.554687.011718-4.703125 3.828125-8.511719 8.535156-8.511719 4.703125 0 8.519531 3.808594 8.53125 8.511719s-3.785156 8.53125-8.488281 8.554687zm0 0"/><path d="m43.375 332.722656c-4.511719.007813-8.253906-3.5-8.535156-8.003906-.152344-2.996094-.246094-5.984375-.246094-9.0625-.019531-31.613281 9.253906-62.535156 26.667969-88.917969 1.652343-2.601562 4.578125-4.109375 7.65625-3.945312 3.078125.164062 5.828125 1.976562 7.195312 4.738281 1.367188 2.761719 1.136719 6.046875-.601562 8.59375-15.570313 23.601562-23.867188 51.253906-23.851563 79.53125 0 2.722656.078125 5.359375.238282 8.003906.144531 2.257813-.613282 4.484375-2.109376 6.183594-1.496093 1.699219-3.609374 2.734375-5.867187 2.878906-.1875 0-.367187 0-.546875 0zm0 0"/><path d="m95.863281 208.5625c-3.53125 0-6.699219-2.179688-7.964843-5.476562-1.265626-3.296876-.367188-7.035157 2.257812-9.398438 7.371094-6.566406 15.375-12.390625 23.890625-17.382812 4.050781-2.410157 9.289063-1.078126 11.699219 2.972656 2.410156 4.050781 1.082031 9.285156-2.96875 11.699218-7.550782 4.40625-14.648438 9.554688-21.1875 15.359376-1.566406 1.425781-3.605469 2.21875-5.726563 2.226562zm0 0"/><path d="m196.726562 264.457031c-23.5625 0-42.664062-19.105469-42.664062-42.667969 0-23.566406 19.101562-42.667968 42.664062-42.667968 23.566407 0 42.667969 19.101562 42.667969 42.667968-.027343 23.550782-19.113281 42.636719-42.667969 42.667969zm0-68.269531c-14.136718 0-25.597656 11.460938-25.597656 25.601562 0 14.136719 11.460938 25.597657 25.597656 25.597657 14.140626 0 25.601563-11.460938 25.601563-25.597657 0-14.140624-11.460937-25.601562-25.601563-25.601562zm0 0"/><path d="m196.726562 452.1875c-23.5625 0-42.664062-19.101562-42.664062-42.664062 0-23.566407 19.101562-42.667969 42.664062-42.667969 23.566407 0 42.667969 19.101562 42.667969 42.667969-.027343 23.550781-19.113281 42.636718-42.667969 42.664062zm0-68.265625c-14.136718 0-25.597656 11.460937-25.597656 25.601563 0 14.136718 11.460938 25.597656 25.597656 25.597656 14.140626 0 25.601563-11.460938 25.601563-25.597656 0-14.140626-11.460937-25.601563-25.601563-25.601563zm0 0"/><path d="m196.726562 324.1875c-4.710937 0-8.53125-3.820312-8.53125-8.53125 0-4.714844 3.820313-8.535156 8.53125-8.535156 46.070313-.097656 83.742188-36.75 85.109376-82.796875 1.371093-46.046875-34.058594-84.871094-80.039063-87.707031-3.335937-.160157-6.714844-.160157-10.242187 0-3.046876.140624-5.9375-1.355469-7.585938-3.925782-1.644531-2.570312-1.792969-5.824218-.390625-8.535156s4.144531-4.464844 7.191406-4.605469c4.03125-.179687 7.851563-.179687 11.878907 0 55.378906 3.117188 98.207031 49.757813 96.601562 105.199219s-47.058594 99.527344-102.523438 99.4375zm0 0"/><path d="m196.726562 511.921875c-2.003906 0-3.925781-.085937-5.972656-.179687-55.261718-3.273438-97.917968-49.875-96.300781-105.207032 1.613281-55.335937 46.914063-99.371094 102.273437-99.414062 4.714844 0 8.535157 3.820312 8.535157 8.535156 0 4.710938-3.820313 8.53125-8.535157 8.53125-46.066406.101562-83.738281 36.75-85.109374 82.796875-1.367188 46.050781 34.058593 84.871094 80.042968 87.707031 3.335938.164063 6.714844.164063 10.238282 0 4.6875-.160156 8.644531 3.453125 8.910156 8.132813.214844 4.707031-3.417969 8.699219-8.125 8.917969-2.03125.09375-3.949219.179687-5.957032.179687zm0 0"/><path d="m253.902344 145.339844c-.808594-.007813-1.613282-.125-2.390625-.351563-2.171875-.632812-4.003907-2.105469-5.09375-4.089843-1.085938-1.984376-1.34375-4.320313-.710938-6.492188 1.445313-4.875 2.195313-9.933594 2.21875-15.019531 0-28.273438-22.921875-51.199219-51.199219-51.199219-28.277343 0-51.199218 22.925781-51.199218 51.199219.027344 5.085937.773437 10.144531 2.21875 15.019531.855468 2.925781.082031 6.085938-2.027344 8.289062-2.105469 2.203126-5.230469 3.113282-8.191406 2.390626-2.960938-.722657-5.3125-2.972657-6.164063-5.898438-1.902343-6.429688-2.878906-13.09375-2.902343-19.800781 0-37.699219 30.5625-68.265625 68.265624-68.265625 37.703126 0 68.269532 30.566406 68.269532 68.265625-.023438 6.707031-1 13.371093-2.902344 19.800781-1.058594 3.644531-4.398438 6.148438-8.191406 6.152344zm0 0"/><path d="m219.664062 139.1875c-2.789062-.019531-5.394531-1.398438-6.976562-3.699219s-1.941406-5.226562-.957031-7.839843l.476562-1.117188c1.050781-2.234375 1.59375-4.675781 1.585938-7.144531 0-9.421875-7.640625-17.066407-17.066407-17.066407-9.425781 0-17.066406 7.644532-17.066406 17.066407-.027344 2.242187.417969 4.460937 1.316406 6.511719 1.917969 4.308593-.019531 9.355468-4.328124 11.273437-4.308594 1.917969-9.355469-.019531-11.273438-4.328125-1.859375-4.238281-2.808594-8.824219-2.78125-13.457031 0-18.847657 15.28125-34.132813 34.132812-34.132813 18.851563 0 34.132813 15.285156 34.132813 34.132813.027344 4.632812-.917969 9.21875-2.78125 13.457031l-8.328125-2.257812 7.875 3.285156c-1.34375 3.207031-4.480469 5.300781-7.960938 5.316406zm0 0"/><path d="m179.480469 109.0625c-1.542969 0-3.0625-.421875-4.386719-1.21875l-153.425781-92.074219c-3.945313-2.46875-5.1875-7.640625-2.789063-11.628906 2.394532-3.988281 7.546875-5.324219 11.578125-3l153.46875 92.078125c3.289063 1.976562 4.855469 5.902344 3.824219 9.601562-1.027344 3.695313-4.398438 6.25-8.234375 6.242188zm0 0"/><path d="m213.972656 109.0625c-3.835937.007812-7.207031-2.546875-8.234375-6.242188-1.027343-3.699218.535157-7.625 3.824219-9.601562l153.4375-92.078125c4.03125-2.324219 9.179688-.988281 11.578125 3 2.394531 3.988281 1.15625 9.160156-2.789063 11.628906l-153.429687 92.074219c-1.324219.796875-2.839844 1.21875-4.386719 1.21875zm0 0"/></svg>