<svg height="512pt" viewBox="0 0 512 512" width="512pt" xmlns="http://www.w3.org/2000/svg"><path d="m397.242188 512h-35.3125c-4.875 0-8.828126-3.953125-8.828126-8.828125s-3.949218-8.828125-8.824218-8.828125h-17.65625c-4.875 0-8.828125-3.949219-8.828125-8.828125 0-4.875-3.953125-8.824219-8.828125-8.824219h-8.828125c-4.875 0-8.828125-3.953125-8.828125-8.828125v-8.828125l109.242187-35.3125 26.855469 62.527344c0 4.855469-35.019531 25.75-30.164062 25.75zm0 0" fill="#805333"/><path d="m220.691406 459.035156v8.828125c0 4.875-3.953125 8.828125-8.828125 8.828125h-8.828125c-4.875 0-8.828125 3.949219-8.828125 8.824219 0 4.878906-3.953125 8.828125-8.828125 8.828125h-17.65625c-4.875 0-8.824218 3.953125-8.824218 8.828125s-3.953126 8.828125-8.828126 8.828125h-35.3125c4.855469 0-17.65625-21.628906-17.65625-26.484375v-61.792969zm0 0" fill="#805333"/><path d="m397.242188 353.101562h-282.484376l-21.363281 105.933594h321.503907zm-220.691407 70.621094c-9.75 0-17.652343-7.902344-17.652343-17.652344 0-9.753906 7.902343-17.65625 17.652343-17.65625s17.65625 7.902344 17.65625 17.65625c-.027343 9.738282-7.917969 17.625-17.65625 17.652344zm79.449219 0c-9.75 0-17.65625-7.902344-17.65625-17.652344 0-9.753906 7.90625-17.65625 17.65625-17.65625s17.65625 7.902344 17.65625 17.65625c-.03125 9.738282-7.917969 17.625-17.65625 17.652344zm79.449219 0c-9.75 0-17.65625-7.902344-17.65625-17.652344 0-9.753906 7.90625-17.65625 17.65625-17.65625s17.652343 7.902344 17.652343 17.65625c-.027343 9.738282-7.914062 17.625-17.652343 17.652344zm0 0" fill="#af8066"/><path d="m79.449219 33.835938h35.308593v435.492187h-35.308593zm0 0" fill="#805333"/><path d="m397.242188 33.835938h35.308593v435.492187h-35.308593zm0 0" fill="#805333"/><path d="m123.585938 450.207031v52.964844c0 4.875-3.953126 8.828125-8.828126 8.828125h-52.964843c-4.875 0-8.828125-3.953125-8.828125-8.828125v-35.308594c0-14.628906 11.855468-26.484375 26.484375-26.484375h35.308593c4.875 0 8.828126 3.953125 8.828126 8.828125zm0 0" fill="#cb8252"/><path d="m459.035156 467.863281v35.308594c0 4.875-3.953125 8.828125-8.828125 8.828125h-52.964843c-4.875 0-8.828126-3.953125-8.828126-8.828125v-52.964844c0-4.875 3.953126-8.828125 8.828126-8.828125h35.308593c14.628907 0 26.484375 11.855469 26.484375 26.484375zm0 0" fill="#cb8252"/><path d="m198.082031 131.980469c-3.980469-.003907-7.464843-2.671875-8.507812-6.515625l-19.15625-70.175782c-1.285157-4.707031 1.492187-9.558593 6.195312-10.84375 4.703125-1.28125 9.558594 1.492188 10.839844 6.199219l19.15625 70.179688c.726563 2.65625.171875 5.5-1.5 7.691406-1.671875 2.1875-4.273437 3.46875-7.027344 3.464844zm0 0" fill="#cbb292"/><path d="m313.917969 131.980469c-2.753907.003906-5.355469-1.277344-7.027344-3.464844-1.671875-2.191406-2.226563-5.035156-1.5-7.691406l19.15625-70.179688c.828125-3.042969 3.21875-5.414062 6.269531-6.21875 3.050782-.800781 6.296875.082031 8.519532 2.324219 2.21875 2.238281 3.078124 5.492188 2.246093 8.539062l-19.15625 70.175782c-1.042969 3.84375-4.527343 6.511718-8.507812 6.515625zm0 0" fill="#cbb292"/><path d="m361.929688 211.863281c0 58.503907-47.425782 105.929688-105.929688 105.929688s-105.929688-47.425781-105.929688-105.929688c0-58.503906 47.425782-105.933593 105.929688-105.933593s105.929688 47.429687 105.929688 105.933593zm0 0" fill="#2c2f38"/><path d="m326.621094 211.863281c0 39-31.617188 70.621094-70.621094 70.621094s-70.621094-31.621094-70.621094-70.621094c0-39.003906 31.617188-70.621093 70.621094-70.621093s70.621094 31.617187 70.621094 70.621093zm0 0" fill="#e4c05c"/><path d="m291.308594 211.863281c0 19.5-15.808594 35.308594-35.308594 35.308594s-35.308594-15.808594-35.308594-35.308594c0-19.503906 15.808594-35.3125 35.308594-35.3125s35.308594 15.808594 35.308594 35.3125zm0 0" fill="#2c2f38"/><path d="m26.484375 114.757812c-4.878906 0-8.828125-3.953124-8.828125-8.828124v-97.101563c0-4.875 3.949219-8.828125 8.828125-8.828125 4.875 0 8.824219 3.953125 8.824219 8.828125v97.101563c0 4.875-3.949219 8.828124-8.824219 8.828124zm0 0" fill="#cbb292"/><path d="m388.414062 52.964844h52.964844c4.875 0 8.828125-3.953125 8.828125-8.828125s3.953125-8.828125 8.828125-8.828125h17.65625c4.875 0 8.824219-3.949219 8.824219-8.824219 0-4.878906 3.953125-8.828125 8.828125-8.828125h8.828125c4.875 0 8.828125-3.953125 8.828125-8.828125v-8.828125h-512v8.828125c0 4.875 3.953125 8.828125 8.828125 8.828125h8.828125c4.875 0 8.828125 3.949219 8.828125 8.828125 0 4.875 3.949219 8.824219 8.824219 8.824219h17.65625c4.875 0 8.828125 3.953125 8.828125 8.828125s3.953125 8.828125 8.828125 8.828125zm0 0" fill="#cb8252"/><path d="m8.828125 236.316406v-112.730468c0-9.75 7.902344-17.65625 17.65625-17.65625 9.75 0 17.652344 7.90625 17.652344 17.65625v112.730468" fill="#e4c05c"/><path d="m52.964844 256c0 14.625-11.855469 26.484375-26.480469 26.484375-14.628906 0-26.484375-11.859375-26.484375-26.484375s11.855469-26.484375 26.484375-26.484375c14.625 0 26.480469 11.859375 26.480469 26.484375zm0 0" fill="#cbb292"/></svg>