<svg height="512pt" viewBox="0 -125 512 512" width="512pt" xmlns="http://www.w3.org/2000/svg"><path d="m307.199219 10.097656v25.601563l-44.542969-7.765625zm0 0" fill="#f29c1f"/><path d="m307.199219 4.296875v5.800781l-16.5625 8.832032c-5.5625 2.96875-9.039063 8.757812-9.035157 15.0625v6.828124h-85.335937l105.132813-40.535156c1.316406-.507812 2.800781-.332031 3.960937.472656 1.160156.800782 1.851563 2.128907 1.839844 3.539063zm0 0" fill="#2c3e50"/><path d="m503.464844 194.417969c-.027344 9.414062-7.652344 17.039062-17.066406 17.066406h-460.796876c-9.425781 0-17.066406-7.640625-17.066406-17.066406s7.640625-17.066407 17.066406-17.066407c-9.933593-16.878906-6.339843-38.453124 8.53125-51.199218 17.839844-17.0625 32.3125-37.324219 42.667969-59.734375 8.53125-17.066407 25.597657-42.664063 110.933594-42.664063 9.8125 0 19.625.085938 29.4375.339844 15.875.425781 31.746094 1.28125 47.53125 2.902344 10.371094.992187 20.660156 2.671875 30.804687 5.035156 3.96875.851562 7.832032 2.140625 11.523438 3.839844 8.3125 4.660156 15.414062 11.207031 20.734375 19.113281 6.742187 8.363281 13.3125 16.8125 19.796875 25.429687 1.492188 1.964844 3.765625 3.179688 6.230469 3.328126l108.542969 6.828124c10.835937.691407 20.078124 8.09375 23.125 18.515626.617187 2.3125.933593 4.691406.9375 7.082031v61.183593c9.414062.03125 17.039062 7.652344 17.066406 17.066407zm0 0" fill="#35495e"/><g fill="#41767f"><path d="m187.734375 57.886719h42.664063c4.714843 0 8.535156 3.820312 8.535156 8.53125v34.136719c0 4.710937-3.820313 8.53125-8.535156 8.53125h-42.664063c-4.714844 0-8.535156-3.820313-8.535156-8.53125v-34.136719c0-4.710938 3.820312-8.53125 8.535156-8.53125zm0 0"/><path d="m136.535156 57.886719h8.53125c4.714844 0 8.535156 3.820312 8.535156 8.53125v34.136719c0 4.710937-3.820312 8.53125-8.535156 8.53125h-42.667968c-4.710938 0-8.53125-3.820313-8.53125-8.53125 0-23.566407 19.101562-42.667969 42.667968-42.667969zm0 0"/><path d="m264.535156 66.417969v34.136719c0 4.710937 3.820313 8.53125 8.53125 8.53125h42.667969c3.308594 0 6.320313-1.917969 7.722656-4.914063 1.40625-2.996094.949219-6.535156-1.171875-9.082031l-28.441406-34.132813c-1.617188-1.945312-4.019531-3.070312-6.550781-3.070312h-14.226563c-4.710937 0-8.53125 3.820312-8.53125 8.53125zm0 0"/></g><path d="m443.734375 202.953125c0 23.5625-19.105469 42.667969-42.667969 42.667969s-42.667968-19.105469-42.667968-42.667969c0-23.566406 19.105468-42.667969 42.667968-42.667969s42.667969 19.101563 42.667969 42.667969zm0 0" fill="#2c2f38"/><path d="m162.132812 202.953125c0 23.5625-19.101562 42.667969-42.667968 42.667969-23.5625 0-42.664063-19.105469-42.664063-42.667969 0-23.566406 19.101563-42.667969 42.664063-42.667969 23.566406 0 42.667968 19.101563 42.667968 42.667969zm0 0" fill="#2c2f38"/><path d="m136.535156 202.953125c0 9.425781-7.644531 17.066406-17.070312 17.066406-9.425782 0-17.066406-7.640625-17.066406-17.066406s7.640624-17.066406 17.066406-17.066406c9.425781 0 17.070312 7.640625 17.070312 17.066406zm0 0" fill="#bdc3c7"/><path d="m418.132812 202.953125c0 9.425781-7.640624 17.066406-17.066406 17.066406-9.425781 0-17.066406-7.640625-17.066406-17.066406s7.640625-17.066406 17.066406-17.066406c9.425782 0 17.066406 7.640625 17.066406 17.066406zm0 0" fill="#bdc3c7"/><path d="m290.132812 151.753906h-17.066406c-4.710937 0-8.53125-3.820312-8.53125-8.535156 0-4.710938 3.820313-8.53125 8.53125-8.53125h17.066406c4.714844 0 8.535157 3.820312 8.535157 8.53125 0 4.714844-3.820313 8.535156-8.535157 8.535156zm0 0" fill="#2c3e50"/><path d="m196.265625 151.753906h-17.066406c-4.710938 0-8.53125-3.820312-8.53125-8.535156 0-4.710938 3.820312-8.53125 8.53125-8.53125h17.066406c4.714844 0 8.535156 3.820312 8.535156 8.53125 0 4.714844-3.820312 8.535156-8.535156 8.535156zm0 0" fill="#2c3e50"/><path d="m443.734375 134.6875c-.257813 0-.523437 0-.777344 0l-93.867187-8.535156c-4.710938-.425782-8.1875-4.59375-7.761719-9.304688.425781-4.714844 4.59375-8.1875 9.304687-7.761718l93.867188 8.535156c4.714844.210937 8.363281 4.203125 8.152344 8.914062-.214844 4.714844-4.207032 8.363282-8.917969 8.152344zm0 0" fill="#95a5a5"/><path d="m76.800781 143.21875c0 4.714844-3.820312 8.535156-8.535156 8.535156-4.710937 0-8.53125-3.820312-8.53125-8.535156 0-4.710938 3.820313-8.53125 8.53125-8.53125 4.714844 0 8.535156 3.820312 8.535156 8.53125zm0 0" fill="#2c3e50"/><path d="m486.398438 116.167969v9.984375h-17.066407c-4.710937 0-8.53125-3.820313-8.53125-8.53125 0-4.714844 3.820313-8.535156 8.53125-8.535156h16.128907c.617187 2.3125.933593 4.691406.9375 7.082031zm0 0" fill="#f9eab0"/><path d="m503.464844 262.6875h-443.730469c-4.714844 0-8.535156-3.820312-8.535156-8.535156 0-4.710938 3.820312-8.53125 8.535156-8.53125h443.730469c4.714844 0 8.535156 3.820312 8.535156 8.53125 0 4.714844-3.820312 8.535156-8.535156 8.535156zm0 0" fill="#7f8c8d"/><path d="m25.601562 262.6875h-17.066406c-4.714844 0-8.535156-3.820312-8.535156-8.535156 0-4.710938 3.820312-8.53125 8.535156-8.53125h17.066406c4.710938 0 8.53125 3.820312 8.53125 8.53125 0 4.714844-3.820312 8.535156-8.53125 8.535156zm0 0" fill="#7f8c8d"/></svg>