<svg height="511pt" viewBox="-55 0 511 511.99162" width="511pt" xmlns="http://www.w3.org/2000/svg"><path d="m388.300781 102.136719-29.183593-15.789063c-2.058594-1.121094-4.488282-1.34375-6.71875-.617187-2.226563.726562-4.058594 2.339843-5.058594 4.457031l-19.457032 40.960938-20.648437-7.765626 10.835937-39.335937c.617188-2.257813.28125-4.667969-.925781-6.667969-1.210937-2-3.191406-3.414062-5.472656-3.914062l-32.515625-7.082032c-.808594-.1875-1.644531-.242187-2.472656-.171874.6875-3.371094 1.03125-6.800782 1.023437-10.242188v-38.910156c.003907-2.894532-1.464843-5.59375-3.898437-7.164063-2.433594-1.570312-5.496094-1.796875-8.132813-.601562l-34.390625 15.273437c-14.957031 6.671875-25.832031 20.082032-29.269531 36.097656-.710937 3.511719-1.082031 7.082032-1.109375 10.667969-.027344-3.585937-.398438-7.15625-1.109375-10.667969-3.4375-16.015624-14.308594-29.425781-29.269531-36.097656l-34.386719-15.273437c-2.636719-1.195313-5.703125-.96875-8.136719.601562-2.429687 1.570313-3.898437 4.269531-3.898437 7.164063v38.910156c-.003907 3.441406.339843 6.871094 1.027343 10.242188-.832031-.070313-1.664062-.015626-2.476562.171874l-32.511719 7.082032c-2.285156.5-4.261719 1.914062-5.472656 3.914062s-1.546875 4.410156-.925781 6.667969l10.835937 39.335937-20.652343 7.765626-19.453126-40.960938c-1.003906-2.117188-2.832031-3.730469-5.0625-4.457031-2.226562-.726563-4.65625-.503907-6.714843.617187l-29.183594 15.789063c-2.058594 1.109375-3.570313 3.019531-4.183594 5.277343-.613281 2.257813-.273437 4.667969.941407 6.667969l24.234374 39.679688-18.859374 18.859375c-1.632813 1.667968-2.519532 3.925781-2.453126 6.257812.0625 2.335938 1.074219 4.539063 2.792969 6.117188l13.484375 12.117187 2.304688 2.046875-1.535156-2.902344 48.382812 42.582032v.085937l21.929688 9.8125 11.351562 15.785157 29.351562 8.535156 14.167969 14.847656 15.785157 9.644531 29.695312 18.175781 31.320312-25.261718.167969-.167969 28.160157-17.238281 20.820312-8.535156 8.535156-5.203126 11.347656-6.996093 21.933594-13.398438 48.382813-42.667969-1.535157 2.816407 2.21875-2.046875 13.566407-12.03125c1.722656-1.578125 2.730469-3.78125 2.796875-6.117188.0625-2.332031-.820313-4.589844-2.453125-6.257812l-18.859375-18.859375 24.234375-39.679688c1.210937-2 1.550781-4.410156.941406-6.667969-.613281-2.257812-2.125-4.167968-4.183594-5.277343zm-249.515625 7.253906-3.5-21.503906c4.046875 5.082031 9.027344 9.339843 14.679688 12.542969zm127.742188-21.503906-3.496094 21.503906-11.179688-8.960937c5.648438-3.203126 10.632813-7.460938 14.675782-12.542969zm0 0" fill="#fec108"/><path d="m269.175781 255.992188-152.238281 96.339843-2.046875 1.109375-9.8125-18.347656-.683594-1.191406-68.4375-127.0625-4.179687-7.679688-1.535156-2.902344 48.382812 29.609376v.085937l21.929688 13.398437 11.351562 6.996094 29.351562 17.921875 12.375 7.679688 1.792969 1.109375 15.785157 9.640625 29.269531-8.019531zm0 0" fill="#545c60"/><path d="m243.574219 247.457031-43.09375 27.222657-95.402344 60.414062-.683594-1.191406-68.4375-127.0625 17.066407 10.496094v.085937l21.933593 13.394531 11.347657 7 29.355468 17.917969 14.164063 8.789063 15.789062 9.644531 8.019531-2.21875zm0 0" fill="#7f8e94"/><path d="m313.035156 304.972656-15.617187 28.929688-35.582031 65.960937-39.339844-62.464843c-2.492188-4.003907-1.269532-9.273438 2.730468-11.773438l64.941407-40.960938c4.003906-2.492187 9.273437-1.269531 11.773437 2.730469zm0 0" fill="#9fc9d3"/><path d="m371.574219 196.257812-1.535157 2.816407v.085937l-57.003906 105.8125-51.199218 94.890625-53.503907 99.242188c-1.503906 2.6875-4.34375 4.351562-7.425781 4.351562-3.078125 0-5.917969-1.664062-7.421875-4.351562l-5.378906-9.984375-23.636719-43.859375-8.105469-15.019531-6.484375-11.945313-4.011718-7.511719-4.011719-7.507812h-.085938l-6.484375-12.03125-8.019531-14.933594h-.085937l-12.289063-22.871094 2.046875-1.109375 83.96875-51.453125 31.320312-19.203125.167969-.167969 28.160157-17.238281 20.820312-12.714843 8.535156-5.207032 11.347656-6.996094 21.933594-13.398437 10.152344-6.226563zm0 0" fill="#cfd8dc"/><path d="m333.34375 219.726562-45.910156 85.246094-51.199219 94.890625-48.128906 89.257813-23.636719-43.859375-8.105469-15.019531-6.484375-11.945313-4.011718-7.511719-4.011719-7.507812h-.085938l-6.484375-12.03125-8.019531-14.933594h-.085937l-12.289063-22.871094 2.046875-1.109375 83.96875-51.453125 31.320312-19.203125.167969-.167969 28.160157-17.238281 20.820312-12.714843 8.535156-5.207032 11.347656-6.996094 21.933594-13.398437zm0 0" fill="#f5f5f5"/><path d="m178.039062 113.3125c-10.65625 19-20.3125 38.539062-28.929687 58.539062l-10.324219-62.460937 11.179688-8.960937c1.441406.914062 2.953125 1.710937 4.519531 2.386718zm0 0" fill="#ffeb3a"/><path d="m158.070312 268.195312-70.914062-78.847656-12.457031-28.671875-7.59375-17.410156c-.945313-2.152344-.957031-4.601563-.035157-6.765625.921876-2.164062 2.691407-3.851562 4.898438-4.667969l1.960938-.683593 20.652343-7.765626 8.449219-3.15625c2.203125-.824218 4.648438-.707031 6.761719.328126 2.113281 1.03125 3.710937 2.886718 4.414062 5.132812l.855469 2.644531 22.527344 71.511719 8.617187 27.304688v.085937l11.605469 36.949219c.421875 1.292968.511719 2.671875.257812 4.011718zm0 0" fill="#ffeb3a"/><path d="m277.707031 17.058594v38.910156c.007813 3.441406-.335937 6.871094-1.023437 10.242188-2.964844 14.449218-12.015625 26.917968-24.832032 34.21875-1.441406.914062-2.957031 1.710937-4.523437 2.386718l-23.550781 10.496094h-.085938c-1.792968-3.15625-3.585937-6.140625-5.289062-8.957031-7.511719-11.777344-13.742188-19.03125-17.496094-19.03125v-13.992188c.027344-3.585937.398438-7.15625 1.109375-10.667969 3.4375-16.015624 14.3125-29.425781 29.269531-36.097656l20.652344-9.214844 13.738281-6.058593c2.636719-1.195313 5.699219-.96875 8.132813.601562 2.433594 1.570313 3.902344 4.269531 3.898437 7.164063zm0 0" fill="#00838f"/><path d="m252.105469 17.058594v38.910156c.007812 3.441406-.335938 6.871094-1.023438 10.242188-2.964843 14.449218-12.011719 26.917968-24.832031 34.21875-1.441406.914062-2.953125 1.710937-4.519531 2.386718l-3.328125 1.539063c-7.511719-11.777344-13.742188-19.03125-17.496094-19.03125v-13.992188c.027344-3.585937.398438-7.15625 1.109375-10.667969 3.4375-16.015624 14.3125-29.425781 29.269531-36.097656l20.652344-9.214844c.097656.5625.15625 1.132813.167969 1.707032zm0 0" fill="#00bcd4"/><path d="m275.914062 232.695312-43.519531 48.8125-.167969.167969-14.933593 9.132813-16.386719 10.070312-29.695312-18.179687-13.140626-14.503907c.253907-1.339843.164063-2.71875-.257812-4.011718l-11.605469-36.949219v-.085937l-8.617187-27.304688c3.667968-9.386719 7.507812-18.773438 11.519531-27.992188 8.617187-20 18.273437-39.539062 28.929687-58.539062h.085938c1.789062-3.070312 3.496094-5.972656 5.117188-8.703125 7.597656-11.945313 13.910156-19.285156 17.664062-19.285156 4.609375 0 13.058594 11.007812 22.785156 27.988281h.085938c10.652344 19 20.308594 38.539062 28.925781 58.539062 4.011719 9.21875 7.851563 18.605469 11.523437 27.992188v.082031c3.921876 10.15625 7.507813 20.140625 10.664063 29.699219zm0 0" fill="#707070"/><path d="m253.898438 249.761719-36.605469 41.046875-16.386719 10.070312-29.695312-18.179687-13.140626-14.503907c.253907-1.339843.164063-2.71875-.257812-4.011718l-11.605469-36.949219v-.085937l-8.617187-27.304688c3.667968-9.386719 7.507812-18.773438 11.519531-27.992188 8.617187-20 18.273437-39.539062 28.929687-58.539062h.085938c1.789062-3.070312 3.496094-5.972656 5.117188-8.703125 7.390624 7.628906 13.601562 16.316406 18.433593 25.773437h.085938c10.652343 18.996094 20.308593 38.535157 28.925781 58.535157 4.011719 9.21875 7.851562 18.605469 11.519531 27.992187v.085938c3.925781 10.152344 7.511719 20.136718 10.667969 29.695312.339844 1.023438.683594 2.046875 1.023438 3.070313zm0 0" fill="#9e9e9e"/><g fill="#ffeb3a"><path d="m334.710938 143.265625-7.59375 17.410156-12.460938 28.671875-38.742188 43.347656-1.023437-3.070312c-3.15625-9.558594-6.742187-19.542969-10.664063-29.699219v-.082031l22.527344-71.511719.851563-2.644531c.703125-2.246094 2.300781-4.101562 4.414062-5.132812 2.117188-1.035157 4.5625-1.152344 6.765625-.328126l8.449219 3.15625 20.648437 7.765626 1.964844.683593c2.203125.816407 3.976563 2.503907 4.898438 4.667969.917968 2.164062.90625 4.613281-.035156 6.765625zm0 0"/><path d="m263.03125 109.390625-10.328125 62.460937c-8.617187-20-18.273437-39.539062-28.925781-58.539062l23.550781-10.496094c1.566406-.675781 3.082031-1.472656 4.523437-2.386718zm0 0"/><path d="m171.210938 282.699219-15.785157-9.640625-14.167969-8.789063-29.351562-17.921875-11.351562-6.996094-21.929688-13.398437v-.085937l-48.382812-29.609376 1.535156 2.902344-2.304688-2.046875-13.484375-12.117187c-1.71875-1.578125-2.730469-3.78125-2.792969-6.117188-.066406-2.332031.820313-4.589844 2.453126-6.257812l23.46875-23.46875c1.664062-1.628906 3.925781-2.515625 6.257812-2.453125 2.332031.066406 4.539062 1.074219 6.113281 2.796875l35.667969 39.851562 70.914062 78.847656zm0 0"/><path d="m385.824219 184.996094-13.566407 12.03125-2.21875 2.046875 1.535157-2.816407-48.382813 29.695313-21.933594 13.398437-11.347656 6.996094-8.535156 5.207032-20.820312 12.714843-28.160157 17.238281 43.519531-48.8125 38.742188-43.347656 35.667969-39.851562c1.578125-1.722656 3.785156-2.730469 6.117187-2.796875 2.332032-.0625 4.589844.824219 6.257813 2.453125l23.46875 23.46875c1.632812 1.667968 2.515625 3.925781 2.453125 6.257812-.066406 2.335938-1.074219 4.539063-2.796875 6.117188zm0 0"/></g><path d="m200.90625 71.332031v13.992188c-4.605469 0-13.054688 11.007812-22.78125 27.988281h-.085938l-23.554687-10.496094c-1.566406-.675781-3.078125-1.472656-4.519531-2.386718-16.003906-9.078126-25.882813-26.0625-25.859375-44.460938v-38.910156c0-2.894532 1.46875-5.59375 3.898437-7.164063 2.433594-1.570312 5.5-1.796875 8.136719-.601562l34.386719 15.273437c14.960937 6.671875 25.832031 20.082032 29.269531 36.097656.710937 3.511719 1.082031 7.082032 1.109375 10.667969zm0 0" fill="#00bcd4"/><path d="m200.90625 511.992188c-6.167969-.003907-11.859375-3.339844-14.875-8.722657l-163.332031-303.023437c-1.507813-2.703125-1.4375-6.011719.1875-8.644532 1.628906-2.632812 4.554687-4.179687 7.644531-4.042968 3.09375.140625 5.867188 1.941406 7.25 4.710937l1.539062 2.902344 161.671876 299.886719 161.195312-299.3125c.105469-.253906.226562-.503906.359375-.746094l1.535156-2.816406c1.40625-2.769532 4.207031-4.554688 7.3125-4.660156 3.105469-.109376 6.023438 1.480468 7.617188 4.144531 1.59375 2.667969 1.617187 5.988281.054687 8.675781l-1.183594 2.183594c-.101562.230468-.210937.460937-.335937.679687l-161.707031 299.949219c-3.003906 5.441406-8.71875 8.824219-14.933594 8.835938zm0 0"/><path d="m263.023438 117.921875c-1.9375 0-3.816407-.660156-5.324219-1.875l-11.183594-8.960937c-3.554687-2.980469-4.078125-8.253907-1.175781-11.875 2.898437-3.617188 8.15625-4.261719 11.84375-1.441407l11.183594 8.957031c2.824218 2.269532 3.910156 6.070313 2.707031 9.488282-1.199219 3.417968-4.429688 5.703125-8.050781 5.703125zm0 0"/><path d="m138.789062 117.921875c-3.621093 0-6.847656-2.285156-8.050781-5.703125-1.203125-3.414062-.113281-7.21875 2.710938-9.484375l11.183593-8.960937c3.683594-2.816407 8.945313-2.175782 11.84375 1.445312 2.898438 3.617188 2.375 8.890625-1.175781 11.871094l-11.183593 8.957031c-1.511719 1.214844-3.390626 1.875-5.328126 1.875zm0 0"/><path d="m116.949219 360.867188c-3.820313 0-7.179688-2.535157-8.21875-6.214844-1.039063-3.675782.496093-7.597656 3.75-9.59375l254.628906-156.074219c4.015625-2.46875 9.269531-1.210937 11.734375 2.804687 2.46875 4.015626 1.210938 9.269532-2.804688 11.738282l-254.640624 156.082031c-1.335938.824219-2.878907 1.257813-4.449219 1.257813zm0 0"/><path d="m200.898438 309.410156c-1.566407 0-3.101563-.433594-4.4375-1.253906l-122.28125-74.917969c-.316407-.195312-.621094-.410156-.910157-.640625l-47.488281-29.058594c-2.601562-1.59375-4.152344-4.453124-4.074219-7.503906.078125-3.046875 1.78125-5.820312 4.460938-7.277344 2.679687-1.457031 5.929687-1.371093 8.53125.222657l48.382812 29.609375c.308594.191406.609375.402344.894531.628906l121.382813 74.375c3.265625 1.992188 4.804687 5.917969 3.765625 9.597656-1.039062 3.683594-4.402344 6.226563-8.226562 6.21875zm0 0"/><path d="m261.839844 408.398438c-2.9375.003906-5.667969-1.503907-7.230469-3.988282l-39.335937-62.464844c-5-8.023437-2.550782-18.578124 5.46875-23.582031l64.875-40.917969c3.851562-2.402343 8.5-3.179687 12.921874-2.167968 4.441407 1.007812 8.285157 3.761718 10.667969 7.636718l11.042969 17.503907c2.515625 3.988281 1.324219 9.257812-2.664062 11.773437-3.984376 2.515625-9.253907 1.324219-11.769532-2.664062l-11.09375-17.578125-64.949218 40.890625 39.28125 62.476562c1.65625 2.628906 1.75 5.949219.25 8.667969s-4.359376 4.410156-7.464844 4.410156zm0 0"/><path d="m131.367188 392.269531c-3.894532.003907-7.296876-2.625-8.273438-6.390625s.71875-7.71875 4.121094-9.605468l61.015625-33.878907c4.121093-2.285156 9.316406-.800781 11.601562 3.320313 2.289063 4.121094.804688 9.316406-3.320312 11.605468l-61.011719 33.878907c-1.265625.699219-2.6875 1.070312-4.132812 1.070312zm0 0"/><path d="m145.875 419.320312c-3.890625 0-7.285156-2.625-8.265625-6.390624-.976563-3.765626.714844-7.710938 4.113281-9.601563l63.574219-35.328125c2.671875-1.5625 5.980469-1.558594 8.644531.015625 2.667969 1.570313 4.273438 4.460937 4.199219 7.554687s-1.820313 5.90625-4.558594 7.347657l-63.574219 35.328125c-1.261718.703125-2.6875 1.074218-4.132812 1.074218zm0 0"/><path d="m160.464844 446.285156c-3.886719 0-7.285156-2.625-8.261719-6.390625-.976563-3.761719.714844-7.710937 4.113281-9.601562l66.046875-36.691407c2.671875-1.566406 5.980469-1.558593 8.644531.011719 2.667969 1.570313 4.273438 4.464844 4.199219 7.558594-.078125 3.09375-1.820312 5.902344-4.558593 7.34375l-66.046876 36.695313c-1.265624.703124-2.6875 1.074218-4.136718 1.074218zm0 0"/><path d="m178.125 121.847656c-1.226562 0-2.4375-.25-3.558594-.738281l-23.558594-10.496094c-1.96875-.855469-3.867187-1.863281-5.675781-3.015625-18.460937-10.625-29.816406-30.328125-29.757812-51.628906v-38.910156c0-5.789063 2.933593-11.179688 7.792969-14.324219 4.859374-3.140625 10.980468-3.605469 16.257812-1.230469l34.375 15.261719c17.417969 7.816406 30.089844 23.441406 34.140625 42.101563.839844 4.101562 1.273437 8.277343 1.300781 12.464843v13.992188c0 4.714843-3.820312 8.535156-8.535156 8.535156-4.710938 0-8.53125-3.820313-8.53125-8.535156v-13.992188c-.027344-3.035156-.34375-6.0625-.949219-9.035156-2.921875-13.277344-11.960937-24.382813-24.367187-29.9375l-34.382813-15.269531-.035156 38.878906c-.019531 15.316406 8.199219 29.460938 21.515625 37.027344 1.207031.773437 2.472656 1.445312 3.785156 2.015625l23.316406 10.390625c3.792969 1.515625 5.976563 5.503906 5.210938 9.515625-.761719 4.011719-4.261719 6.914062-8.34375 6.929687zm0 0"/><path d="m223.777344 121.847656c-4.175782.015625-7.75-2.988281-8.453125-7.101562-.703125-4.113282 1.667969-8.132813 5.609375-9.507813l22.925781-10.214843c1.164063-.496094 2.289063-1.085938 3.359375-1.757813 13.53125-7.539063 21.929688-21.804687 21.957031-37.296875v-38.910156l-34.425781 15.308594c-12.449219 5.585937-21.5 16.753906-24.394531 30.089843-.585938 2.921875-.890625 5.894531-.914063 8.875v13.992188c0 4.714843-3.820312 8.535156-8.535156 8.535156-4.710938 0-8.53125-3.820313-8.53125-8.535156v-13.992188c.023438-4.132812.445312-8.253906 1.265625-12.300781 4.019531-18.71875 16.707031-34.40625 34.167969-42.253906l34.398437-15.285156c5.277344-2.367188 11.394531-1.894532 16.25 1.25 4.855469 3.144531 7.785157 8.53125 7.785157 14.316406v38.910156c.011718 21.476562-11.527344 41.296875-30.203126 51.894531-1.675781 1.050781-3.429687 1.972657-5.25 2.757813l-23.539062 10.488281c-1.09375.484375-2.277344.738281-3.472656.738281zm0 0"/><path d="m275.914062 241.234375c-3.671874-.003906-6.929687-2.355469-8.089843-5.839844l-1.023438-3.0625c-3.144531-9.5-6.683593-19.351562-10.535156-29.328125-.085937-.214844-.15625-.441406-.222656-.667968-3.71875-9.488282-7.46875-18.601563-11.160157-27.078126-8.359374-19.390624-17.699218-38.34375-27.984374-56.785156-.226563-.292968-.429688-.597656-.613282-.917968-4.203125-8.085938-9.367187-15.636719-15.378906-22.484376-6.011719 6.847657-11.171875 14.398438-15.375 22.484376-.1875.324218-.398438.632812-.625.933593-10.28125 18.445313-19.621094 37.398438-27.980469 56.789063-3.757812 8.644531-7.597656 17.960937-11.386719 27.667968-1.109374 2.839844-3.648437 4.875-6.660156 5.332032-3.015625.460937-6.046875-.722656-7.953125-3.101563-1.902343-2.382812-2.394531-5.597656-1.285156-8.4375 3.875-9.914062 7.792969-19.429687 11.640625-28.289062 8.746094-20.296875 18.550781-40.125 29.367188-59.402344.183593-.316406.386718-.621094.609374-.914063 16.679688-28.894531 24.050782-31.339843 29.648438-31.339843 5.601562 0 12.972656 2.441406 29.660156 31.355469.214844.289062.414063.589843.597656.902343 10.8125 19.265625 20.609376 39.085938 29.355469 59.378907 3.855469 8.875 7.773438 18.394531 11.648438 28.308593.09375.238281.175781.480469.242187.722657 3.867188 10.027343 7.421875 19.941406 10.574219 29.484374l1.015625 3.050782c.867188 2.601562.433594 5.460937-1.171875 7.6875-1.601563 2.226562-4.175781 3.546875-6.917969 3.550781zm0 0"/><path d="m171.039062 238.953125c-6.253906-.042969-12.355468-1.953125-17.523437-5.484375-2.578125-1.675781-4.054687-4.605469-3.871094-7.671875.183594-3.066406 2-5.796875 4.761719-7.148437 2.757812-1.355469 6.03125-1.117188 8.566406.613281 4.816406 3.46875 11.3125 3.472656 16.128906.003906 2.535157-1.777344 5.835938-2.042969 8.621094-.691406 2.789063 1.351562 4.625 4.105469 4.796875 7.199219.175781 3.089843-1.335937 6.035156-3.953125 7.691406-5.167968 3.53125-11.269531 5.441406-17.527344 5.488281zm0 0"/><path d="m230.773438 238.953125c-6.257813-.042969-12.359376-1.953125-17.523438-5.484375-2.578125-1.675781-4.058594-4.605469-3.875-7.671875s2.003906-5.796875 4.761719-7.148437c2.761719-1.355469 6.035156-1.117188 8.570312.613281 4.816407 3.46875 11.3125 3.472656 16.128907.003906 2.535156-1.777344 5.835937-2.042969 8.621093-.691406 2.785157 1.351562 4.621094 4.105469 4.796875 7.199219.175782 3.089843-1.339844 6.035156-3.953125 7.691406-5.167969 3.53125-11.269531 5.441406-17.527343 5.488281zm0 0"/><path d="m200.90625 200.320312c-6.257812-.046874-12.359375-1.957031-17.523438-5.492187-3.84375-2.640625-4.851562-7.878906-2.269531-11.761719 2.585938-3.878906 7.808594-4.96875 11.726563-2.441406 4.816406 3.472656 11.3125 3.476562 16.128906.003906 2.535156-1.722656 5.804688-1.953125 8.558594-.605468 2.753906 1.351562 4.570312 4.078124 4.757812 7.140624.1875 3.058594-1.28125 5.988282-3.847656 7.664063-5.167969 3.535156-11.269531 5.445313-17.53125 5.492187zm0 0"/><path d="m158.082031 276.726562c-2.519531 0-4.914062-1.113281-6.535156-3.039062-1.625-1.929688-2.3125-4.476562-1.882813-6.960938l-11.597656-36.933593c-.066406-.203125-.117187-.410157-.171875-.621094l-31.804687-100.851563-31.324219 11.574219 20.214844 46.050781c1.773437 4.300782-.21875 9.226563-4.484375 11.082032-4.265625 1.851562-9.230469-.050782-11.164063-4.28125l-20.054687-46.066406c-1.882813-4.308594-1.90625-9.199219-.066406-13.523438 1.84375-4.324219 5.386718-7.699219 9.796874-9.328125l2.125-.742187 28.90625-10.851563c4.40625-1.648437 9.292969-1.40625 13.511719.660156 4.222657 2.070313 7.40625 5.785157 8.804688 10.273438l.824219 2.53125 31.167968 98.882812c.066406.210938.125.425781.175782.636719l11.433593 36.40625c.839844 2.652344 1.007813 5.472656.492188 8.203125-.78125 4.003906-4.289063 6.894531-8.367188 6.898437zm0 0"/><path d="m34.515625 162.296875c-2.976563.003906-5.742187-1.546875-7.292969-4.089844l-24.234375-39.679687c-2.433593-3.996094-3.121093-8.820313-1.898437-13.339844s4.246094-8.335938 8.367187-10.5625l29.183594-15.785156c4.199219-2.230469 9.128906-2.648438 13.640625-1.152344 4.410156 1.464844 8.007812 4.695312 9.941406 8.917969l19.417969 40.878906c2.023437 4.257813.210937 9.347656-4.046875 11.371094-4.257812 2.023437-9.347656.210937-11.371094-4.046875l-19.453125-40.960938-29.195312 15.796875 24.214843 39.675781c1.609376 2.632813 1.667969 5.925782.160157 8.617188-1.507813 2.691406-4.347657 4.359375-7.433594 4.363281zm0 0"/><path d="m78.625 234.445312c-2.257812.011719-4.429688-.878906-6.03125-2.472656s-2.5-3.757812-2.503906-6.019531v-.085937c.023437-4.707032 3.855468-8.503907 8.5625-8.488282 4.707031.015625 8.511718 3.839844 8.503906 8.546875s-3.824219 8.519531-8.53125 8.519531zm0 0"/><path d="m149.097656 180.386719c-4.171875-.007813-7.726562-3.027344-8.40625-7.140625l-13.832031-83.996094c-.757813-4.652344 2.398437-9.039062 7.054687-9.796875 4.652344-.753906 9.035157 2.402344 9.792969 7.054687l13.816407 83.953126c.371093 2.230468-.160157 4.519531-1.480469 6.359374-1.316407 1.839844-3.3125 3.082032-5.542969 3.453126-.464844.074218-.933594.109374-1.402344.113281zm0 0"/><path d="m115.0625 136.871094c-3.699219 0-6.976562-2.386719-8.117188-5.90625l-.859374-2.644532-8.515626 3.054688c-2.242187.839844-4.738281.699219-6.871093-.390625-2.132813-1.085937-3.710938-3.023437-4.34375-5.335937l-10.84375-39.335938c-1.242188-4.519531-.566407-9.351562 1.859375-13.359375 2.429687-4.007813 6.402344-6.839844 10.980468-7.832031l32.492188-7.082032c1.679688-.367187 3.40625-.476562 5.121094-.328124 4.605468.503906 7.96875 4.59375 7.574218 9.210937-.394531 4.617187-4.398437 8.074219-9.027343 7.792969l-32.546875 7.082031 8.375 30.328125c4.378906-1.550781 9.203125-1.25 13.359375.835938 4.152343 2.082031 7.28125 5.765624 8.664062 10.203124l.824219 2.53125c.839844 2.597657.386719 5.441407-1.21875 7.648438s-4.167969 3.519531-6.898438 3.523438zm0 0"/><path d="m146.207031 235.726562c-2.257812.007813-4.425781-.882812-6.027343-2.476562-1.601563-1.59375-2.503907-3.757812-2.503907-6.015625v-.085937c.023438-4.707032 3.851563-8.507813 8.5625-8.492188 4.707031.015625 8.511719 3.839844 8.503907 8.546875-.007813 4.707031-3.824219 8.519531-8.535157 8.519531zm0 0"/><path d="m264.226562 208.417969c-2.261718.007812-4.429687-.878907-6.03125-2.472657-1.601562-1.59375-2.503906-3.757812-2.503906-6.015624 0-.898438.132813-1.792969.390625-2.652344l23.410157-74.222656c1.402343-4.421876 4.546874-8.078126 8.703124-10.128907 4.230469-2.070312 9.121094-2.324219 13.542969-.703125l30.90625 11.546875c4.453125 1.59375 8.042969 4.960938 9.917969 9.300781 1.871094 4.34375 1.859375 9.265626-.035156 13.597657l-20.050782 46.078125c-1.933593 4.230468-6.898437 6.132812-11.164062 4.28125-4.265625-1.855469-6.261719-6.78125-4.488281-11.082032l20.054687-46.089843-31.09375-11.636719-.921875 2.75-22.433593 71.214844c-1.039063 3.675781-4.386719 6.21875-8.203126 6.234375zm0 0"/><path d="m327.109375 169.210938c-2.875-.007813-5.554687-1.460938-7.128906-3.867188s-1.832031-5.441406-.691407-8.078125l7.597657-17.40625-1.800781-.644531c-2.292969-.792969-4.140626-2.527344-5.074219-4.761719-.9375-2.238281-.878907-4.769531.164062-6.960937l19.457031-40.960938c1.9375-4.183594 5.519532-7.382812 9.898438-8.832031 4.488281-1.503907 9.394531-1.101563 13.574219 1.117187l29.25 15.824219c4.121093 2.222656 7.144531 6.042969 8.367187 10.558594 1.222656 4.519531.535156 9.34375-1.898437 13.339843l-24.234375 39.675782c-1.574219 2.636718-4.441406 4.222656-7.507813 4.15625-3.070312-.0625-5.867187-1.769532-7.324219-4.46875-1.460937-2.699219-1.359374-5.976563.265626-8.578125l24.234374-39.679688-29.199218-15.785156-16.117188 33.910156c1.550782 1.539063 2.789063 3.359375 3.648438 5.367188 1.832031 4.328125 1.8125 9.21875-.058594 13.535156l-7.59375 17.421875c-1.359375 3.109375-4.433594 5.121094-7.828125 5.117188zm0 0"/><path d="m252.714844 180.386719c-.46875 0-.9375-.039063-1.398438-.113281-2.234375-.367188-4.226562-1.609376-5.546875-3.449219-1.316406-1.84375-1.847656-4.128907-1.480469-6.363281l13.816407-83.949219c.757812-4.652344 5.144531-7.8125 9.796875-7.054688 4.652344.757813 7.8125 5.140625 7.054687 9.796875l-13.832031 83.988282c-.679688 4.117187-4.238281 7.136718-8.410156 7.144531zm0 0"/><path d="m307.242188 131.917969c-.769532 0-1.535157-.105469-2.277344-.3125-4.542969-1.253907-7.207032-5.949219-5.957032-10.492188l10.835938-39.339843-32.511719-7.0625c-2.25.242187-4.5-.4375-6.238281-1.882813-1.742188-1.445313-2.820312-3.535156-2.992188-5.792969-.421874-4.710937 3.039063-8.875 7.75-9.324218 1.664063-.160157 3.347657-.0625 4.980469.296874l32.652344 7.113282c4.566406.996094 8.527344 3.828125 10.949219 7.828125 2.425781 4 3.097656 8.820312 1.867187 13.332031l-10.851562 39.367188c-1.019531 3.695312-4.375 6.261718-8.207031 6.269531zm0 0"/><path d="m171.210938 291.234375c-2.410157.003906-4.707032-1.015625-6.324219-2.804687l-119.753907-133.242188-23.449218 23.464844 10.308594 9.25c.957031.203125 1.871093.566406 2.707031 1.078125l48.382812 29.609375c4.019531 2.460937 5.285157 7.71875 2.820313 11.738281-2.460938 4.019531-7.714844 5.28125-11.734375 2.820313l-41.644531-25.492188c-2.339844.195312-4.660157-.574219-6.425782-2.125l-15.808594-14.191406c-3.453124-3.125-5.484374-7.523438-5.625-12.179688-.140624-4.65625 1.621094-9.171875 4.875-12.503906l23.542969-23.535156c3.367188-3.273438 7.914063-5.054688 12.609375-4.945313 4.632813.144531 9.007813 2.164063 12.125 5.59375l119.714844 133.203125c2.265625 2.5 2.847656 6.101563 1.480469 9.183594-1.367188 3.085938-4.425781 5.078125-7.800781 5.078125zm0 0"/><path d="m232.226562 290.210938c-3.363281 0-6.414062-1.976563-7.789062-5.046876-1.375-3.066406-.816406-6.65625 1.421875-9.167968l118.105469-132.191406c3.128906-3.453126 7.527344-5.484376 12.183594-5.628907 4.660156-.144531 9.175781 1.617188 12.507812 4.871094l23.542969 23.539063c3.285156 3.320312 5.074219 7.835937 4.953125 12.507812-.121094 4.667969-2.148438 9.085938-5.601563 12.226562l-15.351562 13.683594c-2.398438 2.523438-6.089844 3.332032-9.324219 2.046875-3.234375-1.289062-5.359375-4.410156-5.371094-7.890625 0-2.40625.992188-4.703125 2.742188-6.351562l15.917968-14.195313-23.5-23.425781-118.074218 132.167969c-1.613282 1.816406-3.933594 2.855469-6.363282 2.855469zm0 0"/></svg>