<svg height="512pt" viewBox="0 -4 512.0001 512" width="512pt" xmlns="http://www.w3.org/2000/svg"><path d="m0 456.984375h512v46.484375h-512zm0 0" fill="#71c285"/><path d="m324.265625 221.867188c0 18.851562 15.28125 34.132812 34.132813 34.132812v204.800781h-273.066407v-204.800781c18.851563 0 34.132813-15.28125 34.132813-34.132812 0-18.851563-15.28125-34.132813-34.132813-34.132813v-47.703125c-.660156-75.820312 59.625-138.15625 135.425781-140.03125h1.109376c36.226562-.046875 70.980468 14.320312 96.597656 39.9375 25.613281 25.613281 39.984375 60.371094 39.933594 96.597656v51.199219c-18.851563 0-34.132813 15.28125-34.132813 34.132813zm0 0" fill="#95a5a5"/><path d="m435.199219 136.535156v51.199219h-76.800781v-51.199219c.050781-36.226562-14.320313-70.984375-39.933594-96.597656-25.617188-25.617188-60.371094-39.984375-96.597656-39.9375h76.800781c36.222656-.046875 70.980469 14.320312 96.59375 39.9375 25.617187 25.613281 39.984375 60.371094 39.9375 96.597656zm0 0" fill="#7f8c8d"/><path d="m435.199219 256h-76.800781c-18.851563 0-34.132813-15.28125-34.132813-34.132812 0-18.851563 15.28125-34.132813 34.132813-34.132813h76.800781c-18.851563 0-34.132813 15.28125-34.132813 34.132813 0 18.851562 15.28125 34.132812 34.132813 34.132812zm0 0" fill="#35495e"/><path d="m358.398438 256h76.800781v204.800781h-76.800781zm0 0" fill="#7f8c8d"/><g fill="#4c8056"><path d="m358.398438 469.332031h-196.265626c-4.710937 0-8.53125-3.820312-8.53125-8.53125 0-4.714843 3.820313-8.535156 8.53125-8.535156h196.265626c4.714843 0 8.535156 3.820313 8.535156 8.535156 0 4.710938-3.820313 8.53125-8.535156 8.53125zm0 0"/><path d="m76.800781 503.46875c-2.6875 0-5.214843-1.265625-6.828125-3.414062l-25.597656-34.132813c-1.832031-2.441406-2.21875-5.671875-1.023438-8.472656 1.199219-2.804688 3.800782-4.757813 6.828126-5.121094 3.027343-.363281 6.019531.914063 7.847656 3.351563l25.597656 34.132812c1.941406 2.585938 2.253906 6.046875.808594 8.9375-1.445313 2.890625-4.402344 4.71875-7.632813 4.71875zm0 0"/><path d="m119.464844 503.46875c-2.683594 0-5.214844-1.265625-6.824219-3.414062l-25.601563-34.132813c-2.828124-3.773437-2.0625-9.121094 1.707032-11.949219 3.769531-2.828125 9.121094-2.0625 11.949218 1.707032l25.597657 34.132812c1.941406 2.585938 2.25 6.046875.804687 8.9375-1.445312 2.890625-4.398437 4.71875-7.632812 4.71875zm0 0"/><path d="m162.132812 503.46875c-2.683593 0-5.214843-1.265625-6.824218-3.414062l-25.601563-34.132813c-1.828125-2.441406-2.21875-5.671875-1.019531-8.472656 1.195312-2.804688 3.796875-4.757813 6.824219-5.121094 3.027343-.363281 6.019531.914063 7.847656 3.351563l25.601563 34.132812c1.9375 2.585938 2.25 6.046875.804687 8.9375s-4.398437 4.71875-7.632813 4.71875zm0 0"/><path d="m204.800781 503.46875c-2.6875 0-5.214843-1.265625-6.828125-3.414062l-25.597656-34.132813c-2.828125-3.773437-2.066406-9.121094 1.703125-11.949219 3.773437-2.828125 9.121094-2.0625 11.949219 1.707032l25.597656 34.132812c1.941406 2.585938 2.253906 6.046875.808594 8.9375-1.445313 2.890625-4.402344 4.71875-7.632813 4.71875zm0 0"/><path d="m247.464844 503.46875c-2.683594 0-5.214844-1.265625-6.824219-3.414062l-25.601563-34.132813c-1.828124-2.441406-2.21875-5.671875-1.019531-8.472656 1.199219-2.804688 3.800781-4.757813 6.828125-5.121094 3.023438-.363281 6.015625.914063 7.847656 3.351563l25.597657 34.132812c1.941406 2.585938 2.25 6.046875.804687 8.9375-1.445312 2.890625-4.398437 4.71875-7.632812 4.71875zm0 0"/><path d="m290.132812 503.46875c-2.683593 0-5.214843-1.265625-6.824218-3.414062l-25.601563-34.132813c-2.828125-3.773437-2.0625-9.121094 1.707031-11.949219 3.769532-2.828125 9.117188-2.0625 11.945313 1.707032l25.601563 34.132812c1.9375 2.585938 2.25 6.046875.804687 8.9375s-4.398437 4.71875-7.632813 4.71875zm0 0"/><path d="m332.800781 503.46875c-2.6875 0-5.214843-1.265625-6.828125-3.414062l-25.597656-34.132813c-2.828125-3.773437-2.066406-9.121094 1.703125-11.949219 3.773437-2.828125 9.121094-2.0625 11.949219 1.707032l25.597656 34.132812c1.941406 2.585938 2.253906 6.046875.808594 8.9375-1.445313 2.890625-4.402344 4.71875-7.632813 4.71875zm0 0"/><path d="m375.464844 503.46875c-2.683594 0-5.214844-1.265625-6.824219-3.414062l-25.601563-34.132813c-1.828124-2.441406-2.21875-5.671875-1.019531-8.472656 1.199219-2.804688 3.800781-4.757813 6.828125-5.121094 3.023438-.363281 6.015625.914063 7.847656 3.351563l25.597657 34.132812c1.941406 2.585938 2.25 6.046875.804687 8.9375-1.445312 2.890625-4.398437 4.71875-7.632812 4.71875zm0 0"/><path d="m418.132812 503.46875c-2.683593 0-5.214843-1.265625-6.824218-3.414062l-25.601563-34.132813c-1.828125-2.441406-2.21875-5.671875-1.019531-8.472656 1.195312-2.804688 3.796875-4.757813 6.824219-5.121094 3.027343-.363281 6.019531.914063 7.847656 3.351563l25.601563 34.132812c1.9375 2.585938 2.25 6.046875.804687 8.9375s-4.398437 4.71875-7.632813 4.71875zm0 0"/><path d="m460.800781 503.46875c-2.6875 0-5.214843-1.265625-6.828125-3.414062l-25.597656-34.132813c-1.832031-2.441406-2.21875-5.671875-1.023438-8.472656 1.199219-2.804688 3.800782-4.757813 6.828126-5.121094 3.027343-.363281 6.019531.914063 7.847656 3.351563l25.597656 34.132812c1.941406 2.585938 2.253906 6.046875.808594 8.9375-1.445313 2.890625-4.402344 4.71875-7.632813 4.71875zm0 0"/><path d="m503.464844 503.46875c-2.683594 0-5.214844-1.265625-6.824219-3.414062l-25.601563-34.132813c-2.828124-3.773437-2.0625-9.121094 1.707032-11.949219 3.769531-2.828125 9.121094-2.0625 11.949218 1.707032l25.597657 34.132812c1.941406 2.585938 2.25 6.046875.804687 8.9375-1.445312 2.890625-4.398437 4.71875-7.632812 4.71875zm0 0"/></g><path d="m85.332031 469.332031c-2.261719 0-4.433593-.898437-6.03125-2.5l-42.667969-42.664062c-3.234374-3.347657-3.1875-8.671875.105469-11.964844 3.289063-3.289063 8.613281-3.335937 11.960938-.101563l35.925781 35.925782 28.160156-35.226563c2.945313-3.679687 8.316406-4.277343 11.996094-1.332031 3.683594 2.945312 4.277344 8.316406 1.332031 12l-34.132812 42.664062c-1.515625 1.894532-3.765625 3.054688-6.1875 3.191407zm0 0" fill="#71c285"/><path d="m358.398438 469.332031c-2.261719 0-4.429688-.898437-6.03125-2.5l-42.667969-42.664062c-3.234375-3.347657-3.1875-8.671875.105469-11.964844 3.292968-3.289063 8.613281-3.335937 11.960937-.101563l35.925781 35.925782 28.160156-35.226563c1.90625-2.382812 4.9375-3.566406 7.953126-3.105469 3.011718.460938 5.554687 2.492188 6.664062 5.332032 1.109375 2.84375.617188 6.058594-1.289062 8.441406l-34.132813 42.664062c-1.515625 1.894532-3.765625 3.054688-6.1875 3.191407zm0 0" fill="#71c285"/><path d="m290.132812 128h-34.132812c-4.710938 0-8.535156-3.820312-8.535156-8.53125v-42.667969c0-4.714843-3.820313-8.535156-8.53125-8.535156h-34.132813c-4.714843 0-8.535156 3.820313-8.535156 8.535156v42.667969c0 4.710938-3.820313 8.53125-8.53125 8.53125h-34.132813c-4.714843 0-8.535156 3.820312-8.535156 8.535156v34.132813c0 4.710937 3.820313 8.53125 8.535156 8.53125h34.132813c4.710937 0 8.53125 3.820312 8.53125 8.535156v110.933594c0 4.710937 3.820313 8.53125 8.535156 8.53125h34.132813c4.710937 0 8.53125-3.820313 8.53125-8.53125v-110.933594c0-4.714844 3.824218-8.535156 8.535156-8.535156h34.132812c4.714844 0 8.535157-3.820313 8.535157-8.53125v-34.132813c0-4.714844-3.820313-8.535156-8.535157-8.535156zm0 0" fill="#35495e"/><path d="m34.132812 503.46875c-2.683593 0-5.214843-1.265625-6.824218-3.414062l-25.601563-34.132813c-1.941406-2.585937-2.25-6.046875-.804687-8.9375 1.445312-2.890625 4.398437-4.71875 7.632812-4.71875h494.929688c4.714844 0 8.535156 3.820313 8.535156 8.535156 0 4.710938-3.820312 8.53125-8.535156 8.53125h-477.863282l15.359376 20.480469c1.9375 2.585938 2.25 6.046875.804687 8.9375s-4.398437 4.71875-7.632813 4.71875zm0 0" fill="#4c8056"/></svg>