<svg height="512pt" viewBox="0 0 512 512.0005" width="512pt" xmlns="http://www.w3.org/2000/svg"><path d="m0 465.519531h512v46.480469h-512zm0 0" fill="#8bc34a"/><path d="m324.265625 230.398438c0 18.851562 15.285156 34.136718 34.132813 34.136718l.003906 204.796875h-273.070313v-204.796875c18.851563 0 34.136719-15.285156 34.136719-34.136718 0-18.851563-15.285156-34.132813-34.136719-34.132813v-47.699219c-.488281-71.441406 53.144531-131.667968 124.160157-139.4375 3.671874-.339844 7.425781-.59375 11.265624-.59375h1.109376c36.226562-.050781 70.980468 14.320313 96.597656 39.933594 25.613281 25.617188 39.984375 60.371094 39.933594 96.597656v51.199219c-18.847657 0-34.132813 15.28125-34.132813 34.132813zm0 0" fill="#607d8b"/><path d="m298.667969 230.398438c0 18.851562 15.28125 34.136718 34.132812 34.136718v204.796875h-247.46875v-204.796875c18.851563 0 34.136719-15.285156 34.136719-34.136718 0-18.851563-15.285156-34.132813-34.136719-34.132813v-47.699219c-.488281-71.441406 53.144531-131.667968 124.160157-139.4375 70 6.753906 123.390624 65.613282 123.308593 135.9375v51.199219c-18.851562 0-34.132812 15.28125-34.132812 34.132813zm0 0" fill="#cfd8dc"/><g fill="#37474f"><path d="m435.199219 145.066406v51.199219h-76.800781v-51.199219c.050781-36.226562-14.320313-70.980468-39.933594-96.597656-25.617188-25.613281-60.371094-39.984375-96.597656-39.933594h76.800781c36.222656-.050781 70.980469 14.320313 96.59375 39.933594 25.617187 25.617188 39.984375 60.371094 39.9375 96.597656zm0 0"/><path d="m435.199219 264.535156h-76.800781c-18.847657 0-34.132813-15.285156-34.132813-34.136718 0-18.851563 15.285156-34.132813 34.132813-34.132813h76.800781c-18.851563 0-34.132813 15.28125-34.132813 34.132813 0 18.851562 15.28125 34.136718 34.132813 34.136718zm0 0"/><path d="m358.398438 264.535156h76.800781v204.796875h-76.800781zm0 0"/></g><path d="m409.601562 145.066406v51.199219h-51.203124v-51.199219c.050781-36.226562-14.320313-70.980468-39.933594-96.597656-25.617188-25.613281-60.371094-39.984375-96.597656-39.933594h51.199218c36.226563-.050781 70.980469 14.320313 96.597656 39.933594 25.613282 25.617188 39.984376 60.371094 39.9375 96.597656zm0 0" fill="#607d8b"/><path d="m358.398438 264.535156h51.203124v204.796875h-51.203124zm0 0" fill="#607d8b"/><path d="m358.398438 477.867188h-196.265626c-4.710937 0-8.53125-3.820313-8.53125-8.535157 0-4.710937 3.820313-8.53125 8.53125-8.53125h196.265626c4.714843 0 8.535156 3.820313 8.535156 8.53125 0 4.714844-3.820313 8.535157-8.535156 8.535157zm0 0" fill="#4c8056"/><path d="m290.132812 136.535156h-34.132812c-4.710938 0-8.53125-3.824218-8.53125-8.535156v-42.667969c0-4.710937-3.824219-8.53125-8.535156-8.53125h-34.132813c-4.714843 0-8.535156 3.820313-8.535156 8.53125v42.667969c0 4.710938-3.820313 8.535156-8.53125 8.535156h-34.132813c-4.714843 0-8.535156 3.820313-8.535156 8.53125v34.132813c0 4.714843 3.820313 8.535156 8.535156 8.535156h34.132813c4.710937 0 8.53125 3.820313 8.53125 8.53125v110.933594c0 4.714843 3.820313 8.535156 8.535156 8.535156h34.132813c4.710937 0 8.535156-3.820313 8.535156-8.535156v-110.933594c0-4.710937 3.820312-8.53125 8.53125-8.53125h34.132812c4.714844 0 8.535157-3.820313 8.535157-8.535156v-34.132813c0-4.710937-3.820313-8.53125-8.535157-8.53125zm0 0" fill="#37474f"/><path d="m27.308594 508.585938c1.828125 2.441406 4.820312 3.71875 7.847656 3.351562 3.023438-.363281 5.628906-2.316406 6.824219-5.117188 1.199219-2.804687.808593-6.035156-1.019531-8.472656l-15.359376-20.480468h21.332032l23.039062 30.71875c1.832032 2.441406 4.820313 3.71875 7.847656 3.351562 3.027344-.363281 5.628907-2.316406 6.828126-5.117188 1.195312-2.804687.808593-6.035156-1.019532-8.472656l-15.363281-20.480468h21.335937l23.039063 30.71875c1.828125 2.441406 4.820313 3.71875 7.847656 3.351562 3.027344-.363281 5.628907-2.316406 6.824219-5.117188 1.199219-2.804687.808594-6.035156-1.019531-8.472656l-15.359375-20.480468h21.332031l23.042969 30.71875c2.824218 3.769531 8.175781 4.535156 11.945312 1.707031 3.769532-2.828125 4.535156-8.175781 1.707032-11.945313l-15.359376-20.480468h21.332032l23.039062 30.71875c2.828125 3.769531 8.175782 4.535156 11.949219 1.707031 3.769531-2.828125 4.53125-8.175781 1.707031-11.945313l-15.363281-20.480468h21.335937l23.039063 30.71875c2.828125 3.769531 8.175781 4.535156 11.945313 1.707031 3.769531-2.828125 4.535156-8.175781 1.707031-11.945313l-15.359375-20.480468h21.332031l23.042969 30.71875c1.828125 2.441406 4.820312 3.71875 7.847656 3.351562 3.023438-.363281 5.628906-2.316406 6.824219-5.117188 1.199219-2.804687.808593-6.035156-1.019531-8.472656l-15.359376-20.480468h21.332032l23.039062 30.71875c1.832032 2.441406 4.820313 3.71875 7.847656 3.351562 3.027344-.363281 5.628907-2.316406 6.828126-5.117188 1.195312-2.804687.808593-6.035156-1.019532-8.472656l-15.363281-20.480468h21.335937l23.039063 30.71875c2.828125 3.769531 8.175781 4.535156 11.945313 1.707031 3.769531-2.828125 4.535156-8.175781 1.707031-11.945313l-15.359375-20.480468h21.332031l23.042969 30.71875c1.828125 2.441406 4.820312 3.71875 7.847656 3.351562 3.023438-.363281 5.628906-2.316406 6.824219-5.117188 1.199219-2.804687.808593-6.035156-1.019531-8.472656l-15.359376-20.480468h21.332032l23.039062 30.71875c2.828125 3.769531 8.175782 4.535156 11.949219 1.707031 3.769531-2.828125 4.53125-8.175781 1.707031-11.945313l-15.363281-20.480468h21.335937l23.039063 30.71875c1.828125 2.441406 4.820313 3.71875 7.847656 3.351562 3.027344-.363281 5.628907-2.316406 6.824219-5.117188 1.199219-2.804687.808594-6.035156-1.019531-8.472656l-15.359375-20.480468h8.535156c4.710938 0 8.53125-3.820313 8.53125-8.535157 0-4.710937-3.820312-8.53125-8.53125-8.53125h-59.734375v-196.265625c0-4.714844-3.820313-8.535156-8.535156-8.535156-14.136719 0-25.597657-11.460938-25.597657-25.601562 0-14.136719 11.460938-25.597657 25.597657-25.597657 4.714843 0 8.535156-3.820312 8.535156-8.535156v-51.199219c.058594-38.429687-15.160156-75.308594-42.3125-102.507812-27.148437-27.195313-64-42.4843752-102.429687-42.4921878-.113282-.0078124-.214844-.0664062-.324219-.0664062h-76.800781c-.078126 0-.136719.0429688-.214844.0429688-.3125 0-.628906 0-.953125 0-80.511719 1.8320312-144.613281 67.9960932-143.898438 148.5234372v47.699219c0 4.714844 3.820313 8.535156 8.53125 8.535156 14.140625 0 25.601563 11.460938 25.601563 25.597657 0 14.140624-11.460938 25.601562-25.601563 25.601562-4.710937 0-8.53125 3.820312-8.53125 8.535156v184.199219l-28.101562-28.101563c-3.347657-3.234374-8.667969-3.1875-11.960938.105469-3.292969 3.289063-3.339843 8.613281-.105469 11.960938l28.101563 28.101562h-56.199219c-3.234375 0-6.1875 1.824219-7.632812 4.714844-1.445313 2.890625-1.132813 6.351563.804687 8.9375zm348.847656-47.785157 23.042969-28.800781c2.945312-3.679688 2.347656-9.050781-1.332031-11.996094-3.679688-2.949218-9.050782-2.351562-12 1.328125l-18.933594 23.671875v-171.9375h59.734375v187.734375zm25.082031-204.800781h-42.839843c-14.136719 0-25.597657-11.460938-25.597657-25.601562 0-14.136719 11.460938-25.597657 25.597657-25.597657h42.839843c-11.605469 15.09375-11.605469 36.105469 0 51.199219zm-103.621093-238.933594c34.144531-.328125 67 13.019532 91.242187 37.0625 24.242187 24.046875 37.855469 56.792969 37.808594 90.9375v42.667969h-59.734375v-42.667969c.09375-38.5-15.183594-75.449218-42.445313-102.640625-10.082031-10.070312-21.582031-18.613281-34.132812-25.359375zm-169.617188 213.332032c-.023438-20.265626-14.277344-37.730469-34.132812-41.8125v-40.019532c-.757813-71.179687 55.804687-129.761718 126.96875-131.5 34.140624-.324218 66.992187 13.023438 91.230468 37.070313 24.238282 24.042969 37.851563 56.789062 37.800782 90.929687v43.519532c-19.886719 4.039062-34.175782 21.523437-34.175782 41.8125 0 20.292968 14.289063 37.777343 34.175782 41.816406v176.519531l-28.101563-28.101563c-3.347656-3.234374-8.667969-3.1875-11.960937.105469-3.292969 3.289063-3.339844 8.613281-.105469 11.960938l28.101562 28.101562h-234.667969l23.042969-28.800781c2.945313-3.679688 2.347657-9.050781-1.332031-11.996094-3.679688-2.949218-9.054688-2.351562-12 1.328125l-18.976562 23.671875v-172.789062c19.855468-4.082032 34.109374-21.546875 34.132812-41.816406zm0 0"/><path d="m153.601562 196.265625h34.132813v110.933594c0 9.425781 7.640625 17.066406 17.066406 17.066406h34.132813c9.425781 0 17.066406-7.640625 17.066406-17.066406v-110.933594h34.132812c9.425782 0 17.066407-7.640625 17.066407-17.066406v-34.132813c0-9.425781-7.640625-17.066406-17.066407-17.066406h-34.132812v-42.667969c0-9.425781-7.640625-17.066406-17.066406-17.066406h-34.132813c-9.425781 0-17.066406 7.640625-17.066406 17.066406v42.667969h-34.132813c-9.425781 0-17.066406 7.640625-17.066406 17.066406v34.132813c0 9.425781 7.640625 17.066406 17.066406 17.066406zm0-51.199219h34.132813c9.425781 0 17.066406-7.640625 17.066406-17.066406v-42.667969h34.132813v42.667969c0 9.425781 7.640625 17.066406 17.066406 17.066406h34.132812v34.132813h-34.132812c-9.425781 0-17.066406 7.640625-17.066406 17.066406v110.933594h-34.132813v-110.933594c0-9.425781-7.640625-17.066406-17.066406-17.066406h-34.132813zm0 0"/></svg>