<?xml version="1.0" encoding="UTF-8" standalone="no"?> <svg xmlns="http://www.w3.org/2000/svg" viewBox="0 0 64 64"><defs><style>.cls-1{fill:#dfdfdf;}.cls-1,.cls-3,.cls-5{stroke:#54596e;stroke-linecap:round;stroke-linejoin:round;stroke-width:2px;}.cls-2{fill:#ff927d;}.cls-3{fill:none;}.cls-4{fill:#54596e;}.cls-5{fill:#999;}</style></defs><title>safekey</title><g id="safekey"><path class="cls-1" d="M54,22.66l0,0A9.62,9.62,0,0,0,40.37,9.08l0,0c-3.76-3.76-9.15-4.47-12.9-.71s-2.34,8.44,1.41,12.2l4.68,4.68L6.67,52.09a3,3,0,0,0,4.24,4.24L37.78,29.46l4.68,4.68c3.76,3.76,8.44,5.17,12.2,1.41S57.71,26.42,54,22.66Zm-7.69-5.92a3,3,0,1,1,4.24,0A3,3,0,0,1,46.26,16.74Z"/><circle class="cls-2" cx="48.38" cy="27.34" r="2" transform="translate(-5.16 42.22) rotate(-45)"/><circle class="cls-2" cx="35.66" cy="14.62" r="2" transform="translate(0.11 29.49) rotate(-45)"/><path class="cls-3" d="M36.22,19.52a7,7,0,0,0,2.27,5,7,7,0,0,0,5,2.27"/><circle class="cls-4" cx="49.8" cy="23.81" r="1.5" transform="translate(-2.25 42.19) rotate(-45)"/><circle class="cls-4" cx="39.19" cy="13.2" r="1.5" transform="translate(2.14 31.58) rotate(-45)"/><path class="cls-5" d="M17.66,49h5a2,2,0,0,1,2,2v0a2,2,0,0,1-2,2h-5a0,0,0,0,1,0,0V49a0,0,0,0,1,0,0Z" transform="translate(42.28 -0.02) rotate(45)"/><path class="cls-5" d="M4.93,43.37h5a2,2,0,0,1,2,2v0a2,2,0,0,1-2,2h-5a0,0,0,0,1,0,0v-4a0,0,0,0,1,0,0Z" transform="translate(-17.69 83.42) rotate(-135)"/><path class="cls-5" d="M12,36.3h5a2,2,0,0,1,2,2v0a2,2,0,0,1-2,2H12a0,0,0,0,1,0,0v-4a0,0,0,0,1,0,0Z" transform="translate(-0.62 76.35) rotate(-135)"/></g></svg>