<?xml version="1.0" encoding="iso-8859-1"?>
<!-- Generator: Adobe Illustrator 19.0.0, SVG Export Plug-In . SVG Version: 6.00 Build 0)  -->
<svg version="1.1" id="Capa_1" xmlns="http://www.w3.org/2000/svg" xmlns:xlink="http://www.w3.org/1999/xlink" x="0px" y="0px"
	 viewBox="0 0 512 512" style="enable-background:new 0 0 512 512;" xml:space="preserve">
<g>
	<polygon style="fill:#4482C3;" points="375.467,72.533 334.268,448 169.199,448 128,72.533 	"/>
	<path style="fill:#E6E7E8;" d="M153.6,4.267h196.267c9.426,0,17.067,7.641,17.067,17.067v34.133h-230.4V21.333
		C136.533,11.908,144.174,4.267,153.6,4.267z"/>
	<path style="fill:#D1D4D1;" d="M128,38.4h247.467c9.426,0,17.067,7.641,17.067,17.067v17.067c0,4.713-3.82,8.533-8.533,8.533
		H119.467c-4.713,0-8.533-3.821-8.533-8.533V55.467C110.933,46.041,118.574,38.4,128,38.4z"/>
	<path style="fill:#14A085;" d="M324.267,354.133v76.8h-39.168c-2.237,0.018-4.379,0.905-5.973,2.475L238.933,473.6l-40.192-40.192
		c-1.594-1.57-3.736-2.457-5.973-2.475H51.2v-76.8H324.267z"/>
	<path style="fill:#804537;" d="M324.267,320.085c-0.48-0.071-0.966-0.099-1.451-0.085H51.2c-7.113,0.005-13.903,2.968-18.743,8.18
		c-4.84,5.212-7.293,12.203-6.772,19.297c1.464,13.71,13.18,24.018,26.965,23.723h271.616c7.113-0.005,13.903-2.968,18.743-8.18
		c4.84-5.212,7.293-12.203,6.772-19.297C348.405,330.561,337.495,320.454,324.267,320.085z"/>
	<path style="fill:#F0C419;" d="M324.267,260.267v59.819c-0.48-0.071-0.966-0.099-1.451-0.085H199.765
		c-2.237,0.018-4.379,0.905-5.973,2.475L145.067,371.2l-48.725-48.725c-1.594-1.57-3.736-2.457-5.973-2.475H51.2v-59.733H324.267z"
		/>
	<g>
		<path style="fill:#F29C1F;" d="M341.333,277.333h-307.2c-4.713,0-8.533-3.82-8.533-8.533v-8.533
			c0-22.632,8.99-44.337,24.994-60.34s37.708-24.994,60.34-24.994h153.6c47.128,0,85.333,38.205,85.333,85.333v8.533
			C349.867,273.513,346.046,277.333,341.333,277.333z"/>
		<path style="fill:#F29C1F;" d="M349.867,422.4V448c0,28.277-22.923,51.2-51.2,51.2H76.8c-28.277,0-51.2-22.923-51.2-51.2v-25.6
			c0-4.713,3.821-8.533,8.533-8.533h158.635c2.237,0.018,4.379,0.905,5.973,2.475l40.192,40.192l40.192-40.192
			c1.594-1.57,3.736-2.457,5.973-2.475h56.235C346.046,413.867,349.867,417.687,349.867,422.4z"/>
	</g>
	<g>
		<path style="fill:#E57E25;" d="M119.467,209.067h-8.533c-4.713,0-8.533,3.821-8.533,8.533c0,4.713,3.821,8.533,8.533,8.533h8.533
			c4.713,0,8.533-3.821,8.533-8.533C128,212.887,124.179,209.067,119.467,209.067z"/>
		<path style="fill:#E57E25;" d="M170.667,226.133h-8.533c-4.713,0-8.533,3.821-8.533,8.533c0,4.713,3.821,8.533,8.533,8.533h8.533
			c4.713,0,8.533-3.821,8.533-8.533C179.2,229.954,175.38,226.133,170.667,226.133z"/>
		<path style="fill:#E57E25;" d="M273.067,226.133h-8.533c-4.713,0-8.533,3.821-8.533,8.533c0,4.713,3.821,8.533,8.533,8.533h8.533
			c4.713,0,8.533-3.821,8.533-8.533C281.6,229.954,277.78,226.133,273.067,226.133z"/>
		<path style="fill:#E57E25;" d="M221.867,209.067h-8.533c-4.713,0-8.533,3.821-8.533,8.533c0,4.713,3.82,8.533,8.533,8.533h8.533
			c4.713,0,8.533-3.821,8.533-8.533C230.4,212.887,226.579,209.067,221.867,209.067z"/>
	</g>
	<path style="fill:#E64C3C;" d="M247.467,277.504c-1.024-0.085-1.963-0.171-2.987-0.171h-7.339
		c-1.967-0.004-3.838,0.854-5.118,2.348c-1.28,1.494-1.842,3.473-1.538,5.417L263.245,499.2h190.208l32.853-214.187
		c0.286-1.946-0.298-3.92-1.595-5.398c-1.298-1.478-3.179-2.313-5.146-2.282h-7.253c-3.923-0.001-7.818,0.663-11.52,1.963
		L247.467,277.504z"/>
	<g>
		<path style="fill:#F0C419;" d="M375.543,349.952c-14.399,2.318-29.12,1.679-43.264-1.877l0.521-2.475V198.656
			c0.005-3.674,2.982-6.651,6.656-6.656h29.355c3.674,0.005,6.651,2.982,6.656,6.656v150.699L375.543,349.952z"/>
		<path style="fill:#F0C419;" d="M290.133,243.2v78.933c-6.019-7.135-10.833-15.206-14.251-23.893
			c-4.797-11.723-15.789-19.743-28.416-20.736v-27.648c0.005-3.674,2.982-6.651,6.656-6.656H290.133z"/>
	</g>
	<g>
		<path style="fill:#F3D55B;" d="M332.8,209.067V345.6l-0.512,2.475h-0.085c-16.444-3.908-31.194-13.003-42.069-25.941V215.723
			c0.005-3.674,2.982-6.651,6.656-6.656H332.8z"/>
		<path style="fill:#F3D55B;" d="M418.987,329.899c-12.173,10.839-27.29,17.818-43.435,20.053l-0.085-0.597V209.067H409.6
			c4.713,0,8.533,3.821,8.533,8.533v111.275L418.987,329.899z"/>
	</g>
	<path style="fill:#F0C419;" d="M460.8,241.323v37.973c-9.045,3.158-16.291,10.062-19.883,18.944
		c-4.717,12.11-12.198,22.951-21.845,31.659h-0.085l-0.853-1.024v-94.208h36.011C457.818,234.671,460.795,237.649,460.8,241.323z"/>
	<circle style="fill:#E6E7E8;" cx="354.125" cy="426.667" r="38.4"/>
	<path style="fill:#804537;" d="M503.467,507.733H8.533C3.821,507.733,0,503.913,0,499.2c0-4.713,3.821-8.533,8.533-8.533h494.933
		c4.713,0,8.533,3.821,8.533,8.533C512,503.913,508.18,507.733,503.467,507.733z"/>
</g>
<g>
</g>
<g>
</g>
<g>
</g>
<g>
</g>
<g>
</g>
<g>
</g>
<g>
</g>
<g>
</g>
<g>
</g>
<g>
</g>
<g>
</g>
<g>
</g>
<g>
</g>
<g>
</g>
<g>
</g>
</svg>
