<svg height="512" viewBox="0 0 60 60" width="512" xmlns="http://www.w3.org/2000/svg"><g id="040---Sharp-Bends" fill="none" transform="translate(-1 -1)"><path id="Shape" d="m59.42 29.59-27-27c-.3751365-.37555409-.8841815-.58657331-1.415-.58657331s-1.0398635.21101922-1.415.58657331l-27 27c-.37555409.3751365-.58657331.8841815-.58657331 1.415s.21101922 1.0398635.58657331 1.415l27 27c.3751365.3755541.8841815.5865733 1.415.5865733s1.0398635-.2110192 1.415-.5865733l27-27c.3755541-.3751365.5865733-.8841815.5865733-1.415s-.2110192-1.0398635-.5865733-1.415z" fill="#f0c419"/><g fill="#393f4a"><path id="Shape" d="m28.88 60.13-27-27c-.56486356-.5629056-.88236571-1.3275456-.88236571-2.125s.31750215-1.5620944.88236571-2.125l27-27c.5629056-.56486356 1.3275456-.88236571 2.125-.88236571s1.5620944.31750215 2.125.88236571l27 27c1.1698135 1.1712702 1.1698135 3.0687298 0 4.24l-27 27c-.5615754.5661901-1.3254687.8854928-2.1229238.8873692-.7974551.0018763-1.5628426-.3138281-2.1270762-.8773692zm1.42-56.84-27 27c-.38772359.3900375-.38772359 1.0199625 0 1.41l27 27c.1877666.1893127.4433625.2957983.71.2957983s.5222334-.1064856.71-.2957983l27-27c.3877236-.3900375.3877236-1.0199625 0-1.41l-27-27c-.1877666-.18931265-.4433625-.29579832-.71-.29579832s-.5222334.10648567-.71.29579832z"/><path id="Shape" d="m28 22c.0002539.4982843-.3177429.9410645-.79 1.1l-.31.11c-3.2855237 1.0837378-5.3237974 4.3643477-4.84 7.79.4338463 2.7725616 2.4026346 5.0591464 5.08 5.9l6.07 2c.4729529.158327.7917609.6012497.7917609 1.1s-.318808.941673-.7917609 1.1l-.31.11c-2.9264207.9701908-4.9014005 3.7069485-4.9 6.79v4c0 .5522847.4477153 1 1 1h4c.5522847 0 1-.4477153 1-1v-4c-.0002539-.4982843.3177429-.9410645.79-1.1l.31-.11c3.2855237-1.0837378 5.3237974-4.3643477 4.84-7.79-.4338463-2.7725616-2.4026346-5.0591464-5.08-5.9l-6.07-2c-.4729529-.158327-.7917609-.6012497-.7917609-1.1s.318808-.941673.7917609-1.1l.31-.11c2.9264207-.9701908 4.9014005-3.7069485 4.9-6.79v-4.33l3.54.59c.4105369.0878491.8322345-.0900862 1.0557481-.4454729.2235137-.3553866.2012462-.8125452-.0557481-1.1445271l-7.14-9.47c-.0944272-.12590292-.2426213-.2-.4-.2s-.3055728.07409708-.4.2l-7.1 9.47c-.2569943.3319819-.2792618.7891405-.0557481 1.1445271.2235136.3553867.6452112.533322 1.0557481.4454729l3.5-.59z"/></g></g></svg>