<svg height="512" viewBox="0 0 60 60" width="512" xmlns="http://www.w3.org/2000/svg"><g id="040---Sharp-Bends" fill="none"><g id="Layer_10" transform="translate(1 1)"><path id="Shape" d="m57.42 30.42-27 27c-.3751365.3755541-.8841815.5865733-1.415.5865733s-1.0398635-.2110192-1.415-.5865733l-27-27c-.37555409-.3751365-.58657331-.8841815-.58657331-1.415s.21101922-1.0398635.58657331-1.415c26.28-26.11 26.48-26.47 27-27 .3751365-.37555409.8841815-.58657331 1.415-.58657331s1.0398635.21101922 1.415.58657331l27 27c.3755541.3751365.5865733.8841815.5865733 1.415s-.2110192 1.0398635-.5865733 1.415z" fill="#fec108"/><path id="Shape" d="m53.92 30.42-26.66 26.67-26.67-26.67c-.37555409-.3751365-.58657331-.8841815-.58657331-1.415s.21101922-1.0398635.58657331-1.415l26.67-26.66 26.66 26.66c.3755541.3751365.5865733.8841815.5865733 1.415s-.2110192 1.0398635-.5865733 1.415z" fill="#ffdc00"/><path id="Shape" d="m26 20c.0002539.4982843-.3177429.9410645-.79 1.1l-.31.11c-3.2855237 1.0837378-5.3237974 4.3643477-4.84 7.79.4338463 2.7725616 2.4026346 5.0591464 5.08 5.9l6.07 2c.4729529.158327.7917609.6012497.7917609 1.1s-.318808.941673-.7917609 1.1l-.31.11c-2.9264207.9701908-4.9014005 3.7069485-4.9 6.79v4c0 .5522847.4477153 1 1 1h4c.5522847 0 1-.4477153 1-1v-4c-.0002539-.4982843.3177429-.9410645.79-1.1l.31-.11c3.2855237-1.0837378 5.3237974-4.3643477 4.84-7.79-.4338463-2.7725616-2.4026346-5.0591464-5.08-5.9l-6.07-2c-.4729529-.158327-.7917609-.6012497-.7917609-1.1s.318808-.941673.7917609-1.1l.31-.11c2.9264207-.9701908 4.9014005-3.7069485 4.9-6.79v-4.33l3.54.59c.4105369.0878491.8322345-.0900862 1.0557481-.4454729.2235137-.3553866.2012462-.8125452-.0557481-1.1445271l-7.14-9.47c-.0944272-.12590292-.2426213-.2-.4-.2s-.3055728.07409708-.4.2l-7.1 9.47c-.2569943.3319819-.2792618.7891405-.0557481 1.1445271.2235136.3553867.6452112.533322 1.0557481.4454729l3.5-.59z" fill="#37474f"/></g><g id="Layer_2" fill="#000" transform="translate(-1 -1)"><path id="Shape" d="m60.13 28.88-27-27c-.5629056-.56486356-1.3275456-.88236571-2.125-.88236571s-1.5620944.31750215-2.125.88236571l-27 27c-.56486356.5629056-.88236571 1.3275456-.88236571 2.125s.31750215 1.5620944.88236571 2.125l27 27c.5629056.5648636 1.3275456.8823657 2.125.8823657s1.5620944-.3175021 2.125-.8823657l27-27c.5648636-.5629056.8823657-1.3275456.8823657-2.125s-.3175021-1.5620944-.8823657-2.125zm-1.42 2.83-27 27c-.1877666.1893127-.4433625.2957983-.71.2957983s-.5222334-.1064856-.71-.2957983l-27-27c-.38772359-.3900375-.38772359-1.0199625 0-1.41l27-27c.3900375-.38772359 1.0199625-.38772359 1.41 0l27 27c.3905035.3872819.3949712 1.0172183.01 1.41z"/><path id="Shape" d="m35.18 32.18c-6.41-2.13-6.18-2-6.18-2.18s.11-.15.41-.26c3.3299824-1.1147841 5.5786984-4.2283908 5.59-7.74v-3.15l2.38.4c.8073143.1329358 1.6141864-.2392668 2.0370814-.9396867s.37652-1.5877906-.1170814-2.2403133l-7.1-9.47c-.2943839-.36007658-.7349011-.56892916-1.2-.56892916s-.9056161.20885258-1.2.56892916l-7.1 9.47c-.4936014.6525227-.5399764 1.5398934-.1170814 2.2403133s1.2297671 1.0726225 2.0370814.9396867l2.38-.4v3.15c0 .14-.11.15-.41.26-3.7115743 1.2546272-6.0218272 4.95438-5.52 8.84.4890086 3.1483409 2.7151489 5.7500214 5.75 6.72 6.41 2.18 6.18 2 6.18 2.18s-.11.15-.41.26c-3.3299824 1.1147841-5.5786984 4.2283908-5.59 7.74v4c0 1.1045695.8954305 2 2 2h4c1.1045695 0 2-.8954305 2-2v-4c0-.14.11-.15.41-.26 3.7115743-1.2546272 6.0218272-4.95438 5.52-8.84-.4890086-3.1483409-2.7151489-5.7500214-5.75-6.72zm-.41 13.67-.3.1c-.8776477.2990998-1.468292 1.1227874-1.47 2.05v4h-4v-4c-.0031948-2.659487 1.7034371-5.0197225 4.23-5.85l.3-.1c.873061-.3030663 1.4583821-1.1258329 1.4583821-2.05s-.5853211-1.7469337-1.4583821-2.05l-6.07-2c-2.3131707-.7219157-4.020248-2.6883449-4.41-5.08-.3920566-2.944022 1.3621401-5.7515761 4.18-6.69l.3-.1c.8881571-.3026083 1.481221-1.1417735 1.47-2.08v-4.33c.0038102-.2954177-.1232063-.5774004-.3469772-.7703064-.223771-.192906-.5213907-.2769889-.8130228-.2296936l-3.54.59 6.7-8.93 6.7 8.94-3.54-.59c-.2916321-.0472953-.5892518.0367876-.8130228.2296936-.2237709.192906-.3507874.4748887-.3469772.7703064v4.32c.0031948 2.659487-1.7034371 5.0197225-4.23 5.85l-.3.1c-.873061.3030663-1.4583821 1.1258329-1.4583821 2.05s.5853211 1.7469337 1.4583821 2.05l6.07 2c2.3412282.7107623 4.0723401 2.6941663 4.46 5.11.3861884 2.9579284-1.3922003 5.7705573-4.23 6.69z"/></g></g></svg>