<?xml version="1.0" encoding="UTF-8" standalone="no"?> <svg xmlns="http://www.w3.org/2000/svg" viewBox="0 0 64 64"><defs><style>.cls-1{fill:#999;}.cls-1,.cls-2,.cls-6{stroke:#54596e;stroke-linecap:round;stroke-linejoin:round;stroke-width:2px;}.cls-2{fill:#f99;}.cls-3,.cls-4{fill:#54596e;}.cls-3{opacity:0.1;}.cls-5{fill:#fff;}.cls-6{fill:none;}</style></defs><title>Deadpool</title><g id="Deadpool"><rect class="cls-1" x="50" y="36" width="4" height="19" transform="translate(25.47 -18.3) rotate(26.23)"/><rect class="cls-1" x="10" y="36" width="4" height="19" transform="translate(42.88 81.01) rotate(153.77)"/><path class="cls-2" d="M53,53H44V43H20V53H11A10,10,0,0,0,1,63H63A10,10,0,0,0,53,53Z"/><path class="cls-2" d="M45.85,8.76C42.76,3.14,36.71,2,32,2S21.24,3.14,18.15,8.76A33.57,33.57,0,0,0,14,26c0,12.75,9.07,27,18,27S50,38.75,50,26A33.57,33.57,0,0,0,45.85,8.76Z"/><path class="cls-3" d="M32,47c-8.32,0-16.76-12.37-17.87-24.38C14,23.72,14,24.84,14,26c0,12.75,9.07,27,18,27S50,38.75,50,26c0-1.16,0-2.28-.13-3.38C48.76,34.63,40.32,47,32,47Z"/><path class="cls-4" d="M28,24.92a15.19,15.19,0,0,0-1.19-6.34C25.9,16.45,23.39,16,22,16a3.76,3.76,0,0,0-3.78,2.52A15.2,15.2,0,0,0,17,24.92C17,29.67,20.38,35,23,35,25.38,35,28,29.67,28,24.92Z"/><path class="cls-2" d="M21,17s.29-5.33-2.36-8.67"/><path class="cls-2" d="M23,34s4,6,0,14"/><path class="cls-4" d="M36,24.92a15.19,15.19,0,0,1,1.19-6.34C38.1,16.45,40.61,16,42,16a3.76,3.76,0,0,1,3.78,2.52A15.2,15.2,0,0,1,47,24.92C47,29.67,43.62,35,41,35,38.62,35,36,29.67,36,24.92Z"/><path class="cls-5" d="M41.6,25.41a3,3,0,0,0-2.45.42l0,0a.69.69,0,0,1-1.1-.69h0a3,3,0,0,1,1.91-2A3.05,3.05,0,0,1,44,25.92a.06.06,0,0,1-.08.06Z"/><path class="cls-5" d="M22.4,25.41a3,3,0,0,1,2.45.42l0,0a.69.69,0,0,0,1.1-.69h0a3,3,0,0,0-1.91-2A3.05,3.05,0,0,0,20,25.92a.06.06,0,0,0,.08.06Z"/><path class="cls-2" d="M43,17s-.29-5.33,2.36-8.67"/><path class="cls-2" d="M41,34s-4,6,0,14"/><path class="cls-6" d="M24,58h0a4,4,0,0,1-4-4V52"/></g></svg>