<svg height="508pt" viewBox="0 -59 508.90105 508" width="508pt" xmlns="http://www.w3.org/2000/svg"><path d="m491.070312 325.929688c-2.441406 14.671874-16.308593 24.589843-30.980468 22.160156l-3.097656-.511719c-11.402344-1.949219-23.089844-1.398437-34.261719 1.609375l-84.09375 22.375c-22.855469 6.09375-46.40625 9.191406-70.0625 9.214844h-111.023438c-28.394531-.117188-55.582031-11.492188-75.605469-31.628906-21.484374-22.351563-41.210937-46.328126-59.003906-71.714844-1.097656-1.480469-4.417968-5.972656-3.980468-7.777344.214843-.898438 2.5625-2.695312 7.90625-3.882812 16.894531-3.453126 34.457031-1.148438 49.886718 6.550781 6.988282 3.886719 13.484375 8.59375 19.359375 14.019531 6.867188 6.285156 14.457031 11.734375 22.609375 16.230469 25.054688 11.617187 54.359375 9.3125 77.292969-6.078125 17.6875-11.617188 27.335937-32.195313 24.953125-53.222656-1.382812-10.972657-4.753906-21.601563-9.945312-31.367188-11.609376-23.015625-27.027344-43.902344-45.601563-61.78125-9.222656-8.976562-19.1875-17.152344-29.785156-24.449219l-1.476563-1.035156c-9.984375-8.070313-21.644531-13.8125-34.132812-16.8125-9.011719-1.328125-18.1875.980469-25.5 6.414063-17.964844 12.863281-18.988282 35.550781-19.878906 55.582031.285156 10.371093-1.265626 20.710937-4.589844 30.539062-3.179688 6.558594-9.234375 11.265625-16.375 12.730469-4.554688.964844-9.296875-.402344-12.636719-3.648438-1.847656-1.976562-2.9375-4.539062-3.082031-7.238281v-67.792969c-.003906-12.417968 4.929687-24.328124 13.714844-33.109374l57.308593-57.308594c6.179688-6.152344 15.808594-7.171875 23.140625-2.449219.78125.753906 1.695313 1.363281 2.695313 1.796875l122.601562 84.316406c2.640625 1.917969 6.113281 2.25 9.074219.871094 2.957031-1.382812 4.933594-4.257812 5.160156-7.515625.226563-3.257813-1.328125-6.378906-4.066406-8.15625l-112.855469-77.621094 10.347657-6.886719c9.910156-7.308593 22.917968-8.890624 34.292968-4.179687 1.519532.710937 2.964844 1.570313 4.3125 2.570313l98.359375 73.78125c3.96875 2.976562 9.597657 2.171874 12.574219-1.796876s2.171875-9.597656-1.796875-12.574218l-93.417969-70.0625 9.882813-6.613282c14.488281-8.4375 32.554687-7.738281 46.347656 1.796876l70.800781 61.898437c3.722656 3.253906 9.375 2.882813 12.644532-.824219 3.269531-3.710937-3.035157-11.679687-6.734376-14.921875l-62.878906-44.929687c.164063-.082032 23.148438-14.003906 33.882813-11.8125 3.632812.753906 6.949219 2.597656 9.503906 5.292968l164.820313 173.511719 2.613281 2.328125 17.839843 13.382813c8.046876 6.042969 12.054688 16.0625 10.398438 25.988281zm0 0" fill="#f09372"/><path d="m473.105469 334.914062c-2.441407 14.667969-16.308594 24.585938-30.980469 22.160157l-3.097656-.515625c-11.402344-1.945313-23.089844-1.398438-34.261719 1.609375l-84.09375 22.375c-22.855469 6.097656-46.40625 9.195312-70.0625 9.214843h-111.023437c-28.394532-.113281-55.582032-11.488281-75.605469-31.625-21.484375-22.351562-41.210938-46.328124-59.003907-71.714843-1.097656-1.484375-4.417968-5.976563-3.980468-7.78125.214844-.898438 2.5625-2.695313 7.90625-3.878907 16.894531-3.457031 34.457031-1.148437 49.886718 6.546876 6.988282 3.890624 13.484376 8.597656 19.359376 14.023437 6.867187 6.285156 14.457031 11.734375 22.609374 16.230469 25.054688 11.617187 54.359376 9.308594 77.292969-6.082032 17.6875-11.613281 27.335938-32.195312 24.953125-53.21875-1.382812-10.972656-4.753906-21.601562-9.945312-31.367187-11.609375-23.015625-27.03125-43.90625-45.601563-61.78125-9.222656-8.976563-19.1875-17.15625-29.785156-24.453125l-1.476563-1.03125c-9.984374-8.070312-21.644531-13.816406-34.132812-16.816406-9.011719-1.324219-18.1875.980468-25.5 6.414062-17.964844 12.863282-18.988281 35.554688-19.878906 55.585938.285156 10.371094-1.265625 20.710937-4.589844 30.539062-3.179688 6.558594-9.234375 11.261719-16.375 12.726563-4.558594.964843-9.296875-.402344-12.636719-3.644531-1.847656-1.976563-2.9375-4.539063-3.082031-7.242188v-67.789062c-.00390625-12.421876 4.929688-24.332032 13.714844-33.109376l57.308594-57.308593c6.179687-6.15625 15.808593-7.175781 23.140624-2.453125.78125.753906 1.695313 1.363281 2.695313 1.796875l122.601563 84.320312c2.640624 1.914063 6.113281 2.25 9.074218.867188 2.957032-1.378907 4.933594-4.257813 5.160156-7.511719.226563-3.257812-1.332031-6.382812-4.066406-8.160156l-112.855468-77.617188 10.347656-6.890625c9.917968-7.300781 22.9375-8.871093 34.3125-4.140625 1.519531.707032 2.964844 1.570313 4.3125 2.570313l98.339844 73.746093c2.566406 1.925782 5.964843 2.335938 8.917968 1.074219 2.949219-1.261719 5.003906-4 5.386719-7.1875.386719-3.183593-.960937-6.335937-3.527344-8.257812l-93.417969-70.066407 9.882813-6.609374c14.488281-8.4375 32.554687-7.738282 46.347656 1.796874l70.800781 61.898438c3.71875 3.28125 9.394532 2.925781 12.675782-.796875 3.285156-3.71875 2.925781-9.394531-.792969-12.675781l-60.480469-53.789063.511719-.25c7.363281-4.867187 16.335937-6.652343 25-4.976562 3.632813.753906 6.949219 2.597656 9.503906 5.289062l164.820313 173.515625 2.613281 2.324219 17.839844 13.386719c8.046875 6.039062 12.054687 16.058594 10.398437 25.984375zm0 0" fill="#fdd7ad"/><g fill="#f5efca"><path d="m413.191406 210.109375c-2.378906 0-4.664062-.945313-6.347656-2.628906l-44.914062-44.914063c-3.402344-3.523437-3.355469-9.128906.109374-12.59375 3.464844-3.464844 9.066407-3.511718 12.59375-.109375l44.910157 44.914063c2.570312 2.570312 3.335937 6.433594 1.945312 9.789062-1.386719 3.355469-4.664062 5.542969-8.296875 5.542969zm0 0"/><path d="m341.332031 138.25c-2.378906 0-4.664062-.945312-6.347656-2.632812l-17.964844-17.964844c-3.40625-3.523438-3.355469-9.125.109375-12.589844s9.066406-3.515625 12.589844-.109375l17.964844 17.964844c2.570312 2.570312 3.335937 6.429687 1.945312 9.789062-1.386718 3.355469-4.664062 5.542969-8.296875 5.542969zm0 0"/><path d="m426.667969 331.375c-4.121094-.007812-7.707031-2.8125-8.707031-6.808594-19.757813-79.046875 41.1875-100.316406 41.804687-100.515625 4.714844-1.578125 9.816406.960938 11.394531 5.671875 1.582032 4.714844-.957031 9.816406-5.671875 11.394532-1.914062.664062-45.71875 16.664062-30.101562 79.144531 1.203125 4.808593-1.722657 9.683593-6.527344 10.886719-.71875.164062-1.457031.238281-2.191406.226562zm0 0"/></g></svg>