<svg height="512pt" viewBox="0 -55 512.00086 512" width="512pt" xmlns="http://www.w3.org/2000/svg"><path d="m481.28125 205.984375-17.269531-12.933594c-.695313-.605469-1.824219-1.648437-2.515625-2.253906l-159.242188-167.660156c-2.492187-2.558594-5.699218-4.3125-9.199218-5.03125-8.355469-1.636719-17.019532.074219-24.125 4.773437l-.519532.257813 8.15625 7.289062 23.519532 20.914063 26.726562 23.691406c2.121094 1.832031 3.195312 4.59375 2.863281 7.378906-.136719 1.804688-.867187 3.515625-2.082031 4.859375-1.628906 1.894531-4.011719 2.972657-6.507812 2.949219-2.113282.003906-4.148438-.769531-5.726563-2.167969l-61.789063-54.066406-6.59375-5.726563c-13.347656-9.175781-30.792968-9.820312-44.78125-1.648437l-9.542968 6.335937 1.820312 1.386719 88.429688 66.300781c3.832031 2.875 4.609375 8.316407 1.734375 12.148438-1.648438 2.171875-4.214844 3.453125-6.941407 3.472656-1.875-.019531-3.695312-.625-5.207031-1.738281l-94.761719-71.070313-.261718-.175781c-1.300782-.976562-2.695313-1.820312-4.164063-2.515625-10.996093-4.503906-23.539062-2.992187-33.152343 3.992188l-9.980469 6.683594 1.476562 1.039062 107.605469 74.023438c2.726562 1.691406 4.296875 4.75 4.085938 7.949218-.214844 3.203125-2.175782 6.023438-5.101563 7.339844s-6.339844.910156-8.875-1.058594l-114.375-78.621094-3.992187-2.777343c-1.011719-.421875-1.925782-1.039063-2.691407-1.820313-7.082031-4.53125-16.363281-3.519531-22.300781 2.429688l-7.117188 7.113281-48.25 48.25c-8.503906 8.453125-13.285156 19.945313-13.277343 31.9375v65.515625c.128906 2.617188 1.171875 5.105469 2.953125 7.03125 2.785156 2.710938 6.632812 4.046875 10.5 3.644531.582031-.019531 1.160156-.078125 1.734375-.171875 6.890625-1.378906 12.738281-5.910156 15.792969-12.238281 3.246093-9.515625 4.746093-19.542969 4.425781-29.589844.695312-16.054687 1.476562-33.84375 11.714843-46.515625 2.171876-2.714844 4.710938-5.109375 7.550782-7.117187 7.050781-5.292969 15.925781-7.542969 24.644531-6.246094 12.050781 2.925781 23.308594 8.464844 32.976563 16.226563l1.390624 1.042968c10.234376 7.058594 19.871094 14.953125 28.808594 23.601563 17.898438 17.308593 32.769532 37.488281 44 59.707031 5.023438 9.425781 8.285156 19.6875 9.628906 30.285156 2.328126 20.3125-6.964843 40.207032-24.035156 51.460938-2.90625 1.980468-5.953125 3.75-9.113281 5.292968-20.683594 10.011719-44.765625 10.203126-65.605469.519532-7.867187-4.347656-15.203125-9.589844-21.867187-15.621094-5.648438-5.25-11.914063-9.796875-18.660157-13.535156-14.910156-7.484375-31.910156-9.714844-48.246093-6.335938-5.121094 1.128906-7.378907 2.863282-7.636719 3.730469-.347656 1.476563 1.996094 5.035156 3.382812 6.855469.125.246094.269532.476562.433594.695312 17.210938 24.503906 36.273438 47.65625 57.015625 69.25 19.355469 19.449219 45.628907 30.433594 73.066407 30.546875h107.261718c22.855469.011719 45.617188-2.996093 67.6875-8.9375l81.226563-21.609375c10.8125-2.859375 22.113281-3.394531 33.148437-1.5625l2.949219.523438c3.050781.507812 6.171875.449218 9.199219-.175782 10.6875-2.039062 18.96875-10.527343 20.742187-21.261718l16.835938-101.183594c1.621093-9.566406-2.230469-19.242188-9.980469-25.078125zm0 0" fill="#bfa885"/><path d="m466.9375 218.125-17.269531-12.933594c-.695313-.691406-1.824219-1.648437-2.519531-2.253906l-114.460938-120.527344-29.59375-31.070312-15.183594-16.050782c-2.273437-2.363281-5.160156-4.042968-8.332031-4.863281-.277344-.125-.566406-.210937-.867187-.257812-7.59375-1.570313-15.5-.207031-22.128907 3.816406-.695312.347656-1.300781.695313-1.996093 1.042969-.183594.019531-.363282.078125-.519532.171875l58.402344 51.980469c3.589844 3.167968 3.9375 8.640624.78125 12.238281-1.65625 1.859375-4.019531 2.933593-6.507812 2.949219-2.105469-.035157-4.128907-.800782-5.730469-2.167969l-68.382813-59.792969c-10.339844-6.875-23.097656-9.078125-35.144531-6.074219-3.429687.902344-6.683594 2.371094-9.632813 4.339844l-7.117187 4.773437-2.429687 1.648438 90.253906 67.6875c3.832031 2.875 4.609375 8.316406 1.734375 12.148438-1.652344 2.171874-4.214844 3.453124-6.941407 3.472656-1.875-.019532-3.699218-.625-5.207031-1.734375l-95-71.257813c-1.277343-1.007812-2.675781-1.851562-4.164062-2.515625-7.6875-3.519531-16.492188-3.675781-24.296875-.433593-3.113282 1.125-6.085938 2.609374-8.851563 4.425781l-7.8125 5.207031-2.167969 1.476562 109.082032 74.976563c3.953125 2.730469 4.945312 8.152344 2.210937 12.105469-2.730469 3.953125-8.148437 4.945312-12.105469 2.210937l-118.367187-81.484375c-1.003906-.390625-1.917969-.980468-2.6875-1.734375-3.574219-2.304687-7.859375-3.230469-12.0625-2.605469l-48.25 48.25c-8.507813 8.449219-13.285156 19.945313-13.277344 31.933594v65.519532c.125 2.617187 1.171875 5.105468 2.949219 7.03125 2.789062 2.710937 6.632812 4.042968 10.5 3.644531.085938-.085938.085938-.261719.175781-.347657 3.246094-9.488281 4.746094-19.484374 4.425781-29.503906.867188-19.355468 1.820313-41.308594 19.261719-53.71875 2.996094-2.140625 6.304688-3.808594 9.808594-4.945312 4.78125-1.566406 9.867187-1.984375 14.839844-1.214844 12.074219 2.851562 23.347656 8.398438 32.976562 16.226562l1.386719.953126c10.238281 7.09375 19.875 15.015624 28.8125 23.691406 17.914062 17.289062 32.789062 37.472656 43.996094 59.707031 5.035156 9.417969 8.300781 19.683594 9.632812 30.285156 1.972656 16.515625-3.867187 33.007813-15.792968 44.605469-2.554688 2.484375-5.3125 4.746094-8.246094 6.769531-22.160156 14.890625-50.492188 17.128907-74.714844 5.898438-7.890625-4.347657-15.230469-9.621094-21.871094-15.707031-5.644531-5.253907-11.910156-9.796876-18.65625-13.535157-10.925781-5.375-22.976562-8.054687-35.144531-7.8125.121094.242188.269531.476563.433594.695313 17.210937 24.503906 36.269531 47.652344 57.011719 69.25 19.347656 19.445312 45.613281 30.429687 73.042968 30.554687h107.261719c22.855469.011719 45.613281-2.996093 67.6875-8.9375l81.226563-21.609375c10.8125-2.859375 22.113281-3.394531 33.148437-1.5625l2.949219.523438c3.050781.507812 6.171875.449218 9.199218-.175782 1.710938-2.785156 2.863282-5.882812 3.382813-9.113281l16.835937-101.183593c1.644532-9.570313-2.210937-19.257813-9.976562-25.085938zm0 0" fill="#ffe0b2"/><path d="m503.324219 220.386719c3.734375 0 7.050781-2.386719 8.230469-5.933594 1.179687-3.542969-.039063-7.445313-3.027344-9.683594l-34.128906-25.59375-162.859376-171.484375c-1.957031-2.050781-4.382812-3.589844-7.074218-4.488281-14.285156-5.433594-30.285156-3.894531-43.273438 4.160156-2.851562 1.480469-5.785156 2.800781-8.785156 3.957031-9.558594-5.164062-20.253906-7.871093-31.117188-7.882812-10.195312-.003906-20.160156 3.019531-28.636718 8.679688l-15.230469 10.136718c-.375.316406-.71875.664063-1.035156 1.039063-4.574219-1.628907-9.390625-2.472657-14.246094-2.496094-11.242187-.015625-22.238281 3.304687-31.589844 9.542969l-13.882812 9.25c-.6875.515625-1.296875 1.125-1.804688 1.816406-13.613281-7.152344-30.292969-4.628906-41.179687 6.230469l-55.371094 55.363281c-11.769531 11.710938-18.3632812 27.640625-18.3125 44.242188v65.832031c-.0117188 6.980469 2.765625 13.675781 7.714844 18.59375 7.230468 7.402343 17.703125 10.664062 27.855468 8.679687 12.445313-2.425781 23.011719-10.59375 28.492188-22.023437 4.300781-11.574219 6.359375-23.863281 6.074219-36.207031.753906-16.832032 1.464843-32.730469 11.929687-40.230469 3.375-2.542969 7.597656-3.6875 11.792969-3.191407 9.355469 2.558594 18.074219 7.03125 25.609375 13.136719l1.738281 1.1875c9.4375 6.523438 18.324219 13.816407 26.5625 21.800781 16.527344 15.976563 30.265625 34.605469 40.648438 55.113282 4.054687 7.558594 6.699219 15.792968 7.808593 24.296875 1.691407 14.019531-4.832031 27.761719-16.765624 35.3125-16.898438 11.363281-38.496094 13.09375-56.988282 4.566406-6.667968-3.730469-12.871094-8.234375-18.484375-13.417969-6.703125-6.15625-14.136719-11.464844-22.136719-15.800781-18.417968-9.238281-39.421874-11.960937-59.582031-7.726563-9.585937.949219-17.730469 7.414063-20.828125 16.53125-1.160156 7.988282 1.320313 16.074219 6.757813 22.035157 17.703125 25.253906 37.347656 49.09375 58.75 71.296875 22.59375 22.679687 53.25 35.480468 85.261719 35.597656h107.261718c24.371094 0 48.640625-3.183594 72.191406-9.46875l81.226563-21.648438c8.402344-2.265624 17.199219-2.683593 25.78125-1.234374l37.183594 6.195312c4.664062.667969 9.007812-2.511719 9.785156-7.15625.777344-4.648438-2.292969-9.066406-6.921875-9.957031l-37.191406-6.195313c-11.023438-1.855468-22.320313-1.316406-33.117188 1.582032l-81.222656 21.691406c-22.09375 5.875-44.855469 8.84375-67.714844 8.835937h-107.261718c-27.421876-.125-53.683594-11.105469-73.03125-30.539062-20.753907-21.582031-39.804688-44.738281-56.988282-69.257813-2.855468-3.851562-4.160156-6.378906-3.871094-7.523437.207032-.867188 2.472657-2.601563 7.644532-3.757813 16.3125-3.398437 33.296875-1.179687 48.1875 6.300782 6.730468 3.734374 12.988281 8.261718 18.640625 13.484374 6.644531 6.097657 13.996093 11.367188 21.902343 15.699219 24.183594 11.230469 52.472657 9.03125 74.632813-5.796875 17.105469-11.195312 26.460937-31.0625 24.195313-51.382812-1.316407-10.625-4.566407-20.917969-9.589844-30.371094-11.265625-22.234375-26.164063-42.429688-44.085938-59.75-8.933594-8.636719-18.570312-16.515625-28.808594-23.558594l-1.675781-1.171875c-9.582031-7.726562-20.773437-13.207031-32.75-16.039062-8.710937-1.253907-17.5625.988281-24.628906 6.230469-17.3125 12.375-18.292969 34.226562-19.160156 53.5.273437 10.070312-1.246094 20.109374-4.496094 29.644531-3.058594 6.320312-8.890625 10.859375-15.769531 12.273437-4.578125 1.003906-9.351563-.445312-12.597656-3.828125-1.679688-1.6875-2.617188-3.972656-2.605469-6.351562v-65.832031c-.03125-11.992188 4.734375-23.496094 13.234375-31.953126l55.375-55.363281c6.101562-6.105469 15.6875-6.984375 22.796875-2.09375l120.625 82.925781c2.550781 1.855469 5.90625 2.175782 8.765625.839844 2.859375-1.332031 4.765625-4.113281 4.984375-7.257812.222656-3.144532-1.285157-6.164063-3.929688-7.882813l-109.039062-74.976562 10.015625-6.683594c6.5-4.335937 14.140625-6.648437 21.957031-6.644531 5.535156.007812 10.917969 1.804687 15.351563 5.117187l94.996093 71.246094c2.480469 1.863281 5.765625 2.257813 8.617188 1.039063 2.851562-1.21875 4.835937-3.863282 5.207031-6.941407s-.929688-6.121093-3.410156-7.980469l-90.25-67.6875 9.605468-6.40625c5.632813-3.761718 12.257813-5.757812 19.03125-5.742187 11.855469-.007813 23.300782 4.34375 32.160157 12.226563l61.875 55c2.316406 2.0625 5.554687 2.730468 8.496093 1.757812 2.945313-.976562 5.144532-3.449219 5.773438-6.484375.625-3.035156-.414062-6.175781-2.730469-8.238281l-58.445312-51.9375.519531-.253906c8.867188-5.925782 20.074219-7.125 29.992188-3.207032l162.894531 171.476563c.667969.695312 1.390625 1.339843 2.160156 1.925781l34.132813 25.589844c1.5 1.128906 3.328124 1.734375 5.207031 1.734375zm0 0"/><path d="m480.074219 245.960938c4.554687-1.523438 7.007812-6.453126 5.480469-11.007813-1.527344-4.550781-6.457032-7.003906-11.007813-5.480469-.597656.191406-59.472656 20.777344-40.386719 97.109375.945313 3.878907 4.421875 6.613281 8.417969 6.621094.710937-.003906 1.421875-.089844 2.117187-.261719 4.644532-1.164062 7.464844-5.871094 6.308594-10.515625-15.101562-60.382812 27.222656-75.820312 29.070313-76.464843zm0 0"/><path d="m367.015625 153.507812c-3.386719 3.386719-3.386719 8.882813 0 12.269532l43.390625 43.390625c3.40625 3.289062 8.820312 3.242187 12.167969-.105469 3.34375-3.347656 3.390625-8.761719.105469-12.164062l-43.390626-43.390626c-3.390624-3.386718-8.882812-3.386718-12.273437 0zm0 0"/><path d="m323.628906 110.117188c-3.390625 3.390624-3.390625 8.882812 0 12.269531l17.355469 17.355469c3.40625 3.289062 8.816406 3.242187 12.164063-.105469 3.347656-3.347657 3.394531-8.757813.105468-12.164063l-17.355468-17.355468c-3.390626-3.386719-8.882813-3.386719-12.269532 0zm0 0"/></svg>