<svg height="512" viewBox="0 0 60 60" width="512" xmlns="http://www.w3.org/2000/svg"><g id="001---Right-Turn" fill="none"><rect id="Rectangle-path" fill="#fec108" height="42.19" rx="1.99" transform="matrix(.707 -.707 .707 .707 -12.425 30.002)" width="42.19" x="8.908" y="8.905"/><path id="Shape" d="m54.92 31.41-26.67 26.67-26.67-26.67c-.77544719-.7800749-.77544719-2.0399251 0-2.82l26.67-26.67 26.67 26.67c.7754472.7800749.7754472 2.0399251 0 2.82z" fill="#ffdc00"/><path id="Shape" d="m35 20-.59-3.54c-.0878491-.4105369.0900862-.8322345.4454729-1.0557481.3553866-.2235137.8125452-.2012462 1.1445271.0557481l9.47 7.1c.1222899.096727.1936142.2440804.1936142.4s-.0713243.303273-.1936142.4l-9.47 7.14c-.3319819.2569943-.7891405.2792618-1.1445271.0557481-.3553867-.2235136-.533322-.6452112-.4454729-1.0557481l.59-3.5h-9c-.5522847 0-1 .4477153-1 1v15c0 .5522847-.4477153 1-1 1h-4c-.5522847 0-1-.4477153-1-1v-19c0-1.6568542 1.3431458-3 3-3z" fill="#37474f"/><g id="Layer_2" fill="#000"><path id="Shape" d="m32.12.88c-1.184325-1.13783149-3.055675-1.13783149-4.24 0l-27 27c-1.16981351 1.1712702-1.16981351 3.0687298 0 4.24 28.47 28.46 26.9 27 27 27 1.1712702 1.1698135 3.0687298 1.1698135 4.24 0l27-27c1.1698135-1.1712702 1.1698135-3.0687298 0-4.24zm25.59 29.83-27 27c-.1877666.1893127-.4433625.2957983-.71.2957983s-.5222334-.1064856-.71-.2957983c-.1 0 1.51 1.47-27-27-.18931265-.1877666-.29579832-.4433625-.29579832-.71s.10648567-.5222334.29579832-.71l27-27c.1877666-.18931265.4433625-.29579832.71-.29579832s.5222334.10648567.71.29579832l27 27c.1893127.1877666.2957983.4433625.2957983.71s-.1064856.5222334-.2957983.71z"/><path id="Shape" d="m46.07 21.8-9.47-7.1c-.6539659-.4959326-1.5445396-.5419853-2.2461711-.1161523-.7016315.4258329-1.0718809 1.2371022-.9338289 2.0461523l.4 2.37h-11.82c-2.209139 0-4 1.790861-4 4v19c0 1.1045695.8954305 2 2 2h4c1.1045695 0 2-.8954305 2-2v-15h7.82l-.4 2.37c-.138052.8090501.2321974 1.6203194.9338289 2.0461523.7016315.425833 1.5922052.3797803 2.2461711-.1161523l9.47-7.1c.3777088-.2832816.6-.727864.6-1.2s-.2222912-.9167184-.6-1.2zm-10.67 7.9.6-3.54c.0472953-.2916321-.0367876-.5892518-.2296936-.8130228-.192906-.2237709-.4748887-.3507874-.7703064-.3469772h-9c-1.1045695 0-2 .8954305-2 2v15h-4v-19c0-1.1045695.8954305-2 2-2h13c.2954177.0038102.5774004-.1232063.7703064-.3469772.192906-.223771.2769889-.5213907.2296936-.8130228l-.6-3.54 8.93 6.7z"/></g></g></svg>