<svg height="512" viewBox="0 0 45 60" width="512" xmlns="http://www.w3.org/2000/svg"><g id="004---Rock" fill="none"><g id="Icons" transform="translate(1 1)"><path id="Shape" d="m38.89 18.77c-1.52.19-2.49 1.3-3.41 2.38-2.18 2.57-4.3233333 5.1766667-6.43 7.82 0-7.906 0-15.833.01-23.69 0-1.69-.05-3.55-1.61-4.66-1.731-1.22-4.619-.614-5.28 2.66-.368 1.84-.08 11.256-.13 15.28.0177153-.9488179-.3546068-1.8633567-1.03-2.53-1.0008159-.9968966-2.5027936-1.2944458-3.8080853-.7544005s-2.1579899 1.8118072-2.1619147 3.2244005c.0020117-1.863426-1.4586811-3.4005179-3.3197906-3.4934265-1.86110947-.0929086-3.46762509 1.2910648-3.6512094 3.1454265-.081-.058-.13-.11-.129-.152.07-7.08.14-4.43.21-11.51.03-2.36-.25-5.22-2.38-6.24-1.08017773-.44230738-2.31578619-.2581173-3.22.48-.93659661.80751142-1.44316295 2.00552234-1.37 3.24-.12 5.17-.14 10.37-.14 15.55-.14 6.15-.43 12.57 2.21 18.12 1.341 2.791 2.2 4.471 2.59 6.77 6.0692055 2.9335649 13.1376485 2.9739769 19.24.11.1433266-1.0932329.7335243-2.0781028 1.63-2.72l7.83-5.61c.906-.638.489-.191 8.4-13.15.1666017-1.1360907-.1974716-2.285791-.9876554-3.1188983-.7901837-.8331073-1.919037-1.2574308-3.0623446-1.1511017z" fill="#ffe0b2"/><path id="Shape" d="m15.28 57.99-6.23.01c-1.65825283-.0005397-3.00394204-1.3417582-3.01-3v-6.16c2.95610828 1.4475505 6.2086103 2.1870668 9.5 2.16-1.8806854.0023376-3.4233252 1.4905141-3.4932309 3.3699013s1.357916 3.4780529 3.2332309 3.6200987z" fill="#ffe0b2"/><path id="Shape" d="m25.04 48.85c-.01 2.16-.01 4.33-.01 6.13-.0011032 1.6508742-1.3391258 2.9888968-2.99 2.99-3.778 0-2.377 0-6.11.01 1.8529789-.1987444 3.2252566-1.8145897 3.1212918-3.6752942-.1039649-1.8607046-1.6477064-3.3136204-3.5112918-3.3047058 3.2827936-.0392 6.5202248-.7718818 9.5-2.15z" fill="#dfc49c"/><path id="Shape" d="m22.04 49.99c-.01 1.77-.01 3.51-.01 4.99-.0011032 1.6508742-1.3391258 2.9888968-2.99 2.99l-3.11.01c1.8529789-.1987444 3.2252566-1.8145897 3.1212918-3.6752942-.1039649-1.8607046-1.6477064-3.3136204-3.5112918-3.3047058 2.2042302-.0190745 4.393912-.3593173 6.5-1.01z" fill="#ffe0b2"/><path id="Shape" d="m42.94 23.04c-7.911 12.96-7.494 12.512-8.4 13.15l-7.83 5.61c-.8964757.6418972-1.4866734 1.6267671-1.63 2.72-3.5107064 1.587943-7.3528669 2.3049176-11.2 2.09 2.4454042-.1716954 4.8483437-.7285563 7.12-1.65 1.149-.46.974-.466 1.08-.44.1433266-1.0932329.7335243-2.0781028 1.63-2.72l7.83-5.61c.9-.633.465-.152 8.4-13.15.2735599-1.6485085-.6082554-3.2720376-2.14-3.94 1.2339054-.5462078 2.6675558-.3753294 3.738511.4455973s1.6084005 2.1609661 1.401489 3.4944027z" fill="#dfc49c"/><path id="Shape" d="m29.06 5.28c-.032 20.949.04 19.92-.04 20.02-.4456186.5488202-1.1882494.758066-1.8548434.5226259-.6665941-.2354402-1.1130736-.864678-1.1151566-1.5716259 0-5.385 0-14.074.01-18.968 0-1.949-.152-3.961-1.97-4.87 1.072484-.55755308 2.3652851-.47675301 3.36.21 1.56 1.107 1.61 2.967 1.61 4.657z" fill="#dfc49c"/><path id="Shape" d="m25.08 44.52c-.0910436 1.4415691-.1043962 2.886995-.04 4.33-2.9772239 1.3856039-6.216286 2.1186548-9.5 2.15-3.2913025.0262609-6.54362185-.7132138-9.5-2.16.08933792-1.4795908.0223001-2.9644786-.2-4.43 6.0486543 2.9647321 13.1207921 3.0015661 19.2.1z" fill="#f44335"/><path id="Shape" d="m25.08 44.52c-.0910436 1.4415691-.1043962 2.886995-.04 4.33-.9857595.4553853-2.0014536.8429528-3.04 1.16v-4.34c2.416-.731 2.91-1.192 3.08-1.15z" fill="#c81e1e"/><path id="Shape" d="m19.04 54.5c-.0007359 1.7930656-1.3564444 3.2955705-3.14 3.48-.266 0-.426.01-.62.01-1.8940013-.1410871-3.3298612-1.7669482-3.2356954-3.6638613.0941657-1.8969131 1.68399-3.3725745 3.5826527-3.3253878s3.4132215 1.6000002 3.4130427 3.4992491z" fill="#ffdc00"/></g><path id="Shape" d="m44.93 22.568c-.4719762-2.15074-2.3257813-3.7189977-4.525-3.828-2.312 0-3.688 1.586-4.687 2.763-1.605 1.892-3.173 3.783-4.683 5.644-.035-6.847-.041-15.904-.035-22.647 0-2.48528137-2.0147186-4.5-4.5-4.5s-4.5 2.01471863-4.5 4.5v11.262c-1.9381464-1.3072101-4.5568879-.8951948-6 .944-1.4431121-1.8391948-4.0618536-2.2512101-6-.944v-11.262c0-2.48528137-2.01471863-4.5-4.5-4.5s-4.5 2.01471863-4.5 4.5v16.02c0 .741 0 1.476-.01 2.207-.04 5.771-.078 11.222 2.36 16.346l.254.53c.63946405 1.2680953 1.2119184 2.5688852 1.715 3.897.65595652 2.0258712.90240468 4.1619819.725 6.284v.016.081 6.119c0 2.209139 1.790861 4 4 4h.007l6.347-.01c.05 0 .1.015.147.015s.1-.014.152-.015l6.348-.01c2.2032835-.0049549 3.9877006-1.7907134 3.991-3.994l.005-6.151c0-.011 0-.021 0-.032v-3.752c.0012638-.9621671.4653217-1.8649774 1.247-2.426l7.835-5.614c.5453147-.3901173 1.0061996-.8863764 1.355-1.459l7.316-11.986c.0648733-.1054268.1093143-.2221267.131-.344.0982591-.5468095.0999514-1.1066065.005-1.654zm-34.93 8.071.147-.074c1.5104412-.7390585 3.2775588-.7390585 4.788 0l.065.035v.9c0 1.3807119-1.1192881 2.5-2.5 2.5s-2.5-1.1192881-2.5-2.5zm7 0 .147-.074c1.5104412-.7390585 3.2775588-.7390585 4.788 0l.065.035v.9c0 1.3807119-1.1192881 2.5-2.5 2.5s-2.5-1.1192881-2.5-2.5zm2.5-13.639c1.3807119 0 2.5 1.1192881 2.5 2.5v8.929c-1.62157-.5585987-3.3850186-.5483707-5 .029v-8.958c0-1.3807119 1.1192881-2.5 2.5-2.5zm-7 0c1.3807119 0 2.5 1.1192881 2.5 2.5v8.929c-1.62157-.5585987-3.3850186-.5483707-5 .029v-8.958c0-1.3807119 1.1192881-2.5 2.5-2.5zm12.538 32.205c-5.4095132 2.374848-11.5668868 2.3730343-16.975-.005.019-.767.01-1.487-.033-2.164 2.656994 1.0856974 5.4997464 1.6443985 8.37 1.645 2.9594837-.011498 5.89101-.573388 8.645-1.657zm-6 6.3c-.0054691 1.317679-1.0327468 2.4048958-2.348 2.485h-.3c-1.3779504-.0342417-2.4672415-1.1790496-2.4329999-2.557.0342417-1.3779504 1.1790495-2.4672416 2.5569999-2.433h.04c1.3756324.0071534 2.4870186 1.124349 2.487 2.5zm-9 2.495c-1.1045695 0-2-.8954305-2-2v-4.627c1.59671168.649273 3.263607 1.1103791 4.967 1.374-1.2061638 1.5152456-1.2907492 3.6375695-.209 5.244zm12.994-.02h-2.747c1.0858648-1.6208809.9843728-3.7611455-.25-5.272 1.7092683-.2715337 3.3851809-.7223542 5-1.345v4.617c-.0027524 1.1014465-.8955513 1.9933513-1.997 1.995zm19.95-34.289-7.211 11.814c-.2088619.3437791-.4854695.641481-.813.875l-7.835 5.614c-.9458598.6813319-1.623934 1.6717375-1.917 2.8-5.5615893 2.5189785-11.9446962 2.4897702-17.483-.08-.12898577-.6414726-.30308499-1.2730417-.521-1.89-.52713653-1.3932742-1.12798474-2.7575334-1.8-4.087l-.252-.524c-2.235-4.713-2.199-9.937-2.16-15.473 0-.735.01-1.474.01-2.22v-16.02c0-1.38071187 1.11928813-2.5 2.5-2.5s2.5 1.11928813 2.5 2.5v27c-.00848921 1.9125606 1.19785655 3.6196922 3.0034825 4.2503071 1.8056259.6306149 3.8124722.0456906 4.9965175-1.4563071 1.1840453 1.5019977 3.1908916 2.086922 4.9965175 1.4563071 1.805626-.6306149 3.0119717-2.3377465 3.0034825-4.2503071v-1.291c.0345072-.1470021.0345072-.2999979 0-.447v-25.262c-.0005933-1.01122516.60806-1.92322162 1.5421129-2.31067734.9340528-.38745572 2.0095329-.1740569 2.7248871.54067734.4707335.46609254.7347904 1.10155827.733 1.764 0 7.726.009 18.477.054 25.483.0030699.4236879.2728156.7994526.673264.9378792s.8446675.0094645 1.108736-.3218792c2.026-2.547 4.183-5.17 6.41-7.8 1.063-1.252 1.873-2.049 3.139-2.057 1.2289218.110088 2.258242.9760431 2.577 2.168.0453854.2599171.0521248.5251131.02.787z" fill="#000"/></g></svg>