<svg height="512pt" viewBox="-168 0 512 512" width="512pt" xmlns="http://www.w3.org/2000/svg"><path d="m17.65625 185.378906h141.242188v258.816406h-141.242188zm0 0" fill="#e64c3c"/><path d="m61.792969 220.691406h52.964843c4.875 0 8.828126 3.949219 8.828126 8.824219v52.96875c0 4.875-3.953126 8.824219-8.828126 8.824219h-52.964843c-4.875 0-8.828125-3.949219-8.828125-8.824219v-52.96875c0-4.875 3.953125-8.824219 8.828125-8.824219zm0 0" fill="#ecf0f1"/><path d="m17.65625 432.550781h141.242188c4.875 0 8.824218 3.953125 8.824218 8.828125v61.792969c0 4.875-3.949218 8.828125-8.824218 8.828125h-141.242188c-4.875 0-8.828125-3.953125-8.828125-8.828125v-61.792969c0-4.875 3.953125-8.828125 8.828125-8.828125zm0 0" fill="#2c2f38"/><path d="m17.65625 114.757812h141.242188v70.621094h-141.242188zm0 0" fill="#e64c3c"/><path d="m17.65625 54.441406h141.242188v63.265625h-141.242188zm0 0" fill="#c03a2b"/><path d="m176.550781 30.898438v13.238281h-176.550781v-13.238281c0-17.039063 39.546875-30.898438 88.277344-30.898438 48.726562 0 88.273437 13.859375 88.273437 30.898438zm0 0" fill="#e64c3c"/><path d="m176.550781 35.308594v26.484375c0 4.875-3.953125 8.828125-8.828125 8.828125h-158.894531c-4.875 0-8.828125-3.953125-8.828125-8.828125v-26.484375zm0 0" fill="#cc4b4c"/><path d="m114.757812 158.898438h-52.964843c-4.875 0-8.828125-3.953126-8.828125-8.828126s3.953125-8.828124 8.828125-8.828124h52.964843c4.875 0 8.828126 3.953124 8.828126 8.828124s-3.953126 8.828126-8.828126 8.828126zm0 0" fill="#2c2f38"/><path d="m114.757812 300.136719h-52.964843c-9.75 0-17.65625-7.902344-17.65625-17.652344v-52.96875c0-9.75 7.90625-17.652344 17.65625-17.652344h52.964843c9.75 0 17.65625 7.902344 17.65625 17.652344v52.96875c0 9.75-7.90625 17.652344-17.65625 17.652344zm-52.964843-70.621094v52.96875h52.964843v-52.96875zm0 0" fill="#e4c05c"/><path d="m123.585938 344.277344c-4.875 0-8.828126-3.953125-8.828126-8.828125v-8.828125c0-4.875 3.953126-8.828125 8.828126-8.828125s8.828124 3.953125 8.828124 8.828125v8.828125c0 4.875-3.953124 8.828125-8.828124 8.828125zm0 0" fill="#2c2f38"/><g fill="#802f34"><path d="m158.898438 194.207031h-141.242188c-4.875 0-8.828125-3.953125-8.828125-8.828125s3.953125-8.828125 8.828125-8.828125h141.242188c4.875 0 8.824218 3.953125 8.824218 8.828125s-3.949218 8.828125-8.824218 8.828125zm0 0"/><path d="m158.898438 123.585938h-141.242188c-4.875 0-8.828125-3.953126-8.828125-8.828126s3.953125-8.828124 8.828125-8.828124h141.242188c4.875 0 8.824218 3.953124 8.824218 8.828124s-3.949218 8.828126-8.824218 8.828126zm0 0"/><path d="m43.695312 70.621094h-17.652343l-.265625-8.210938c-.070313-2.339844.789062-4.613281 2.394531-6.320312 1.609375-1.703125 3.824219-2.703125 6.167969-2.769532 2.351562-.113281 4.648437.738282 6.363281 2.351563 1.710937 1.613281 2.699219 3.855469 2.730469 6.210937zm0 0"/><path d="m79.007812 70.621094h-17.65625l-.265624-8.210938c-.070313-2.339844.792968-4.613281 2.398437-6.320312 1.605469-1.703125 3.824219-2.703125 6.164063-2.769532 2.359374-.144531 4.675781.695313 6.394531 2.316407 1.722656 1.621093 2.699219 3.878906 2.699219 6.246093zm0 0"/><path d="m114.316406 70.621094h-17.65625l-.261718-8.210938c-.074219-2.339844.789062-4.613281 2.394531-6.320312 1.605469-1.703125 3.824219-2.703125 6.167969-2.769532 2.355468-.128906 4.660156.71875 6.378906 2.335938 1.714844 1.617188 2.695312 3.867188 2.710937 6.226562zm0 0"/><path d="m149.628906 70.621094h-17.65625l-.265625-8.210938c-.070312-2.339844.792969-4.613281 2.398438-6.320312 1.605469-1.703125 3.824219-2.703125 6.164062-2.769532 2.355469-.128906 4.660157.71875 6.378907 2.335938s2.699218 3.867188 2.714843 6.226562zm0 0"/></g></svg>