<svg height="512pt" viewBox="-106 0 512 512" width="512pt" xmlns="http://www.w3.org/2000/svg"><path d="m150.070312 0c9.75 0 17.652344 7.90625 17.652344 17.65625v44.136719h-35.308594v-44.136719c0-9.75 7.902344-17.65625 17.65625-17.65625zm0 0" fill="#f9eab0"/><path d="m282.484375 97.101562v-26.480468c0-4.875-3.953125-8.828125-8.828125-8.828125s-8.828125-3.953125-8.828125-8.828125-3.953125-8.828125-8.828125-8.828125h-211.863281c-4.875 0-8.828125 3.953125-8.828125 8.828125s-3.949219 8.828125-8.824219 8.828125c-4.878906 0-8.828125 3.953125-8.828125 8.828125v26.480468zm0 0" fill="#285680"/><path d="m8.828125 114.757812h282.480469v388.414063h-282.480469zm0 0" fill="#285680"/><path d="m44.136719 211.863281h105.933593v264.828125h-105.933593zm0 0" fill="#35495e"/><path d="m150.070312 211.863281h105.929688v264.828125h-105.929688zm0 0" fill="#35495e"/><path d="m8.828125 79.449219h282.480469c4.878906 0 8.828125 3.953125 8.828125 8.828125v17.652344c0 4.875-3.949219 8.828124-8.828125 8.828124h-282.480469c-4.875 0-8.828125-3.953124-8.828125-8.828124v-17.652344c0-4.875 3.953125-8.828125 8.828125-8.828125zm0 0" fill="#4482c3"/><g fill="#b0d3f0"><path d="m79.449219 141.242188v52.964843h-35.3125v-39.722656c0-7.285156 3.972656-13.242187 8.828125-13.242187zm0 0"/><path d="m44.136719 194.207031h35.3125v44.136719h-35.3125zm0 0"/><path d="m79.449219 141.242188h35.308593v52.964843h-35.308593zm0 0"/><path d="m114.757812 141.242188h35.3125v52.964843h-35.3125zm0 0"/><path d="m150.070312 141.242188h35.308594v52.964843h-35.308594zm0 0"/><path d="m185.378906 141.242188h35.3125v52.964843h-35.3125zm0 0"/><path d="m220.691406 194.207031h35.308594v44.136719h-35.308594zm0 0"/><path d="m256 154.484375v39.722656h-35.308594v-52.964843h26.480469c4.855469 0 8.828125 5.957031 8.828125 13.242187zm0 0"/><path d="m114.757812 194.207031h35.3125v44.136719h-35.3125zm0 0"/><path d="m150.070312 194.207031h35.308594v44.136719h-35.308594zm0 0"/><path d="m185.378906 194.207031h35.3125v44.136719h-35.3125zm0 0"/><path d="m79.449219 194.207031h35.308593v44.136719h-35.308593zm0 0"/></g><path d="m185.378906 406.070312h44.136719c4.878906 0 8.828125 3.949219 8.828125 8.828126v44.136718c0 4.875-3.949219 8.828125-8.828125 8.828125h-44.136719c-4.875 0-8.828125-3.953125-8.828125-8.828125v-44.136718c0-4.878907 3.953125-8.828126 8.828125-8.828126zm0 0" fill="#285680"/><path d="m247.851562 203.035156h-195.566406c-4.875 0-8.828125-3.953125-8.828125-8.828125s3.953125-8.828125 8.828125-8.828125h195.566406c4.875 0 8.828126 3.953125 8.828126 8.828125s-3.953126 8.828125-8.828126 8.828125zm0 0" fill="#35495e"/><path d="m79.449219 247.171875c-5.34375-.527344-9.273438-5.242187-8.828125-10.59375v-84.742187c-.445313-5.351563 3.484375-10.066407 8.828125-10.59375 5.339843.527343 9.273437 5.242187 8.828125 10.59375v84.742187c.445312 5.351563-3.488282 10.066406-8.828125 10.59375zm0 0" fill="#35495e"/><path d="m114.757812 247.171875c-5.339843-.527344-9.273437-5.242187-8.828124-10.59375v-84.742187c-.65625-3.542969.871093-7.132813 3.875-9.121094 3.003906-1.988282 6.90625-1.988282 9.910156 0 3.003906 1.988281 4.527344 5.578125 3.871094 9.121094v84.742187c.445312 5.351563-3.484376 10.066406-8.828126 10.59375zm0 0" fill="#35495e"/><path d="m185.378906 247.171875c-5.34375-.527344-9.273437-5.242187-8.828125-10.59375v-84.742187c-.65625-3.542969.871094-7.132813 3.875-9.121094 3.003907-1.988282 6.902344-1.988282 9.910157 0 3.003906 1.988281 4.527343 5.578125 3.871093 9.121094v84.742187c.445313 5.351563-3.484375 10.066406-8.828125 10.59375zm0 0" fill="#35495e"/><path d="m220.691406 247.171875c-5.34375-.527344-9.273437-5.242187-8.828125-10.59375v-84.742187c-.65625-3.542969.867188-7.132813 3.871094-9.121094 3.003906-1.988282 6.90625-1.988282 9.910156 0 3.003907 1.988281 4.527344 5.578125 3.871094 9.121094v84.742187c.445313 5.351563-3.484375 10.066406-8.824219 10.59375zm0 0" fill="#35495e"/><path d="m256 503.171875h-105.929688c-4.875 0-8.828124-3.953125-8.828124-8.828125v-353.101562c0-4.875 3.953124-8.828126 8.828124-8.828126h97.101563c9.75 0 17.65625 7.902344 17.65625 17.65625v344.273438c0 4.875-3.953125 8.828125-8.828125 8.828125zm-97.101562-17.65625h88.273437v-335.445313h-88.273437zm0 0" fill="#35495e"/><path d="m150.070312 503.171875h-105.933593c-4.875 0-8.828125-3.953125-8.828125-8.828125v-344.273438c0-9.753906 7.90625-17.65625 17.65625-17.65625h97.105468c4.875 0 8.828126 3.953126 8.828126 8.828126v353.101562c0 4.875-3.953126 8.828125-8.828126 8.828125zm-97.105468-17.65625h88.277344v-335.445313h-88.277344zm0 0" fill="#35495e"/><path d="m247.851562 256h-195.566406c-4.875 0-8.828125-3.953125-8.828125-8.828125s3.953125-8.828125 8.828125-8.828125h195.566406c4.875 0 8.828126 3.953125 8.828126 8.828125s-3.953126 8.828125-8.828126 8.828125zm0 0" fill="#35495e"/><path d="m70.621094 247.171875h44.136718c4.875 0 8.828126 3.953125 8.828126 8.828125v44.136719c0 4.875-3.953126 8.828125-8.828126 8.828125h-44.136718c-4.875 0-8.828125-3.953125-8.828125-8.828125v-44.136719c0-4.875 3.953125-8.828125 8.828125-8.828125zm0 0" fill="#bdc3c7"/><path d="m70.621094 326.621094h44.136718c4.875 0 8.828126 3.953125 8.828126 8.828125v44.136719c0 4.875-3.953126 8.828124-8.828126 8.828124h-44.136718c-4.875 0-8.828125-3.953124-8.828125-8.828124v-44.136719c0-4.875 3.953125-8.828125 8.828125-8.828125zm0 0" fill="#285680"/><path d="m70.621094 406.070312h44.136718c4.875 0 8.828126 3.949219 8.828126 8.828126v44.136718c0 4.875-3.953126 8.828125-8.828126 8.828125h-44.136718c-4.875 0-8.828125-3.953125-8.828125-8.828125v-44.136718c0-4.878907 3.953125-8.828126 8.828125-8.828126zm0 0" fill="#285680"/><path d="m185.378906 247.171875h44.136719c4.878906 0 8.828125 3.953125 8.828125 8.828125v44.136719c0 4.875-3.949219 8.828125-8.828125 8.828125h-44.136719c-4.875 0-8.828125-3.953125-8.828125-8.828125v-44.136719c0-4.875 3.953125-8.828125 8.828125-8.828125zm0 0" fill="#285680"/><path d="m185.378906 326.621094h44.136719c4.878906 0 8.828125 3.953125 8.828125 8.828125v44.136719c0 4.875-3.949219 8.828124-8.828125 8.828124h-44.136719c-4.875 0-8.828125-3.953124-8.828125-8.828124v-44.136719c0-4.875 3.953125-8.828125 8.828125-8.828125zm0 0" fill="#285680"/><path d="m150.070312 494.34375c-4.996093-.121094-8.949218-4.265625-8.828124-9.257812v-361.050782c0-4.875 3.953124-8.828125 8.828124-8.828125s8.828126 3.953125 8.828126 8.828125v361.050782c.117187 4.992187-3.835938 9.136718-8.828126 9.257812zm0 0" fill="#285680"/><path d="m8.828125 476.691406h282.480469c4.878906 0 8.828125 3.949219 8.828125 8.824219v17.65625c0 4.875-3.949219 8.828125-8.828125 8.828125h-282.480469c-4.875 0-8.828125-3.953125-8.828125-8.828125v-17.65625c0-4.875 3.953125-8.824219 8.828125-8.824219zm0 0" fill="#4482c3"/></svg>