<?xml version="1.0" encoding="UTF-8" standalone="no"?> <svg xmlns="http://www.w3.org/2000/svg" viewBox="0 0 64 64"><defs><style>.cls-1{fill:#ff927d;stroke:#54596e;stroke-linecap:round;stroke-linejoin:round;stroke-width:2px;}</style></defs><title>meteor</title><g id="meteor"><path class="cls-1" d="M50.44,32.52,39.51,43.46a16.89,16.89,0,0,0-1.52-7l4.68-4.68a2.5,2.5,0,0,0-3.54-3.54L35.21,32.2A16.92,16.92,0,0,0,31.36,29l9.89-9.89a2.5,2.5,0,0,0,0-3.54h0a2.5,2.5,0,0,0-3.54,0L26.34,26.93l-.26-.07a17.06,17.06,0,0,0-3.53-.38l7.4-7.4a2.5,2.5,0,0,0-3.54-3.54L10.49,31.46h0a17,17,0,1,0,24,24h0L54,36.06a2.5,2.5,0,1,0-3.54-3.54Z"/><path class="cls-1" d="M50.45,17l-5.66,5.66a2.5,2.5,0,0,0,3.54,3.54L54,20.5A2.5,2.5,0,0,0,50.45,17Z"/><rect class="cls-1" x="41" y="5" width="16" height="5" rx="2.5" ry="2.5" transform="translate(9.05 36.84) rotate(-45)"/><polyline class="cls-1" points="24 40 22 43 26 43"/><polyline class="cls-1" points="12 40 14 43 10 43"/><polyline class="cls-1" points="14 53 18 51 24 53"/></g></svg>