<svg height="512" viewBox="0 0 60 60" width="512" xmlns="http://www.w3.org/2000/svg"><g id="007---Road-Split" fill="none"><rect id="Rectangle-path" fill="#fec108" height="42.19" rx="1.99" transform="matrix(.707 -.707 .707 .707 -12.425 30.002)" width="42.19" x="8.908" y="8.905"/><path id="Shape" d="m54.92 31.41-26.67 26.67-26.67-26.67c-.77544719-.7800749-.77544719-2.0399251 0-2.82l26.67-26.67 26.67 26.67c.7754472.7800749.7754472 2.0399251 0 2.82z" fill="#ffdc00"/><path id="Shape" d="m45.71 23.53-12.71 12.71v12.76c0 .5522847-.4477153 1-1 1h-4c-.5522847 0-1-.4477153-1-1v-12.76l-12.71-12.71c-.3877236-.3900375-.3877236-1.0199625 0-1.41l2.83-2.83c.3900375-.3877236 1.0199625-.3877236 1.41 0 2.71 2.71 8.74 8.71 11.47 11.47 2.73-2.76 8.76-8.76 11.47-11.47.3900375-.3877236 1.0199625-.3877236 1.41 0l2.83 2.83c.3877236.3900375.3877236 1.0199625 0 1.41z" fill="#37474f"/><g id="Layer_2" fill="#000"><path id="Shape" d="m27.88 59.12c1.1712702 1.1698135 3.0687298 1.1698135 4.24 0l27-27c1.1698135-1.1712702 1.1698135-3.0687298 0-4.24l-27-27c-1.1712702-1.16981351-3.0687298-1.16981351-4.24 0l-27 27c-1.16981351 1.1712702-1.16981351 3.0687298 0 4.24zm-25.59-29.83 27-27c.1877666-.18931265.4433625-.29579832.71-.29579832s.5222334.10648567.71.29579832l27 27c.1893127.1877666.2957983.4433625.2957983.71s-.1064856.5222334-.2957983.71l-27 27c-.1877666.1893127-.4433625.2957983-.71.2957983s-.5222334-.1064856-.71-.2957983l-27-27c-.18931265-.1877666-.29579832-.4433625-.29579832-.71s.10648567-.5222334.29579832-.71z"/><path id="Shape" d="m26 36.65v12.35c0 1.1045695.8954305 2 2 2h4c1.1045695 0 2-.8954305 2-2v-12.35l12.41-12.41c.3755541-.3751365.5865733-.8841815.5865733-1.415s-.2110192-1.0398635-.5865733-1.415l-2.83-2.83c-.3751365-.3755541-.8841815-.5865733-1.415-.5865733s-1.0398635.2110192-1.415.5865733l-10.75 10.77-10.75-10.76c-.3755332-.3786253-.8867249-.5915966-1.42-.5915966s-1.0444668.2129713-1.42.5915966l-2.83 2.83c-.3755541.3751365-.5865733.8841815-.5865733 1.415s.2110192 1.0398635.5865733 1.415zm-8.18-16.65 11.47 11.47c.1877666.1893127.4433625.2957983.71.2957983s.5222334-.1064856.71-.2957983l11.46-11.47 2.83 2.83-12.71 12.7c-.1827337.1916338-.2863165.445233-.29.71v12.76h-4v-12.76c-.0036835-.264767-.1072663-.5183662-.29-.71l-12.71-12.7z"/></g></g></svg>