<svg height="512" viewBox="0 0 60 60" width="512" xmlns="http://www.w3.org/2000/svg"><g id="007---Road-Split" fill="none"><rect id="Rectangle-path" fill="#f0c419" height="42.19" rx="2" transform="matrix(.707 .707 -.707 .707 30.002 -12.425)" width="42.19" x="8.905" y="8.908"/><g fill="#393f4a"><path id="Shape" d="m27.88 59.12c-.1 0 1.5 1.49-27-27-1.16981351-1.1712702-1.16981351-3.0687298 0-4.24l27-27c1.184325-1.13783149 3.055675-1.13783149 4.24 0l27 27c1.1698135 1.1712702 1.1698135 3.0687298 0 4.24l-27 27c-1.1712702 1.1698135-3.0687298 1.1698135-4.24 0zm1.41-56.83-27 27c-.18931265.1877666-.29579832.4433625-.29579832.71s.10648567.5222334.29579832.71c28.49 28.45 26.9 27 27 27 .1877666.1893127.4433625.2957983.71.2957983s.5222334-.1064856.71-.2957983l27-27c.1893127-.1877666.2957983-.4433625.2957983-.71s-.1064856-.5222334-.2957983-.71l-27-27c-.1877666-.18931265-.4433625-.29579832-.71-.29579832s-.5222334.10648567-.71.29579832z"/><path id="Shape" d="m45.71 23.53-12.71 12.71v12.76c0 .5522847-.4477153 1-1 1h-4c-.5522847 0-1-.4477153-1-1v-12.76l-12.71-12.71c-.3877236-.3900375-.3877236-1.0199625 0-1.41l2.83-2.83c.3900375-.3877236 1.0199625-.3877236 1.41 0 2.71 2.71 8.74 8.71 11.47 11.47 2.73-2.76 8.76-8.76 11.47-11.47.3900375-.3877236 1.0199625-.3877236 1.41 0l2.83 2.83c.3877236.3900375.3877236 1.0199625 0 1.41z"/></g></g></svg>