<svg height="511pt" viewBox="1 -28 511.999 511" width="511pt" xmlns="http://www.w3.org/2000/svg"><path d="m416.871094 448.457031h-321.742188c-48.191406 0-87.617187-39.429687-87.617187-87.621093 0-48.191407 39.425781-87.617188 87.617187-87.617188h321.742188c48.1875 0 87.617187 39.425781 87.617187 87.617188 0 48.191406-39.429687 87.621093-87.617187 87.621093zm0 0" fill="#fff4f1"/><path d="m416.871094 273.21875h-62.496094v175.238281h62.496094c48.1875 0 87.617187-39.429687 87.617187-87.621093 0-48.191407-39.429687-87.617188-87.617187-87.617188zm0 0" fill="#ecedef"/><path d="m130.027344 448.457031v-175.238281h-34.898438c-48.1875 0-87.617187 39.425781-87.617187 87.617188 0 48.191406 39.429687 87.621093 87.617187 87.621093z" fill="#d0cfd1"/><path d="m381.972656 273.21875h34.898438c48.1875 0 87.617187 39.425781 87.617187 87.617188 0 48.191406-39.429687 87.621093-87.617187 87.621093h-34.898438zm0 0" fill="#d0cfd1"/><path d="m416.871094 273.21875h-25.039063c48.191407 0 87.621094 39.425781 87.621094 87.617188 0 48.191406-39.429687 87.621093-87.621094 87.621093h25.039063c48.1875 0 87.617187-39.429687 87.617187-87.621093 0-48.191407-39.429687-87.617188-87.617187-87.617188zm0 0" fill="#9c9b9d"/><path d="m311.769531 413.019531h-111.886719c-6.5625 0-11.929687-5.367187-11.929687-11.925781v-18.414062c0-6.558594 5.371094-11.925782 11.929687-11.925782h111.886719c6.5625 0 11.929688 5.367188 11.929688 11.925782v18.414062c0 6.558594-5.367188 11.925781-11.929688 11.925781zm0 0" fill="#d0cfd1"/><path d="m209.285156 172.871094 33.976563 7.671875c3.367187.757812 5.234375 4.371093 3.90625 7.554687l-19.488281 46.742188c-2.414063 5.792968 5.132812 10.519531 9.289062 5.816406l62.054688-70.164062c2.828124-3.195313 1.144531-8.253907-3.035157-9.121094l-37.859375-7.835938c-2.984375-.617187-4.914062-3.523437-4.324218-6.515625l9.796874-49.664062c1.175782-5.957031-6.691406-9.210938-10.066406-4.164063l-47.640625 71.167969c-2.171875 3.242187-.414062 7.652344 3.390625 8.511719zm0 0" fill="#f9cd45"/><g fill="#18191b"><path d="m181.675781 86.535156c4.148438 0 7.511719-3.363281 7.511719-7.511718 0-35.015626 28.484375-63.5 63.5-63.5 35.011719 0 63.5 28.484374 63.5 63.5 0 4.148437 3.363281 7.511718 7.511719 7.511718 4.148437 0 7.511719-3.363281 7.511719-7.511718 0-43.296876-35.226563-78.523438-78.523438-78.523438s-78.523438 35.226562-78.523438 78.523438c0 4.148437 3.363282 7.511718 7.511719 7.511718zm0 0"/><path d="m225.054688 74.378906c0-15.234375 12.394531-27.628906 27.632812-27.628906 15.234375 0 27.628906 12.394531 27.628906 27.628906 0 4.148438 3.359375 7.511719 7.507813 7.511719 4.152343 0 7.511719-3.363281 7.511719-7.511719 0-23.515625-19.132813-42.652344-42.648438-42.652344-23.519531 0-42.652344 19.136719-42.652344 42.652344 0 4.148438 3.363282 7.511719 7.511719 7.511719s7.507813-3.363281 7.507813-7.511719zm0 0"/><path d="m416.871094 265.707031h-73.085938c-4.148437 0-7.507812 3.363281-7.507812 7.511719s3.359375 7.511719 7.507812 7.511719h30.675782v160.214843h-191.375c-4.148438 0-7.511719 3.363282-7.511719 7.511719 0 4.148438 3.363281 7.511719 7.511719 7.511719h233.785156c52.453125 0 95.128906-42.675781 95.128906-95.132812 0-52.453126-42.675781-95.128907-95.128906-95.128907zm17.253906 173.34375v-85.742187c0-4.148438-3.359375-7.511719-7.511719-7.511719-4.148437 0-7.507812 3.363281-7.507812 7.511719v87.578125c-.746094.023437-1.484375.058593-2.234375.058593h-27.386719v-160.214843h27.386719c44.171875 0 80.105468 35.933593 80.105468 80.105469 0 38.246093-26.949218 70.300781-62.851562 78.214843zm0 0"/><path d="m152.933594 440.945312h-15.394532v-160.214843h174.632813c4.148437 0 7.511719-3.363281 7.511719-7.511719s-3.363282-7.511719-7.511719-7.511719h-217.042969c-52.453125 0-95.128906 42.675781-95.128906 95.128907 0 52.457031 42.675781 95.132812 95.128906 95.132812h57.804688c4.148437 0 7.511718-3.363281 7.511718-7.511719 0-4.148437-3.363281-7.511719-7.511718-7.511719zm-137.910156-80.109374c0-39.375 28.5625-72.179688 66.050781-78.847657v87.761719c0 4.148438 3.363281 7.511719 7.511719 7.511719 4.148437 0 7.511718-3.363281 7.511718-7.511719v-89.019531h26.417969v160.214843h-27.386719c-44.171875 0-80.105468-35.9375-80.105468-80.109374zm0 0"/><path d="m187.953125 314.289062h130.054687c4.148438 0 7.511719-3.363281 7.511719-7.511718 0-4.148438-3.363281-7.511719-7.511719-7.511719h-130.054687c-4.148437 0-7.511719 3.363281-7.511719 7.511719 0 4.148437 3.363282 7.511718 7.511719 7.511718zm0 0"/><path d="m187.953125 347.617188h130.054687c4.148438 0 7.511719-3.363282 7.511719-7.511719 0-4.148438-3.363281-7.511719-7.511719-7.511719h-130.054687c-4.148437 0-7.511719 3.363281-7.511719 7.511719 0 4.148437 3.363282 7.511719 7.511719 7.511719zm0 0"/><path d="m180.441406 401.09375c0 10.71875 8.722656 19.4375 19.441406 19.4375h111.886719c10.71875 0 19.4375-8.722656 19.4375-19.4375v-18.414062c0-10.71875-8.71875-19.4375-19.4375-19.4375h-111.886719c-10.71875 0-19.441406 8.71875-19.441406 19.4375zm15.023438-18.414062c0-2.394532 2.023437-4.417969 4.417968-4.417969h111.886719c2.394531 0 4.417969 2.023437 4.417969 4.417969v18.414062c0 2.394531-2.023438 4.414062-4.417969 4.414062h-111.886719c-2.394531 0-4.417968-2.023437-4.417968-4.414062zm0 0"/><path d="m225.875 248.050781c2.199219 1.378907 4.617188 2.050781 7.003906 2.050781 3.597656 0 7.121094-1.53125 9.71875-4.46875l62.050782-70.164062c3.125-3.527344 4.101562-8.304688 2.609374-12.78125-1.488281-4.472656-5.132812-7.714844-9.746093-8.667969l-35.964844-7.445312 9.425781-47.761719c1.21875-6.1875-1.996094-12.191406-7.824218-14.605469-5.828126-2.410156-12.347657-.433593-15.855469 4.804688l-47.640625 71.167969c-2.398438 3.582031-2.875 8.105468-1.28125 12.109374 1.597656 4 5.058594 6.957032 9.261718 7.90625l31.707032 7.160157-18.589844 44.59375c-2.511719 6.019531-.402344 12.640625 5.125 16.101562zm28.226562-57.0625c1.488282-3.570312 1.324219-7.589843-.453124-11.023437-1.773438-3.4375-4.957032-5.898438-8.730469-6.75l-31.195313-7.042969 40.621094-60.679687-7.910156 40.074218c-1.378906 7.003906 3.179687 13.878906 10.171875 15.328125l34.554687 7.152344-52.015625 58.8125zm0 0"/></g></svg>