<svg height="512" viewBox="0 0 54 58" width="512" xmlns="http://www.w3.org/2000/svg"><g id="019---Fondue" fill="none" transform="translate(0 -1)"><path id="Rectangle-path" d="m11 40h4v16h-4z" fill="#5f5346"/><path id="Rectangle-path" d="m37 40h4v16h-4z" fill="#5f5346"/><path id="Shape" d="m44.24 15 8.88-8.88c.8026127-.74788232 1.1329967-1.87422217.8615422-2.93715563-.2714546-1.06293347-1.1014531-1.89293198-2.1643866-2.16438654-1.0629334-.27145456-2.1892733.05892946-2.9371556.86154217l-11.12 11.12 3.24 3z" fill="#a56a43"/><path id="Shape" d="m16.36 13-11.12-11.12c-.74788232-.80261271-1.87422217-1.13299673-2.93715563-.86154217-1.06293347.27145456-1.89293198 1.10145307-2.16438654 2.16438654-.27145456 1.06293346.05892946 2.18927331.86154217 2.93715563l7.1 7.1z" fill="#a56a43"/><path id="Shape" d="m29 49.2c-.1078233 1.5774517-1.4188676 2.8019415-3 2.8019415s-2.8921767-1.2244898-3-2.8019415c0-1.06 1.41-2.64 2.3-3.53.184867-.1871231.4369584-.2924394.7-.2924394s.515133.1053163.7.2924394c.89.89 2.3 2.47 2.3 3.53z" fill="#f3d55b"/><path id="Shape" d="m27 51.84v3.16c0 .5522847-.4477153 1-1 1s-1-.4477153-1-1v-3.16c.31.1.65-1.84 1-1.84s.69 1.94 1 1.84z" fill="#393f4a"/><path id="Shape" d="m27 50v1.84c-.6496447.2130535-1.3503553.2130535-2 0v-1.84c0-.5522847.4477153-1 1-1s1 .4477153 1 1z" fill="#f29c1f"/><path id="Shape" d="m45 55h-38c-1.1045695 0-2 .8954305-2 2s.8954305 2 2 2h38c1.1045695 0 2-.8954305 2-2s-.8954305-2-2-2z" fill="#7f6e5d"/><path id="Shape" d="m45 37h-38c-1.1045695 0-2 .8954305-2 2s.8954305 2 2 2h38c1.1045695 0 2-.8954305 2-2s-.8954305-2-2-2z" fill="#7f6e5d"/><path id="Shape" d="m48.81 15c.5620085-.0013231 1.0984798.2345841 1.4773808.6496616.378901.4150774.565045.9707789.5126192 1.5303384l-1.3 14.36c-.2836336 3.0914935-2.8755233 5.4580014-5.98 5.46h-35.04c-3.10447673-.0019986-5.69636641-2.3685065-5.98-5.46l-1.3-14.36c-.05242577-.5595595.13371817-1.115261.51261919-1.5303384.37890101-.4150775.91537231-.6509847 1.47738081-.6496616z" fill="#c03a2b"/><path id="Shape" d="m47.147 15c.542139.022649 1.0500465.2711957 1.400585.6853822.3505386.4141864.511701.9561939.444415 1.4946178l-1.2 14.36c-.1509454 2.9849249-2.5620248 5.3573332-5.549 5.46h-32.486c-2.98502879-.1052031-5.39323888-2.4769251-5.544-5.46l-1.2-14.36c-.06724305-.5375943.09326218-1.0788267.4427119-1.4928487.34944973-.4140219.85603662-.6631487 1.3972881-.6871513z" fill="#e64c3c"/><g fill="#f9eab0"><path id="Shape" d="m19 15v14c0 1.1045695-.8954305 2-2 2s-2-.8954305-2-2v-6c0-1.1045695-.8954305-2-2-2s-2 .8954305-2 2v2c0 1.1045695-.8954305 2-2 2s-2-.8954305-2-2v-10c0-1.1045695.8954305-2 2-2h8c1.1045695 0 2 .8954305 2 2z"/><path id="Shape" d="m43 15v4c0 1.1045695-.8954305 2-2 2s-2 .8954305-2 2v4c0 1.1045695-.8954305 2-2 2s-2-.8954305-2-2v-12c0-1.1045695.8954305-2 2-2h4c1.1045695 0 2 .8954305 2 2z"/></g></g></svg>