<svg height="512" viewBox="0 0 57 61" width="512" xmlns="http://www.w3.org/2000/svg"><g id="019---Fondue" fill="none"><g id="Icons" transform="translate(1 1)"><path id="Rectangle-path" d="m11 41h4v14h-4z" fill="#624421"/><path id="Rectangle-path" d="m37 41h4v14h-4z" fill="#624421"/><path id="Shape" d="m53.12 6.12-8.88 8.88h-1.24c-.0032948-1.1032019-.8967981-1.9967052-2-2h-3.24l11.12-11.12c.7791595-.78016725 1.9243584-1.06838843 2.98-.75l.01.01c1.0079383.30333342 1.7821333 1.11431067 2.038389 2.13523368.2562558 1.020923-.0431801 2.1013859-.788389 2.84476632z" fill="#a0522d"/><path id="Shape" d="m53.12 1.88c-.9602542-.95987926-2.4464645-1.15284026-3.62-.47.8069492.4647579 1.3513938 1.27884619 1.4727335 2.20212495.1213396.92327875-.1942712 1.85039768-.8537335 2.50787505l-7.6 7.6c.3072491.3560087.4777572.8097515.481 1.28h1.24l8.88-8.88c.5632738-.56171981.8798486-1.32450865.8798486-2.12s-.3165748-1.55828019-.8798486-2.12z" fill="#783e22"/><path id="Shape" d="m16.36 13c-8.062 0-7.683-.079-8.26.22l-7.1-7.1c-.80261271-.74788232-1.13299673-1.87422217-.86154217-2.93715563.27145456-1.06293347 1.10145307-1.89293198 2.16438654-2.16438654 1.06293346-.27145456 2.18927331.05892946 2.93715563.86154217z" fill="#a0522d"/><path id="Shape" d="m8.1 13.22c.27813503-.1441307.58673881-.2195672.9-.22h-1.12z" fill="#783e22"/><path id="Shape" d="m5.24 1.88c-.95948329-.96641278-2.45266035-1.15795136-3.625-.465.577.334-.375-.535 11.745 11.585h3z" fill="#783e22"/><path id="Shape" d="m29 49.2c-.1078233 1.5774517-1.4188676 2.8019415-3 2.8019415s-2.8921767-1.2244898-3-2.8019415c0-1.06 1.41-2.64 2.3-3.53.184867-.1871231.4369584-.2924394.7-.2924394s.515133.1053163.7.2924394c.89.89 2.3 2.47 2.3 3.53z" fill="#ffdc00"/><path id="Shape" d="m47 57c-.0032948 1.1032019-.8967981 1.9967052-2 2h-38c-1.1045695 0-2-.8954305-2-2s.8954305-2 2-2h38c1.1034291.0027483 1.9972517.8965709 2 2z" fill="#a0522d"/><path id="Shape" d="m46.41 55.59c-.3704612-.3798589-.8794095-.5928231-1.41-.59l-3-.0000277c1.1045695.0000277 2 .8954582 2 2.0000277s-.8954305 2-2 2h3c.8063114-.0033854 1.5317303-.4906258 1.8398346-1.2357575s.138627-1.6024026-.4298346-2.1742425z" fill="#783e22"/><path id="Shape" d="m47 39c-.0032948 1.1032019-.8967981 1.9967052-2 2h-38c-1.1045695 0-2-.8954305-2-2s.8954305-2 2-2h38c1.1034291.0027483 1.9972517.8965709 2 2z" fill="#a0522d"/><path id="Shape" d="m46.41 37.59c-.3704612-.3798589-.8794095-.5928231-1.41-.59l-3-.0000277c1.1045695.0000277 2 .8954582 2 2.0000277s-.8954305 2-2 2h3c.8063114-.0033854 1.5317303-.4906258 1.8398346-1.2357575s.138627-1.6024026-.4298346-2.1742425z" fill="#783e22"/><path id="Shape" d="m50.8 17.18-1.3 14.36c-.2836336 3.0914935-2.8755233 5.4580014-5.98 5.46h-35.04c-3.10447673-.0019986-5.69636641-2.3685065-5.98-5.46l-1.3-14.36c-.05242577-.5595595.13371817-1.115261.51261919-1.5303384.37890101-.4150775.91537231-.6509847 1.47738081-.6496616h3.81v10c0 1.1045695.8954305 2 2 2s2-.8954305 2-2v-2c0-1.1045695.8954305-2 2-2s2 .8954305 2 2v6c0 1.1045695.8954305 2 2 2s2-.8954305 2-2v-14h16v12c0 1.1045695.8954305 2 2 2s2-.8954305 2-2v-4c.0027483-1.1034291.8965709-1.9972517 2-2 1.1032019-.0032948 1.9967052-.8967981 2-2v-4h5.81c.5620085-.0013231 1.0984798.2345841 1.4773808.6496616.378901.4150774.565045.9707789.5126192 1.5303384z" fill="#f44335"/><path id="Shape" d="m48.81 15h-3c.5620085-.0013231 1.0984798.2345841 1.4773808.6496616.378901.4150774.565045.9707789.5126192 1.5303384l-1.3 14.36c-.2836336 3.0914935-2.8755233 5.4580014-5.98 5.46h3c3.1044767-.0019986 5.6963664-2.3685065 5.98-5.46l1.3-14.36c.0524258-.5595595-.1337182-1.115261-.5126192-1.5303384-.378901-.4150775-.9153723-.6509847-1.4773808-.6496616z" fill="#c81e1e"/><path id="Shape" d="m19 15v14c0 1.1045695-.8954305 2-2 2s-2-.8954305-2-2v-6c0-1.1045695-.8954305-2-2-2s-2 .8954305-2 2v2c0 1.1045695-.8954305 2-2 2s-2-.8954305-2-2v-10c.0070916-1.1016187.89838131-1.9929084 2-2h8c1.1032019.0032948 1.9967052.8967981 2 2z" fill="#ffe0b2"/><path id="Shape" d="m17 13h-3c1.1032019.0032948 1.9967052.8967981 2 2v14c-.0017808.4823482-.1795749.9474577-.5 1.308.5483698.6218449 1.4235548.8408751 2.2001895.5506356s1.2936696-1.0295622 1.2998105-1.8586356v-14c-.0032948-1.1032019-.8967981-1.9967052-2-2z" fill="#dfc49c"/><path id="Shape" d="m43 15v4c-.0032948 1.1032019-.8967981 1.9967052-2 2-1.1034291.0027483-1.9972517.8965709-2 2v4c0 1.1045695-.8954305 2-2 2s-2-.8954305-2-2v-12c.0032948-1.1032019.8967981-1.9967052 2-2h4c1.1032019.0032948 1.9967052.8967981 2 2z" fill="#ffe0b2"/><path id="Shape" d="m41 13h-3c1.1032019.0032948 1.9967052.8967981 2 2v4c-.0032948 1.1032019-.8967981 1.9967052-2 2-1.1034291.0027483-1.9972517.8965709-2 2v4c-.0017808.4823482-.1795749.9474577-.5 1.308.5483698.6218449 1.4235548.8408751 2.2001895.5506356s1.2936696-1.0295622 1.2998105-1.8586356v-4c.0027483-1.1034291.8965709-1.9972517 2-2 1.1032019-.0032948 1.9967052-.8967981 2-2v-4c-.0032948-1.1032019-.8967981-1.9967052-2-2z" fill="#dfc49c"/></g><path id="Shape" d="m49.173 2.173-10.827 10.827h-.346c-1.2667854.0052514-2.3937454.8056491-2.816 2h-14.368c-.4222546-1.1943509-1.5492146-1.9947486-2.816-2-.322 0 .971 1.2-11.053-10.827-.99863372-1.06418777-2.49757826-1.50005311-3.91114343-1.13728815s-2.51737976 1.46657955-2.88014472 2.88014472.07310038 2.91250971 1.13728815 3.91114343l6.345 6.345c-.19422194.2502192-.34746466.5297015-.454.828h-2.994c-.84316953-.0006367-1.6476838.3535802-2.21656364.9759233-.56887985.6223432-.84960294 1.4553542-.77343636 2.2950767l1.3 14.359c.19034282 2.2025346 1.41501796 4.1839105 3.3 5.339-.810854.873439-1.02645904 2.1446127-.54895797 3.2365709.47750107 1.0919581 1.55716329 1.796726 2.74895797 1.7944291h3v12h-3c-1.65685425 0-3 1.3431458-3 3s1.34314575 3 3 3h38c1.6568542 0 3-1.3431458 3-3s-1.3431458-3-3-3h-3v-12h3c1.1907055-.0000934 2.2681821-.7057474 2.7441529-1.7971829.4759709-1.0914354.2599564-2.3611759-.5501529-3.2338171 1.884982-1.1550895 3.1096572-3.1364654 3.3-5.339l1.3-14.356c.0769669-.8391754-.202562-1.6720281-.7702166-2.2948502-.5676546-.6228222-1.3710864-.9781776-2.2137834-.9791498h-2.156l7.173-7.173c1.0641878-.99863372 1.5000531-2.49757826 1.1372882-3.91114343-.362765-1.41356517-1.4665796-2.51737976-2.8801448-2.88014472-1.4135651-.36276496-2.9125097.07310038-3.9111434 1.13728815zm-11.173 12.827h4c.5522847 0 1 .4477153 1 1v4c0 .5522847-.4477153 1-1 1-1.6568542 0-3 1.3431458-3 3v4c0 .5522847-.4477153 1-1 1s-1-.4477153-1-1v-12c0-.5522847.4477153-1 1-1zm-19 1v14c0 .5522847-.4477153 1-1 1s-1-.4477153-1-1v-6c0-1.6568542-1.3431458-3-3-3s-3 1.3431458-3 3v2c0 .5522847-.4477153 1-1 1-.55228475 0-1-.4477153-1-1v-10c0-.5522847.44771525-1 1-1h8c.5522847 0 1 .4477153 1 1zm-16.293-12.413c.79211921-.75149906 2.03388079-.75149906 2.826 0l9.413 9.413c-5.453 0-5.138-.025-5.582.071l-6.657-6.658c-.77943189-.78077015-.77943189-2.04522985 0-2.826zm10.293 39.413h2v12h-2zm24 12h-9v-1.135c1.7244417-.3854198 2.9628986-1.8984013 3-3.665 0-1.853-2.555-4.257-3.338-4.949-.3781427-.3339949-.9458573-.3339949-1.324 0-.783.692-3.338 3.096-3.338 4.949.0371014 1.7665987 1.2755583 3.2795802 3 3.665v1.135h-9v-12h20zm-10-5c-.5522847 0-1 .4477153-1 1v.75c-.5968576-.289127-.9826007-.8870289-1-1.55 0-.531.957-1.778 2-2.825 1.043 1.045 2 2.292 2 2.825-.0173993.6629711-.4031424 1.260873-1 1.55v-.75c0-.5522847-.4477153-1-1-1zm20 8c0 .5522847-.4477153 1-1 1h-38c-.55228475 0-1-.4477153-1-1s.44771525-1 1-1h38c.5522847 0 1 .4477153 1 1zm-6-3h-2v-12h2zm5-16c.5522847 0 1 .4477153 1 1s-.4477153 1-1 1h-38c-.55228475 0-1-.4477153-1-1s.44771525-1 1-1zm4.8-20.91-1.3 14.36c-.2232298 2.5814155-2.3889704 4.5601544-4.98 4.55h-35.04c-2.59102963.0101544-4.7567702-1.9685845-4.98-4.55l-1.3-14.364c-.02588515-.2784716.06673996-.5549642.25515176-.7616462s.45517617-.3244288.73484824-.3243538h2.81v9c0 1.6568542 1.34314575 3 3 3 1.6568542 0 3-1.3431458 3-3v-2c0-.5522847.4477153-1 1-1s1 .4477153 1 1v6c0 1.6568542 1.3431458 3 3 3s3-1.3431458 3-3v-13h14v11c0 1.6568542 1.3431458 3 3 3s3-1.3431458 3-3v-4c0-.5522847.4477153-1 1-1 1.6568542 0 3-1.3431458 3-3v-3h4.81c.2806413-.0008071.5484926.117295.7371783.3250399.1886857.2077448.2805476.4856906.2528217.7649601zm2.613-11.677c-8.7 8.7-8.5 8.587-8.6 8.587-.4218831-1.1933191-1.5473171-1.9934854-2.813-2h-.826l9.413-9.413c.7890197-.7262072 2.0103747-.70090294 2.7686388.05736118.7582641.75826411.7835684 1.97961915.0573612 2.76863882z" fill="#000"/></g></svg>