<svg height="512" viewBox="0 0 58 58" width="512" xmlns="http://www.w3.org/2000/svg"><g id="020---Cheese-Board" fill="none"><path id="Shape" d="m58 52-29-5-29 5v4c0 1.1045695.8954305 2 2 2h54c1.1045695 0 2-.8954305 2-2z" fill="#805333"/><path id="Shape" d="m51.23 12c1.0088996.00024 1.8608086.7494061 1.99 1.75l4.78 38.25h-58l4.78-38.25c.12919141-1.0005939.98110037-1.74976 1.99-1.75z" fill="#a56a43"/><path id="Shape" d="m48.93 12c.9528087.0456014 1.7200751.798245 1.784 1.75l4.286 38.25h-52l4.286-38.25c.06392489-.951755.83119126-1.7043986 1.784-1.75z" fill="#cb8252"/><path id="Shape" d="m25.3 23h-14.3c-1.10320187-.0032948-1.9967052-.8967981-2-2v-16l8-2 14 2v15.57z" fill="#f0c419"/><path id="Shape" d="m16.577.017c-1.528.094-6.726.727-7.577 4.983h22c-14.876-5.313-13.856-5.018-14.423-4.983z" fill="#f3d55b"/><path id="Shape" d="m31 17.87c-1.6211262.4237063-3.3345332-.2078941-4.2927908-1.5824192-.9582577-1.3745251-.9582577-3.2006365 0-4.5751616.9582576-1.3745251 2.6716646-2.00612547 4.2927908-1.5824192z" fill="#f29c1f"/><circle id="Oval" cx="21" cy="11" fill="#b19046" r="2"/><circle id="Oval" cx="15" cy="17" fill="#b19046" r="2"/><path id="Shape" d="m36 20c-8.28 0-15 4.48-15 10v7c0 .5522847.4477153 1 1 1h8.67l-.67 1v8.16c10.089 2.961 21-2.1 21-9.16v-8c0-5.52-6.72-10-15-10z" fill="#e64c3c"/><path id="Shape" d="m51 30v8c0 7.059-10.933 12.114-21 9.16v-8c10.089 2.961 21-2.104 21-9.16z" fill="#c03a2b"/><path id="Shape" d="m36 30-5.33 8h-8.67c-.5522847 0-1-.4477153-1-1v-7z" fill="#f9eab0"/></g></svg>