<svg height="512" viewBox="0 0 62 60" width="512" xmlns="http://www.w3.org/2000/svg"><g id="020---Cheese-Board" fill="none"><g id="Icons" transform="translate(2 1)"><path id="Shape" d="m58 52v4c-.0032948 1.1032019-.8967981 1.9967052-2 2h-54c-1.10320187-.0032948-1.9967052-.8967981-2-2v-4z" fill="#783e22"/><path id="Shape" d="m55 52v4c-.0032948 1.1032019-.8967981 1.9967052-2 2h-51c-1.10320187-.0032948-1.9967052-.8967981-2-2v-4z" fill="#a0522d"/><path id="Shape" d="m58 52h-58l4.78-38.25c.12919141-1.0005939.98110037-1.74976 1.99-1.75h44.46c1.0088996.00024 1.8608086.7494061 1.99 1.75z" fill="#f57c00"/><path id="Shape" d="m48.58 12c.9810779.0221162 1.7911399.7733661 1.887 1.75l4.533 38.25h-55l4.533-38.25c.09586011-.9766339.90592211-1.7278838 1.887-1.75z" fill="#ff9801"/><path id="Shape" d="m31 5v15.57c-2.0386606.455149-3.9771038 1.2786485-5.72 2.43h-14.28c-1.10320187-.0032948-1.9967052-.8967981-2-2v-16z" fill="#fec108"/><path id="Shape" d="m28 5v15.57l-3 2.43h-14c-1.10320187-.0032948-1.9967052-.8967981-2-2v-16z" fill="#ffdc00"/><path id="Shape" d="m31 5h-22c.85-4.26 6.05-4.89 7.58-4.98.559-.041-.445-.327 14.42 4.98z" fill="#ffeb3a"/><path id="Shape" d="m31 10.13v7.74c-1.6211262.4237063-3.3345332-.2078941-4.2927908-1.5824192-.9582577-1.3745251-.9582577-3.2006365 0-4.5751616.9582576-1.3745251 2.6716646-2.00612547 4.2927908-1.5824192z" fill="#f57c00"/><path id="Shape" d="m28 10.54v6.92c-1.2336087-.7155955-1.9929126-2.0338628-1.9929126-3.46s.7593039-2.7444045 1.9929126-3.46z" fill="#ff9801"/><circle id="Oval" cx="21" cy="11" fill="#f57c00" r="2"/><circle id="Oval" cx="15" cy="17" fill="#f57c00" r="2"/><path id="Shape" d="m51 30v8c0 7.02-10.84 12.11-21 9.16v-8.16l.67-1h-8.67c-.5522847 0-1-.4477153-1-1v-7c0-2.72 1.63-5.19 4.28-7 9.42-6.4 25.72-1.882 25.72 7z" fill="#c81e1e"/><path id="Shape" d="m48 30v6c-4.4 3.9-11.962 4.932-18 3.16 0-.213-.107 0 .67-1.16h-8.67c-.5522847 0-1-.4477153-1-1v-7c0-5.18 5.91-9.44 13.47-9.95h.06c7.56.51 13.47 4.77 13.47 9.95z" fill="#f44335"/><path id="Shape" d="m51 30v8c0 6.923-10.638 12.122-21 9.16v-8c9.626 2.825 21-1.808 21-9.16z" fill="#c81e1e"/><path id="Shape" d="m36 30-5.33 8h-8.67c-.5522847 0-1-.4477153-1-1v-7z" fill="#dfc49c"/><path id="Shape" d="m33 30-5.33 8h-5.67c-.5522847 0-1-.4477153-1-1v-7z" fill="#ffe0b2"/></g><g id="Layer_10" fill="#000" transform="translate(0 -1)"><path id="Shape" d="m56.211 15.621c-.1968754-1.4970222-1.471092-2.6173583-2.981-2.621h-19.23v-6c.0000584-.42279528-.2657852-.79994079-.664-.942-14.993-5.358-14.08-5.058-14.336-5.058-.319 0-7.833.066-8.98 5.8-.03.154-.02-.037-.02 6.2h-1.23c-1.5116258.0043504-2.7865366 1.1270585-2.982 2.626-5.522 44.19-4.788 36.393-4.788 42.374 0 1.6568542 1.34314575 3 3 3h54c1.6568542 0 3-1.3431458 3-3 0-5.831.847 2.719-4.789-42.379zm-32.211 17.379h12.132l-4 6h-8.132zm9 9.444c7.856 1.78 15.542-.841 19-5.13v2.686c0 6.087-9.592 10.76-19 8.4zm5-1.444c-1.5048208.0017261-3.0053474-.1605655-4.475-.484l5.307-7.961c.2047322-.3068587.2239019-.7015085.049874-1.026765-.174028-.3252566-.5129871-.5282902-.881874-.528235h-13.908c.777-4.493 6.715-8 13.908-8 7.72 0 14 4.038 14 9s-6.28 9-14 9zm-10.948-17h-14.052c-.5522847 0-1-.4477153-1-1v-15h20v3c-2.7614237 0-5 2.2385763-5 5s2.2385763 5 5 5v.81c-1.7499891.4772752-3.4180548 1.2155662-4.948 2.19zm4.948-5c-1.6568542 0-3-1.3431458-3-3s1.3431458-3 3-3zm-13.16-15.995 8.387 3h-14.8c1.473-2.643 5.55-2.963 6.413-3zm-11.069 12.874c.06653434-.5018899.49372176-.8773876 1-.879h1.229v8c0 1.6568542 1.3431458 3 3 3h11.607c-1.6164848 1.5846765-2.5516701 3.7370017-2.607 6v7c0 1.1045695.8954305 2 2 2h7v8.16c-.0001298.4441668.2927296.8351891.719.96 10.981 3.223 22.281-2.565 22.281-10.12v-8c0-6.812-9.357-12.532-20-10.638v-6.362h19.23c.5049447.0004008.9320076.3736538 1 .874l4.637 37.126h-55.734zm51.229 42.121c0 .5522847-.4477153 1-1 1h-54c-.55228475 0-1-.4477153-1-1v-3h56z"/><path id="Shape" d="m23 10c-1.2133867 0-2.3072956.7309265-2.7716386 1.8519497s-.2076757 2.4113767.6503183 3.2693706c.8579939.857994 2.1483474 1.1146613 3.2693706.6503183s1.8519497-1.5582519 1.8519497-2.7716386c0-1.6568542-1.3431458-3-3-3zm0 4c-.5522847 0-1-.4477153-1-1s.4477153-1 1-1 1 .4477153 1 1-.4477153 1-1 1z"/><path id="Shape" d="m17 16c-1.6568542 0-3 1.3431458-3 3s1.3431458 3 3 3 3-1.3431458 3-3-1.3431458-3-3-3zm0 4c-.5522847 0-1-.4477153-1-1s.4477153-1 1-1 1 .4477153 1 1-.4477153 1-1 1z"/></g></g></svg>