<svg height="512" viewBox="0 0 60 60" width="512" xmlns="http://www.w3.org/2000/svg"><g id="003---Tape" fill="none"><g id="Icons" transform="translate(1 1)"><path id="Shape" d="m56 0h-54c-1.10320187.0032948-1.9967052.89679813-2 2v32c.0032948 1.1032019.89679813 1.9967052 2 2h54c1.1032019-.0032948 1.9967052-.8967981 2-2v-32c-.0032948-1.10320187-.8967981-1.9967052-2-2zm-43 14.5c0-1.9329966 1.5670034-3.5 3.5-3.5s3.5 1.5670034 3.5 3.5-1.5670034 3.5-3.5 3.5c-1.9295828-.0082169-3.4917831-1.5704172-3.5-3.5zm28.5 3.5c-1.9329966 0-3.5-1.5670034-3.5-3.5s1.5670034-3.5 3.5-3.5 3.5 1.5670034 3.5 3.5c-.0082169 1.9295828-1.5704172 3.4917831-3.5 3.5z" fill="#3f51b5"/><path id="Shape" d="m56 0h-3c1.1032019.0032948 1.9967052.89679813 2 2v32c-.0032948 1.1032019-.8967981 1.9967052-2 2h3c1.1032019-.0032948 1.9967052-.8967981 2-2v-32c-.0032948-1.10320187-.8967981-1.9967052-2-2z" fill="#283593"/><path id="Shape" d="m53.71 8.71-4.42-4.42c-.1868-.18393188-.4378533-.28793967-.7-.29h-39.18c-.26214674.00206033-.51320004.10606812-.7.29l-4.42 4.42c-.18393188.18679996-.28793967.43785326-.29.7v16.59c0 .5522847.44771525 1 1 1h48c.5522847 0 1-.4477153 1-1v-16.59c-.0020603-.26214674-.1060681-.51320004-.29-.7zm-37.21 9.29c-1.9329966 0-3.5-1.5670034-3.5-3.5s1.5670034-3.5 3.5-3.5 3.5 1.5670034 3.5 3.5-1.5670034 3.5-3.5 3.5zm25 0c-1.9329966 0-3.5-1.5670034-3.5-3.5s1.5670034-3.5 3.5-3.5 3.5 1.5670034 3.5 3.5-1.5670034 3.5-3.5 3.5z" fill="#9d27b0"/><path id="Shape" d="m45.51 28.14c-.4364841-1.2968509-1.6618465-2.1622884-3.03-2.14h-26.96c-1.3681535-.0222884-2.5935159.8431491-3.03 2.14l-2.49 7.86h38zm-28.51 4.86c-.5522847 0-1-.4477153-1-1s.4477153-1 1-1 1 .4477153 1 1-.4477153 1-1 1zm7-1h-2c-.5522847 0-1-.4477153-1-1s.4477153-1 1-1h2c.5522847 0 1 .4477153 1 1s-.4477153 1-1 1zm5-1c-.5522847 0-1-.4477153-1-1s.4477153-1 1-1 1 .4477153 1 1-.4477153 1-1 1zm7 1h-2c-.5522847 0-1-.4477153-1-1s.4477153-1 1-1h2c.5522847 0 1 .4477153 1 1s-.4477153 1-1 1zm5 1c-.5522847 0-1-.4477153-1-1s.4477153-1 1-1 1 .4477153 1 1-.4477153 1-1 1z" fill="#607d8b"/><rect id="Rectangle-path" fill="#9e9e9e" height="4" rx="1" width="10" x="24" y="12"/></g><g id="Layer_2" fill="#000"><path id="Shape" d="m3 38h19v9h-6.5c-3.5898509 0-6.5 2.9101491-6.5 6.5s2.9101491 6.5 6.5 6.5h2c3.5880235-.0044079 6.4955921-2.9119765 6.5-6.5v-4.5h12v4.5c.0044079 3.5880235 2.9119765 6.4955921 6.5 6.5h2c3.5898509 0 6.5-2.9101491 6.5-6.5s-2.9101491-6.5-6.5-6.5h-6.5v-9h19c1.6568542 0 3-1.3431458 3-3v-32c0-1.65685425-1.3431458-3-3-3h-54c-1.65685425 0-3 1.34314575-3 3v32c0 1.6568542 1.34314575 3 3 3zm19 15.5c-.0027556 2.4841391-2.0158609 4.4972444-4.5 4.5h-2c-2.4852814 0-4.5-2.0147186-4.5-4.5s2.0147186-4.5 4.5-4.5h6.5zm22.5-4.5c2.4852814 0 4.5 2.0147186 4.5 4.5s-2.0147186 4.5-4.5 4.5h-2c-2.4841391-.0027556-4.4972444-2.0158609-4.5-4.5v-4.5zm-8.5-2h-12v-9h12zm-23.634-11 2.077-6.56c.3108278-.8778848 1.1488884-1.4580806 2.08-1.44h26.954c.9311116-.0180806 1.7691722.5621152 2.08 1.44l2.077 6.56zm33.856-9c-.767644-.6479918-1.7404279-1.0023757-2.745-1h-26.954c-1.0045721-.0023757-1.977356.3520082-2.745 1h-7.778v-16.583l4.41-4.417h39.173l4.417 4.41v16.59zm-44.222-24c0-.55228475.44771525-1 1-1h54c.5522847 0 1 .44771525 1 1v32c0 .5522847-.4477153 1-1 1h-7.268l-2.217-7h6.485c1.1045695 0 2-.8954305 2-2v-16.59c-.0003759-.52857368-.2099796-1.03550558-.583-1.41l-4.417-4.417c-.3744944-.37302039-.8814263-.58262415-1.41-.583h-39.18c-.52857368.00037585-1.03550558.20997961-1.41.583l-4.417 4.417c-.37302039.37449442-.58262415.88142632-.583 1.41v16.59c0 1.1045695.8954305 2 2 2h6.485l-2.217 7h-7.268c-.55228475 0-1-.4477153-1-1z"/><circle id="Oval" cx="5" cy="5" r="1"/><circle id="Oval" cx="5" cy="33" r="1"/><circle id="Oval" cx="30" cy="31" r="1"/><circle id="Oval" cx="18" cy="33" r="1"/><circle id="Oval" cx="42" cy="33" r="1"/><circle id="Oval" cx="55" cy="5" r="1"/><circle id="Oval" cx="55" cy="33" r="1"/><path id="Shape" d="m34 12h-8c-1.1045695 0-2 .8954305-2 2v2c0 1.1045695.8954305 2 2 2h8c1.1045695 0 2-.8954305 2-2v-2c0-1.1045695-.8954305-2-2-2zm-8 4v-2h8v2z"/><path id="Shape" d="m17.5 11c-2.4852814 0-4.5 2.0147186-4.5 4.5s2.0147186 4.5 4.5 4.5 4.5-2.0147186 4.5-4.5c-.0027556-2.4841391-2.0158609-4.4972444-4.5-4.5zm0 7c-1.3807119 0-2.5-1.1192881-2.5-2.5s1.1192881-2.5 2.5-2.5 2.5 1.1192881 2.5 2.5-1.1192881 2.5-2.5 2.5z"/><path id="Shape" d="m42.5 11c-2.4852814 0-4.5 2.0147186-4.5 4.5s2.0147186 4.5 4.5 4.5 4.5-2.0147186 4.5-4.5c-.0027556-2.4841391-2.0158609-4.4972444-4.5-4.5zm0 7c-1.3807119 0-2.5-1.1192881-2.5-2.5s1.1192881-2.5 2.5-2.5 2.5 1.1192881 2.5 2.5-1.1192881 2.5-2.5 2.5z"/><path id="Shape" d="m25 31h-2c-.5522847 0-1 .4477153-1 1s.4477153 1 1 1h2c.5522847 0 1-.4477153 1-1s-.4477153-1-1-1z"/><path id="Shape" d="m37 31h-2c-.5522847 0-1 .4477153-1 1s.4477153 1 1 1h2c.5522847 0 1-.4477153 1-1s-.4477153-1-1-1z"/></g></g></svg>