<svg height="512" viewBox="0 0 60 60" width="512" xmlns="http://www.w3.org/2000/svg"><g id="020---Continue-to-Right" fill="none"><rect id="Rectangle-path" fill="#f0c419" height="42.19" rx="2" transform="matrix(.707 .707 -.707 .707 30.002 -12.425)" width="42.19" x="8.905" y="8.908"/><g fill="#393f4a"><path id="Shape" d="m27.88 59.12c-.1 0 1.5 1.49-27-27-1.16981351-1.1712702-1.16981351-3.0687298 0-4.24l27-27c1.184325-1.13783149 3.055675-1.13783149 4.24 0l27 27c1.1698135 1.1712702 1.1698135 3.0687298 0 4.24l-27 27c-1.1712702 1.1698135-3.0687298 1.1698135-4.24 0zm1.41-56.83-27 27c-.18931265.1877666-.29579832.4433625-.29579832.71s.10648567.5222334.29579832.71c28.49 28.45 26.9 27 27 27 .1877666.1893127.4433625.2957983.71.2957983s.5222334-.1064856.71-.2957983l27-27c.1893127-.1877666.2957983-.4433625.2957983-.71s-.1064856-.5222334-.2957983-.71l-27-27c-.1877666-.18931265-.4433625-.29579832-.71-.29579832s-.5222334.10648567-.71.29579832z"/><path id="Shape" d="m30 46.5v-10.5c.0071287-2.5365098 1.6085426-4.7945034 4-5.64 4.54-1.64 4.15-1.51 4.31-1.57.56 3 .65 3.54.68 3.64.1155649.3687179.4332168.6378612.8159065.6913095s.7619276-.118364.9740935-.4413095l6.48-9.9c.0937695-.1325392.1188309-.3018057.0674895-.4558298-.0513414-.1540242-.1729503-.2744006-.3274895-.3241702-.1-.1-6.31-1.88-11.38-3.46-.3941568-.1225701-.8231218.009635-1.0798989.33282-.2567772.323185-.2885955.7709313-.0801011 1.12718.13.24-.22-.38 1.76 3.13-4.87 1.76-7 2.22-9.24 4.62 1.1-1 1.16-1.12 0 0l-7.67-7.67c-.1877666-.1893127-.4433625-.2957983-.71-.2957983s-.5222334.1064856-.71.2957983l-2.82 2.82c-.1893127.1877666-.2957983.4433625-.2957983.71s.1064856.5222334.2957983.71l8.93 8.92v14.76c0 .5522847.4477153 1 1 1h4c.5522847 0 1-.4477153 1-1z"/></g></g></svg>