<svg height="512" viewBox="0 0 60 60" width="512" xmlns="http://www.w3.org/2000/svg"><g id="020---Continue-to-Right" fill="none"><rect id="Rectangle-path" fill="#fec108" height="42.19" rx="1.99" transform="matrix(.707 -.707 .707 .707 -12.425 30.002)" width="42.19" x="8.908" y="8.905"/><path id="Shape" d="m54.92 31.41-26.67 26.67-26.67-26.67c-.77544719-.7800749-.77544719-2.0399251 0-2.82l26.67-26.67 26.67 26.67c.7754472.7800749.7754472 2.0399251 0 2.82z" fill="#ffdc00"/><path id="Shape" d="m30 36c.0071287-2.5365098 1.6085426-4.7945034 4-5.64 4.54-1.64 4.15-1.51 4.31-1.57.56 3 .65 3.54.68 3.64.1155649.3687179.4332168.6378612.8159065.6913095s.7619276-.118364.9740935-.4413095l6.48-9.9c.0937695-.1325392.1188309-.3018057.0674895-.4558298-.0513414-.1540242-.1729503-.2744006-.3274895-.3241702-.1-.1-6.31-1.88-11.38-3.46-.3941568-.1225701-.8231218.009635-1.0798989.33282-.2567772.323185-.2885955.7709313-.0801011 1.12718.13.24-.22-.38 1.76 3.13-4.87 1.76-7 2.22-9.24 4.62 1.1-1 1.16-1.12 0 0l-7.67-7.67c-.1877666-.1893127-.4433625-.2957983-.71-.2957983s-.5222334.1064856-.71.2957983l-2.82 2.82c-.1893127.1877666-.2957983.4433625-.2957983.71s.1064856.5222334.2957983.71l8.93 8.92v14.76c0 .5522847.4477153 1 1 1h4c.5522847 0 1-.4477153 1-1z" fill="#37474f"/><g id="Layer_2" fill="#000"><path id="Shape" d="m32.12.88c-1.1712702-1.16981351-3.0687298-1.16981351-4.24 0l-27 27c-1.16981351 1.1712702-1.16981351 3.0687298 0 4.24l27 27c1.1712702 1.1698135 3.0687298 1.1698135 4.24 0l27-27c1.1698135-1.1712702 1.1698135-3.0687298 0-4.24zm25.59 29.83-27 27c-.1877666.1893127-.4433625.2957983-.71.2957983s-.5222334-.1064856-.71-.2957983l-27-27c-.18931265-.1877666-.29579832-.4433625-.29579832-.71s.10648567-.5222334.29579832-.71l27-27c.1877666-.18931265.4433625-.29579832.71-.29579832s.5222334.10648567.71.29579832l27 27c.1893127.1877666.2957983.4433625.2957983.71s-.1064856.5222334-.2957983.71z"/><path id="Shape" d="m47.24 21c-12.24-3.65-11.66-3.59-12.24-3.47-.6418482.1044555-1.1928409.5144453-1.477278 1.0992321-.2844372.5847868-.2668035 1.2713534.047278 1.8407679l1.19 2.11c-4.23 1.53-5.59 1.83-7.78 3.76l-6.95-7c-.3755332-.3786253-.8867249-.5915966-1.42-.5915966s-1.0444668.2129713-1.42.5915966l-2.81 2.86c-.3786253.3755332-.5915966.8867249-.5915966 1.42s.2129713 1.0444668.5915966 1.42l8.62 8.61v14.35c0 1.1045695.8954305 2 2 2h4c1.1045695 0 2-.8954305 2-2v-12c.0008957-2.1051504 1.3202628-3.984249 3.3-4.7l3.2-1.16.43 2.32c.1327214.8152644.7529729 1.4650695 1.5611815 1.6355683s1.6380883-.1733882 2.0888185-.8655683l6.48-9.9c.2806072-.4014198.3505947-.9134579.1880031-1.375456s-.5378388-.8173442-1.0080031-.954544zm-7.33 11.12c0-.11 0-.18-.66-3.54-.0539455-.2940403-.2366136-.5485243-.497941-.6937062-.2613274-.1451818-.5739027-.1658331-.852059-.0562938l-4.28 1.56c-2.7819979 1.0057745-4.6314116 3.6517971-4.62 6.61v12h-4c0-16 0-14.87-.08-15.14s.65.54-9.12-9.24l2.82-2.82c11.72 11.71 6 6.1 7.68 7.67.3900375.3877236 1.0199625.3877236 1.41 0 2.22-2.23 2.5-2.11 8.85-4.41.2760171-.1003321.4939758-.3169256.5960401-.5923068.1020644-.2753812.077915-.5817071-.0660401-.8376932-1.92-3.41-1.6-2.85-1.77-3.13l10.68 3.25z"/></g></g></svg>