<svg height="512pt" viewBox="0 -34 512 512" width="512pt" xmlns="http://www.w3.org/2000/svg"><path d="m494.933594 170.667969h-31.828125c-23.535157-95.242188-109-162.148438-207.105469-162.132813-4.265625 0-8.617188.085938-12.800781.425782-93.183594 5.558593-171.914063 71.082031-194.304688 161.707031h-31.828125c-4.707031.011719-8.519531 3.824219-8.53125 8.53125v85.335937c.011719 4.707032 3.824219 8.519532 8.53125 8.53125h31.828125c22.390625 90.625 101.121094 156.148438 194.304688 161.707032 4.183593.34375 8.535156.425781 12.800781.425781 98.105469.015625 183.570312-66.890625 207.105469-162.132813h31.828125c4.707031-.011718 8.519531-3.824218 8.53125-8.53125v-85.335937c-.011719-4.707031-3.824219-8.519531-8.53125-8.53125zm-238.933594-93.867188c60.34375.105469 114.355469 37.449219 135.765625 93.867188h-271.53125c19.777344-52.046875 67.511719-88.253907 122.964844-93.269531 4.253906-.417969 8.527343-.617188 12.800781-.597657zm135.765625 196.265625c-21.410156 56.417969-75.421875 93.761719-135.765625 93.867188-4.273438.019531-8.546875-.179688-12.800781-.597656-55.453125-5.015626-103.1875-41.222657-122.964844-93.269532zm0 0" fill="#c81e1e"/><path d="m469.332031 170.667969h-31.828125c-22.386718-90.625-101.121094-156.148438-194.304687-161.707031-93.183594 5.558593-171.914063 71.082031-194.304688 161.707031h-31.828125c-4.707031.011719-8.519531 3.824219-8.53125 8.53125v85.335937c.011719 4.707032 3.824219 8.519532 8.53125 8.53125h31.828125c22.390625 90.625 101.121094 156.148438 194.304688 161.707032 93.183593-5.558594 171.917969-71.082032 194.304687-161.707032h31.828125c4.707031-.011718 8.519531-3.824218 8.535157-8.53125v-85.335937c-.015626-4.707031-3.828126-8.519531-8.535157-8.53125zm-213.332031 196.265625c-4.273438.019531-8.546875-.179688-12.800781-.597656-4.253907.417968-8.523438.617187-12.800781.597656-61.949219 0-90.109376-39.082032-110.933594-93.867188h272.300781c-21.410156 56.417969-75.421875 93.761719-135.765625 93.867188zm-136.535156-196.265625c20.824218-54.785157 48.984375-93.867188 110.933594-93.867188 4.277343-.019531 8.546874.179688 12.800781.597657 4.253906-.417969 8.527343-.617188 12.800781-.597657 60.34375.105469 114.355469 37.449219 135.765625 93.867188zm0 0" fill="#f44335"/><path d="m17.066406 170.667969h477.867188c4.710937 0 8.53125 3.820312 8.53125 8.53125v85.335937c0 4.710938-3.820313 8.53125-8.53125 8.53125h-477.867188c-4.710937 0-8.53125-3.820312-8.53125-8.53125v-85.335937c0-4.710938 3.820313-8.53125 8.53125-8.53125zm0 0" fill="#0377bc"/><path d="m17.066406 170.667969h452.265625c4.714844 0 8.535157 3.820312 8.535157 8.53125v85.335937c0 4.710938-3.820313 8.53125-8.535157 8.53125h-452.265625c-4.710937 0-8.53125-3.820312-8.53125-8.53125v-85.335937c0-4.710938 3.820313-8.53125 8.53125-8.53125zm0 0" fill="#02a9f4"/><path d="m256 443.734375c-102.113281.246094-191.125-69.441406-215.390625-168.628906-.628906-2.546875-.046875-5.238281 1.570313-7.304688 1.617187-2.0625 4.09375-3.265625 6.714843-3.265625h414.210938c2.621093 0 5.097656 1.203125 6.714843 3.265625 1.617188 2.066407 2.199219 4.757813 1.570313 7.304688-24.265625 99.1875-113.277344 168.875-215.390625 168.628906zm-195.925781-162.132813c26.292969 86.183594 105.820312 145.066407 195.925781 145.066407s169.632812-58.882813 195.925781-145.066407zm0 0"/><path d="m463.105469 179.199219h-414.210938c-2.621093.003906-5.097656-1.203125-6.714843-3.265625-1.617188-2.066406-2.199219-4.757813-1.570313-7.304688 24.484375-99.046875 113.359375-168.628906 215.390625-168.628906s190.90625 69.582031 215.390625 168.628906c.628906 2.546875.046875 5.238282-1.570313 7.304688-1.617187 2.0625-4.09375 3.269531-6.714843 3.265625zm-403.03125-17.066407h391.851562c-26.292969-86.183593-105.820312-145.0625-195.925781-145.0625s-169.632812 58.878907-195.925781 145.0625zm0 0"/><path d="m256 375.46875c-63.824219-.304688-120.910156-39.769531-143.742188-99.367188-.996093-2.621093-.640624-5.566406.953126-7.878906 1.589843-2.308594 4.21875-3.6875 7.023437-3.6875h271.53125c2.804687 0 5.429687 1.378906 7.023437 3.6875 1.59375 2.3125 1.949219 5.257813.949219 7.878906-22.828125 59.601563-79.914062 99.0625-143.738281 99.367188zm-122.765625-93.867188c22.855469 46.980469 70.519531 76.800782 122.765625 76.800782s99.910156-29.820313 122.765625-76.800782zm0 0"/><path d="m391.765625 179.199219h-271.53125c-2.804687 0-5.429687-1.378907-7.023437-3.6875-1.59375-2.308594-1.949219-5.253907-.949219-7.878907 22.582031-59.792968 79.824219-99.363281 143.738281-99.363281 63.917969 0 121.160156 39.570313 143.742188 99.363281 1 2.625.644531 5.570313-.949219 7.878907-1.59375 2.3125-4.222657 3.691406-7.027344 3.6875zm-258.53125-17.066407h245.53125c-22.855469-46.980468-70.519531-76.800781-122.765625-76.800781s-99.910156 29.820313-122.765625 76.800781zm0 0"/><path d="m494.933594 281.601562h-477.867188c-9.421875-.011718-17.0585935-7.644531-17.066406-17.066406v-85.335937c.0078125-9.421875 7.644531-17.054688 17.066406-17.066407h477.867188c9.421875.011719 17.058594 7.644532 17.066406 17.066407v85.335937c-.007812 9.421875-7.644531 17.054688-17.066406 17.066406zm0-102.414062-477.867188.011719v85.335937h477.867188zm0 0"/><g fill="#f5f5f5"><path d="m128 256h-17.066406c-9.421875-.007812-17.058594-7.644531-17.066406-17.066406v-42.667969c0-4.710937 3.820312-8.53125 8.53125-8.53125 4.714843 0 8.535156 3.820313 8.535156 8.53125v42.667969h17.066406c4.710938 0 8.535156 3.820312 8.535156 8.535156 0 4.710938-3.824218 8.53125-8.535156 8.53125zm0 0"/><path d="m162.132812 256c-14.132812-.015625-25.582031-11.46875-25.597656-25.597656v-17.066406c0-14.140626 11.460938-25.601563 25.597656-25.601563 14.140626 0 25.601563 11.460937 25.601563 25.601563v17.066406c-.015625 14.128906-11.46875 25.582031-25.601563 25.597656zm0-51.199219c-4.710937.007813-8.527343 3.824219-8.53125 8.535157v17.066406c0 4.710937 3.820313 8.53125 8.53125 8.53125 4.714844 0 8.535157-3.820313 8.535157-8.53125v-17.066406c-.007813-4.710938-3.824219-8.527344-8.535157-8.535157zm0 0"/><path d="m341.332031 256c-14.128906-.015625-25.582031-11.46875-25.597656-25.597656v-17.066406c0-14.140626 11.460937-25.601563 25.597656-25.601563 14.140625 0 25.601563 11.460937 25.601563 25.601563v17.066406c-.015625 14.128906-11.46875 25.582031-25.601563 25.597656zm0-51.199219c-4.710937.007813-8.527343 3.824219-8.53125 8.535157v17.066406c0 4.710937 3.820313 8.53125 8.53125 8.53125 4.714844 0 8.535157-3.820313 8.535157-8.53125v-17.066406c-.007813-4.710938-3.824219-8.527344-8.535157-8.535157zm0 0"/><path d="m273.066406 256h-8.53125c-4.714844 0-8.535156-3.820312-8.535156-8.53125v-51.203125c0-4.710937 3.820312-8.53125 8.535156-8.53125h8.53125c18.851563 0 34.132813 15.28125 34.132813 34.132813 0 18.851562-15.28125 34.132812-34.132813 34.132812zm0-51.199219v34.132813c9.425782 0 17.066406-7.640625 17.066406-17.066406 0-9.425782-7.640624-17.066407-17.066406-17.066407zm0 0"/><path d="m238.933594 256c-2.851563 0-5.515625-1.425781-7.101563-3.800781l-18.5-27.75v23.019531c0 4.710938-3.820312 8.53125-8.53125 8.53125-4.714843 0-8.535156-3.820312-8.535156-8.53125v-51.203125c0-3.757813 2.460937-7.074219 6.0625-8.164063 3.597656-1.089843 7.484375.304688 9.570313 3.433594l18.5 27.75v-23.019531c0-4.710937 3.820312-8.53125 8.535156-8.53125 4.710937 0 8.53125 3.820313 8.53125 8.53125v51.203125c0 3.757812-2.457032 7.074219-6.058594 8.164062-.800781.246094-1.632812.371094-2.472656.367188zm0 0"/><path d="m418.132812 256c-2.851562 0-5.515624-1.425781-7.097656-3.800781l-18.5-27.75v23.019531c0 4.710938-3.824218 8.53125-8.535156 8.53125s-8.535156-3.820312-8.535156-8.53125v-51.203125c.003906-3.757813 2.464844-7.074219 6.0625-8.164063 3.597656-1.089843 7.488281.304688 9.574218 3.433594l18.5 27.75v-23.019531c0-4.710937 3.820313-8.53125 8.53125-8.53125 4.714844 0 8.535157 3.820313 8.535157 8.53125v51.203125c0 3.757812-2.460938 7.074219-6.058594 8.164062-.804687.246094-1.636719.371094-2.476563.367188zm0 0"/></g><path d="m333.144531 392.023438c-3.988281 0-7.441406-2.765626-8.320312-6.652344-.878907-3.890625 1.050781-7.871094 4.652343-9.585938 35.234376-16.8125 63.628907-45.210937 80.441407-80.445312 2.070312-4.175782 7.101562-5.917969 11.308593-3.914063 4.207032 2 6.03125 7.007813 4.097657 11.246094-18.492188 38.773437-49.738281 70.023437-88.511719 88.519531-1.148438.546875-2.398438.832032-3.667969.832032zm0 0"/><path d="m94.378906 153.257812c-2.929687 0-5.652344-1.5-7.214844-3.976562s-1.746093-5.582031-.484374-8.222656c18.492187-38.773438 49.738281-70.019532 88.507812-88.515625 2.761719-1.371094 6.046875-1.144531 8.59375.589843 2.546875 1.734376 3.964844 4.707032 3.703125 7.777344-.261719 3.070313-2.160156 5.761719-4.960937 7.039063-35.234376 16.8125-63.632813 45.210937-80.441407 80.445312-1.414062 2.972657-4.410156 4.867188-7.703125 4.863281zm0 0"/></svg>