<svg height="512pt" viewBox="0 -35 512 511" width="512pt" xmlns="http://www.w3.org/2000/svg"><path d="m503.171875 168.25h-32.925781c-24.347656-98.53125-112.753906-167.75-214.246094-167.75s-189.898438 69.21875-214.246094 167.75h-32.925781c-4.875 0-8.828125 3.949219-8.828125 8.824219v88.277343c0 4.875 3.953125 8.828126 8.828125 8.828126h32.925781c24.347656 98.527343 112.753906 167.746093 214.246094 167.746093s189.898438-69.21875 214.246094-167.746093h32.925781c4.875 0 8.828125-3.953126 8.828125-8.828126v-88.277343c0-4.875-3.953125-8.824219-8.828125-8.824219zm-247.171875-97.105469c62.425781.105469 118.300781 38.738281 140.445312 97.105469h-280.890624c22.144531-58.367188 78.019531-97 140.445312-97.105469zm0 300.136719c-62.425781-.105469-118.300781-38.738281-140.445312-97.101562h280.890624c-22.144531 58.363281-78.019531 96.996093-140.445312 97.101562zm0 0" fill="#e64c3c"/><path d="m470.246094 274.179688c-24.355469 98.519531-112.761719 167.726562-214.246094 167.722656v-70.621094c62.425781-.105469 118.300781-38.738281 140.445312-97.101562zm0 0" fill="#c03a2b"/><path d="m470.246094 168.25h-73.800782c-22.144531-58.367188-78.019531-97-140.445312-97.105469v-70.621093c101.484375-.003907 189.890625 69.207031 214.246094 167.726562zm0 0" fill="#c03a2b"/><path d="m256 168.25v105.929688h-247.171875c-4.875 0-8.828125-3.953126-8.828125-8.828126v-88.277343c0-4.875 3.953125-8.824219 8.828125-8.824219zm0 0" fill="#4482c3"/><path d="m512 177.074219v88.277343c0 4.875-3.953125 8.828126-8.828125 8.828126h-247.171875v-105.929688h247.171875c4.875 0 8.828125 3.949219 8.828125 8.824219zm0 0" fill="#285680"/><g fill="#fff"><path d="m123.585938 256.523438h-17.65625c-9.75 0-17.652344-7.902344-17.652344-17.65625v-44.136719c0-4.875 3.949218-8.828125 8.824218-8.828125 4.878907 0 8.828126 3.953125 8.828126 8.828125v44.136719h17.65625c4.875 0 8.828124 3.953124 8.828124 8.828124s-3.953124 8.828126-8.828124 8.828126zm0 0"/><path d="m158.898438 256.523438c-14.628907 0-26.484376-11.855469-26.484376-26.480469v-17.65625c0-14.625 11.855469-26.484375 26.484376-26.484375 14.625 0 26.480468 11.859375 26.480468 26.484375v17.65625c0 14.625-11.855468 26.480469-26.480468 26.480469zm0-52.964844c-4.878907 0-8.828126 3.953125-8.828126 8.828125v17.65625c0 4.875 3.949219 8.824219 8.828126 8.824219 4.875 0 8.824218-3.949219 8.824218-8.824219v-17.65625c0-4.875-3.949218-8.828125-8.824218-8.828125zm0 0"/><path d="m344.277344 256.523438c-14.628906 0-26.484375-11.855469-26.484375-26.480469v-17.65625c0-14.625 11.855469-26.484375 26.484375-26.484375 14.625 0 26.480468 11.859375 26.480468 26.484375v17.65625c0 14.625-11.855468 26.480469-26.480468 26.480469zm0-52.964844c-4.875 0-8.828125 3.953125-8.828125 8.828125v17.65625c0 4.875 3.953125 8.824219 8.828125 8.824219s8.824218-3.949219 8.824218-8.824219v-17.65625c0-4.875-3.949218-8.828125-8.824218-8.828125zm0 0"/><path d="m273.65625 256.523438h-8.828125c-4.875 0-8.828125-3.953126-8.828125-8.828126v-52.964843c0-4.875 3.953125-8.828125 8.828125-8.828125h8.828125c19.5 0 35.308594 15.808594 35.308594 35.3125 0 19.5-15.808594 35.308594-35.308594 35.308594zm0-52.964844v35.308594c9.75 0 17.652344-7.902344 17.652344-17.652344s-7.902344-17.65625-17.652344-17.65625zm0 0"/><path d="m238.34375 256.523438c-2.949219 0-5.707031-1.472657-7.34375-3.925782l-19.136719-28.734375v23.832031c0 4.875-3.953125 8.828126-8.828125 8.828126s-8.828125-3.953126-8.828125-8.828126v-52.964843c0-3.890625 2.542969-7.320313 6.269531-8.449219 3.722657-1.128906 7.746094.3125 9.902344 3.550781l19.136719 28.734375v-23.835937c0-4.875 3.953125-8.828125 8.828125-8.828125s8.828125 3.953125 8.828125 8.828125v52.964843c0 4.875-3.953125 8.828126-8.828125 8.828126zm0 0"/><path d="m423.722656 256.523438c-2.949218 0-5.707031-1.472657-7.34375-3.925782l-19.136718-28.734375v23.832031c0 4.875-3.953126 8.828126-8.828126 8.828126s-8.828124-3.953126-8.828124-8.828126v-52.964843c0-3.890625 2.546874-7.320313 6.269531-8.449219 3.722656-1.128906 7.746093.3125 9.902343 3.550781l19.140626 28.734375v-23.835937c0-4.875 3.949218-8.828125 8.824218-8.828125s8.828125 3.953125 8.828125 8.828125v52.964843c0 4.875-3.953125 8.828126-8.828125 8.828126zm0 0"/></g><path d="m335.808594 397.234375c-4.105469-.019531-7.65625-2.867187-8.5625-6.875-.910156-4.003906 1.0625-8.105469 4.757812-9.894531 36.453125-17.390625 65.828125-46.769532 83.21875-83.21875 1.355469-2.847656 4.128906-4.757813 7.273438-5.003906 3.144531-.25 6.183594 1.195312 7.972656 3.792968 1.785156 2.597656 2.054688 5.953125.695312 8.800782-19.136718 40.101562-51.460937 72.414062-91.566406 91.542968-1.183594.5625-2.476562.855469-3.789062.855469zm0 0" fill="#e64c3c"/><path d="m88.804688 150.238281c-3.023438-.007812-5.835938-1.5625-7.445313-4.125-1.609375-2.558593-1.800781-5.765625-.5-8.496093 19.128906-40.105469 51.445313-72.429688 91.542969-91.570313 2.847656-1.355469 6.203125-1.089844 8.800781.699219 2.597656 1.789062 4.046875 4.828125 3.796875 7.972656s-2.15625 5.914062-5.003906 7.273438c-36.453125 17.390624-65.828125 46.765624-83.21875 83.214843-1.464844 3.074219-4.566406 5.035157-7.972656 5.03125zm0 0" fill="#fb7b76"/></svg>