#define 2UT_width 200
#define 2UT_height 100
static char 2UT_bits[] = {
  0x00, 0x02, 0x08, 0x20, 0x80, 0x00, 0x02, 0x08, 0x20, 0x80, 0x00, 0x02, 
  0x08, 0x20, 0x80, 0x00, 0x02, 0x08, 0x20, 0x80, 0x00, 0x02, 0x08, 0x20, 
  0x80, 0x00, 0x01, 0x04, 0x10, 0x40, 0x00, 0x01, 0x04, 0x10, 0x40, 0x00, 
  0x01, 0x04, 0x10, 0x40, 0x00, 0x01, 0x04, 0x10, 0x40, 0x00, 0x01, 0x04, 
  0x10, 0x40, 0x80, 0x00, 0x02, 0x08, 0x20, 0x80, 0x00, 0x02, 0x08, 0x20, 
  0x80, 0x00, 0x02, 0x08, 0x20, 0x80, 0x00, 0x02, 0x08, 0x20, 0x80, 0x00, 
  0x02, 0x08, 0x20, 0x40, 0x00, 0x01, 0x04, 0x10, 0x40, 0x00, 0x01, 0x04, 
  0x10, 0x40, 0x00, 0x01, 0x04, 0x10, 0x40, 0x00, 0x01, 0x04, 0x10, 0x40, 
  0x00, 0x01, 0x04, 0x10, 0x20, 0x80, 0x00, 0x02, 0x08, 0x20, 0x80, 0x00, 
  0x02, 0x08, 0x20, 0x80, 0x00, 0x02, 0x08, 0x20, 0x80, 0x00, 0x02, 0x08, 
  0x20, 0x80, 0x00, 0x02, 0x08, 0x10, 0x40, 0x00, 0x01, 0x04, 0x10, 0x40, 
  0x00, 0x01, 0x04, 0x10, 0x40, 0x00, 0x01, 0x04, 0x10, 0x40, 0x00, 0x01, 
  0x04, 0x10, 0x40, 0x00, 0x01, 0x04, 0x08, 0x20, 0x80, 0x00, 0x02, 0x08, 
  0x20, 0x80, 0x00, 0x02, 0x08, 0x20, 0x80, 0x00, 0x02, 0x08, 0x20, 0x80, 
  0x00, 0x02, 0x08, 0x20, 0x80, 0x00, 0x02, 0x04, 0x10, 0x40, 0x00, 0x01, 
  0x04, 0x10, 0x40, 0x00, 0x01, 0x04, 0x10, 0x40, 0x00, 0x01, 0x04, 0x10, 
  0x40, 0x00, 0x01, 0x04, 0x10, 0x40, 0x00, 0x01, 0x02, 0x08, 0x20, 0x80, 
  0x00, 0x02, 0x08, 0x20, 0x80, 0x00, 0x02, 0x08, 0x20, 0x80, 0x00, 0x02, 
  0x08, 0x20, 0x80, 0x00, 0x02, 0x08, 0x20, 0x80, 0x00, 0x01, 0x04, 0x10, 
  0x40, 0x00, 0x01, 0x04, 0x10, 0x40, 0x00, 0x01, 0x04, 0x3C, 0x40, 0x00, 
  0x01, 0x04, 0x10, 0x40, 0x00, 0x01, 0x04, 0x10, 0x40, 0x00, 0x01, 0x02, 
  0x08, 0x20, 0x80, 0x00, 0x02, 0x08, 0x20, 0x80, 0x00, 0x02, 0x24, 0x20, 
  0x80, 0x00, 0x02, 0x08, 0x20, 0x80, 0x00, 0x02, 0x08, 0x20, 0x80, 0x03, 
  0x01, 0x04, 0x10, 0x40, 0x00, 0x01, 0x04, 0x10, 0x40, 0x00, 0x01, 0x42, 
  0x10, 0x40, 0x00, 0x01, 0x04, 0x10, 0x40, 0x00, 0x01, 0x04, 0x10, 0xC0, 
  0x83, 0x00, 0x02, 0x08, 0x20, 0x80, 0x00, 0x02, 0x08, 0x20, 0x80, 0x00, 
  0x42, 0x08, 0x20, 0x80, 0x00, 0x02, 0x08, 0x20, 0x80, 0x00, 0x02, 0x08, 
  0xE0, 0x47, 0x00, 0x01, 0x04, 0x10, 0x40, 0x00, 0x01, 0x04, 0x10, 0x40, 
  0x00, 0x81, 0x04, 0x10, 0x40, 0x00, 0x01, 0x04, 0x10, 0x40, 0x00, 0x01, 
  0x04, 0xF0, 0x27, 0x80, 0x00, 0x02, 0x08, 0x20, 0x80, 0x00, 0x02, 0x08, 
  0x20, 0x80, 0x81, 0x02, 0x08, 0x20, 0x80, 0x00, 0x02, 0x08, 0x20, 0x80, 
  0x00, 0x02, 0xE8, 0x1F, 0x40, 0x00, 0x01, 0x04, 0x10, 0x40, 0x00, 0x01, 
  0x04, 0x10, 0xC0, 0x00, 0x01, 0x04, 0x10, 0x40, 0x00, 0x01, 0x04, 0x10, 
  0x40, 0x00, 0x01, 0xF4, 0x0F, 0x20, 0x80, 0x00, 0x02, 0x08, 0x20, 0x80, 
  0x00, 0x02, 0x08, 0xA0, 0x00, 0x01, 0x02, 0x08, 0x20, 0x80, 0x00, 0x02, 
  0x08, 0x20, 0x80, 0x00, 0xF2, 0x0F, 0x10, 0x40, 0x00, 0x01, 0x04, 0x10, 
  0x40, 0x00, 0x01, 0x04, 0x90, 0x00, 0x01, 0x01, 0x04, 0x10, 0x40, 0x00, 
  0x01, 0x04, 0x10, 0x40, 0x00, 0xF1, 0x0F, 0x08, 0x20, 0x80, 0x00, 0x02, 
  0x08, 0x20, 0x80, 0x00, 0x02, 0x88, 0x00, 0x81, 0x00, 0x02, 0x08, 0x20, 
  0x80, 0x00, 0x02, 0x08, 0x20, 0x80, 0xF0, 0x0F, 0x04, 0x10, 0x40, 0x00, 
  0x01, 0x04, 0x10, 0x40, 0x00, 0x01, 0x84, 0x00, 0x41, 0x00, 0x01, 0x04, 
  0x10, 0x40, 0x00, 0x01, 0x04, 0x10, 0x40, 0xF0, 0x0F, 0x02, 0x08, 0x20, 
  0x80, 0x00, 0x02, 0x08, 0x20, 0x80, 0x00, 0x82, 0x00, 0x21, 0x80, 0x00, 
  0x02, 0x08, 0x20, 0x80, 0x00, 0x02, 0x08, 0x20, 0xF0, 0x07, 0x01, 0x04, 
  0x10, 0x40, 0x00, 0x01, 0x04, 0x10, 0x40, 0x00, 0x01, 0x81, 0x10, 0x40, 
  0x00, 0x01, 0x04, 0x10, 0x40, 0x00, 0x01, 0x04, 0x10, 0xE0, 0x87, 0x00, 
  0x02, 0x08, 0x20, 0x80, 0x00, 0x02, 0x08, 0x20, 0x80, 0x1E, 0x81, 0x78, 
  0x20, 0x80, 0x00, 0x02, 0x08, 0x20, 0x80, 0x00, 0x02, 0x08, 0xE0, 0xC7, 
  0x07, 0x01, 0x04, 0x10, 0x40, 0x00, 0x01, 0x04, 0x10, 0xC0, 0x61, 0x81, 
  0x86, 0x11, 0x40, 0x00, 0x01, 0x04, 0x10, 0x40, 0x00, 0x01, 0xE4, 0xF1, 
  0xE3, 0x9F, 0x00, 0x02, 0x08, 0x20, 0x80, 0x00, 0x02, 0x08, 0x60, 0x80, 
  0xC3, 0x01, 0x0A, 0x20, 0x80, 0x00, 0x02, 0x08, 0x20, 0x80, 0x00, 0xFA, 
  0xCF, 0xF3, 0x7F, 0x00, 0x01, 0x04, 0x10, 0x40, 0x00, 0x01, 0x04, 0x30, 
  0x80, 0xC3, 0x01, 0x04, 0x10, 0x40, 0x00, 0x01, 0x04, 0x10, 0x40, 0x00, 
  0xFD, 0xC7, 0xFB, 0x3F, 0x80, 0x00, 0x02, 0x08, 0x20, 0x80, 0x00, 0x02, 
  0x28, 0x00, 0xC3, 0x00, 0x04, 0x08, 0x20, 0x80, 0x00, 0x02, 0x08, 0x20, 
  0x80, 0xFC, 0xCF, 0xFF, 0x7F, 0x40, 0x00, 0x01, 0x04, 0x10, 0x40, 0x00, 
  0x01, 0x14, 0x00, 0x42, 0x00, 0x08, 0x04, 0x10, 0x40, 0x00, 0x01, 0x04, 
  0x10, 0x40, 0xFE, 0xDF, 0x1B, 0x7F, 0x20, 0x80, 0x00, 0x02, 0x08, 0x20, 
  0x80, 0x00, 0x12, 0x70, 0x66, 0x0E, 0x08, 0x02, 0x08, 0x20, 0x80, 0x00, 
  0x02, 0x08, 0x20, 0xFE, 0x98, 0x09, 0x7E, 0x10, 0x40, 0x00, 0x01, 0x04, 
  0x10, 0x40, 0x00, 0x11, 0x88, 0x66, 0x11, 0x08, 0x01, 0x04, 0x10, 0x40, 
  0x00, 0x01, 0x04, 0x10, 0x7E, 0x90, 0x05, 0x3E, 0x08, 0x20, 0x80, 0x00, 
  0x02, 0x08, 0x20, 0x80, 0x20, 0x08, 0xA5, 0x10, 0x84, 0x00, 0x02, 0x08, 
  0x20, 0x80, 0x00, 0x02, 0x08, 0x7C, 0xA0, 0x05, 0x1F, 0x04, 0x10, 0x40, 
  0x00, 0x01, 0x04, 0x10, 0x40, 0x40, 0x08, 0xA5, 0x10, 0x42, 0x00, 0x01, 
  0x04, 0x10, 0x40, 0x00, 0x01, 0x04, 0x78, 0xE0, 0x85, 0x07, 0x02, 0x08, 
  0x20, 0x80, 0x00, 0x02, 0x08, 0x20, 0x80, 0x11, 0xA5, 0x88, 0x21, 0x80, 
  0x00, 0x02, 0x08, 0x20, 0x80, 0x00, 0x02, 0xE8, 0xA0, 0x4F, 0x00, 0x01, 
  0x04, 0x10, 0x40, 0x00, 0x01, 0x04, 0x10, 0x40, 0x8E, 0x00, 0x75, 0x10, 
  0x40, 0x00, 0x01, 0x04, 0x10, 0x40, 0x00, 0x01, 0x04, 0xF0, 0x2F, 0x80, 
  0x00, 0x02, 0x08, 0x20, 0x80, 0x00, 0x02, 0x08, 0x20, 0x80, 0x00, 0x03, 
  0x08, 0x20, 0x80, 0x00, 0x02, 0x08, 0x20, 0x80, 0x00, 0x02, 0xF8, 0x11, 
  0x40, 0x00, 0x01, 0x04, 0x10, 0x40, 0x00, 0x01, 0x04, 0x10, 0xC0, 0xE7, 
  0x01, 0x04, 0x10, 0x40, 0x00, 0x01, 0x04, 0x10, 0x40, 0x00, 0x01, 0x84, 
  0x09, 0x20, 0x80, 0x00, 0x02, 0x08, 0x20, 0x80, 0x00, 0x02, 0x08, 0xA0, 
  0xE7, 0x01, 0x02, 0x08, 0x20, 0x80, 0x00, 0x02, 0x08, 0x20, 0x80, 0x00, 
  0x82, 0x0F, 0x10, 0x40, 0x00, 0x01, 0x04, 0x10, 0x40, 0x00, 0x01, 0x04, 
  0x90, 0x00, 0x01, 0x01, 0x04, 0x10, 0x40, 0x00, 0x01, 0x04, 0x10, 0x40, 
  0x00, 0xF1, 0x0F, 0x08, 0x20, 0x80, 0x00, 0x02, 0x08, 0x20, 0x80, 0x00, 
  0x02, 0x88, 0x24, 0x81, 0x00, 0x02, 0x08, 0x20, 0x80, 0x00, 0x02, 0x08, 
  0x20, 0x80, 0xB0, 0x01, 0x04, 0x10, 0x40, 0x00, 0x01, 0x04, 0x10, 0x40, 
  0x00, 0x01, 0x04, 0xE7, 0x40, 0x00, 0x01, 0x04, 0x10, 0x40, 0x00, 0x01, 
  0x04, 0x10, 0x40, 0x80, 0x00, 0x02, 0x08, 0x20, 0x80, 0x00, 0x02, 0x08, 
  0x20, 0x80, 0x00, 0x02, 0x18, 0x20, 0x80, 0x00, 0x02, 0x08, 0x20, 0x80, 
  0x00, 0x02, 0x08, 0x20, 0x80, 0x00, 0x01, 0x04, 0x10, 0x40, 0x00, 0x01, 
  0x04, 0x10, 0x40, 0x00, 0x01, 0x04, 0x10, 0x40, 0x00, 0x01, 0x04, 0x10, 
  0x40, 0x00, 0x01, 0x04, 0x10, 0x40, 0x80, 0x00, 0x02, 0x08, 0x20, 0x80, 
  0x00, 0x02, 0x08, 0x20, 0x80, 0x00, 0x02, 0x08, 0x20, 0x80, 0x00, 0x02, 
  0x08, 0x20, 0x80, 0x00, 0x02, 0x08, 0x20, 0x40, 0x00, 0x01, 0x04, 0x10, 
  0x40, 0x00, 0x01, 0x04, 0x10, 0x40, 0x00, 0x01, 0x04, 0x10, 0x40, 0x00, 
  0x01, 0x04, 0x10, 0x40, 0x00, 0x01, 0x04, 0x10, 0x20, 0x80, 0x00, 0x02, 
  0x08, 0x20, 0x80, 0x00, 0x02, 0x08, 0x20, 0x80, 0x00, 0x02, 0x08, 0x20, 
  0x80, 0x00, 0x02, 0x08, 0x20, 0x80, 0x00, 0x02, 0x08, 0x10, 0x40, 0x00, 
  0x01, 0x04, 0x10, 0x40, 0x00, 0x01, 0x04, 0x10, 0x40, 0x00, 0x01, 0x04, 
  0x10, 0x40, 0x00, 0x01, 0x04, 0x10, 0x40, 0x00, 0x01, 0x04, 0x08, 0x20, 
  0x80, 0x00, 0x02, 0x08, 0x20, 0x80, 0x00, 0x02, 0x08, 0x20, 0x80, 0x00, 
  0x02, 0x08, 0x20, 0x80, 0x00, 0x02, 0x08, 0x20, 0x80, 0x00, 0x02, 0x04, 
  0x10, 0x40, 0x00, 0x01, 0x04, 0x10, 0x40, 0x00, 0x01, 0x04, 0x10, 0x40, 
  0x00, 0x01, 0x04, 0x10, 0x40, 0x00, 0x01, 0x04, 0x10, 0x40, 0x00, 0x01, 
  0x02, 0x08, 0x20, 0x80, 0x00, 0x02, 0x08, 0x20, 0x80, 0x00, 0x02, 0x08, 
  0x20, 0x80, 0x00, 0x02, 0x08, 0x20, 0x80, 0x00, 0x02, 0x08, 0x20, 0x80, 
  0x00, 0x01, 0x04, 0x10, 0x40, 0x00, 0x01, 0x04, 0x10, 0x40, 0x00, 0x01, 
  0x04, 0x10, 0x40, 0x00, 0x01, 0x04, 0x10, 0x40, 0x00, 0x01, 0x04, 0x10, 
  0x40, 0x00, 0x00, 0x02, 0x08, 0x20, 0x80, 0x00, 0x02, 0x08, 0x20, 0x80, 
  0x00, 0x02, 0x08, 0x20, 0x80, 0x00, 0x02, 0x08, 0x20, 0x80, 0x00, 0x02, 
  0x08, 0x20, 0x80, 0x00, 0x01, 0x04, 0x10, 0x40, 0x00, 0x01, 0x04, 0x10, 
  0x40, 0x00, 0x01, 0x04, 0x10, 0x40, 0x00, 0x01, 0x04, 0x10, 0x40, 0x00, 
  0x01, 0x04, 0x10, 0x40, 0x80, 0x00, 0x02, 0x08, 0x20, 0x80, 0x00, 0x02, 
  0x08, 0x20, 0x80, 0x00, 0x02, 0x08, 0x20, 0x80, 0x00, 0x02, 0x08, 0x20, 
  0x80, 0x00, 0x02, 0x08, 0x20, 0x40, 0x00, 0x01, 0x04, 0x10, 0x40, 0x00, 
  0x01, 0x04, 0x10, 0x40, 0x00, 0x01, 0x04, 0x10, 0x40, 0x00, 0x01, 0x04, 
  0x10, 0x40, 0x00, 0x01, 0x04, 0x10, 0x20, 0x80, 0x00, 0x02, 0x08, 0x20, 
  0x80, 0x00, 0x02, 0x08, 0x20, 0x80, 0x00, 0x02, 0x08, 0x20, 0x80, 0x00, 
  0x02, 0x08, 0x20, 0x80, 0x00, 0x02, 0x08, 0x10, 0x40, 0x00, 0x01, 0x04, 
  0x10, 0x40, 0x00, 0x01, 0x04, 0x10, 0x40, 0x00, 0x01, 0x04, 0x10, 0x40, 
  0x00, 0x01, 0x04, 0x10, 0x40, 0x00, 0x01, 0x04, 0x08, 0x20, 0x80, 0x00, 
  0x02, 0x08, 0x20, 0x80, 0x00, 0x02, 0x08, 0x20, 0x80, 0x00, 0x02, 0x08, 
  0x20, 0x80, 0x00, 0x02, 0x08, 0x20, 0x80, 0x00, 0x02, 0x04, 0x10, 0x40, 
  0x00, 0x01, 0x04, 0x10, 0x40, 0x00, 0x01, 0x04, 0x10, 0x40, 0x00, 0x01, 
  0x04, 0x10, 0x40, 0x00, 0x01, 0x04, 0x10, 0x40, 0x00, 0x01, 0x02, 0x08, 
  0x20, 0x80, 0x00, 0x02, 0x08, 0x20, 0x80, 0x00, 0x02, 0x08, 0x20, 0x80, 
  0x00, 0x02, 0x08, 0x20, 0x80, 0x00, 0x02, 0x08, 0x20, 0x80, 0x00, 0x01, 
  0x04, 0x10, 0x40, 0x00, 0x01, 0x04, 0x10, 0x40, 0x00, 0x01, 0x04, 0x10, 
  0x40, 0x00, 0x01, 0x04, 0x10, 0xF0, 0x00, 0x01, 0x04, 0x10, 0x40, 0x00, 
  0x00, 0x02, 0x08, 0x20, 0x80, 0x00, 0x06, 0x08, 0x20, 0x80, 0x00, 0x02, 
  0x08, 0x20, 0x80, 0x00, 0x02, 0x08, 0x90, 0x80, 0x00, 0x02, 0x08, 0x20, 
  0x80, 0x00, 0x01, 0x04, 0x10, 0x40, 0x00, 0x0F, 0x04, 0x10, 0x40, 0x00, 
  0x01, 0x04, 0x10, 0x40, 0x00, 0x01, 0x04, 0x08, 0x41, 0x00, 0x01, 0x04, 
  0x10, 0x40, 0x80, 0x00, 0x02, 0x08, 0x20, 0x80, 0x0F, 0x02, 0x08, 0x20, 
  0x80, 0x00, 0x02, 0x08, 0x20, 0x80, 0x00, 0x02, 0x08, 0x21, 0x80, 0x00, 
  0x02, 0x08, 0x20, 0x40, 0x00, 0x01, 0x04, 0x10, 0xC0, 0x1F, 0x01, 0x04, 
  0x10, 0x40, 0x00, 0x01, 0x04, 0x10, 0x40, 0x00, 0x01, 0x04, 0x12, 0x40, 
  0x00, 0x01, 0x04, 0x10, 0x20, 0x80, 0x00, 0x02, 0x08, 0xA0, 0x9F, 0x00, 
  0x02, 0x08, 0x20, 0x80, 0x00, 0x02, 0x08, 0x20, 0x80, 0x00, 0x06, 0x0A, 
  0x20, 0x80, 0x00, 0x02, 0x08, 0x10, 0x40, 0x00, 0x01, 0x04, 0xD0, 0x7F, 
  0x00, 0x01, 0x04, 0x10, 0x40, 0x00, 0x01, 0x04, 0x10, 0x40, 0x00, 0x03, 
  0x04, 0x10, 0x40, 0x00, 0x01, 0x04, 0x08, 0x20, 0x80, 0x00, 0x02, 0xC8, 
  0x3F, 0x80, 0x00, 0x02, 0x08, 0x20, 0x80, 0x00, 0x02, 0x08, 0x20, 0x80, 
  0x02, 0x04, 0x08, 0x20, 0x80, 0x00, 0x02, 0x04, 0x10, 0x40, 0x00, 0x01, 
  0xC4, 0x3F, 0x40, 0x00, 0x01, 0x04, 0x10, 0x40, 0x00, 0x01, 0x04, 0x10, 
  0x40, 0x02, 0x04, 0x04, 0x10, 0x40, 0x00, 0x01, 0x02, 0x08, 0x20, 0x80, 
  0x00, 0xC2, 0x3F, 0x20, 0x80, 0x00, 0x02, 0x08, 0x20, 0x80, 0x00, 0x02, 
  0x08, 0x20, 0x02, 0x04, 0x02, 0x08, 0x20, 0x80, 0x00, 0x01, 0x04, 0x10, 
  0x40, 0x00, 0xC1, 0x3F, 0x10, 0x40, 0x00, 0x01, 0x04, 0x10, 0x40, 0x00, 
  0x01, 0x04, 0x10, 0x02, 0x04, 0x01, 0x04, 0x10, 0x40, 0x00, 0x00, 0x02, 
  0x08, 0x20, 0x80, 0xC0, 0x3F, 0x08, 0x20, 0x80, 0x00, 0x02, 0x08, 0x20, 
  0x80, 0x00, 0x02, 0x08, 0x02, 0x84, 0x00, 0x02, 0x08, 0x20, 0x80, 0x00, 
  0x01, 0x04, 0x10, 0x40, 0x80, 0x1F, 0x04, 0x10, 0x40, 0x00, 0x01, 0x04, 
  0x10, 0x40, 0x00, 0x01, 0x04, 0x04, 0x42, 0x00, 0x01, 0x04, 0x10, 0x40, 
  0x80, 0x00, 0x02, 0x08, 0x20, 0x80, 0x1F, 0x02, 0x08, 0x20, 0x80, 0x00, 
  0x02, 0x08, 0x20, 0x80, 0x00, 0x7A, 0x04, 0xE2, 0x81, 0x00, 0x02, 0x08, 
  0x20, 0x40, 0x00, 0x01, 0x04, 0x90, 0xC7, 0x1F, 0x1F, 0x04, 0x10, 0x40, 
  0x00, 0x01, 0x04, 0x10, 0x40, 0x00, 0x87, 0x05, 0x1A, 0x46, 0x00, 0x01, 
  0x04, 0x10, 0x20, 0x80, 0x00, 0x02, 0xE8, 0x3F, 0x8F, 0x7F, 0x02, 0x08, 
  0x20, 0x80, 0x00, 0x02, 0x08, 0x20, 0x80, 0x01, 0x0E, 0x07, 0x28, 0x80, 
  0x00, 0x02, 0x08, 0x10, 0x40, 0x00, 0x01, 0xF4, 0x1F, 0xCF, 0xFF, 0x01, 
  0x04, 0x10, 0x40, 0x00, 0x01, 0x04, 0x10, 0xC0, 0x00, 0x0E, 0x07, 0x10, 
  0x40, 0x00, 0x01, 0x04, 0x08, 0x20, 0x80, 0x00, 0xF2, 0x3F, 0xEF, 0xFF, 
  0x00, 0x02, 0x08, 0x20, 0x80, 0x00, 0x02, 0x08, 0xA0, 0x00, 0x0C, 0x03, 
  0x10, 0x20, 0x80, 0x00, 0x02, 0x04, 0x10, 0x40, 0x00, 0xF9, 0x7F, 0xFF, 
  0xFF, 0x01, 0x01, 0x04, 0x10, 0x40, 0x00, 0x01, 0x04, 0x50, 0x00, 0x08, 
  0x01, 0x20, 0x10, 0x40, 0x00, 0x01, 0x02, 0x08, 0x20, 0x80, 0xF8, 0x63, 
  0x6E, 0xFC, 0x81, 0x00, 0x02, 0x08, 0x20, 0x80, 0x00, 0x02, 0x48, 0xC0, 
  0x99, 0x39, 0x20, 0x08, 0x20, 0x80, 0x00, 0x01, 0x04, 0x10, 0x40, 0xF8, 
  0x41, 0x26, 0xF8, 0x41, 0x00, 0x01, 0x04, 0x10, 0x40, 0x00, 0x01, 0x44, 
  0x20, 0x9A, 0x45, 0x20, 0x04, 0x10, 0x40, 0x00, 0x00, 0x02, 0x08, 0x20, 
  0xF0, 0x81, 0x16, 0xF8, 0x20, 0x80, 0x00, 0x02, 0x08, 0x20, 0x80, 0x00, 
  0x82, 0x20, 0x94, 0x42, 0x10, 0x02, 0x08, 0x20, 0x80, 0x00, 0x01, 0x04, 
  0x10, 0xE0, 0x81, 0x17, 0x7C, 0x10, 0x40, 0x00, 0x01, 0x04, 0x10, 0x40, 
  0x00, 0x01, 0x21, 0x94, 0x42, 0x08, 0x01, 0x04, 0x10, 0x40, 0x80, 0x00, 
  0x02, 0x08, 0xA0, 0x83, 0x16, 0x1E, 0x08, 0x20, 0x80, 0x00, 0x02, 0x08, 
  0x20, 0x80, 0x00, 0x46, 0x94, 0x22, 0x86, 0x00, 0x02, 0x08, 0x20, 0x40, 
  0x00, 0x01, 0x04, 0x10, 0xC0, 0x3F, 0x01, 0x04, 0x10, 0x40, 0x00, 0x01, 
  0x04, 0x10, 0x40, 0x00, 0x39, 0x02, 0xD4, 0x41, 0x00, 0x01, 0x04, 0x10, 
  0x20, 0x80, 0x00, 0x02, 0x08, 0xE0, 0xBF, 0x00, 0x02, 0x08, 0x20, 0x80, 
  0x00, 0x02, 0x08, 0x20, 0x80, 0x00, 0x02, 0x0C, 0x20, 0x80, 0x00, 0x02, 
  0x08, 0x10, 0x40, 0x00, 0x01, 0x04, 0x10, 0x46, 0x00, 0x01, 0x04, 0x10, 
  0x40, 0x00, 0x01, 0x04, 0x10, 0x40, 0x00, 0x9F, 0x07, 0x10, 0x40, 0x00, 
  0x01, 0x04, 0x08, 0x20, 0x80, 0x00, 0x02, 0x08, 0x26, 0x80, 0x00, 0x02, 
  0x08, 0x20, 0x80, 0x00, 0x02, 0x08, 0x20, 0x80, 0x9E, 0x07, 0x08, 0x20, 
  0x80, 0x00, 0x02, 0x04, 0x10, 0x40, 0x00, 0x01, 0xC4, 0x3F, 0x40, 0x00, 
  0x01, 0x04, 0x10, 0x40, 0x00, 0x01, 0x04, 0x10, 0x40, 0x02, 0x04, 0x04, 
  0x10, 0x40, 0x00, 0x01, 0x02, 0x08, 0x20, 0x80, 0x00, 0xC2, 0x3E, 0x20, 
  0x80, 0x00, 0x02, 0x08, 0x20, 0x80, 0x00, 0x02, 0x08, 0x20, 0x92, 0x04, 
  0x02, 0x08, 0x20, 0x80, 0x00, 0x01, 0x04, 0x10, 0x40, 0x00, 0x01, 0x06, 
  0x10, 0x40, 0x00, 0x01, 0x04, 0x10, 0x40, 0x00, 0x01, 0x04, 0x10, 0x9C, 
  0x03, 0x01, 0x04, 0x10, 0x40, 0x00, 0x00, 0x02, 0x08, 0x20, 0x80, 0x00, 
  0x02, 0x08, 0x20, 0x80, 0x00, 0x02, 0x08, 0x20, 0x80, 0x00, 0x02, 0x08, 
  0x60, 0x80, 0x00, 0x02, 0x08, 0x20, 0x80, 0x00, 0x01, 0x04, 0x10, 0x40, 
  0x00, 0x01, 0x04, 0x10, 0x40, 0x00, 0x01, 0x04, 0x10, 0x40, 0x00, 0x01, 
  0x04, 0x10, 0x40, 0x00, 0x01, 0x04, 0x10, 0x40, 0x80, 0x00, 0x02, 0x08, 
  0x20, 0x80, 0x00, 0x02, 0x08, 0x20, 0x80, 0x00, 0x02, 0x08, 0x20, 0x80, 
  0x00, 0x02, 0x08, 0x20, 0x80, 0x00, 0x02, 0x08, 0x20, 0x40, 0x00, 0x01, 
  0x04, 0x10, 0x40, 0x00, 0x01, 0x04, 0x10, 0x40, 0x00, 0x01, 0x04, 0x10, 
  0x40, 0x00, 0x01, 0x04, 0x10, 0x40, 0x00, 0x01, 0x04, 0x10, 0x20, 0x80, 
  0x00, 0x02, 0x08, 0x20, 0x80, 0x00, 0x02, 0x08, 0x20, 0x80, 0x00, 0x02, 
  0x08, 0x20, 0x80, 0x00, 0x02, 0x08, 0x20, 0x80, 0x00, 0x02, 0x08, 0x10, 
  0x40, 0x00, 0x01, 0x04, 0x10, 0x40, 0x00, 0x01, 0x04, 0x10, 0x40, 0x00, 
  0x01, 0x04, 0x10, 0x40, 0x00, 0x01, 0x04, 0x10, 0x40, 0x00, 0x01, 0x04, 
  0x08, 0x20, 0x80, 0x00, 0x02, 0x08, 0x20, 0x80, 0x00, 0x02, 0x08, 0x20, 
  0x80, 0x00, 0x02, 0x08, 0x20, 0x80, 0x00, 0x02, 0x08, 0x20, 0x80, 0x00, 
  0x02, 0x04, 0x10, 0x40, 0x00, 0x01, 0x04, 0x10, 0x40, 0x00, 0x01, 0x04, 
  0x10, 0x40, 0x00, 0x01, 0x04, 0x10, 0x40, 0x00, 0x01, 0x04, 0x10, 0x40, 
  0x00, 0x01, 0x02, 0x08, 0x20, 0x80, 0x00, 0x02, 0x08, 0x20, 0x80, 0x00, 
  0x02, 0x08, 0x20, 0x80, 0x00, 0x02, 0x08, 0x20, 0x80, 0x00, 0x02, 0x08, 
  0x20, 0x80, 0x00, 0x01, 0x04, 0x10, 0x40, 0x00, 0x01, 0x04, 0x10, 0x40, 
  0x00, 0x01, 0x04, 0x10, 0x40, 0x00, 0x01, 0x04, 0x10, 0x40, 0x00, 0x01, 
  0x04, 0x10, 0x40, 0x00, };
