#define OldChars_width 64
#define OldChars_height 64
static char OldChars_bits[] = {
  0x00, 0x00, 0x02, 0x00, 0x00, 0x00, 0x40, 0x05, 0x40, 0x00, 0x80, 0x00, 
  0x80, 0x02, 0x00, 0x00, 0x00, 0x00, 0x00, 0x00, 0x00, 0x12, 0x80, 0x00, 
  0x00, 0x80, 0x00, 0x00, 0x04, 0x00, 0x00, 0x00, 0x00, 0x10, 0x00, 0x40, 
  0x80, 0x00, 0x01, 0x10, 0x00, 0x04, 0x00, 0xA8, 0x10, 0x08, 0x40, 0x22, 
  0x09, 0x00, 0xA8, 0x00, 0x00, 0x00, 0x00, 0x02, 0x20, 0x00, 0x00, 0x00, 
  0x00, 0x40, 0x00, 0x00, 0x02, 0x00, 0x00, 0x20, 0x20, 0x00, 0x00, 0x00, 
  0x00, 0x00, 0x00, 0x00, 0x00, 0x80, 0x00, 0x10, 0x20, 0x00, 0x40, 0x00, 
  0x01, 0x00, 0x80, 0x20, 0x00, 0x81, 0x00, 0x81, 0x00, 0x01, 0x40, 0x10, 
  0x00, 0x00, 0x00, 0x00, 0x00, 0x00, 0x02, 0x00, 0x00, 0x2A, 0x01, 0x00, 
  0x00, 0x00, 0x08, 0x00, 0x18, 0x20, 0x00, 0x00, 0x08, 0x00, 0x00, 0x00, 
  0x00, 0x11, 0x00, 0x88, 0x00, 0x01, 0x02, 0x02, 0x00, 0x08, 0x84, 0x00, 
  0x45, 0x04, 0x42, 0x00, 0x00, 0x40, 0x01, 0x09, 0x00, 0x01, 0x00, 0x00, 
  0x04, 0x08, 0x40, 0x00, 0x00, 0x00, 0x04, 0x00, 0x00, 0x00, 0x00, 0x00, 
  0x00, 0x10, 0x00, 0x02, 0x28, 0x00, 0x10, 0x40, 0x10, 0x00, 0x00, 0x00, 
  0x00, 0x80, 0x00, 0x00, 0x40, 0x00, 0x82, 0x80, 0x00, 0x00, 0x00, 0x09, 
  0x00, 0x00, 0x00, 0x00, 0x08, 0x81, 0x08, 0x00, 0x08, 0x00, 0x00, 0x00, 
  0x00, 0x00, 0x00, 0x00, 0x00, 0x04, 0x00, 0x00, 0x00, 0x40, 0x00, 0x50, 
  0x00, 0x00, 0x00, 0x00, 0x00, 0x00, 0x40, 0x00, 0x01, 0x02, 0x00, 0x10, 
  0x80, 0x40, 0x00, 0x88, 0x00, 0x02, 0x40, 0x44, 0x00, 0x00, 0x00, 0x40, 
  0x00, 0x40, 0x00, 0x00, 0x10, 0x88, 0x00, 0x00, 0x00, 0x00, 0x02, 0x08, 
  0x00, 0x00, 0x00, 0x11, 0x00, 0x00, 0x40, 0x04, 0x00, 0x80, 0x80, 0x00, 
  0x00, 0x00, 0x00, 0x00, 0x20, 0x82, 0x00, 0x01, 0x00, 0x00, 0x00, 0x80, 
  0x04, 0x20, 0x00, 0x10, 0x01, 0x00, 0x21, 0x02, 0x00, 0x00, 0x40, 0x00, 
  0x81, 0x00, 0x00, 0x00, 0x00, 0x00, 0x00, 0x88, 0x00, 0x00, 0x02, 0x00, 
  0x00, 0x00, 0x00, 0x00, 0x20, 0x00, 0x00, 0x80, 0x00, 0x08, 0x00, 0x00, 
  0x00, 0x00, 0x00, 0x00, 0x02, 0x80, 0x60, 0x00, 0x00, 0x00, 0x00, 0x01, 
  0x10, 0x00, 0x00, 0x18, 0x00, 0x08, 0x00, 0x00, 0x00, 0x00, 0x40, 0x00, 
  0x00, 0x00, 0x00, 0x00, 0x20, 0x04, 0x00, 0x00, 0x00, 0x04, 0x00, 0x00, 
  0x00, 0x00, 0x00, 0x00, 0x10, 0x11, 0x00, 0x00, 0x00, 0x08, 0x00, 0x20, 
  0x00, 0x00, 0x00, 0x00, 0x90, 0x00, 0x00, 0x40, 0x10, 0x00, 0x00, 0x04, 
  0x04, 0x00, 0x00, 0x00, 0x02, 0x40, 0x00, 0x00, 0x00, 0x80, 0x01, 0x10, 
  0x00, 0x00, 0x10, 0x04, 0x00, 0x00, 0x02, 0x00, 0x04, 0x09, 0x82, 0x20, 
  0x00, 0x00, 0x00, 0x00, 0x00, 0x00, 0x00, 0x00, 0x00, 0x10, 0x80, 0x80, 
  0x00, 0x00, 0x00, 0x01, 0x40, 0x00, 0x08, 0x00, 0x02, 0x01, 0x01, 0x00, 
  0x00, 0x00, 0x00, 0x82, 0x08, 0x00, 0x00, 0x00, 0x01, 0x00, 0x01, 0x10, 
  0x00, 0x00, 0x80, 0xA0, 0x00, 0x01, 0x00, 0x00, 0x00, 0x10, 0x20, 0x02, 
  0x00, 0x40, 0x00, 0x20, 0x00, 0x00, 0x81, 0x00, 0x00, 0x00, 0x00, 0x00, 
  0x44, 0x04, 0x00, 0x00, 0x00, 0x00, 0x00, 0x00, 0x10, 0x00, 0x00, 0x00, 
  0x0C, 0x00, 0x00, 0x10, 0x00, 0x01, 0x00, 0x01, 0x00, 0x00, 0x02, 0x04, 
  0x00, 0x00, 0x00, 0x04, 0x00, 0x00, 0x20, 0x00, 0x00, 0x00, 0x00, 0x00, 
  0x00, 0x80, 0x40, 0x00, 0x04, 0x00, 0x04, 0x00, 0x40, 0x00, 0x00, 0x00, 
  0x00, 0x01, 0x00, 0x00, 0x00, 0x04, 0x00, 0x20, 0x10, 0x00, 0x00, 0x20, 
  0x15, 0x40, 0x00, 0x00, 0x01, 0x00, 0x00, 0x02, };
