/* XPM */
static char * minp_xpm[] = {
"16 14 6 1",
" 	c None",
".	c #000000",
"+	c #808080",
"@	c #FFFFFF",
"#	c #C0C0C0",
"$	c #DFDFDF",
"................",
".++++++++++++++@",
".+############$@",
".+############$@",
".+############$@",
".+############$@",
".+############$@",
".+############$@",
".+############$@",
".+##......####$@",
".+##......####$@",
".+############$@",
".+$$$$$$$$$$$$$@",
".@@@@@@@@@@@@@@@"};
