/* XPM */
static char * stick_xpm[] = {
"16 14 6 1",
" 	c None",
".	c #FFFFFF",
"+	c #000000",
"@	c #DFDFDF",
"#	c #808080",
"$	c #C0C0C0",
"...............+",
".@@@@@@@@@@@@@#+",
".@$$$$$$$$$$$$#+",
".@$$$$$$$$$$$$#+",
".@$$$$$$$$$$$$#+",
".@$$$$$$$$$$$$#+",
".@$$$$$++$$$$$#+",
".@$$$$$++$$$$$#+",
".@$$$$$$$$$$$$#+",
".@$$$$$$$$$$$$#+",
".@$$$$$$$$$$$$#+",
".@$$$$$$$$$$$$#+",
".##############+",
"++++++++++++++++"};
