<?xml version="1.0" encoding="UTF-8" standalone="no"?> <svg xmlns="http://www.w3.org/2000/svg" viewBox="0 0 64 64"><defs><style>.cls-1,.cls-7{fill:none;}.cls-1{stroke:#999;}.cls-1,.cls-2,.cls-4,.cls-6,.cls-7{stroke-linecap:round;stroke-linejoin:round;stroke-width:2px;}.cls-2{fill:#ffd578;}.cls-2,.cls-4,.cls-6,.cls-7{stroke:#54596e;}.cls-3,.cls-5{fill:#54596e;}.cls-3{opacity:0.15;}.cls-4{fill:#f4a14e;}.cls-6{fill:#a1b7ff;}</style></defs><title>airbaloon</title><g id="airbaloon"><line class="cls-1" x1="23" y1="45" x2="25" y2="53"/><line class="cls-1" x1="37" y1="45" x2="35" y2="53"/><path class="cls-2" d="M41.92,45C47.41,39,51,29.82,51,22.49A21.25,21.25,0,0,0,30,1,21.25,21.25,0,0,0,9,22.49C9,29.82,12.59,39,18.08,45Z"/><path class="cls-3" d="M41.92,40H18.08A36.86,36.86,0,0,1,9.14,20.06,22.14,22.14,0,0,0,9,22.49C9,29.82,12.59,39,18.08,45H41.92C47.41,39,51,29.82,51,22.49a22.14,22.14,0,0,0-.14-2.43A36.86,36.86,0,0,1,41.92,40Z"/><path class="cls-4" d="M36.25,45C39.12,39,41,29.82,41,22.49,41,10.62,36.08,1,30,1S19,10.62,19,22.49C19,29.82,20.88,39,23.75,45Z"/><ellipse class="cls-5" cx="30" cy="33" rx="3" ry="5"/><circle class="cls-5" cx="14" cy="22" r="2"/><circle class="cls-5" cx="46" cy="22" r="2"/><polygon class="cls-6" points="35 62 25 62 24 53 36 53 35 62"/><line class="cls-7" x1="22" y1="53" x2="38" y2="53"/></g></svg>