<?xml version="1.0" encoding="UTF-8" standalone="no"?> <svg xmlns="http://www.w3.org/2000/svg" viewBox="0 0 64 64"><defs><style>.cls-1{fill:#999;}.cls-1,.cls-3,.cls-4,.cls-5,.cls-6{stroke:#54596e;stroke-width:2px;}.cls-1,.cls-3,.cls-4{stroke-linecap:round;stroke-linejoin:round;}.cls-2{fill:#54596e;opacity:0.15;}.cls-3{fill:#f99;}.cls-4,.cls-6{fill:none;}.cls-5{fill:#ff927d;}.cls-5,.cls-6{stroke-miterlimit:10;}</style></defs><title>media</title><g id="media"><rect class="cls-1" x="3" y="16" width="58" height="34"/><rect class="cls-2" x="4" y="45" width="56" height="4"/><polygon class="cls-3" points="32 45 22 55 42 55 32 45"/><path class="cls-4" d="M41,24.5a2,2,0,0,1,4,0"/><path class="cls-4" d="M19,24.5a2,2,0,0,1,4,0"/><path class="cls-5" d="M29,31h6a0,0,0,0,1,0,0v6a3,3,0,0,1-3,3h0a3,3,0,0,1-3-3V31a0,0,0,0,1,0,0Z"/><line class="cls-6" x1="32" y1="34" x2="32" y2="31"/><line class="cls-6" x1="39" y1="31" x2="25" y2="31"/></g></svg>