<?xml version="1.0" encoding="UTF-8" standalone="no"?> <svg xmlns="http://www.w3.org/2000/svg" viewBox="0 0 64 64"><defs><style>.cls-1{fill:#ffd578;}.cls-1,.cls-2,.cls-4,.cls-5{stroke:#54596e;}.cls-1,.cls-2,.cls-4,.cls-5,.cls-6{stroke-linecap:round;stroke-linejoin:round;stroke-width:2px;}.cls-2{fill:#fff;}.cls-3{fill:#54596e;}.cls-4,.cls-6{fill:none;}.cls-5{fill:#55a6ff;}.cls-6{stroke:#fff;}</style></defs><title>monkey-science</title><g id="monkey-science"><circle class="cls-1" cx="53" cy="22" r="9"/><circle class="cls-1" cx="11" cy="22" r="9"/><path class="cls-2" d="M29,4h6A19,19,0,0,1,54,23V36A22,22,0,0,1,32,58h0A22,22,0,0,1,10,36V23A19,19,0,0,1,29,4Z"/><path class="cls-1" d="M43.1,34.45a6.5,6.5,0,1,0-9-7.25,11.46,11.46,0,0,0-4.26,0,6.5,6.5,0,1,0-9,7.25c-.11.26-.19.53-.28.8a15,15,0,1,0,22.77,0C43.3,35,43.21,34.71,43.1,34.45Z"/><circle class="cls-3" cx="23.5" cy="28.5" r="1.5"/><circle class="cls-3" cx="40.5" cy="28.5" r="1.5"/><ellipse class="cls-3" cx="29.5" cy="38" rx="1.5" ry="2"/><ellipse class="cls-3" cx="34.5" cy="38" rx="1.5" ry="2"/><path class="cls-4" d="M25,38h0a4,4,0,0,1,4-4h6a4,4,0,0,1,4,4"/><circle class="cls-5" cx="40.5" cy="28.5" r="6.5"/><line class="cls-6" x1="40" y1="25" x2="37" y2="28"/><line class="cls-4" x1="25" y1="50" x2="39" y2="50"/></g></svg>