<?xml version="1.0" encoding="UTF-8" standalone="no"?> <svg xmlns="http://www.w3.org/2000/svg" viewBox="0 0 64 64"><defs><style>.cls-1{fill:#ffb8f2;}.cls-1,.cls-2{stroke:#54596e;stroke-linecap:round;stroke-linejoin:round;stroke-width:2px;}.cls-2,.cls-4{fill:#fff;}.cls-3{fill:#d8d8d8;}.cls-5{fill:#54596e;}</style></defs><title>octopus-stressed</title><g id="octopus-stressed"><path class="cls-1" d="M14.36,57H12a3,3,0,0,1,0-6h2.36A5.65,5.65,0,0,0,20,45.36V40a3,3,0,0,1,6,0v5.36A11.65,11.65,0,0,1,14.36,57Z"/><path class="cls-1" d="M34,63a3,3,0,0,1-3-3V40a3,3,0,0,1,6,0V60A3,3,0,0,1,34,63Z"/><path class="cls-1" d="M34,4h0A19,19,0,0,1,53,23V36.8A2.2,2.2,0,0,1,50.8,39H17.2A2.2,2.2,0,0,1,15,36.8V23A19,19,0,0,1,34,4Z"/><path class="cls-1" d="M48,34V50.36A5.65,5.65,0,0,0,53.64,56H56a3,3,0,0,1,0,6H53.64A11.65,11.65,0,0,1,42,50.36V38"/><path class="cls-1" d="M19,33H7a3,3,0,0,0-3,3H4a3,3,0,0,0,3,3H19"/><circle class="cls-2" cx="40.5" cy="19.5" r="5.5"/><circle class="cls-2" cx="27.5" cy="19.5" r="5.5"/><circle class="cls-3" cx="58.75" cy="9.25" r="1.75"/><circle class="cls-3" cx="61.75" cy="15.25" r="1.75"/><circle class="cls-3" cx="57.75" cy="28.25" r="2.25"/><circle class="cls-3" cx="11" cy="24" r="1.5"/><circle class="cls-4" cx="20.5" cy="27.5" r="1.5"/><circle class="cls-4" cx="39" cy="10" r="2"/><circle class="cls-3" cx="6.5" cy="13.5" r="2"/><circle class="cls-5" cx="28.5" cy="19.5" r="1.5"/><circle class="cls-5" cx="41.5" cy="19.5" r="1.5"/><ellipse class="cls-5" cx="36" cy="33" rx="1" ry="2"/><ellipse class="cls-5" cx="32" cy="33" rx="1" ry="2"/></g></svg>